# Blender 4.2.0
# www.blender.org
mtllib ButtonsSide_ButtonB_0.mtl
o ButtonsSide_ButtonB_0
v -0.008005 -0.053169 -0.069377
v -0.009857 -0.052813 -0.072666
v -0.008998 -0.052328 -0.073101
v -0.007094 -0.052658 -0.069837
v -0.005608 -0.051112 -0.070579
v -0.007544 -0.050897 -0.073812
v -0.007004 -0.049985 -0.074063
v -0.005089 -0.050136 -0.070831
v -0.006629 -0.048974 -0.074227
v -0.004749 -0.049074 -0.070991
v -0.006439 -0.047902 -0.074294
v -0.004599 -0.047966 -0.071051
v -0.006454 -0.046814 -0.074259
v -0.004646 -0.046855 -0.071010
v -0.006675 -0.045758 -0.074122
v -0.004889 -0.045784 -0.070869
v -0.007093 -0.044782 -0.073890
v -0.005317 -0.044793 -0.070633
v -0.005317 -0.044793 -0.070633
v -0.007093 -0.044782 -0.073890
v -0.007691 -0.043930 -0.073574
v -0.005915 -0.043921 -0.070313
v -0.008440 -0.043240 -0.073186
v -0.006659 -0.043201 -0.069919
v -0.009308 -0.042748 -0.072747
v -0.007521 -0.042661 -0.069467
v -0.010250 -0.042468 -0.072276
v -0.008467 -0.042321 -0.068975
v -0.011220 -0.042398 -0.071792
v -0.009462 -0.042196 -0.068461
v -0.012180 -0.042530 -0.071313
v -0.010467 -0.042289 -0.067945
v -0.013097 -0.042857 -0.070857
v -0.011443 -0.042597 -0.067447
v -0.013945 -0.043353 -0.070435
v -0.012353 -0.043108 -0.066986
v -0.014702 -0.044000 -0.070056
v -0.013163 -0.043802 -0.066580
v -0.015349 -0.044783 -0.069729
v -0.013840 -0.044654 -0.066245
v -0.015861 -0.045685 -0.069468
v -0.014359 -0.045629 -0.065992
v -0.016215 -0.046682 -0.069287
v -0.014699 -0.046691 -0.065833
v -0.016390 -0.047741 -0.069198
v -0.014849 -0.047799 -0.065773
v -0.016370 -0.048818 -0.069211
v -0.014802 -0.048910 -0.065814
v -0.016150 -0.049867 -0.069331
v -0.014559 -0.049982 -0.065955
v -0.015740 -0.050838 -0.069552
v -0.014131 -0.050973 -0.066190
v -0.015158 -0.051687 -0.069866
v -0.013533 -0.051845 -0.066511
v -0.014429 -0.052376 -0.070258
v -0.012789 -0.052565 -0.066905
v -0.013589 -0.052875 -0.070709
v -0.011927 -0.053105 -0.067357
v -0.012674 -0.053168 -0.071197
v -0.010981 -0.053444 -0.067849
v -0.011723 -0.053250 -0.071699
v -0.009986 -0.053570 -0.068363
v -0.010774 -0.053126 -0.072194
v -0.008981 -0.053477 -0.068879
v -0.008218 -0.051684 -0.073487
v -0.006285 -0.051963 -0.070243
v -0.009711 -0.051812 -0.073755
v -0.009015 -0.051244 -0.074103
v -0.009015 -0.051244 -0.074103
v -0.009711 -0.051812 -0.073755
v -0.010489 -0.050918 -0.074000
v -0.009948 -0.050472 -0.074274
v -0.011181 -0.049914 -0.073927
v -0.010814 -0.049605 -0.074112
v -0.011635 -0.049152 -0.073747
v -0.011400 -0.048949 -0.073866
v -0.008409 -0.050550 -0.074407
v -0.008409 -0.050550 -0.074407
v -0.009477 -0.049930 -0.074515
v -0.010502 -0.049227 -0.074271
v -0.011202 -0.048701 -0.073964
v -0.007916 -0.049742 -0.074652
v -0.007916 -0.049742 -0.074652
v -0.009096 -0.049299 -0.074713
v -0.010255 -0.048792 -0.074396
v -0.011051 -0.048417 -0.074037
v -0.007565 -0.048839 -0.074823
v -0.007565 -0.048839 -0.074823
v -0.008823 -0.048594 -0.074856
v -0.010086 -0.048312 -0.074482
v -0.010952 -0.048107 -0.074084
v -0.007380 -0.047873 -0.074908
v -0.007380 -0.047873 -0.074908
v -0.008680 -0.047839 -0.074932
v -0.010004 -0.047805 -0.074524
v -0.010908 -0.047784 -0.074101
v -0.007382 -0.046884 -0.074895
v -0.007382 -0.046884 -0.074895
v -0.008680 -0.047064 -0.074931
v -0.010014 -0.047289 -0.074516
v -0.010922 -0.047460 -0.074089
v -0.007576 -0.045920 -0.074783
v -0.007576 -0.045920 -0.074783
v -0.008831 -0.046307 -0.074849
v -0.010120 -0.046789 -0.074457
v -0.010993 -0.047148 -0.074048
v -0.007956 -0.045030 -0.074575
v -0.007956 -0.045030 -0.074575
v -0.009129 -0.045609 -0.074688
v -0.010318 -0.046326 -0.074349
v -0.011117 -0.046859 -0.073979
v -0.007956 -0.045030 -0.074575
v -0.008504 -0.044258 -0.074281
v -0.008504 -0.044258 -0.074281
v -0.009559 -0.045005 -0.074455
v -0.010600 -0.045923 -0.074197
v -0.011292 -0.046605 -0.073886
v -0.009191 -0.043645 -0.073917
v -0.009191 -0.043645 -0.073917
v -0.010097 -0.044527 -0.074163
v -0.010951 -0.045597 -0.074007
v -0.011509 -0.046395 -0.073771
v -0.009981 -0.043219 -0.073502
v -0.009981 -0.043219 -0.073502
v -0.010712 -0.044194 -0.073830
v -0.011355 -0.045361 -0.073790
v -0.011760 -0.046238 -0.073639
v -0.010831 -0.042992 -0.073059
v -0.010831 -0.042992 -0.073059
v -0.011372 -0.044014 -0.073474
v -0.011793 -0.045223 -0.073556
v -0.012036 -0.046139 -0.073496
v -0.011696 -0.042949 -0.072609
v -0.011696 -0.042949 -0.072609
v -0.012046 -0.043985 -0.073114
v -0.012247 -0.045184 -0.073316
v -0.012326 -0.046102 -0.073346
v -0.012547 -0.043086 -0.072169
v -0.012547 -0.043086 -0.072169
v -0.012708 -0.044095 -0.072764
v -0.012700 -0.045242 -0.073078
v -0.012618 -0.046130 -0.073196
v -0.013356 -0.043390 -0.071757
v -0.013356 -0.043390 -0.071757
v -0.013339 -0.044331 -0.072435
v -0.013136 -0.045391 -0.072852
v -0.012903 -0.046219 -0.073051
v -0.014105 -0.043835 -0.071379
v -0.014105 -0.043835 -0.071379
v -0.013924 -0.044678 -0.072137
v -0.013542 -0.045625 -0.072646
v -0.013168 -0.046368 -0.072916
v -0.014779 -0.044408 -0.071044
v -0.014779 -0.044408 -0.071044
v -0.014453 -0.045126 -0.071875
v -0.013907 -0.045934 -0.072464
v -0.013404 -0.046571 -0.072798
v -0.015363 -0.045098 -0.070759
v -0.015363 -0.045098 -0.070759
v -0.014913 -0.045666 -0.071655
v -0.014218 -0.046312 -0.072313
v -0.013601 -0.046819 -0.072700
v -0.015836 -0.045895 -0.070533
v -0.015836 -0.045895 -0.070533
v -0.015286 -0.046290 -0.071484
v -0.014464 -0.046746 -0.072199
v -0.013753 -0.047103 -0.072627
v -0.016174 -0.046780 -0.070378
v -0.016174 -0.046780 -0.070378
v -0.015555 -0.046983 -0.071370
v -0.014634 -0.047223 -0.072125
v -0.013852 -0.047413 -0.072580
v -0.016354 -0.047727 -0.070305
v -0.016354 -0.047727 -0.070305
v -0.015701 -0.047725 -0.071320
v -0.014719 -0.047728 -0.072095
v -0.013896 -0.047736 -0.072563
v -0.016356 -0.048698 -0.070322
v -0.016356 -0.048698 -0.070322
v -0.015707 -0.048485 -0.071340
v -0.014711 -0.048240 -0.072112
v -0.013882 -0.048059 -0.072575
v -0.016173 -0.049648 -0.070433
v -0.016173 -0.049648 -0.070433
v -0.015568 -0.049230 -0.071431
v -0.014609 -0.048738 -0.072176
v -0.013811 -0.048372 -0.072616
v -0.015809 -0.050529 -0.070634
v -0.015809 -0.050529 -0.070634
v -0.015284 -0.049921 -0.071590
v -0.014415 -0.049198 -0.072284
v -0.013686 -0.048660 -0.072684
v -0.015280 -0.051297 -0.070916
v -0.015280 -0.051297 -0.070916
v -0.014868 -0.050523 -0.071811
v -0.014137 -0.049601 -0.072433
v -0.013512 -0.048915 -0.072778
v -0.014613 -0.051914 -0.071265
v -0.014613 -0.051914 -0.071265
v -0.014342 -0.051005 -0.072081
v -0.013787 -0.049928 -0.072614
v -0.013295 -0.049125 -0.072893
v -0.013843 -0.052353 -0.071664
v -0.013843 -0.052353 -0.071664
v -0.013734 -0.051347 -0.072388
v -0.013383 -0.050166 -0.072820
v -0.013044 -0.049282 -0.073024
v -0.013009 -0.052601 -0.072091
v -0.013009 -0.052601 -0.072091
v -0.013077 -0.051539 -0.072716
v -0.012943 -0.050307 -0.073042
v -0.012768 -0.049381 -0.073168
v -0.012148 -0.052658 -0.072528
v -0.012148 -0.052658 -0.072528
v -0.012399 -0.051582 -0.073051
v -0.012486 -0.050349 -0.073272
v -0.012478 -0.049417 -0.073318
v -0.011296 -0.052534 -0.072958
v -0.011296 -0.052534 -0.072958
v -0.011729 -0.051484 -0.073382
v -0.012030 -0.050294 -0.073500
v -0.012185 -0.049390 -0.073468
v -0.010477 -0.052247 -0.073370
v -0.010477 -0.052247 -0.073370
v -0.011088 -0.051258 -0.073700
v -0.011590 -0.050146 -0.073721
v -0.011901 -0.049301 -0.073613
vn 0.2789 -0.9257 -0.2556
vn 0.1585 -0.8750 -0.4574
vn 0.2889 -0.7994 -0.5268
vn 0.4219 -0.8446 -0.3298
vn 0.6678 -0.6011 -0.4390
vn 0.5204 -0.5775 -0.6291
vn 0.6154 -0.4287 -0.6614
vn 0.7632 -0.4405 -0.4728
vn 0.6874 -0.2563 -0.6796
vn 0.8317 -0.2583 -0.4916
vn 0.7287 -0.0653 -0.6818
vn 0.8672 -0.0605 -0.4943
vn 0.7323 0.1356 -0.6673
vn 0.8650 0.1443 -0.4805
vn 0.6954 0.3342 -0.6362
vn 0.8234 0.3453 -0.4504
vn 0.6181 0.5194 -0.5900
vn 0.7437 0.5319 -0.4049
vn 0.7435 0.5323 -0.4047
vn 0.6181 0.5195 -0.5899
vn 0.5045 0.6806 -0.5312
vn 0.6295 0.6958 -0.3458
vn 0.3603 0.8100 -0.4627
vn 0.4856 0.8294 -0.2761
vn 0.1952 0.9003 -0.3891
vn 0.3206 0.9258 -0.2003
vn 0.0241 0.9487 -0.3152
vn 0.1461 0.9817 -0.1225
vn -0.1443 0.9594 -0.2424
vn -0.0292 0.9986 -0.0446
vn -0.3072 0.9363 -0.1703
vn -0.2011 0.9790 0.0326
vn -0.4575 0.8833 -0.1025
vn -0.3625 0.9259 0.1064
vn -0.5911 0.8057 -0.0382
vn -0.5074 0.8437 0.1756
vn -0.7086 0.7053 0.0232
vn -0.6350 0.7340 0.2409
vn -0.8098 0.5810 0.0814
vn -0.7427 0.5985 0.3004
vn -0.8918 0.4324 0.1330
vn -0.8273 0.4386 0.3511
vn -0.9495 0.2614 0.1735
vn -0.8844 0.2580 0.3889
vn -0.9775 0.0727 0.1980
vn -0.9100 0.0621 0.4100
vn -0.9712 -0.1257 0.2022
vn -0.9006 -0.1412 0.4111
vn -0.9284 -0.3227 0.1841
vn -0.8550 -0.3413 0.3905
vn -0.8502 -0.5066 0.1432
vn -0.7743 -0.5282 0.3486
vn -0.7399 -0.6678 0.0811
vn -0.6624 -0.6919 0.2872
vn -0.6046 -0.7965 0.0014
vn -0.5248 -0.8251 0.2093
vn -0.4525 -0.8871 -0.0906
vn -0.3692 -0.9217 0.1192
vn -0.2928 -0.9374 -0.1884
vn -0.2040 -0.9787 0.0222
vn -0.1341 -0.9490 -0.2854
vn -0.0370 -0.9964 -0.0760
vn 0.0172 -0.9263 -0.3764
vn 0.1254 -0.9774 -0.1701
vn 0.4103 -0.7005 -0.5839
vn 0.5524 -0.7361 -0.3911
vn -0.0156 -0.5748 -0.8182
vn 0.0661 -0.5081 -0.8587
vn 0.0657 -0.5078 -0.8590
vn -0.0160 -0.5744 -0.8184
vn -0.2600 -0.2944 -0.9196
vn -0.2220 -0.2608 -0.9395
vn -0.3856 -0.1102 -0.9161
vn -0.3718 -0.0960 -0.9233
vn -0.4415 -0.0157 -0.8971
vn -0.4383 -0.0119 -0.8987
vn 0.1427 -0.4255 -0.8936
vn 0.1422 -0.4252 -0.8939
vn -0.1889 -0.2175 -0.9576
vn -0.3619 -0.0773 -0.9290
vn -0.4367 -0.0071 -0.8996
vn 0.2121 -0.3233 -0.9222
vn 0.2115 -0.3231 -0.9224
vn -0.1614 -0.1649 -0.9730
vn -0.3562 -0.0558 -0.9328
vn -0.4366 -0.0018 -0.8997
vn 0.2682 -0.2001 -0.9424
vn 0.2677 -0.2000 -0.9425
vn -0.1412 -0.1023 -0.9847
vn -0.3542 -0.0310 -0.9347
vn -0.4375 0.0034 -0.8992
vn 0.3041 -0.0585 -0.9509
vn 0.3035 -0.0584 -0.9510
vn -0.1307 -0.0318 -0.9909
vn -0.3558 -0.0058 -0.9345
vn -0.4391 0.0086 -0.8984
vn 0.3118 0.0952 -0.9454
vn 0.3112 0.0951 -0.9456
vn -0.1324 0.0439 -0.9902
vn -0.3607 0.0195 -0.9325
vn -0.4414 0.0133 -0.8972
vn 0.2869 0.2504 -0.9247
vn 0.2864 0.2503 -0.9249
vn -0.1479 0.1206 -0.9816
vn -0.3685 0.0443 -0.9286
vn -0.4437 0.0178 -0.8960
vn 0.2285 0.3959 -0.8894
vn 0.2279 0.3957 -0.8896
vn -0.1776 0.1932 -0.9650
vn -0.3790 0.0680 -0.9229
vn -0.4458 0.0219 -0.8949
vn 0.2284 0.3960 -0.8894
vn 0.1399 0.5212 -0.8419
vn 0.1394 0.5210 -0.8421
vn -0.2202 0.2573 -0.9409
vn -0.3920 0.0901 -0.9155
vn -0.4478 0.0260 -0.8938
vn 0.0276 0.6192 -0.7848
vn 0.0272 0.6188 -0.7850
vn -0.2721 0.3091 -0.9113
vn -0.4074 0.1102 -0.9066
vn -0.4501 0.0304 -0.8925
vn -0.0988 0.6838 -0.7229
vn -0.0991 0.6835 -0.7232
vn -0.3303 0.3470 -0.8778
vn -0.4254 0.1276 -0.8960
vn -0.4530 0.0349 -0.8908
vn -0.2262 0.7143 -0.6623
vn -0.2265 0.7139 -0.6626
vn -0.3902 0.3695 -0.8433
vn -0.4446 0.1413 -0.8845
vn -0.4562 0.0392 -0.8890
vn -0.3478 0.7170 -0.6041
vn -0.3479 0.7166 -0.6045
vn -0.4490 0.3775 -0.8099
vn -0.4654 0.1505 -0.8722
vn -0.4604 0.0428 -0.8867
vn -0.4626 0.6960 -0.5491
vn -0.4627 0.6956 -0.5495
vn -0.5049 0.3729 -0.7785
vn -0.4858 0.1547 -0.8603
vn -0.4650 0.0450 -0.8841
vn -0.5661 0.6562 -0.4990
vn -0.5661 0.6558 -0.4994
vn -0.5563 0.3574 -0.7502
vn -0.5064 0.1522 -0.8487
vn -0.4696 0.0456 -0.8817
vn -0.6575 0.6023 -0.4528
vn -0.6574 0.6019 -0.4533
vn -0.6024 0.3327 -0.7256
vn -0.5244 0.1444 -0.8392
vn -0.4739 0.0440 -0.8795
vn -0.7400 0.5338 -0.4092
vn -0.7400 0.5335 -0.4097
vn -0.6440 0.2980 -0.7046
vn -0.5401 0.1298 -0.8315
vn -0.4775 0.0396 -0.8777
vn -0.8143 0.4486 -0.3683
vn -0.8142 0.4483 -0.3688
vn -0.6810 0.2529 -0.6872
vn -0.5521 0.1099 -0.8265
vn -0.4792 0.0352 -0.8770
vn -0.8785 0.3440 -0.3316
vn -0.8783 0.3438 -0.3321
vn -0.7118 0.1971 -0.6741
vn -0.5597 0.0866 -0.8242
vn -0.4796 0.0295 -0.8770
vn -0.9275 0.2196 -0.3025
vn -0.9274 0.2195 -0.3030
vn -0.7343 0.1315 -0.6660
vn -0.5629 0.0601 -0.8243
vn -0.4787 0.0236 -0.8777
vn -0.9553 0.0779 -0.2850
vn -0.9552 0.0779 -0.2856
vn -0.7457 0.0582 -0.6638
vn -0.5619 0.0339 -0.8265
vn -0.4770 0.0184 -0.8787
vn -0.9563 -0.0747 -0.2827
vn -0.9561 -0.0747 -0.2833
vn -0.7437 -0.0195 -0.6683
vn -0.5566 0.0066 -0.8308
vn -0.4746 0.0135 -0.8801
vn -0.9268 -0.2285 -0.2980
vn -0.9267 -0.2284 -0.2985
vn -0.7267 -0.0974 -0.6800
vn -0.5478 -0.0189 -0.8364
vn -0.4722 0.0090 -0.8815
vn -0.8668 -0.3728 -0.3313
vn -0.8666 -0.3726 -0.3319
vn -0.6950 -0.1702 -0.6986
vn -0.5359 -0.0428 -0.8432
vn -0.4696 0.0048 -0.8829
vn -0.7794 -0.4972 -0.3812
vn -0.7794 -0.4969 -0.3817
vn -0.6485 -0.2340 -0.7243
vn -0.5212 -0.0645 -0.8510
vn -0.4674 0.0009 -0.8840
vn -0.6713 -0.5937 -0.4437
vn -0.6713 -0.5933 -0.4442
vn -0.5939 -0.2838 -0.7528
vn -0.5040 -0.0835 -0.8596
vn -0.4650 -0.0032 -0.8853
vn -0.5511 -0.6575 -0.5139
vn -0.5511 -0.6571 -0.5143
vn -0.5325 -0.3186 -0.7842
vn -0.4849 -0.0994 -0.8689
vn -0.4621 -0.0075 -0.8868
vn -0.4278 -0.6882 -0.5860
vn -0.4279 -0.6878 -0.5864
vn -0.4695 -0.3381 -0.8157
vn -0.4641 -0.1115 -0.8788
vn -0.4586 -0.0116 -0.8886
vn -0.3094 -0.6896 -0.6547
vn -0.3096 -0.6892 -0.6551
vn -0.4087 -0.3434 -0.8456
vn -0.4432 -0.1193 -0.8885
vn -0.4545 -0.0149 -0.8906
vn -0.2011 -0.6675 -0.7170
vn -0.2014 -0.6671 -0.7173
vn -0.3530 -0.3365 -0.8730
vn -0.4218 -0.1216 -0.8985
vn -0.4501 -0.0170 -0.8928
vn -0.1038 -0.6279 -0.7713
vn -0.1041 -0.6275 -0.7716
vn -0.3033 -0.3195 -0.8978
vn -0.4027 -0.1190 -0.9076
vn -0.4457 -0.0175 -0.8950
s 1
usemtl ButtonE
f 1//1 2//2 3//3
f 1//1 3//3 4//4
f 5//5 6//6 7//7
f 5//5 7//7 8//8
f 8//8 7//7 9//9
f 8//8 9//9 10//10
f 10//10 9//9 11//11
f 10//10 11//11 12//12
f 12//12 11//11 13//13
f 12//12 13//13 14//14
f 14//14 13//13 15//15
f 14//14 15//15 16//16
f 16//16 15//15 17//17
f 16//16 17//17 18//18
f 19//19 20//20 21//21
f 19//19 21//21 22//22
f 22//22 21//21 23//23
f 22//22 23//23 24//24
f 24//24 23//23 25//25
f 24//24 25//25 26//26
f 26//26 25//25 27//27
f 26//26 27//27 28//28
f 28//28 27//27 29//29
f 28//28 29//29 30//30
f 30//30 29//29 31//31
f 30//30 31//31 32//32
f 32//32 31//31 33//33
f 32//32 33//33 34//34
f 34//34 33//33 35//35
f 34//34 35//35 36//36
f 36//36 35//35 37//37
f 36//36 37//37 38//38
f 38//38 37//37 39//39
f 38//38 39//39 40//40
f 40//40 39//39 41//41
f 40//40 41//41 42//42
f 42//42 41//41 43//43
f 42//42 43//43 44//44
f 44//44 43//43 45//45
f 44//44 45//45 46//46
f 46//46 45//45 47//47
f 46//46 47//47 48//48
f 48//48 47//47 49//49
f 48//48 49//49 50//50
f 50//50 49//49 51//51
f 50//50 51//51 52//52
f 52//52 51//51 53//53
f 52//52 53//53 54//54
f 54//54 53//53 55//55
f 54//54 55//55 56//56
f 56//56 55//55 57//57
f 56//56 57//57 58//58
f 58//58 57//57 59//59
f 58//58 59//59 60//60
f 60//60 59//59 61//61
f 60//60 61//61 62//62
f 62//62 61//61 63//63
f 62//62 63//63 64//64
f 64//64 63//63 2//2
f 64//64 2//2 1//1
f 4//4 3//3 65//65
f 4//4 65//65 66//66
f 66//66 65//65 6//6
f 66//66 6//6 5//5
f 65//65 3//3 67//67
f 65//65 67//67 68//68
f 69//69 70//70 71//71
f 69//69 71//71 72//72
f 72//72 71//71 73//73
f 72//72 73//73 74//74
f 74//74 73//73 75//75
f 74//74 75//75 76//76
f 6//6 65//65 68//68
f 6//6 68//68 77//77
f 78//78 69//69 72//72
f 78//78 72//72 79//79
f 79//79 72//72 74//74
f 79//79 74//74 80//80
f 80//80 74//74 76//76
f 80//80 76//76 81//81
f 7//7 6//6 77//77
f 7//7 77//77 82//82
f 83//83 78//78 79//79
f 83//83 79//79 84//84
f 84//84 79//79 80//80
f 84//84 80//80 85//85
f 85//85 80//80 81//81
f 85//85 81//81 86//86
f 9//9 7//7 82//82
f 9//9 82//82 87//87
f 88//88 83//83 84//84
f 88//88 84//84 89//89
f 89//89 84//84 85//85
f 89//89 85//85 90//90
f 90//90 85//85 86//86
f 90//90 86//86 91//91
f 11//11 9//9 87//87
f 11//11 87//87 92//92
f 93//93 88//88 89//89
f 93//93 89//89 94//94
f 94//94 89//89 90//90
f 94//94 90//90 95//95
f 95//95 90//90 91//91
f 95//95 91//91 96//96
f 13//13 11//11 92//92
f 13//13 92//92 97//97
f 98//98 93//93 94//94
f 98//98 94//94 99//99
f 99//99 94//94 95//95
f 99//99 95//95 100//100
f 100//100 95//95 96//96
f 100//100 96//96 101//101
f 15//15 13//13 97//97
f 15//15 97//97 102//102
f 103//103 98//98 99//99
f 103//103 99//99 104//104
f 104//104 99//99 100//100
f 104//104 100//100 105//105
f 105//105 100//100 101//101
f 105//105 101//101 106//106
f 17//17 15//15 102//102
f 17//17 102//102 107//107
f 108//108 103//103 104//104
f 108//108 104//104 109//109
f 109//109 104//104 105//105
f 109//109 105//105 110//110
f 110//110 105//105 106//106
f 110//110 106//106 111//111
f 21//21 20//20 112//112
f 21//21 112//112 113//113
f 114//114 108//108 109//109
f 114//114 109//109 115//115
f 115//115 109//109 110//110
f 115//115 110//110 116//116
f 116//116 110//110 111//111
f 116//116 111//111 117//117
f 23//23 21//21 113//113
f 23//23 113//113 118//118
f 119//119 114//114 115//115
f 119//119 115//115 120//120
f 120//120 115//115 116//116
f 120//120 116//116 121//121
f 121//121 116//116 117//117
f 121//121 117//117 122//122
f 25//25 23//23 118//118
f 25//25 118//118 123//123
f 124//124 119//119 120//120
f 124//124 120//120 125//125
f 125//125 120//120 121//121
f 125//125 121//121 126//126
f 126//126 121//121 122//122
f 126//126 122//122 127//127
f 27//27 25//25 123//123
f 27//27 123//123 128//128
f 129//129 124//124 125//125
f 129//129 125//125 130//130
f 130//130 125//125 126//126
f 130//130 126//126 131//131
f 131//131 126//126 127//127
f 131//131 127//127 132//132
f 29//29 27//27 128//128
f 29//29 128//128 133//133
f 134//134 129//129 130//130
f 134//134 130//130 135//135
f 135//135 130//130 131//131
f 135//135 131//131 136//136
f 136//136 131//131 132//132
f 136//136 132//132 137//137
f 31//31 29//29 133//133
f 31//31 133//133 138//138
f 139//139 134//134 135//135
f 139//139 135//135 140//140
f 140//140 135//135 136//136
f 140//140 136//136 141//141
f 141//141 136//136 137//137
f 141//141 137//137 142//142
f 33//33 31//31 138//138
f 33//33 138//138 143//143
f 144//144 139//139 140//140
f 144//144 140//140 145//145
f 145//145 140//140 141//141
f 145//145 141//141 146//146
f 146//146 141//141 142//142
f 146//146 142//142 147//147
f 35//35 33//33 143//143
f 35//35 143//143 148//148
f 149//149 144//144 145//145
f 149//149 145//145 150//150
f 150//150 145//145 146//146
f 150//150 146//146 151//151
f 151//151 146//146 147//147
f 151//151 147//147 152//152
f 37//37 35//35 148//148
f 37//37 148//148 153//153
f 154//154 149//149 150//150
f 154//154 150//150 155//155
f 155//155 150//150 151//151
f 155//155 151//151 156//156
f 156//156 151//151 152//152
f 156//156 152//152 157//157
f 39//39 37//37 153//153
f 39//39 153//153 158//158
f 159//159 154//154 155//155
f 159//159 155//155 160//160
f 160//160 155//155 156//156
f 160//160 156//156 161//161
f 161//161 156//156 157//157
f 161//161 157//157 162//162
f 41//41 39//39 158//158
f 41//41 158//158 163//163
f 164//164 159//159 160//160
f 164//164 160//160 165//165
f 165//165 160//160 161//161
f 165//165 161//161 166//166
f 166//166 161//161 162//162
f 166//166 162//162 167//167
f 43//43 41//41 163//163
f 43//43 163//163 168//168
f 169//169 164//164 165//165
f 169//169 165//165 170//170
f 170//170 165//165 166//166
f 170//170 166//166 171//171
f 171//171 166//166 167//167
f 171//171 167//167 172//172
f 45//45 43//43 168//168
f 45//45 168//168 173//173
f 174//174 169//169 170//170
f 174//174 170//170 175//175
f 175//175 170//170 171//171
f 175//175 171//171 176//176
f 176//176 171//171 172//172
f 176//176 172//172 177//177
f 47//47 45//45 173//173
f 47//47 173//173 178//178
f 179//179 174//174 175//175
f 179//179 175//175 180//180
f 180//180 175//175 176//176
f 180//180 176//176 181//181
f 181//181 176//176 177//177
f 181//181 177//177 182//182
f 49//49 47//47 178//178
f 49//49 178//178 183//183
f 184//184 179//179 180//180
f 184//184 180//180 185//185
f 185//185 180//180 181//181
f 185//185 181//181 186//186
f 186//186 181//181 182//182
f 186//186 182//182 187//187
f 51//51 49//49 183//183
f 51//51 183//183 188//188
f 189//189 184//184 185//185
f 189//189 185//185 190//190
f 190//190 185//185 186//186
f 190//190 186//186 191//191
f 191//191 186//186 187//187
f 191//191 187//187 192//192
f 53//53 51//51 188//188
f 53//53 188//188 193//193
f 194//194 189//189 190//190
f 194//194 190//190 195//195
f 195//195 190//190 191//191
f 195//195 191//191 196//196
f 196//196 191//191 192//192
f 196//196 192//192 197//197
f 55//55 53//53 193//193
f 55//55 193//193 198//198
f 199//199 194//194 195//195
f 199//199 195//195 200//200
f 200//200 195//195 196//196
f 200//200 196//196 201//201
f 201//201 196//196 197//197
f 201//201 197//197 202//202
f 57//57 55//55 198//198
f 57//57 198//198 203//203
f 204//204 199//199 200//200
f 204//204 200//200 205//205
f 205//205 200//200 201//201
f 205//205 201//201 206//206
f 206//206 201//201 202//202
f 206//206 202//202 207//207
f 59//59 57//57 203//203
f 59//59 203//203 208//208
f 209//209 204//204 205//205
f 209//209 205//205 210//210
f 210//210 205//205 206//206
f 210//210 206//206 211//211
f 211//211 206//206 207//207
f 211//211 207//207 212//212
f 61//61 59//59 208//208
f 61//61 208//208 213//213
f 214//214 209//209 210//210
f 214//214 210//210 215//215
f 215//215 210//210 211//211
f 215//215 211//211 216//216
f 216//216 211//211 212//212
f 216//216 212//212 217//217
f 63//63 61//61 213//213
f 63//63 213//213 218//218
f 219//219 214//214 215//215
f 219//219 215//215 220//220
f 220//220 215//215 216//216
f 220//220 216//216 221//221
f 221//221 216//216 217//217
f 221//221 217//217 222//222
f 2//2 63//63 218//218
f 2//2 218//218 223//223
f 224//224 219//219 220//220
f 224//224 220//220 225//225
f 225//225 220//220 221//221
f 225//225 221//221 226//226
f 226//226 221//221 222//222
f 226//226 222//222 227//227
f 3//3 2//2 223//223
f 3//3 223//223 67//67
f 70//70 224//224 225//225
f 70//70 225//225 71//71
f 71//71 225//225 226//226
f 71//71 226//226 73//73
f 73//73 226//226 227//227
f 73//73 227//227 75//75
f 172//172 182//182 177//177
f 182//182 172//172 187//187
f 187//187 172//172 167//167
f 187//187 167//167 192//192
f 192//192 167//167 162//162
f 192//192 162//162 197//197
f 197//197 162//162 157//157
f 197//197 157//157 202//202
f 202//202 157//157 152//152
f 202//202 152//152 207//207
f 207//207 152//152 147//147
f 207//207 147//147 212//212
f 212//212 147//147 142//142
f 212//212 142//142 217//217
f 217//217 142//142 137//137
f 217//217 137//137 222//222
f 222//222 137//137 132//132
f 222//222 132//132 227//227
f 227//227 132//132 127//127
f 227//227 127//127 75//75
f 75//75 127//127 122//122
f 75//75 122//122 76//76
f 76//76 122//122 117//117
f 76//76 117//117 81//81
f 81//81 117//117 111//111
f 81//81 111//111 86//86
f 86//86 111//111 106//106
f 86//86 106//106 91//91
f 91//91 106//106 101//101
f 91//91 101//101 96//96
