# Blender 4.2.0
# www.blender.org
mtllib ButtonsSide_ButtonC_001_0.mtl
o ButtonsSide_ButtonC_001_0
v -0.007830 -0.012851 -0.002131
v -0.008274 -0.013126 0.001335
v -0.007286 -0.013028 0.001470
v -0.006842 -0.012752 -0.001997
v -0.004897 -0.013139 -0.001778
v -0.005341 -0.013414 0.001688
v -0.004459 -0.013884 0.001764
v -0.004015 -0.013609 -0.001702
v -0.003684 -0.014517 0.001813
v -0.003240 -0.014242 -0.001653
v -0.003045 -0.015289 0.001834
v -0.002601 -0.015014 -0.001633
v -0.002567 -0.016170 0.001825
v -0.002123 -0.015895 -0.001641
v -0.002268 -0.017126 0.001787
v -0.001824 -0.016850 -0.001679
v -0.002160 -0.018120 0.001722
v -0.001715 -0.017845 -0.001744
v -0.002246 -0.019114 0.001632
v -0.001802 -0.018839 -0.001834
v -0.002525 -0.020071 0.001521
v -0.002080 -0.019795 -0.001946
v -0.002984 -0.020952 0.001392
v -0.002539 -0.020677 -0.002075
v -0.002539 -0.020677 -0.002075
v -0.002984 -0.020952 0.001392
v -0.003606 -0.021725 0.001251
v -0.003162 -0.021450 -0.002216
v -0.004367 -0.022360 0.001103
v -0.003923 -0.022084 -0.002364
v -0.005239 -0.022831 0.000953
v -0.004795 -0.022556 -0.002513
v -0.006187 -0.023122 0.000809
v -0.005743 -0.022847 -0.002658
v -0.007175 -0.023221 0.000674
v -0.006731 -0.022946 -0.002792
v -0.008166 -0.023124 0.000555
v -0.007721 -0.022849 -0.002911
v -0.009120 -0.022835 0.000456
v -0.008676 -0.022559 -0.003011
v -0.010002 -0.022364 0.000380
v -0.009558 -0.022089 -0.003086
v -0.010777 -0.021731 0.000331
v -0.010333 -0.021456 -0.003136
v -0.011416 -0.020959 0.000310
v -0.010972 -0.020684 -0.003156
v -0.011895 -0.020079 0.000319
v -0.011450 -0.019803 -0.003147
v -0.012193 -0.019123 0.000357
v -0.011749 -0.018847 -0.003110
v -0.012302 -0.018129 0.000422
v -0.011857 -0.017853 -0.003045
v -0.012215 -0.017134 0.000512
v -0.011771 -0.016859 -0.002955
v -0.011937 -0.016178 0.000623
v -0.011492 -0.015902 -0.002843
v -0.011478 -0.015296 0.000752
v -0.011033 -0.015021 -0.002714
v -0.010856 -0.014523 0.000893
v -0.010411 -0.014248 -0.002573
v -0.010094 -0.013889 0.001041
v -0.009650 -0.013613 -0.002425
v -0.009222 -0.013417 0.001191
v -0.008778 -0.013142 -0.002276
v -0.006296 -0.013125 0.001589
v -0.005851 -0.012849 -0.001877
v -0.007411 -0.013307 0.002449
v -0.006460 -0.013400 0.002564
v -0.007513 -0.013945 0.003248
v -0.006673 -0.014027 0.003349
v -0.006673 -0.014027 0.003349
v -0.007513 -0.013945 0.003248
v -0.007576 -0.014844 0.003745
v -0.006902 -0.014910 0.003826
v -0.007591 -0.015868 0.003864
v -0.007112 -0.015915 0.003922
v -0.005543 -0.013678 0.002659
v -0.005863 -0.014273 0.003434
v -0.005863 -0.014273 0.003434
v -0.006252 -0.015107 0.003894
v -0.006651 -0.016055 0.003970
v -0.004696 -0.014130 0.002732
v -0.005115 -0.014672 0.003498
v -0.005115 -0.014672 0.003498
v -0.005651 -0.015428 0.003945
v -0.006225 -0.016282 0.004006
v -0.003951 -0.014738 0.002779
v -0.004457 -0.015209 0.003539
v -0.004457 -0.015209 0.003539
v -0.005123 -0.015859 0.003979
v -0.005850 -0.016588 0.004030
v -0.003337 -0.015480 0.002799
v -0.003914 -0.015864 0.003557
v -0.003914 -0.015864 0.003557
v -0.004688 -0.016384 0.003993
v -0.005541 -0.016961 0.004040
v -0.002878 -0.016326 0.002790
v -0.003508 -0.016612 0.003550
v -0.003508 -0.016612 0.003550
v -0.004363 -0.016984 0.003987
v -0.005310 -0.017386 0.004036
v -0.002591 -0.017244 0.002754
v -0.003255 -0.017423 0.003518
v -0.003255 -0.017423 0.003518
v -0.004159 -0.017635 0.003961
v -0.005166 -0.017848 0.004018
v -0.002487 -0.018199 0.002692
v -0.003163 -0.018267 0.003462
v -0.003163 -0.018267 0.003462
v -0.004085 -0.018312 0.003917
v -0.005114 -0.018329 0.003986
v -0.002570 -0.019155 0.002605
v -0.003236 -0.019111 0.003386
v -0.003236 -0.019111 0.003386
v -0.004144 -0.018989 0.003856
v -0.005156 -0.018809 0.003943
v -0.002837 -0.020073 0.002498
v -0.003473 -0.019922 0.003291
v -0.003473 -0.019922 0.003291
v -0.004334 -0.019641 0.003780
v -0.005290 -0.019271 0.003889
v -0.003278 -0.020920 0.002374
v -0.003862 -0.020670 0.003182
v -0.003862 -0.020670 0.003182
v -0.004646 -0.020241 0.003692
v -0.005512 -0.019697 0.003827
v -0.003278 -0.020920 0.002374
v -0.003876 -0.021663 0.002239
v -0.003862 -0.020670 0.003182
v -0.004390 -0.021326 0.003062
v -0.004390 -0.021326 0.003062
v -0.005070 -0.020767 0.003596
v -0.005812 -0.020071 0.003758
v -0.004608 -0.022272 0.002096
v -0.005037 -0.021865 0.002936
v -0.005037 -0.021865 0.002936
v -0.005589 -0.021199 0.003495
v -0.006180 -0.020377 0.003687
v -0.005445 -0.022725 0.001953
v -0.005776 -0.022265 0.002810
v -0.005776 -0.022265 0.002810
v -0.006182 -0.021521 0.003393
v -0.006602 -0.020605 0.003615
v -0.006356 -0.023005 0.001814
v -0.006581 -0.022512 0.002687
v -0.006581 -0.022512 0.002687
v -0.006828 -0.021719 0.003295
v -0.007060 -0.020746 0.003545
v -0.007305 -0.023100 0.001685
v -0.007419 -0.022596 0.002573
v -0.007419 -0.022596 0.002573
v -0.007501 -0.021786 0.003203
v -0.007537 -0.020794 0.003480
v -0.008257 -0.023006 0.001570
v -0.008260 -0.022513 0.002472
v -0.008260 -0.022513 0.002472
v -0.008175 -0.021720 0.003122
v -0.008016 -0.020747 0.003422
v -0.009173 -0.022728 0.001475
v -0.009070 -0.022268 0.002387
v -0.009070 -0.022268 0.002387
v -0.008825 -0.021523 0.003054
v -0.008477 -0.020607 0.003374
v -0.010021 -0.022277 0.001402
v -0.009818 -0.021869 0.002323
v -0.009818 -0.021869 0.002323
v -0.009426 -0.021203 0.003003
v -0.008903 -0.020380 0.003338
v -0.010765 -0.021668 0.001355
v -0.010476 -0.021331 0.002281
v -0.010476 -0.021331 0.002281
v -0.009954 -0.020771 0.002969
v -0.009278 -0.020074 0.003314
v -0.011379 -0.020927 0.001335
v -0.011018 -0.020676 0.002264
v -0.011018 -0.020676 0.002264
v -0.010389 -0.020246 0.002955
v -0.009587 -0.019701 0.003304
v -0.011839 -0.020081 0.001343
v -0.011424 -0.019929 0.002271
v -0.011424 -0.019929 0.002271
v -0.010715 -0.019646 0.002961
v -0.009818 -0.019275 0.003308
v -0.012126 -0.019163 0.001380
v -0.011678 -0.019118 0.002303
v -0.011678 -0.019118 0.002303
v -0.010918 -0.018995 0.002987
v -0.009962 -0.018813 0.003326
v -0.012230 -0.018207 0.001442
v -0.011770 -0.018274 0.002359
v -0.011770 -0.018274 0.002359
v -0.010992 -0.018318 0.003031
v -0.010014 -0.018333 0.003358
v -0.012147 -0.017252 0.001529
v -0.011696 -0.017430 0.002435
v -0.011696 -0.017430 0.002435
v -0.010933 -0.017641 0.003093
v -0.009972 -0.017852 0.003401
v -0.011879 -0.016333 0.001636
v -0.011460 -0.016618 0.002530
v -0.011460 -0.016618 0.002530
v -0.010743 -0.016990 0.003169
v -0.009838 -0.017390 0.003455
v -0.011438 -0.015486 0.001760
v -0.011071 -0.015870 0.002639
v -0.011071 -0.015870 0.002639
v -0.010431 -0.016389 0.003256
v -0.009616 -0.016964 0.003518
v -0.010840 -0.014744 0.001895
v -0.010543 -0.015214 0.002759
v -0.010543 -0.015214 0.002759
v -0.010007 -0.015863 0.003352
v -0.009316 -0.016591 0.003586
v -0.010109 -0.014135 0.002038
v -0.009896 -0.014676 0.002885
v -0.009896 -0.014676 0.002885
v -0.009488 -0.015431 0.003453
v -0.008948 -0.016284 0.003657
v -0.009272 -0.013681 0.002181
v -0.009157 -0.014276 0.003011
v -0.009157 -0.014276 0.003011
v -0.008895 -0.015110 0.003555
v -0.008526 -0.016056 0.003729
v -0.008361 -0.013402 0.002320
v -0.008352 -0.014029 0.003134
v -0.008352 -0.014029 0.003134
v -0.008249 -0.014912 0.003653
v -0.008068 -0.015916 0.003799
vn -0.2041 0.9776 0.0515
vn -0.2155 0.9652 0.1480
vn -0.0232 0.9844 0.1742
vn -0.0108 0.9969 0.0778
vn 0.3696 0.9213 0.1206
vn 0.3554 0.9092 0.2168
vn 0.5271 0.8177 0.2315
vn 0.5421 0.8294 0.1354
vn 0.6780 0.6944 0.2411
vn 0.6937 0.7055 0.1450
vn 0.8024 0.5442 0.2451
vn 0.8187 0.5545 0.1490
vn 0.8954 0.3727 0.2434
vn 0.9122 0.3823 0.1473
vn 0.9536 0.1867 0.2361
vn 0.9707 0.1953 0.1399
vn 0.9747 -0.0069 0.2234
vn 0.9919 0.0008 0.1272
vn 0.9578 -0.2004 0.2058
vn 0.9749 -0.1937 0.1096
vn 0.9037 -0.3866 0.1841
vn 0.9205 -0.3807 0.0878
vn 0.8145 -0.5580 0.1590
vn 0.8308 -0.5530 0.0626
vn 0.8306 -0.5534 0.0625
vn 0.8143 -0.5583 0.1590
vn 0.6932 -0.7086 0.1316
vn 0.7090 -0.7043 0.0349
vn 0.5449 -0.8322 0.1027
vn 0.5600 -0.8284 0.0060
vn 0.3753 -0.9240 0.0737
vn 0.3896 -0.9207 -0.0232
vn 0.1907 -0.9806 0.0455
vn 0.2041 -0.9776 -0.0515
vn -0.0016 -0.9998 0.0194
vn 0.0108 -0.9969 -0.0778
vn -0.1944 -0.9809 -0.0039
vn -0.1829 -0.9779 -0.1011
vn -0.3802 -0.9246 -0.0232
vn -0.3696 -0.9213 -0.1206
vn -0.5519 -0.8331 -0.0379
vn -0.5421 -0.8294 -0.1354
vn -0.7028 -0.7098 -0.0475
vn -0.6937 -0.7055 -0.1450
vn -0.8272 -0.5596 -0.0515
vn -0.8187 -0.5545 -0.1490
vn -0.9203 -0.3881 -0.0498
vn -0.9122 -0.3823 -0.1473
vn -0.9785 -0.2021 -0.0425
vn -0.9707 -0.1953 -0.1399
vn -0.9995 -0.0085 -0.0298
vn -0.9919 -0.0008 -0.1272
vn -0.9827 0.1851 -0.0123
vn -0.9749 0.1937 -0.1096
vn -0.9285 0.3712 0.0095
vn -0.9205 0.3807 -0.0878
vn -0.8391 0.5428 0.0345
vn -0.8307 0.5532 -0.0625
vn -0.7180 0.6933 0.0620
vn -0.7090 0.7043 -0.0349
vn -0.5698 0.8168 0.0908
vn -0.5600 0.8284 -0.0060
vn -0.4001 0.9086 0.1199
vn -0.3896 0.9207 0.0232
vn 0.1696 0.9655 0.1974
vn 0.1829 0.9779 0.1011
vn -0.0582 0.8923 0.4476
vn 0.1210 0.8748 0.4692
vn -0.0967 0.6544 0.7500
vn 0.0411 0.6408 0.7666
vn 0.0410 0.6404 0.7669
vn -0.0968 0.6539 0.7503
vn -0.1209 0.3180 0.9403
vn -0.0450 0.3106 0.9495
vn -0.1272 0.0251 0.9916
vn -0.1071 0.0232 0.9940
vn 0.2937 0.8224 0.4872
vn 0.1740 0.6006 0.7804
vn 0.1738 0.6002 0.7808
vn 0.0281 0.2884 0.9571
vn -0.0878 0.0173 0.9960
vn 0.4533 0.7373 0.5009
vn 0.2968 0.5351 0.7909
vn 0.2965 0.5347 0.7913
vn 0.0956 0.2524 0.9629
vn -0.0699 0.0078 0.9975
vn 0.5936 0.6228 0.5097
vn 0.4047 0.4470 0.7978
vn 0.4044 0.4466 0.7981
vn 0.1550 0.2039 0.9666
vn -0.0542 -0.0050 0.9985
vn 0.7092 0.4831 0.5135
vn 0.4937 0.3395 0.8006
vn 0.4933 0.3392 0.8010
vn 0.2039 0.1448 0.9682
vn -0.0413 -0.0207 0.9989
vn 0.7957 0.3238 0.5119
vn 0.5602 0.2169 0.7994
vn 0.5598 0.2167 0.7998
vn 0.2405 0.0774 0.9676
vn -0.0316 -0.0385 0.9988
vn 0.8498 0.1508 0.5051
vn 0.6018 0.0838 0.7942
vn 0.6014 0.0837 0.7945
vn 0.2634 0.0042 0.9647
vn -0.0255 -0.0579 0.9980
vn 0.8694 -0.0291 0.4933
vn 0.6170 -0.0546 0.7851
vn 0.6165 -0.0546 0.7855
vn 0.2717 -0.0720 0.9597
vn -0.0233 -0.0780 0.9967
vn 0.8537 -0.2090 0.4770
vn 0.6049 -0.1930 0.7726
vn 0.6044 -0.1930 0.7730
vn 0.2651 -0.1481 0.9528
vn -0.0251 -0.0982 0.9949
vn 0.8034 -0.3820 0.4568
vn 0.5661 -0.3262 0.7571
vn 0.5657 -0.3260 0.7574
vn 0.2438 -0.2214 0.9442
vn -0.0307 -0.1176 0.9926
vn 0.7203 -0.5415 0.4335
vn 0.5023 -0.4488 0.7391
vn 0.5018 -0.4487 0.7395
vn 0.2086 -0.2889 0.9344
vn -0.0400 -0.1354 0.9900
vn 0.7203 -0.5416 0.4335
vn 0.6077 -0.6814 0.4079
vn 0.5022 -0.4490 0.7391
vn 0.4156 -0.5565 0.7195
vn 0.4153 -0.5562 0.7198
vn 0.1610 -0.3480 0.9236
vn -0.0526 -0.1511 0.9871
vn 0.4699 -0.7962 0.3812
vn 0.3096 -0.6448 0.6989
vn 0.3093 -0.6445 0.6993
vn 0.1026 -0.3966 0.9122
vn -0.0681 -0.1640 0.9841
vn 0.3122 -0.8815 0.3542
vn 0.1882 -0.7105 0.6780
vn 0.1880 -0.7102 0.6785
vn 0.0359 -0.4328 0.9008
vn -0.0857 -0.1735 0.9811
vn 0.1407 -0.9342 0.3280
vn 0.0562 -0.7510 0.6579
vn 0.0561 -0.7506 0.6584
vn -0.0367 -0.4550 0.8897
vn -0.1049 -0.1794 0.9782
vn -0.0382 -0.9520 0.3036
vn -0.0813 -0.7647 0.6392
vn -0.0814 -0.7643 0.6396
vn -0.1124 -0.4626 0.8794
vn -0.1250 -0.1814 0.9754
vn -0.2173 -0.9344 0.2821
vn -0.2192 -0.7512 0.6226
vn -0.2192 -0.7508 0.6231
vn -0.1882 -0.4552 0.8703
vn -0.1450 -0.1794 0.9730
vn -0.3900 -0.8821 0.2641
vn -0.3521 -0.7109 0.6088
vn -0.3520 -0.7106 0.6092
vn -0.2613 -0.4330 0.8627
vn -0.1644 -0.1736 0.9710
vn -0.5496 -0.7970 0.2504
vn -0.4748 -0.6455 0.5982
vn -0.4747 -0.6452 0.5987
vn -0.3289 -0.3970 0.8569
vn -0.1822 -0.1640 0.9695
vn -0.6899 -0.6825 0.2415
vn -0.5828 -0.5573 0.5914
vn -0.5825 -0.5571 0.5919
vn -0.3882 -0.3485 0.8531
vn -0.1979 -0.1512 0.9685
vn -0.8055 -0.5428 0.2378
vn -0.6718 -0.4499 0.5885
vn -0.6715 -0.4497 0.5890
vn -0.4372 -0.2894 0.8515
vn -0.2109 -0.1356 0.9681
vn -0.8920 -0.3834 0.2394
vn -0.7383 -0.3273 0.5897
vn -0.7380 -0.3272 0.5902
vn -0.4738 -0.2219 0.8522
vn -0.2206 -0.1177 0.9682
vn -0.9461 -0.2105 0.2462
vn -0.7799 -0.1942 0.5950
vn -0.7796 -0.1941 0.5954
vn -0.4967 -0.1487 0.8551
vn -0.2266 -0.0984 0.9690
vn -0.9657 -0.0306 0.2580
vn -0.7950 -0.0557 0.6041
vn -0.7946 -0.0558 0.6045
vn -0.5050 -0.0726 0.8601
vn -0.2288 -0.0782 0.9703
vn -0.9500 0.1493 0.2743
vn -0.7830 0.0827 0.6166
vn -0.7826 0.0826 0.6170
vn -0.4983 0.0035 0.8670
vn -0.2271 -0.0581 0.9721
vn -0.8997 0.3224 0.2945
vn -0.7442 0.2158 0.6321
vn -0.7439 0.2156 0.6326
vn -0.4770 0.0768 0.8755
vn -0.2214 -0.0387 0.9744
vn -0.8166 0.4819 0.3178
vn -0.6803 0.3385 0.6501
vn -0.6800 0.3383 0.6505
vn -0.4419 0.1443 0.8854
vn -0.2121 -0.0208 0.9770
vn -0.7040 0.6217 0.3433
vn -0.5937 0.4461 0.6697
vn -0.5934 0.4458 0.6702
vn -0.3942 0.2035 0.8962
vn -0.1995 -0.0052 0.9799
vn -0.5662 0.7365 0.3701
vn -0.4876 0.5344 0.6903
vn -0.4875 0.5341 0.6907
vn -0.3359 0.2521 0.9075
vn -0.1841 0.0077 0.9829
vn -0.4085 0.8218 0.3971
vn -0.3663 0.6001 0.7111
vn -0.3662 0.5997 0.7115
vn -0.2692 0.2882 0.9190
vn -0.1664 0.0172 0.9859
vn -0.2370 0.8745 0.4233
vn -0.2343 0.6406 0.7312
vn -0.2343 0.6402 0.7316
vn -0.1965 0.3105 0.9300
vn -0.1472 0.0231 0.9888
s 1
usemtl ButtonE
f 1//1 2//2 3//3
f 1//1 3//3 4//4
f 5//5 6//6 7//7
f 5//5 7//7 8//8
f 8//8 7//7 9//9
f 8//8 9//9 10//10
f 10//10 9//9 11//11
f 10//10 11//11 12//12
f 12//12 11//11 13//13
f 12//12 13//13 14//14
f 14//14 13//13 15//15
f 14//14 15//15 16//16
f 16//16 15//15 17//17
f 16//16 17//17 18//18
f 18//18 17//17 19//19
f 18//18 19//19 20//20
f 20//20 19//19 21//21
f 20//20 21//21 22//22
f 22//22 21//21 23//23
f 22//22 23//23 24//24
f 25//25 26//26 27//27
f 25//25 27//27 28//28
f 28//28 27//27 29//29
f 28//28 29//29 30//30
f 30//30 29//29 31//31
f 30//30 31//31 32//32
f 32//32 31//31 33//33
f 32//32 33//33 34//34
f 34//34 33//33 35//35
f 34//34 35//35 36//36
f 36//36 35//35 37//37
f 36//36 37//37 38//38
f 38//38 37//37 39//39
f 38//38 39//39 40//40
f 40//40 39//39 41//41
f 40//40 41//41 42//42
f 42//42 41//41 43//43
f 42//42 43//43 44//44
f 44//44 43//43 45//45
f 44//44 45//45 46//46
f 46//46 45//45 47//47
f 46//46 47//47 48//48
f 48//48 47//47 49//49
f 48//48 49//49 50//50
f 50//50 49//49 51//51
f 50//50 51//51 52//52
f 52//52 51//51 53//53
f 52//52 53//53 54//54
f 54//54 53//53 55//55
f 54//54 55//55 56//56
f 56//56 55//55 57//57
f 56//56 57//57 58//58
f 58//58 57//57 59//59
f 58//58 59//59 60//60
f 60//60 59//59 61//61
f 60//60 61//61 62//62
f 62//62 61//61 63//63
f 62//62 63//63 64//64
f 64//64 63//63 2//2
f 64//64 2//2 1//1
f 4//4 3//3 65//65
f 4//4 65//65 66//66
f 66//66 65//65 6//6
f 66//66 6//6 5//5
f 65//65 3//3 67//67
f 65//65 67//67 68//68
f 68//68 67//67 69//69
f 68//68 69//69 70//70
f 71//71 72//72 73//73
f 71//71 73//73 74//74
f 74//74 73//73 75//75
f 74//74 75//75 76//76
f 6//6 65//65 68//68
f 6//6 68//68 77//77
f 77//77 68//68 70//70
f 77//77 70//70 78//78
f 79//79 71//71 74//74
f 79//79 74//74 80//80
f 80//80 74//74 76//76
f 80//80 76//76 81//81
f 7//7 6//6 77//77
f 7//7 77//77 82//82
f 82//82 77//77 78//78
f 82//82 78//78 83//83
f 84//84 79//79 80//80
f 84//84 80//80 85//85
f 85//85 80//80 81//81
f 85//85 81//81 86//86
f 9//9 7//7 82//82
f 9//9 82//82 87//87
f 87//87 82//82 83//83
f 87//87 83//83 88//88
f 89//89 84//84 85//85
f 89//89 85//85 90//90
f 90//90 85//85 86//86
f 90//90 86//86 91//91
f 11//11 9//9 87//87
f 11//11 87//87 92//92
f 92//92 87//87 88//88
f 92//92 88//88 93//93
f 94//94 89//89 90//90
f 94//94 90//90 95//95
f 95//95 90//90 91//91
f 95//95 91//91 96//96
f 13//13 11//11 92//92
f 13//13 92//92 97//97
f 97//97 92//92 93//93
f 97//97 93//93 98//98
f 99//99 94//94 95//95
f 99//99 95//95 100//100
f 100//100 95//95 96//96
f 100//100 96//96 101//101
f 15//15 13//13 97//97
f 15//15 97//97 102//102
f 102//102 97//97 98//98
f 102//102 98//98 103//103
f 104//104 99//99 100//100
f 104//104 100//100 105//105
f 105//105 100//100 101//101
f 105//105 101//101 106//106
f 17//17 15//15 102//102
f 17//17 102//102 107//107
f 107//107 102//102 103//103
f 107//107 103//103 108//108
f 109//109 104//104 105//105
f 109//109 105//105 110//110
f 110//110 105//105 106//106
f 110//110 106//106 111//111
f 19//19 17//17 107//107
f 19//19 107//107 112//112
f 112//112 107//107 108//108
f 112//112 108//108 113//113
f 114//114 109//109 110//110
f 114//114 110//110 115//115
f 115//115 110//110 111//111
f 115//115 111//111 116//116
f 21//21 19//19 112//112
f 21//21 112//112 117//117
f 117//117 112//112 113//113
f 117//117 113//113 118//118
f 119//119 114//114 115//115
f 119//119 115//115 120//120
f 120//120 115//115 116//116
f 120//120 116//116 121//121
f 23//23 21//21 117//117
f 23//23 117//117 122//122
f 122//122 117//117 118//118
f 122//122 118//118 123//123
f 124//124 119//119 120//120
f 124//124 120//120 125//125
f 125//125 120//120 121//121
f 125//125 121//121 126//126
f 27//27 26//26 127//127
f 27//27 127//127 128//128
f 128//128 127//127 129//129
f 128//128 129//129 130//130
f 131//131 124//124 125//125
f 131//131 125//125 132//132
f 132//132 125//125 126//126
f 132//132 126//126 133//133
f 29//29 27//27 128//128
f 29//29 128//128 134//134
f 134//134 128//128 130//130
f 134//134 130//130 135//135
f 136//136 131//131 132//132
f 136//136 132//132 137//137
f 137//137 132//132 133//133
f 137//137 133//133 138//138
f 31//31 29//29 134//134
f 31//31 134//134 139//139
f 139//139 134//134 135//135
f 139//139 135//135 140//140
f 141//141 136//136 137//137
f 141//141 137//137 142//142
f 142//142 137//137 138//138
f 142//142 138//138 143//143
f 33//33 31//31 139//139
f 33//33 139//139 144//144
f 144//144 139//139 140//140
f 144//144 140//140 145//145
f 146//146 141//141 142//142
f 146//146 142//142 147//147
f 147//147 142//142 143//143
f 147//147 143//143 148//148
f 35//35 33//33 144//144
f 35//35 144//144 149//149
f 149//149 144//144 145//145
f 149//149 145//145 150//150
f 151//151 146//146 147//147
f 151//151 147//147 152//152
f 152//152 147//147 148//148
f 152//152 148//148 153//153
f 37//37 35//35 149//149
f 37//37 149//149 154//154
f 154//154 149//149 150//150
f 154//154 150//150 155//155
f 156//156 151//151 152//152
f 156//156 152//152 157//157
f 157//157 152//152 153//153
f 157//157 153//153 158//158
f 39//39 37//37 154//154
f 39//39 154//154 159//159
f 159//159 154//154 155//155
f 159//159 155//155 160//160
f 161//161 156//156 157//157
f 161//161 157//157 162//162
f 162//162 157//157 158//158
f 162//162 158//158 163//163
f 41//41 39//39 159//159
f 41//41 159//159 164//164
f 164//164 159//159 160//160
f 164//164 160//160 165//165
f 166//166 161//161 162//162
f 166//166 162//162 167//167
f 167//167 162//162 163//163
f 167//167 163//163 168//168
f 43//43 41//41 164//164
f 43//43 164//164 169//169
f 169//169 164//164 165//165
f 169//169 165//165 170//170
f 171//171 166//166 167//167
f 171//171 167//167 172//172
f 172//172 167//167 168//168
f 172//172 168//168 173//173
f 45//45 43//43 169//169
f 45//45 169//169 174//174
f 174//174 169//169 170//170
f 174//174 170//170 175//175
f 176//176 171//171 172//172
f 176//176 172//172 177//177
f 177//177 172//172 173//173
f 177//177 173//173 178//178
f 47//47 45//45 174//174
f 47//47 174//174 179//179
f 179//179 174//174 175//175
f 179//179 175//175 180//180
f 181//181 176//176 177//177
f 181//181 177//177 182//182
f 182//182 177//177 178//178
f 182//182 178//178 183//183
f 49//49 47//47 179//179
f 49//49 179//179 184//184
f 184//184 179//179 180//180
f 184//184 180//180 185//185
f 186//186 181//181 182//182
f 186//186 182//182 187//187
f 187//187 182//182 183//183
f 187//187 183//183 188//188
f 51//51 49//49 184//184
f 51//51 184//184 189//189
f 189//189 184//184 185//185
f 189//189 185//185 190//190
f 191//191 186//186 187//187
f 191//191 187//187 192//192
f 192//192 187//187 188//188
f 192//192 188//188 193//193
f 53//53 51//51 189//189
f 53//53 189//189 194//194
f 194//194 189//189 190//190
f 194//194 190//190 195//195
f 196//196 191//191 192//192
f 196//196 192//192 197//197
f 197//197 192//192 193//193
f 197//197 193//193 198//198
f 55//55 53//53 194//194
f 55//55 194//194 199//199
f 199//199 194//194 195//195
f 199//199 195//195 200//200
f 201//201 196//196 197//197
f 201//201 197//197 202//202
f 202//202 197//197 198//198
f 202//202 198//198 203//203
f 57//57 55//55 199//199
f 57//57 199//199 204//204
f 204//204 199//199 200//200
f 204//204 200//200 205//205
f 206//206 201//201 202//202
f 206//206 202//202 207//207
f 207//207 202//202 203//203
f 207//207 203//203 208//208
f 59//59 57//57 204//204
f 59//59 204//204 209//209
f 209//209 204//204 205//205
f 209//209 205//205 210//210
f 211//211 206//206 207//207
f 211//211 207//207 212//212
f 212//212 207//207 208//208
f 212//212 208//208 213//213
f 61//61 59//59 209//209
f 61//61 209//209 214//214
f 214//214 209//209 210//210
f 214//214 210//210 215//215
f 216//216 211//211 212//212
f 216//216 212//212 217//217
f 217//217 212//212 213//213
f 217//217 213//213 218//218
f 63//63 61//61 214//214
f 63//63 214//214 219//219
f 219//219 214//214 215//215
f 219//219 215//215 220//220
f 221//221 216//216 217//217
f 221//221 217//217 222//222
f 222//222 217//217 218//218
f 222//222 218//218 223//223
f 2//2 63//63 219//219
f 2//2 219//219 224//224
f 224//224 219//219 220//220
f 224//224 220//220 225//225
f 226//226 221//221 222//222
f 226//226 222//222 227//227
f 227//227 222//222 223//223
f 227//227 223//223 228//228
f 3//3 2//2 224//224
f 3//3 224//224 67//67
f 67//67 224//224 225//225
f 67//67 225//225 69//69
f 72//72 226//226 227//227
f 72//72 227//227 73//73
f 73//73 227//227 228//228
f 73//73 228//228 75//75
f 188//188 198//198 193//193
f 198//198 188//188 203//203
f 203//203 188//188 183//183
f 203//203 183//183 208//208
f 208//208 183//183 178//178
f 208//208 178//178 213//213
f 213//213 178//178 173//173
f 213//213 173//173 218//218
f 218//218 173//173 168//168
f 218//218 168//168 223//223
f 223//223 168//168 163//163
f 223//223 163//163 228//228
f 228//228 163//163 158//158
f 228//228 158//158 75//75
f 75//75 158//158 153//153
f 75//75 153//153 76//76
f 76//76 153//153 148//148
f 76//76 148//148 81//81
f 81//81 148//148 143//143
f 81//81 143//143 86//86
f 86//86 143//143 138//138
f 86//86 138//138 91//91
f 91//91 138//138 133//133
f 91//91 133//133 96//96
f 96//96 133//133 126//126
f 96//96 126//126 101//101
f 101//101 126//126 121//121
f 101//101 121//121 106//106
f 106//106 121//121 116//116
f 106//106 116//116 111//111
