# Blender 4.2.0
# www.blender.org
mtllib ButtonsTop_GlassDark_0.mtl
o ButtonsTop_GlassDark_0
v -0.000362 0.000091 0.000396
v -0.000160 0.000129 0.000513
v -0.000178 0.002658 0.000430
v -0.000372 0.002658 0.000321
v 0.000047 0.000180 0.000608
v 0.000045 0.002658 0.000536
v -0.000178 0.002658 0.000430
v -0.000160 0.000129 0.000513
v 0.000047 0.000180 0.000608
v -0.000160 0.000129 0.000513
v -0.000139 -0.002443 0.000503
v 0.000057 -0.002444 0.000608
v -0.000362 0.000091 0.000396
v -0.000359 -0.002447 0.000390
v -0.000139 -0.002443 0.000503
vn -0.4853 -0.0101 0.8743
vn -0.4519 -0.0079 0.8920
vn -0.4555 0.0273 0.8898
vn -0.4995 0.0250 0.8660
vn -0.4334 -0.0110 0.9011
vn -0.4229 0.0271 0.9058
vn -0.4716 0.0243 0.8815
vn -0.4700 -0.0162 0.8825
vn -0.4366 0.0372 0.8989
vn -0.4743 0.0313 0.8798
vn -0.4629 -0.0077 0.8864
vn -0.4359 -0.0082 0.8999
vn -0.4916 0.0309 0.8703
vn -0.4837 -0.0083 0.8752
vn -0.4579 -0.0064 0.8890
vn -0.4539 0.0364 0.8903
s 1
usemtl GlassDark
f 1//1 2//2 3//3
f 1//1 3//3 4//4
f 5//5 6//6 7//7
f 5//5 7//7 8//8
f 9//9 10//10 11//11
f 9//9 11//11 12//12
f 13//13 14//14 15//15
f 13//13 15//15 10//16
