# Blender 4.2.0
# www.blender.org
mtllib ButtonsSide_ButtonE_0.mtl
o ButtonsSide_ButtonE_0
v -0.000997 0.005014 -0.001022
v -0.000997 0.005014 0.002483
v 0.000000 0.005113 0.002483
v 0.000000 0.005113 -0.001022
v 0.001956 0.004723 -0.001022
v 0.001956 0.004723 0.002483
v 0.002840 0.004251 0.002483
v 0.002840 0.004251 -0.001022
v 0.003615 0.003615 0.002483
v 0.003615 0.003615 -0.001022
v 0.004251 0.002840 0.002483
v 0.004251 0.002840 -0.001022
v 0.004723 0.001956 0.002483
v 0.004723 0.001956 -0.001022
v 0.005014 0.000997 0.002483
v 0.005014 0.000997 -0.001022
v 0.005113 0.000000 0.002483
v 0.005113 0.000000 -0.001022
v 0.005113 0.000000 -0.001022
v 0.005113 0.000000 0.002483
v 0.005014 -0.000997 0.002483
v 0.005014 -0.000997 -0.001022
v 0.004723 -0.001956 0.002483
v 0.004723 -0.001956 -0.001022
v 0.004251 -0.002840 0.002483
v 0.004251 -0.002840 -0.001022
v 0.003615 -0.003615 0.002483
v 0.003615 -0.003615 -0.001022
v 0.002840 -0.004251 0.002483
v 0.002840 -0.004251 -0.001022
v 0.001956 -0.004723 0.002483
v 0.001956 -0.004723 -0.001022
v 0.000997 -0.005014 0.002483
v 0.000997 -0.005014 -0.001022
v -0.000000 -0.005113 0.002483
v -0.000000 -0.005113 -0.001022
v -0.000997 -0.005014 0.002483
v -0.000997 -0.005014 -0.001022
v -0.001956 -0.004723 0.002483
v -0.001956 -0.004723 -0.001022
v -0.002840 -0.004251 0.002483
v -0.002840 -0.004251 -0.001022
v -0.003615 -0.003615 0.002483
v -0.003615 -0.003615 -0.001022
v -0.004251 -0.002840 0.002483
v -0.004251 -0.002840 -0.001022
v -0.004723 -0.001956 0.002483
v -0.004723 -0.001956 -0.001022
v -0.005014 -0.000997 0.002483
v -0.005014 -0.000997 -0.001022
v -0.005113 0.000000 0.002483
v -0.005113 0.000000 -0.001022
v -0.005014 0.000997 0.002483
v -0.005014 0.000997 -0.001022
v -0.004723 0.001956 0.002483
v -0.004723 0.001956 -0.001022
v -0.004251 0.002840 0.002483
v -0.004251 0.002840 -0.001022
v -0.003615 0.003615 0.002483
v -0.003615 0.003615 -0.001022
v -0.002840 0.004251 0.002483
v -0.002840 0.004251 -0.001022
v -0.001956 0.004723 0.002483
v -0.001956 0.004723 -0.001022
v 0.000997 0.005014 0.002483
v 0.000997 0.005014 -0.001022
v -0.000000 0.004911 0.003489
v 0.000958 0.004817 0.003489
v -0.000000 0.004339 0.004342
v 0.000846 0.004255 0.004342
v 0.000846 0.004255 0.004342
v -0.000000 0.004339 0.004342
v -0.000000 0.003482 0.004912
v 0.000679 0.003415 0.004912
v -0.000000 0.002470 0.005113
v 0.000482 0.002423 0.005113
v 0.001880 0.004538 0.003489
v 0.001660 0.004008 0.004342
v 0.001660 0.004008 0.004342
v 0.001332 0.003216 0.004912
v 0.000945 0.002282 0.005113
v 0.002729 0.004084 0.003489
v 0.002410 0.003607 0.004342
v 0.002410 0.003607 0.004342
v 0.001934 0.002895 0.004912
v 0.001372 0.002054 0.005113
v 0.003473 0.003473 0.003489
v 0.003068 0.003068 0.004342
v 0.003068 0.003068 0.004342
v 0.002462 0.002462 0.004912
v 0.001747 0.001747 0.005113
v 0.004084 0.002729 0.003489
v 0.003607 0.002410 0.004342
v 0.003607 0.002410 0.004342
v 0.002895 0.001934 0.004912
v 0.002054 0.001372 0.005113
v 0.004538 0.001880 0.003489
v 0.004008 0.001660 0.004342
v 0.004008 0.001660 0.004342
v 0.003216 0.001332 0.004912
v 0.002282 0.000945 0.005113
v 0.004817 0.000958 0.003489
v 0.004255 0.000846 0.004342
v 0.004255 0.000846 0.004342
v 0.003415 0.000679 0.004912
v 0.002423 0.000482 0.005113
v 0.004911 0.000000 0.003489
v 0.004339 0.000000 0.004342
v 0.004339 0.000000 0.004342
v 0.003482 -0.000000 0.004912
v 0.002470 -0.000000 0.005113
v 0.004911 0.000000 0.003489
v 0.004817 -0.000958 0.003489
v 0.004339 0.000000 0.004342
v 0.004255 -0.000846 0.004342
v 0.004255 -0.000846 0.004342
v 0.003415 -0.000679 0.004912
v 0.002423 -0.000482 0.005113
v 0.004538 -0.001880 0.003489
v 0.004008 -0.001660 0.004342
v 0.004008 -0.001660 0.004342
v 0.003216 -0.001332 0.004912
v 0.002282 -0.000945 0.005113
v 0.004084 -0.002729 0.003489
v 0.003607 -0.002410 0.004342
v 0.003607 -0.002410 0.004342
v 0.002895 -0.001934 0.004912
v 0.002054 -0.001372 0.005113
v 0.003473 -0.003473 0.003489
v 0.003068 -0.003068 0.004342
v 0.003068 -0.003068 0.004342
v 0.002462 -0.002462 0.004912
v 0.001747 -0.001747 0.005113
v 0.002729 -0.004084 0.003489
v 0.002410 -0.003607 0.004342
v 0.002410 -0.003607 0.004342
v 0.001934 -0.002895 0.004912
v 0.001372 -0.002054 0.005113
v 0.001880 -0.004538 0.003489
v 0.001660 -0.004008 0.004342
v 0.001660 -0.004008 0.004342
v 0.001332 -0.003216 0.004912
v 0.000945 -0.002282 0.005113
v 0.000958 -0.004817 0.003489
v 0.000846 -0.004255 0.004342
v 0.000846 -0.004255 0.004342
v 0.000679 -0.003415 0.004912
v 0.000482 -0.002423 0.005113
v -0.000000 -0.004911 0.003489
v -0.000000 -0.004339 0.004342
v -0.000000 -0.004339 0.004342
v -0.000000 -0.003482 0.004912
v -0.000000 -0.002470 0.005113
v -0.000958 -0.004817 0.003489
v -0.000846 -0.004255 0.004342
v -0.000846 -0.004255 0.004342
v -0.000679 -0.003415 0.004912
v -0.000482 -0.002423 0.005113
v -0.001880 -0.004538 0.003489
v -0.001660 -0.004008 0.004342
v -0.001660 -0.004008 0.004342
v -0.001332 -0.003216 0.004912
v -0.000945 -0.002282 0.005113
v -0.002729 -0.004084 0.003489
v -0.002410 -0.003607 0.004342
v -0.002410 -0.003607 0.004342
v -0.001934 -0.002895 0.004912
v -0.001372 -0.002054 0.005113
v -0.003473 -0.003473 0.003489
v -0.003068 -0.003068 0.004342
v -0.003068 -0.003068 0.004342
v -0.002462 -0.002462 0.004912
v -0.001747 -0.001747 0.005113
v -0.004084 -0.002729 0.003489
v -0.003607 -0.002410 0.004342
v -0.003607 -0.002410 0.004342
v -0.002895 -0.001934 0.004912
v -0.002054 -0.001372 0.005113
v -0.004538 -0.001880 0.003489
v -0.004008 -0.001660 0.004342
v -0.004008 -0.001660 0.004342
v -0.003216 -0.001332 0.004912
v -0.002282 -0.000945 0.005113
v -0.004817 -0.000958 0.003489
v -0.004255 -0.000846 0.004342
v -0.004255 -0.000846 0.004342
v -0.003415 -0.000679 0.004912
v -0.002423 -0.000482 0.005113
v -0.004911 0.000000 0.003489
v -0.004339 0.000000 0.004342
v -0.004339 0.000000 0.004342
v -0.003482 0.000000 0.004912
v -0.002470 0.000000 0.005113
v -0.004817 0.000958 0.003489
v -0.004255 0.000846 0.004342
v -0.004255 0.000846 0.004342
v -0.003415 0.000679 0.004912
v -0.002423 0.000482 0.005113
v -0.004538 0.001880 0.003489
v -0.004008 0.001660 0.004342
v -0.004008 0.001660 0.004342
v -0.003216 0.001332 0.004912
v -0.002282 0.000945 0.005113
v -0.004084 0.002729 0.003489
v -0.003607 0.002410 0.004342
v -0.003607 0.002410 0.004342
v -0.002895 0.001934 0.004912
v -0.002054 0.001372 0.005113
v -0.003473 0.003473 0.003489
v -0.003068 0.003068 0.004342
v -0.003068 0.003068 0.004342
v -0.002462 0.002462 0.004912
v -0.001747 0.001747 0.005113
v -0.002729 0.004084 0.003489
v -0.002410 0.003607 0.004342
v -0.002410 0.003607 0.004342
v -0.001934 0.002895 0.004912
v -0.001372 0.002054 0.005113
v -0.001880 0.004538 0.003489
v -0.001660 0.004008 0.004342
v -0.001660 0.004008 0.004342
v -0.001332 0.003216 0.004912
v -0.000945 0.002282 0.005113
v -0.000958 0.004817 0.003489
v -0.000846 0.004255 0.004342
v -0.000846 0.004255 0.004342
v -0.000679 0.003415 0.004912
v -0.000482 0.002423 0.005113
vn -0.1951 0.9808 -0.0000
vn -0.1942 0.9761 0.0979
vn -0.0000 0.9952 0.0979
vn -0.0000 1.0000 -0.0000
vn 0.3827 0.9239 -0.0000
vn 0.3808 0.9194 0.0979
vn 0.5529 0.8275 0.0979
vn 0.5556 0.8315 -0.0000
vn 0.7037 0.7037 0.0979
vn 0.7071 0.7071 -0.0000
vn 0.8275 0.5529 0.0979
vn 0.8315 0.5556 -0.0000
vn 0.9194 0.3808 0.0979
vn 0.9239 0.3827 -0.0000
vn 0.9761 0.1942 0.0979
vn 0.9808 0.1951 -0.0000
vn 0.9952 0.0001 0.0979
vn 1.0000 0.0003 -0.0000
vn 1.0000 -0.0003 -0.0000
vn 0.9952 -0.0001 0.0979
vn 0.9761 -0.1942 0.0979
vn 0.9808 -0.1951 -0.0000
vn 0.9194 -0.3808 0.0979
vn 0.9239 -0.3827 -0.0000
vn 0.8275 -0.5529 0.0979
vn 0.8315 -0.5556 -0.0000
vn 0.7037 -0.7037 0.0979
vn 0.7071 -0.7071 -0.0000
vn 0.5529 -0.8275 0.0979
vn 0.5556 -0.8315 -0.0000
vn 0.3808 -0.9194 0.0979
vn 0.3827 -0.9239 -0.0000
vn 0.1942 -0.9761 0.0979
vn 0.1951 -0.9808 -0.0000
vn -0.0000 -0.9952 0.0979
vn -0.0000 -1.0000 -0.0000
vn -0.1942 -0.9761 0.0979
vn -0.1951 -0.9808 -0.0000
vn -0.3808 -0.9194 0.0979
vn -0.3827 -0.9239 -0.0000
vn -0.5529 -0.8275 0.0979
vn -0.5556 -0.8315 -0.0000
vn -0.7037 -0.7037 0.0979
vn -0.7071 -0.7071 -0.0000
vn -0.8275 -0.5529 0.0979
vn -0.8315 -0.5556 -0.0000
vn -0.9194 -0.3808 0.0979
vn -0.9239 -0.3827 -0.0000
vn -0.9761 -0.1942 0.0979
vn -0.9808 -0.1951 -0.0000
vn -0.9952 -0.0000 0.0979
vn -1.0000 -0.0000 -0.0000
vn -0.9761 0.1942 0.0979
vn -0.9808 0.1951 -0.0000
vn -0.9194 0.3808 0.0979
vn -0.9239 0.3827 -0.0000
vn -0.8275 0.5529 0.0979
vn -0.8315 0.5556 -0.0000
vn -0.7037 0.7037 0.0979
vn -0.7071 0.7071 -0.0000
vn -0.5529 0.8275 0.0979
vn -0.5556 0.8315 -0.0000
vn -0.3808 0.9194 0.0979
vn -0.3827 0.9239 -0.0000
vn 0.1942 0.9761 0.0979
vn 0.1951 0.9808 -0.0000
vn -0.0000 0.9250 0.3799
vn 0.1805 0.9073 0.3799
vn -0.0000 0.7118 0.7024
vn 0.1388 0.6981 0.7025
vn 0.1387 0.6977 0.7029
vn -0.0000 0.7113 0.7029
vn -0.0000 0.3915 0.9202
vn 0.0764 0.3840 0.9202
vn -0.0000 0.1036 0.9946
vn 0.0202 0.1016 0.9946
vn 0.3540 0.8546 0.3799
vn 0.2724 0.6576 0.7025
vn 0.2722 0.6572 0.7029
vn 0.1498 0.3617 0.9202
vn 0.0396 0.0957 0.9946
vn 0.5139 0.7691 0.3799
vn 0.3954 0.5918 0.7025
vn 0.3952 0.5914 0.7029
vn 0.2175 0.3255 0.9202
vn 0.0576 0.0861 0.9946
vn 0.6541 0.6541 0.3799
vn 0.5033 0.5033 0.7025
vn 0.5030 0.5030 0.7029
vn 0.2768 0.2768 0.9202
vn 0.0732 0.0732 0.9946
vn 0.7691 0.5139 0.3799
vn 0.5918 0.3954 0.7024
vn 0.5914 0.3952 0.7029
vn 0.3255 0.2175 0.9202
vn 0.0861 0.0576 0.9946
vn 0.8546 0.3540 0.3799
vn 0.6576 0.2724 0.7025
vn 0.6572 0.2722 0.7029
vn 0.3617 0.1498 0.9202
vn 0.0957 0.0396 0.9946
vn 0.9073 0.1805 0.3799
vn 0.6981 0.1388 0.7024
vn 0.6977 0.1388 0.7029
vn 0.3840 0.0764 0.9202
vn 0.1016 0.0202 0.9946
vn 0.9250 -0.0000 0.3799
vn 0.7117 0.0001 0.7025
vn 0.7113 -0.0000 0.7029
vn 0.3915 -0.0000 0.9202
vn 0.1036 -0.0000 0.9946
vn 0.9073 -0.1805 0.3799
vn 0.7117 -0.0001 0.7025
vn 0.6981 -0.1388 0.7025
vn 0.6977 -0.1387 0.7029
vn 0.3840 -0.0764 0.9202
vn 0.1016 -0.0202 0.9946
vn 0.8546 -0.3540 0.3799
vn 0.6576 -0.2724 0.7025
vn 0.6572 -0.2722 0.7029
vn 0.3617 -0.1498 0.9202
vn 0.0957 -0.0396 0.9946
vn 0.7691 -0.5139 0.3799
vn 0.5918 -0.3954 0.7024
vn 0.5914 -0.3952 0.7029
vn 0.3255 -0.2175 0.9202
vn 0.0861 -0.0576 0.9946
vn 0.6541 -0.6541 0.3799
vn 0.5033 -0.5033 0.7025
vn 0.5030 -0.5030 0.7029
vn 0.2768 -0.2768 0.9202
vn 0.0732 -0.0732 0.9946
vn 0.5139 -0.7691 0.3799
vn 0.3954 -0.5918 0.7025
vn 0.3952 -0.5914 0.7029
vn 0.2175 -0.3255 0.9202
vn 0.0576 -0.0861 0.9946
vn 0.3540 -0.8546 0.3799
vn 0.2724 -0.6576 0.7025
vn 0.2722 -0.6572 0.7029
vn 0.1498 -0.3617 0.9202
vn 0.0396 -0.0957 0.9946
vn 0.1805 -0.9073 0.3799
vn 0.1388 -0.6981 0.7025
vn 0.1388 -0.6977 0.7029
vn 0.0764 -0.3840 0.9202
vn 0.0202 -0.1016 0.9946
vn -0.0000 -0.9250 0.3799
vn -0.0000 -0.7118 0.7024
vn -0.0000 -0.7113 0.7029
vn -0.0000 -0.3915 0.9202
vn -0.0000 -0.1036 0.9946
vn -0.1805 -0.9073 0.3799
vn -0.1388 -0.6981 0.7024
vn -0.1387 -0.6977 0.7029
vn -0.0764 -0.3840 0.9202
vn -0.0202 -0.1016 0.9946
vn -0.3540 -0.8546 0.3799
vn -0.2724 -0.6576 0.7025
vn -0.2722 -0.6572 0.7029
vn -0.1498 -0.3617 0.9202
vn -0.0396 -0.0957 0.9946
vn -0.5139 -0.7691 0.3799
vn -0.3954 -0.5918 0.7025
vn -0.3952 -0.5914 0.7029
vn -0.2175 -0.3255 0.9202
vn -0.0576 -0.0861 0.9946
vn -0.6541 -0.6541 0.3799
vn -0.5033 -0.5033 0.7024
vn -0.5030 -0.5030 0.7029
vn -0.2768 -0.2768 0.9202
vn -0.0733 -0.0732 0.9946
vn -0.7691 -0.5139 0.3799
vn -0.5918 -0.3954 0.7024
vn -0.5914 -0.3952 0.7029
vn -0.3255 -0.2175 0.9202
vn -0.0861 -0.0576 0.9946
vn -0.8546 -0.3540 0.3799
vn -0.6576 -0.2724 0.7025
vn -0.6572 -0.2722 0.7029
vn -0.3617 -0.1498 0.9202
vn -0.0957 -0.0396 0.9946
vn -0.9073 -0.1805 0.3799
vn -0.6981 -0.1388 0.7025
vn -0.6977 -0.1388 0.7029
vn -0.3840 -0.0764 0.9202
vn -0.1016 -0.0202 0.9946
vn -0.9250 -0.0000 0.3799
vn -0.7118 -0.0000 0.7024
vn -0.7113 -0.0000 0.7029
vn -0.3915 -0.0000 0.9202
vn -0.1036 -0.0000 0.9946
vn -0.9073 0.1805 0.3799
vn -0.6981 0.1388 0.7025
vn -0.6977 0.1387 0.7029
vn -0.3840 0.0764 0.9202
vn -0.1016 0.0202 0.9946
vn -0.8546 0.3540 0.3799
vn -0.6576 0.2724 0.7025
vn -0.6572 0.2722 0.7029
vn -0.3617 0.1498 0.9202
vn -0.0957 0.0396 0.9946
vn -0.7691 0.5139 0.3799
vn -0.5918 0.3954 0.7025
vn -0.5914 0.3952 0.7029
vn -0.3255 0.2175 0.9202
vn -0.0861 0.0576 0.9946
vn -0.6541 0.6541 0.3799
vn -0.5033 0.5033 0.7025
vn -0.5030 0.5030 0.7029
vn -0.2768 0.2768 0.9202
vn -0.0732 0.0732 0.9946
vn -0.5139 0.7691 0.3799
vn -0.3954 0.5918 0.7025
vn -0.3952 0.5914 0.7029
vn -0.2175 0.3255 0.9202
vn -0.0576 0.0861 0.9946
vn -0.3540 0.8546 0.3799
vn -0.2724 0.6576 0.7025
vn -0.2722 0.6572 0.7029
vn -0.1498 0.3617 0.9202
vn -0.0396 0.0957 0.9946
vn -0.1805 0.9073 0.3799
vn -0.1388 0.6981 0.7025
vn -0.1388 0.6977 0.7029
vn -0.0764 0.3840 0.9202
vn -0.0202 0.1016 0.9946
s 1
usemtl ButtonE
f 1//1 2//2 3//3
f 1//1 3//3 4//4
f 5//5 6//6 7//7
f 5//5 7//7 8//8
f 8//8 7//7 9//9
f 8//8 9//9 10//10
f 10//10 9//9 11//11
f 10//10 11//11 12//12
f 12//12 11//11 13//13
f 12//12 13//13 14//14
f 14//14 13//13 15//15
f 14//14 15//15 16//16
f 16//16 15//15 17//17
f 16//16 17//17 18//18
f 19//19 20//20 21//21
f 19//19 21//21 22//22
f 22//22 21//21 23//23
f 22//22 23//23 24//24
f 24//24 23//23 25//25
f 24//24 25//25 26//26
f 26//26 25//25 27//27
f 26//26 27//27 28//28
f 28//28 27//27 29//29
f 28//28 29//29 30//30
f 30//30 29//29 31//31
f 30//30 31//31 32//32
f 32//32 31//31 33//33
f 32//32 33//33 34//34
f 34//34 33//33 35//35
f 34//34 35//35 36//36
f 36//36 35//35 37//37
f 36//36 37//37 38//38
f 38//38 37//37 39//39
f 38//38 39//39 40//40
f 40//40 39//39 41//41
f 40//40 41//41 42//42
f 42//42 41//41 43//43
f 42//42 43//43 44//44
f 44//44 43//43 45//45
f 44//44 45//45 46//46
f 46//46 45//45 47//47
f 46//46 47//47 48//48
f 48//48 47//47 49//49
f 48//48 49//49 50//50
f 50//50 49//49 51//51
f 50//50 51//51 52//52
f 52//52 51//51 53//53
f 52//52 53//53 54//54
f 54//54 53//53 55//55
f 54//54 55//55 56//56
f 56//56 55//55 57//57
f 56//56 57//57 58//58
f 58//58 57//57 59//59
f 58//58 59//59 60//60
f 60//60 59//59 61//61
f 60//60 61//61 62//62
f 62//62 61//61 63//63
f 62//62 63//63 64//64
f 64//64 63//63 2//2
f 64//64 2//2 1//1
f 4//4 3//3 65//65
f 4//4 65//65 66//66
f 66//66 65//65 6//6
f 66//66 6//6 5//5
f 65//65 3//3 67//67
f 65//65 67//67 68//68
f 68//68 67//67 69//69
f 68//68 69//69 70//70
f 71//71 72//72 73//73
f 71//71 73//73 74//74
f 74//74 73//73 75//75
f 74//74 75//75 76//76
f 6//6 65//65 68//68
f 6//6 68//68 77//77
f 77//77 68//68 70//70
f 77//77 70//70 78//78
f 79//79 71//71 74//74
f 79//79 74//74 80//80
f 80//80 74//74 76//76
f 80//80 76//76 81//81
f 7//7 6//6 77//77
f 7//7 77//77 82//82
f 82//82 77//77 78//78
f 82//82 78//78 83//83
f 84//84 79//79 80//80
f 84//84 80//80 85//85
f 85//85 80//80 81//81
f 85//85 81//81 86//86
f 9//9 7//7 82//82
f 9//9 82//82 87//87
f 87//87 82//82 83//83
f 87//87 83//83 88//88
f 89//89 84//84 85//85
f 89//89 85//85 90//90
f 90//90 85//85 86//86
f 90//90 86//86 91//91
f 11//11 9//9 87//87
f 11//11 87//87 92//92
f 92//92 87//87 88//88
f 92//92 88//88 93//93
f 94//94 89//89 90//90
f 94//94 90//90 95//95
f 95//95 90//90 91//91
f 95//95 91//91 96//96
f 13//13 11//11 92//92
f 13//13 92//92 97//97
f 97//97 92//92 93//93
f 97//97 93//93 98//98
f 99//99 94//94 95//95
f 99//99 95//95 100//100
f 100//100 95//95 96//96
f 100//100 96//96 101//101
f 15//15 13//13 97//97
f 15//15 97//97 102//102
f 102//102 97//97 98//98
f 102//102 98//98 103//103
f 104//104 99//99 100//100
f 104//104 100//100 105//105
f 105//105 100//100 101//101
f 105//105 101//101 106//106
f 17//17 15//15 102//102
f 17//17 102//102 107//107
f 107//107 102//102 103//103
f 107//107 103//103 108//108
f 109//109 104//104 105//105
f 109//109 105//105 110//110
f 110//110 105//105 106//106
f 110//110 106//106 111//111
f 21//21 20//20 112//107
f 21//21 112//107 113//112
f 113//112 112//107 114//113
f 113//112 114//113 115//114
f 116//115 109//109 110//110
f 116//115 110//110 117//116
f 117//116 110//110 111//111
f 117//116 111//111 118//117
f 23//23 21//21 113//112
f 23//23 113//112 119//118
f 119//118 113//112 115//114
f 119//118 115//114 120//119
f 121//120 116//115 117//116
f 121//120 117//116 122//121
f 122//121 117//116 118//117
f 122//121 118//117 123//122
f 25//25 23//23 119//118
f 25//25 119//118 124//123
f 124//123 119//118 120//119
f 124//123 120//119 125//124
f 126//125 121//120 122//121
f 126//125 122//121 127//126
f 127//126 122//121 123//122
f 127//126 123//122 128//127
f 27//27 25//25 124//123
f 27//27 124//123 129//128
f 129//128 124//123 125//124
f 129//128 125//124 130//129
f 131//130 126//125 127//126
f 131//130 127//126 132//131
f 132//131 127//126 128//127
f 132//131 128//127 133//132
f 29//29 27//27 129//128
f 29//29 129//128 134//133
f 134//133 129//128 130//129
f 134//133 130//129 135//134
f 136//135 131//130 132//131
f 136//135 132//131 137//136
f 137//136 132//131 133//132
f 137//136 133//132 138//137
f 31//31 29//29 134//133
f 31//31 134//133 139//138
f 139//138 134//133 135//134
f 139//138 135//134 140//139
f 141//140 136//135 137//136
f 141//140 137//136 142//141
f 142//141 137//136 138//137
f 142//141 138//137 143//142
f 33//33 31//31 139//138
f 33//33 139//138 144//143
f 144//143 139//138 140//139
f 144//143 140//139 145//144
f 146//145 141//140 142//141
f 146//145 142//141 147//146
f 147//146 142//141 143//142
f 147//146 143//142 148//147
f 35//35 33//33 144//143
f 35//35 144//143 149//148
f 149//148 144//143 145//144
f 149//148 145//144 150//149
f 151//150 146//145 147//146
f 151//150 147//146 152//151
f 152//151 147//146 148//147
f 152//151 148//147 153//152
f 37//37 35//35 149//148
f 37//37 149//148 154//153
f 154//153 149//148 150//149
f 154//153 150//149 155//154
f 156//155 151//150 152//151
f 156//155 152//151 157//156
f 157//156 152//151 153//152
f 157//156 153//152 158//157
f 39//39 37//37 154//153
f 39//39 154//153 159//158
f 159//158 154//153 155//154
f 159//158 155//154 160//159
f 161//160 156//155 157//156
f 161//160 157//156 162//161
f 162//161 157//156 158//157
f 162//161 158//157 163//162
f 41//41 39//39 159//158
f 41//41 159//158 164//163
f 164//163 159//158 160//159
f 164//163 160//159 165//164
f 166//165 161//160 162//161
f 166//165 162//161 167//166
f 167//166 162//161 163//162
f 167//166 163//162 168//167
f 43//43 41//41 164//163
f 43//43 164//163 169//168
f 169//168 164//163 165//164
f 169//168 165//164 170//169
f 171//170 166//165 167//166
f 171//170 167//166 172//171
f 172//171 167//166 168//167
f 172//171 168//167 173//172
f 45//45 43//43 169//168
f 45//45 169//168 174//173
f 174//173 169//168 170//169
f 174//173 170//169 175//174
f 176//175 171//170 172//171
f 176//175 172//171 177//176
f 177//176 172//171 173//172
f 177//176 173//172 178//177
f 47//47 45//45 174//173
f 47//47 174//173 179//178
f 179//178 174//173 175//174
f 179//178 175//174 180//179
f 181//180 176//175 177//176
f 181//180 177//176 182//181
f 182//181 177//176 178//177
f 182//181 178//177 183//182
f 49//49 47//47 179//178
f 49//49 179//178 184//183
f 184//183 179//178 180//179
f 184//183 180//179 185//184
f 186//185 181//180 182//181
f 186//185 182//181 187//186
f 187//186 182//181 183//182
f 187//186 183//182 188//187
f 51//51 49//49 184//183
f 51//51 184//183 189//188
f 189//188 184//183 185//184
f 189//188 185//184 190//189
f 191//190 186//185 187//186
f 191//190 187//186 192//191
f 192//191 187//186 188//187
f 192//191 188//187 193//192
f 53//53 51//51 189//188
f 53//53 189//188 194//193
f 194//193 189//188 190//189
f 194//193 190//189 195//194
f 196//195 191//190 192//191
f 196//195 192//191 197//196
f 197//196 192//191 193//192
f 197//196 193//192 198//197
f 55//55 53//53 194//193
f 55//55 194//193 199//198
f 199//198 194//193 195//194
f 199//198 195//194 200//199
f 201//200 196//195 197//196
f 201//200 197//196 202//201
f 202//201 197//196 198//197
f 202//201 198//197 203//202
f 57//57 55//55 199//198
f 57//57 199//198 204//203
f 204//203 199//198 200//199
f 204//203 200//199 205//204
f 206//205 201//200 202//201
f 206//205 202//201 207//206
f 207//206 202//201 203//202
f 207//206 203//202 208//207
f 59//59 57//57 204//203
f 59//59 204//203 209//208
f 209//208 204//203 205//204
f 209//208 205//204 210//209
f 211//210 206//205 207//206
f 211//210 207//206 212//211
f 212//211 207//206 208//207
f 212//211 208//207 213//212
f 61//61 59//59 209//208
f 61//61 209//208 214//213
f 214//213 209//208 210//209
f 214//213 210//209 215//214
f 216//215 211//210 212//211
f 216//215 212//211 217//216
f 217//216 212//211 213//212
f 217//216 213//212 218//217
f 63//63 61//61 214//213
f 63//63 214//213 219//218
f 219//218 214//213 215//214
f 219//218 215//214 220//219
f 221//220 216//215 217//216
f 221//220 217//216 222//221
f 222//221 217//216 218//217
f 222//221 218//217 223//222
f 2//2 63//63 219//218
f 2//2 219//218 224//223
f 224//223 219//218 220//219
f 224//223 220//219 225//224
f 226//225 221//220 222//221
f 226//225 222//221 227//226
f 227//226 222//221 223//222
f 227//226 223//222 228//227
f 3//3 2//2 224//223
f 3//3 224//223 67//67
f 67//67 224//223 225//224
f 67//67 225//224 69//69
f 72//72 226//225 227//226
f 72//72 227//226 73//73
f 73//73 227//226 228//227
f 73//73 228//227 75//75
f 188//187 198//197 193//192
f 198//197 188//187 183//182
f 198//197 183//182 203//202
f 203//202 183//182 178//177
f 203//202 178//177 208//207
f 208//207 178//177 173//172
f 208//207 173//172 213//212
f 213//212 173//172 168//167
f 213//212 168//167 218//217
f 218//217 168//167 163//162
f 218//217 163//162 223//222
f 223//222 163//162 158//157
f 223//222 158//157 228//227
f 228//227 158//157 153//152
f 228//227 153//152 75//75
f 75//75 153//152 76//76
f 76//76 153//152 148//147
f 76//76 148//147 143//142
f 76//76 143//142 81//81
f 81//81 143//142 86//86
f 86//86 143//142 138//137
f 86//86 138//137 133//132
f 86//86 133//132 91//91
f 91//91 133//132 128//127
f 91//91 128//127 96//96
f 96//96 128//127 123//122
f 96//96 123//122 101//101
f 101//101 123//122 106//106
f 106//106 123//122 118//117
f 106//106 118//117 111//111
