# Blender 4.2.0
# www.blender.org
mtllib ButtonsTop_MouseTopButton_0.mtl
o ButtonsTop_MouseTopButton_0
v 0.021429 0.009450 0.006375
v 0.021224 0.012298 0.005984
v 0.021224 0.012267 0.005888
v 0.021429 0.009418 0.006278
v 0.027727 0.012466 0.006036
v 0.027531 0.009601 0.006454
v 0.027531 0.009569 0.006356
v 0.027727 0.012434 0.005941
v 0.021639 0.015313 0.005780
v 0.021551 0.016527 0.005439
v 0.021077 0.016964 0.005216
v 0.021201 0.015244 0.005699
v 0.028056 0.017283 0.004920
v 0.027923 0.015330 0.005499
v 0.027923 0.015299 0.005412
v 0.028057 0.017256 0.004823
v 0.021019 0.015146 0.005476
v 0.021019 0.015115 0.005388
v 0.027302 0.015464 0.005807
v 0.024471 0.015536 0.005904
v 0.024476 0.012066 0.006530
v 0.027097 0.012483 0.006421
v 0.021573 0.018022 0.004954
v 0.024467 0.018736 0.004770
v 0.024466 0.018890 0.004455
v 0.021373 0.018131 0.004654
v 0.024466 0.018858 0.004358
v 0.021372 0.018100 0.004558
v 0.021853 0.012348 0.006379
v 0.021997 0.010326 0.006649
v 0.024479 0.009496 0.006947
v 0.026957 0.010436 0.006705
v 0.027531 0.009601 0.006454
v 0.024480 0.008479 0.006773
v 0.024480 0.008447 0.006676
v 0.027531 0.009569 0.006356
v 0.024466 0.018890 0.004455
v 0.027557 0.018302 0.004653
v 0.027558 0.018271 0.004557
v 0.024466 0.018858 0.004358
v 0.022050 0.017590 0.005173
v 0.024467 0.018199 0.005025
v 0.024467 0.018736 0.004770
v 0.021573 0.018022 0.004954
v 0.027860 0.017155 0.005225
v 0.027741 0.015418 0.005724
v 0.027363 0.009894 0.006675
v 0.024480 0.008825 0.006972
v 0.024480 0.008825 0.006972
v 0.027363 0.009894 0.006675
v 0.024467 0.018736 0.004770
v 0.027357 0.018184 0.004955
v 0.027741 0.015418 0.005724
v 0.027860 0.017155 0.005225
v 0.027387 0.016698 0.005449
v 0.026881 0.017733 0.005177
v 0.027357 0.018184 0.004955
v 0.021429 0.009450 0.006375
v 0.024480 0.008479 0.006773
v 0.024480 0.008825 0.006972
v 0.021596 0.009755 0.006603
v 0.021596 0.009755 0.006603
v 0.021201 0.015244 0.005699
v 0.021077 0.016964 0.005216
v 0.020879 0.017085 0.004913
v 0.021408 0.012361 0.006248
v 0.021596 0.009755 0.006603
v 0.021408 0.012361 0.006248
v 0.027543 0.012519 0.006298
v 0.027363 0.009894 0.006675
v 0.027543 0.012519 0.006298
v 0.021429 0.009418 0.006278
v 0.024480 0.008447 0.006676
v 0.021194 0.017654 0.005046
v 0.021670 0.017220 0.005266
v 0.020997 0.017768 0.004745
v 0.021194 0.017654 0.005046
v 0.021194 0.017654 0.005046
v 0.020997 0.017768 0.004745
v 0.027739 0.017838 0.005049
v 0.027936 0.017960 0.004746
v 0.027936 0.017960 0.004746
v 0.027739 0.017838 0.005049
v 0.027265 0.017384 0.005271
v 0.027739 0.017838 0.005049
v 0.020996 0.017737 0.004648
v 0.020996 0.017737 0.004648
v 0.020879 0.017057 0.004816
v 0.027936 0.017929 0.004650
v 0.027936 0.017929 0.004650
v 0.021429 0.009285 0.006551
v 0.024480 0.008289 0.006907
v 0.024480 0.008254 0.006798
v 0.021429 0.009249 0.006442
v 0.027531 0.009436 0.006630
v 0.027372 0.007162 0.007139
v 0.027372 0.007126 0.007030
v 0.027531 0.009400 0.006521
v 0.027053 0.002615 0.007846
v 0.024484 0.000195 0.008221
v 0.024484 0.000159 0.008111
v 0.027053 0.002579 0.007736
v 0.021754 0.004838 0.007504
v 0.021592 0.007062 0.007050
v 0.021592 0.007026 0.006941
v 0.021754 0.004803 0.007394
v 0.021916 0.002615 0.007736
v 0.021916 0.002579 0.007626
v 0.024484 0.001455 0.008449
v 0.024483 0.003006 0.008291
v 0.022409 0.004485 0.007955
v 0.022492 0.003335 0.008078
v 0.026555 0.004521 0.008031
v 0.026724 0.006923 0.007554
v 0.024482 0.005704 0.007794
v 0.024480 0.008289 0.006907
v 0.027531 0.009436 0.006630
v 0.027531 0.009400 0.006521
v 0.024480 0.008254 0.006798
v 0.024481 0.007447 0.007397
v 0.022136 0.008221 0.007131
v 0.022237 0.006846 0.007484
v 0.021429 0.009285 0.006551
v 0.021429 0.009249 0.006442
v 0.026823 0.008340 0.007194
v 0.026471 0.003327 0.008157
v 0.027212 0.004888 0.007603
v 0.027212 0.004852 0.007494
v 0.024484 0.000195 0.008221
v 0.021916 0.002615 0.007736
v 0.021916 0.002579 0.007626
v 0.024484 0.000159 0.008111
v 0.026882 0.002870 0.008080
v 0.027020 0.004828 0.007871
v 0.027020 0.004828 0.007871
v 0.026882 0.002870 0.008080
v 0.027053 0.002615 0.007846
v 0.022085 0.002873 0.007979
v 0.024484 0.000611 0.008431
v 0.024484 0.000611 0.008431
v 0.022085 0.002873 0.007979
v 0.021636 0.009020 0.006864
v 0.021781 0.007045 0.007320
v 0.021781 0.007045 0.007320
v 0.021636 0.009020 0.006864
v 0.027324 0.009162 0.006938
v 0.024481 0.008090 0.007194
v 0.024481 0.008090 0.007194
v 0.027324 0.009162 0.006938
v 0.024484 0.000611 0.008431
v 0.026882 0.002870 0.008080
v 0.024484 0.000611 0.008431
v 0.021636 0.009020 0.006864
v 0.024481 0.008090 0.007194
v 0.027182 0.007139 0.007403
v 0.027324 0.009162 0.006938
v 0.027182 0.007139 0.007403
v 0.021946 0.004782 0.007779
v 0.022085 0.002873 0.007979
v 0.021946 0.004782 0.007779
v 0.027053 0.002579 0.007736
vn -0.9752 -0.0404 0.2175
vn -0.9485 -0.0122 0.3166
vn -0.9974 -0.0684 0.0224
vn -0.9974 -0.0688 0.0225
vn 0.9476 -0.0110 0.3192
vn 0.9744 -0.0348 0.2219
vn 0.9977 -0.0651 0.0213
vn 0.9977 -0.0647 0.0212
vn -0.1374 0.2271 0.9641
vn -0.1129 0.2815 0.9529
vn -0.1984 0.2634 0.9441
vn -0.2296 0.2081 0.9508
vn 0.9427 0.1479 0.2992
vn 0.9426 0.0113 0.3338
vn 0.9978 -0.0630 0.0220
vn 0.9986 0.0511 -0.0124
vn -0.9420 0.0033 0.3357
vn -0.9975 -0.0664 0.0236
vn 0.1201 0.2354 0.9644
vn -0.0139 0.2419 0.9702
vn -0.0101 0.1625 0.9867
vn 0.1310 0.1557 0.9791
vn -0.2536 0.6878 0.6802
vn -0.0701 0.7873 0.6126
vn -0.0918 0.9944 0.0529
vn -0.4722 0.8733 0.1198
vn -0.0988 0.9473 -0.3046
vn -0.4986 0.8247 -0.2671
vn -0.1527 0.1600 0.9752
vn -0.1623 0.1103 0.9806
vn -0.0097 0.0540 0.9985
vn 0.1249 0.1151 0.9855
vn 0.3338 -0.7415 0.5820
vn 0.0571 -0.7876 0.6136
vn 0.1258 -0.9472 0.2951
vn 0.3570 -0.8876 0.2910
vn 0.0394 0.9978 0.0531
vn 0.4363 0.8922 0.1168
vn 0.4616 0.8440 -0.2730
vn 0.0487 0.9507 -0.3063
vn -0.0618 0.3476 0.9356
vn -0.0116 0.3591 0.9332
vn -0.0166 0.6330 0.7740
vn -0.2076 0.5793 0.7882
vn 0.7884 0.1738 0.5901
vn 0.8009 0.0917 0.5917
vn 0.2642 -0.4800 0.8365
vn 0.2640 -0.4796 0.8368
vn -0.0127 0.0007 0.9999
vn 0.1480 0.0669 0.9867
vn 0.0253 0.7885 0.6145
vn 0.2195 0.7017 0.6778
vn 0.2166 0.2201 0.9511
vn 0.1851 0.2716 0.9444
vn 0.0962 0.2930 0.9513
vn 0.0400 0.3581 0.9328
vn 0.1786 0.5887 0.7883
vn -0.3152 -0.7536 0.5769
vn -0.0360 -0.7874 0.6153
vn -0.2621 -0.4811 0.8366
vn -0.2624 -0.4816 0.8362
vn -0.1730 0.0602 0.9831
vn -0.8056 0.0812 0.5869
vn -0.7887 0.1691 0.5910
vn -0.9443 0.1396 0.2980
vn -0.2400 0.1494 0.9592
vn -0.8204 0.0186 0.5715
vn -0.8178 0.0337 0.5745
vn 0.8150 0.0416 0.5780
vn 0.8155 0.0263 0.5782
vn 0.2267 0.1503 0.9623
vn -0.3247 -0.8987 0.2947
vn -0.0984 -0.9503 0.2953
vn -0.2484 0.4521 0.8567
vn -0.1096 0.3039 0.9464
vn -0.6594 0.7283 0.1864
vn -0.3278 0.4926 0.8062
vn -0.7525 0.2764 0.5978
vn -0.9417 0.2239 0.2510
vn 0.3045 0.5080 0.8058
vn 0.6324 0.7515 0.1878
vn 0.9407 0.2315 0.2479
vn 0.7456 0.2871 0.6013
vn 0.0951 0.3108 0.9457
vn 0.2271 0.4617 0.8575
vn -0.7048 0.6770 -0.2118
vn -0.9863 0.1587 -0.0460
vn -0.9989 0.0460 -0.0105
vn 0.6829 0.6972 -0.2181
vn 0.9853 0.1643 -0.0467
vn 0.3106 0.9505 -0.0042
vn 0.0687 0.9799 0.1870
vn 0.1017 0.9563 -0.2741
vn 0.3273 0.8979 -0.2944
vn 0.9752 -0.0194 0.2206
vn 0.9463 0.0050 0.3231
vn 0.9976 -0.0654 0.0215
vn 0.9976 -0.0652 0.0214
vn 0.6133 -0.5655 0.5514
vn 0.6452 -0.6144 0.4540
vn 0.6852 -0.6921 0.2269
vn -0.9469 -0.0164 0.3211
vn -0.9485 0.0025 0.3167
vn -0.9974 -0.0680 0.0223
vn -0.9973 -0.0694 0.0228
vn -0.9729 -0.0473 0.2263
vn -0.9973 -0.0704 0.0231
vn -0.0209 0.0095 0.9997
vn -0.0185 0.1284 0.9916
vn -0.1788 0.1329 0.9749
vn -0.2004 0.0634 0.9777
vn 0.1349 0.1375 0.9813
vn 0.0956 0.1983 0.9755
vn -0.0140 0.2088 0.9779
vn -0.1191 0.9752 0.1864
vn -0.3522 0.9359 -0.0012
vn -0.3595 0.8867 -0.2907
vn -0.1287 0.9532 -0.2737
vn -0.0166 0.2694 0.9629
vn -0.1160 0.2516 0.9609
vn -0.1368 0.1995 0.9703
vn -0.9751 -0.0215 0.2206
vn -0.9975 -0.0678 0.0222
vn 0.0592 0.2555 0.9650
vn 0.1613 0.0646 0.9848
vn 0.9444 -0.0120 0.3285
vn 0.9975 -0.0667 0.0219
vn -0.6555 -0.6050 0.4519
vn -0.6301 -0.5613 0.5366
vn -0.6904 -0.6874 0.2254
vn 0.2020 0.0153 0.9793
vn 0.2378 0.1503 0.9596
vn 0.8088 0.0279 0.5875
vn 0.8110 0.0054 0.5850
vn 0.9720 -0.0436 0.2308
vn -0.2416 0.0131 0.9703
vn -0.2074 -0.0274 0.9779
vn -0.5098 -0.3874 0.7682
vn -0.5106 -0.3884 0.7671
vn -0.0914 0.2692 0.9587
vn -0.2008 0.2117 0.9565
vn -0.8132 0.0641 0.5784
vn -0.8071 0.0730 0.5858
vn 0.0562 0.2769 0.9593
vn -0.0217 0.3127 0.9496
vn -0.0837 0.8244 0.5597
vn -0.2522 0.7997 0.5449
vn 0.1633 -0.0197 0.9864
vn 0.4843 -0.3928 0.7817
vn 0.4846 -0.3930 0.7815
vn 0.1994 0.8079 0.5545
vn 0.0256 0.8231 0.5673
vn 0.1826 0.2004 0.9626
vn 0.7969 0.0802 0.5988
vn 0.8050 0.0688 0.5893
vn -0.2785 0.1424 0.9498
vn -0.8210 -0.0002 0.5710
vn -0.8182 0.0227 0.5744
vn 0.9975 -0.0676 0.0222
vt 1.049687 0.571391
vt 1.033518 0.698636
vt 1.044552 0.703409
vt 1.060868 0.576201
vt 0.973974 0.843091
vt 0.989944 0.972226
vt 1.001021 0.967219
vt 0.984876 0.838137
vt 0.128491 0.475286
vt 0.114984 0.348834
vt 0.048841 0.288260
vt 0.068072 0.469414
vt 0.988985 0.601631
vt 0.970247 0.706761
vt 0.980261 0.702219
vt 0.999576 0.596188
vt 1.029513 0.832691
vt 1.039633 0.837059
vt 0.860128 0.470111
vt 0.494917 0.475754
vt 0.494537 0.785025
vt 0.828934 0.746719
vt 1.112202 0.698516
vt 1.120122 0.499594
vt 1.081144 0.492627
vt 1.073010 0.704092
vt 1.069186 0.490969
vt 1.061113 0.702886
vt 0.159659 0.749171
vt 0.176831 0.919281
vt 0.494164 1.007431
vt 0.810365 0.919645
vt 0.971411 0.343810
vt 0.971328 0.558320
vt 0.983358 0.556373
vt 0.983358 0.341877
vt 1.081507 0.975498
vt 1.072980 0.765194
vt 1.061113 0.766463
vt 1.069559 0.977227
vt 0.179127 0.241958
vt 0.494175 0.179265
vt 0.493811 0.103996
vt 0.114432 0.180523
vt 0.957285 0.625369
vt 0.942236 0.718921
vt 0.942236 0.357130
vt 0.942906 0.559786
vt 0.493670 1.061287
vt 0.866229 0.958957
vt 1.120500 0.968600
vt 1.112338 0.770771
vt 0.920391 0.462421
vt 0.939120 0.277770
vt 0.873471 0.340083
vt 0.808733 0.233866
vt 0.872867 0.170581
vt 1.030636 0.564142
vt 1.030570 0.348871
vt 1.002263 0.345929
vt 1.001266 0.549306
vt 0.119566 0.959215
vt 1.001266 0.821348
vt 1.016607 0.913102
vt 1.048733 0.936036
vt 0.095370 0.735569
vt 1.016969 0.566899
vt 1.001902 0.683254
vt 0.943043 0.859100
vt 0.958144 0.977227
vt 0.892358 0.732296
vt 1.042492 0.566654
vt 1.042492 0.351397
vt 0.064718 0.218470
vt 0.129822 0.279328
vt 1.080295 0.734612
vt 1.120122 0.729498
vt 1.016298 0.949760
vt 1.050149 0.971686
vt 1.120500 0.739977
vt 1.080488 0.734856
vt 0.990427 0.565762
vt 0.956883 0.588509
vt 0.858359 0.270298
vt 0.922963 0.207622
vt 1.068105 0.733672
vt 1.060868 0.977227
vt 1.059450 0.941293
vt 1.068330 0.735861
vt 1.001021 0.560031
vt 1.013399 0.408668
vt 1.013368 0.634249
vt 1.027481 0.631616
vt 1.027481 0.406041
vt 0.962452 0.641991
vt 0.951070 0.761091
vt 0.964365 0.755728
vt 0.975754 0.636607
vt 1.072652 0.769771
vt 1.072649 0.985783
vt 1.086858 0.983298
vt 1.086858 0.767287
vt 1.008491 0.750372
vt 1.015068 0.863892
vt 1.028366 0.869229
vt 1.021844 0.755636
vt 1.026340 0.650215
vt 1.039798 0.655440
vt 0.504252 0.210134
vt 0.502662 0.385324
vt 0.878054 0.572486
vt 0.863104 0.439559
vt 0.127140 0.561388
vt 0.084118 0.876452
vt 0.501713 0.724669
vt 0.950614 0.409381
vt 0.950635 0.634438
vt 0.964838 0.636378
vt 0.964838 0.411324
vt 0.501861 0.964734
vt 0.945298 1.080892
vt 0.919578 0.882279
vt 1.026495 0.980426
vt 1.039798 0.985783
vt 0.059467 1.080480
vt 0.145740 0.423420
vt 0.944514 0.877156
vt 0.957866 0.871868
vt 1.060605 0.420504
vt 1.060620 0.640220
vt 1.074628 0.643593
vt 1.074628 0.423881
vt 0.060835 0.376044
vt 0.032305 0.611683
vt 0.912800 0.897238
vt 0.928177 0.985783
vt 0.962289 0.979824
vt 0.950823 0.396742
vt 0.507494 0.113716
vt 1.027888 0.421313
vt 1.027709 0.626543
vt 1.044475 1.208927
vt 1.013762 0.929573
vt 0.982099 0.845494
vt 0.993617 0.949868
vt -0.038617 1.208926
vt 0.502472 1.066820
vt 0.913104 0.401482
vt 0.912800 0.611199
vt 1.040075 0.781472
vt 1.040027 0.983175
vt 0.975983 0.433347
vt 0.976191 0.643593
vt -0.008712 0.922842
vt 0.930226 0.672629
vt 0.918828 0.779406
vt 0.973909 0.625007
vt 0.991264 0.643822
vt 0.975983 0.730016
vt 0.975754 0.974575
s 1
usemtl MouseTopButton
f 1/1/1 2/2/2 3/3/3
f 1/1/1 3/3/3 4/4/4
f 5/5/5 6/6/6 7/7/7
f 5/5/5 7/7/7 8/8/8
f 9/9/9 10/10/10 11/11/11
f 9/9/9 11/11/11 12/12/12
f 13/13/13 14/14/14 15/15/15
f 13/13/13 15/15/15 16/16/16
f 14/14/14 5/5/5 8/8/8
f 14/14/14 8/8/8 15/15/15
f 2/2/2 17/17/17 18/18/18
f 2/2/2 18/18/18 3/3/3
f 19/19/19 20/20/20 21/21/21
f 19/19/19 21/21/21 22/22/22
f 23/23/23 24/24/24 25/25/25
f 23/23/23 25/25/25 26/26/26
f 26/26/26 25/25/25 27/27/27
f 26/26/26 27/27/27 28/28/28
f 21/21/21 29/29/29 30/30/30
f 21/21/21 30/30/30 31/31/31
f 22/22/22 21/21/21 31/31/31
f 22/22/22 31/31/31 32/32/32
f 20/20/20 9/9/9 29/29/29
f 20/20/20 29/29/29 21/21/21
f 33/33/33 34/34/34 35/35/35
f 33/33/33 35/35/35 36/36/36
f 37/37/37 38/38/38 39/39/39
f 37/37/37 39/39/39 40/40/40
f 41/41/41 42/42/42 43/43/43
f 41/41/41 43/43/43 44/44/44
f 14/14/14 13/13/13 45/45/45
f 14/14/14 45/45/45 46/46/46
f 34/34/34 33/33/33 47/47/47
f 34/34/34 47/47/47 48/48/48
f 49/49/49 50/50/50 32/32/32
f 49/49/49 32/32/32 31/31/31
f 51/51/51 52/52/52 38/38/38
f 51/51/51 38/38/38 37/37/37
f 53/53/53 54/54/54 55/55/55
f 53/53/53 55/55/55 19/19/19
f 42/42/42 56/56/56 57/57/57
f 42/42/42 57/57/57 43/43/43
f 58/58/58 59/59/59 60/60/60
f 58/58/58 60/60/60 61/61/61
f 62/62/62 49/49/49 31/31/31
f 62/62/62 31/31/31 30/30/30
f 63/63/63 64/64/64 65/65/65
f 63/63/63 65/65/65 17/17/17
f 30/30/30 29/29/29 66/66/66
f 30/30/30 66/66/66 62/62/62
f 67/67/67 68/68/68 2/2/2
f 67/67/67 2/2/2 1/1/1
f 29/29/29 9/9/9 12/12/12
f 29/29/29 12/12/12 66/66/66
f 68/68/68 63/63/63 17/17/17
f 68/68/68 17/17/17 2/2/2
f 6/6/6 5/5/5 69/69/69
f 6/6/6 69/69/69 70/70/70
f 50/50/50 71/71/71 22/22/22
f 50/50/50 22/22/22 32/32/32
f 5/5/5 14/14/14 46/46/46
f 5/5/5 46/46/46 69/69/69
f 71/71/71 53/53/53 19/19/19
f 71/71/71 19/19/19 22/22/22
f 59/59/59 58/58/58 72/72/72
f 59/59/59 72/72/72 73/73/73
f 41/41/41 44/44/44 74/74/74
f 41/41/41 74/74/74 75/75/75
f 75/75/75 74/74/74 11/11/11
f 75/75/75 11/11/11 10/10/10
f 23/23/23 26/26/26 76/76/76
f 23/23/23 76/76/76 77/77/77
f 78/78/78 79/79/79 65/65/65
f 78/78/78 65/65/65 64/64/64
f 38/38/38 52/52/52 80/80/80
f 38/38/38 80/80/80 81/81/81
f 82/82/82 83/83/83 45/45/45
f 82/82/82 45/45/45 13/13/13
f 57/57/57 56/56/56 84/84/84
f 57/57/57 84/84/84 85/85/85
f 85/85/85 84/84/84 55/55/55
f 85/85/85 55/55/55 54/54/54
f 26/26/26 28/28/28 86/86/86
f 26/26/26 86/86/86 76/76/76
f 79/79/79 87/87/87 88/88/88
f 79/79/79 88/88/88 65/65/65
f 39/39/39 38/38/38 81/81/81
f 39/39/39 81/81/81 89/89/89
f 90/90/90 82/82/82 13/13/13
f 90/90/90 13/13/13 16/16/16
f 17/17/17 65/65/65 88/88/88
f 17/17/17 88/88/88 18/18/18
f 91/91/91 92/92/92 93/93/93
f 91/91/91 93/93/93 94/94/94
f 95/95/95 96/96/96 97/97/97
f 95/95/95 97/97/97 98/98/98
f 99/99/99 100/100/100 101/101/101
f 99/99/99 101/101/101 102/102/101
f 103/103/102 104/104/103 105/105/104
f 103/103/102 105/105/104 106/106/105
f 107/107/106 103/103/102 106/106/105
f 107/107/106 106/106/105 108/108/107
f 109/109/108 110/110/109 111/111/110
f 109/109/108 111/111/110 112/112/111
f 113/113/112 114/114/113 115/115/114
f 113/113/112 115/115/114 110/110/109
f 116/116/115 117/117/116 118/118/117
f 116/116/115 118/118/117 119/119/118
f 115/115/114 120/120/119 121/121/120
f 115/115/114 121/121/120 122/122/121
f 104/104/103 123/123/122 124/124/123
f 104/104/103 124/124/123 105/105/104
f 114/114/113 125/125/124 120/120/119
f 114/114/113 120/120/119 115/115/114
f 110/110/109 115/115/114 122/122/121
f 110/110/109 122/122/121 111/111/110
f 126/126/125 113/113/112 110/110/109
f 126/126/125 110/110/109 109/109/108
f 96/96/96 127/127/126 128/128/127
f 96/96/96 128/128/127 97/97/97
f 129/129/128 130/130/129 131/131/130
f 129/129/128 131/131/130 132/132/130
f 113/113/112 126/126/125 133/133/131
f 113/113/112 133/133/131 134/134/132
f 135/135/133 136/136/134 137/137/135
f 135/135/133 137/137/135 127/127/126
f 109/109/108 112/112/111 138/138/136
f 109/109/108 138/138/136 139/139/137
f 140/140/138 141/141/139 130/130/129
f 140/140/138 130/130/129 129/129/128
f 122/122/121 121/121/120 142/142/140
f 122/122/121 142/142/140 143/143/141
f 144/144/142 145/145/143 123/123/122
f 144/144/142 123/123/122 104/104/103
f 120/120/119 125/125/124 146/146/144
f 120/120/119 146/146/144 147/147/145
f 148/148/146 149/149/147 117/117/116
f 148/148/146 117/117/116 116/116/115
f 126/126/125 109/109/108 150/139/148
f 126/126/125 150/139/148 133/133/131
f 151/150/149 152/151/150 100/100/100
f 151/150/149 100/100/100 99/99/99
f 121/121/120 120/120/119 147/147/145
f 121/121/120 147/147/145 142/142/140
f 153/152/151 154/153/152 92/92/92
f 153/152/151 92/92/92 91/91/91
f 125/125/124 114/114/113 155/154/153
f 125/125/124 155/154/153 146/146/144
f 156/155/154 157/156/155 96/96/96
f 156/155/154 96/96/96 95/95/95
f 114/114/113 113/113/112 134/134/132
f 114/114/113 134/134/132 155/154/153
f 157/156/155 135/135/133 127/127/126
f 157/156/155 127/127/126 96/96/96
f 112/112/111 111/111/110 158/157/156
f 112/112/111 158/157/156 138/138/136
f 159/158/157 160/159/158 103/103/102
f 159/158/157 103/103/102 107/107/106
f 111/111/110 122/122/121 143/143/141
f 111/111/110 143/143/141 158/157/156
f 160/159/158 144/144/142 104/104/103
f 160/159/158 104/104/103 103/103/102
f 127/127/126 137/137/135 161/160/159
f 127/127/126 161/160/159 128/128/127
f 20/20/20 56/56/56 42/42/42
f 56/56/56 20/20/20 19/19/19
f 56/56/56 19/19/19 84/84/84
f 84/84/84 19/19/19 55/55/55
f 9/9/9 75/75/75 10/10/10
f 75/75/75 9/9/9 20/20/20
f 75/75/75 20/20/20 41/41/41
f 41/41/41 20/20/20 42/42/42
