# Blender 4.2.0
# www.blender.org
mtllib ButtonsSide_ButtonA_0.mtl
o ButtonsSide_ButtonA_0
v -0.013440 -0.043259 -0.066028
v -0.014978 -0.042344 -0.069372
v -0.014052 -0.041879 -0.069673
v -0.012460 -0.042770 -0.066348
v -0.010810 -0.041270 -0.066767
v -0.012445 -0.040494 -0.070079
v -0.011822 -0.039605 -0.070166
v -0.010203 -0.040316 -0.066849
v -0.011363 -0.038616 -0.070167
v -0.009775 -0.039274 -0.066841
v -0.011092 -0.037563 -0.070078
v -0.009542 -0.038183 -0.066744
v -0.011032 -0.036490 -0.069901
v -0.009514 -0.037086 -0.066560
v -0.011188 -0.035445 -0.069644
v -0.009690 -0.036025 -0.066298
v -0.009690 -0.036025 -0.066298
v -0.011188 -0.035445 -0.069644
v -0.011554 -0.034475 -0.069317
v -0.010065 -0.035039 -0.065967
v -0.012113 -0.033623 -0.068937
v -0.010624 -0.034168 -0.065579
v -0.012841 -0.032929 -0.068520
v -0.011345 -0.033445 -0.065151
v -0.013707 -0.032427 -0.068086
v -0.012202 -0.032898 -0.064698
v -0.014662 -0.032132 -0.067653
v -0.013160 -0.032547 -0.064237
v -0.015662 -0.032044 -0.067238
v -0.014183 -0.032406 -0.063787
v -0.016666 -0.032156 -0.066854
v -0.015232 -0.032480 -0.063365
v -0.017640 -0.032462 -0.066515
v -0.016266 -0.032767 -0.062986
v -0.018554 -0.032936 -0.066226
v -0.017247 -0.033256 -0.062666
v -0.019384 -0.033562 -0.065993
v -0.018135 -0.033928 -0.062417
v -0.020111 -0.034324 -0.065821
v -0.018897 -0.034756 -0.062248
v -0.020707 -0.035206 -0.065720
v -0.019503 -0.035710 -0.062165
v -0.021145 -0.036186 -0.065699
v -0.019931 -0.036752 -0.062173
v -0.021402 -0.037229 -0.065764
v -0.020164 -0.037843 -0.062271
v -0.021457 -0.038295 -0.065917
v -0.020193 -0.038940 -0.062454
v -0.021304 -0.039334 -0.066157
v -0.020017 -0.040002 -0.062716
v -0.020947 -0.040300 -0.066473
v -0.019642 -0.040987 -0.063047
v -0.020402 -0.041148 -0.066852
v -0.019083 -0.041858 -0.063435
v -0.019694 -0.041839 -0.067275
v -0.018361 -0.042581 -0.063863
v -0.018856 -0.042346 -0.067724
v -0.017505 -0.043129 -0.064316
v -0.017926 -0.042648 -0.068176
v -0.016547 -0.043480 -0.064777
v -0.016945 -0.042744 -0.068612
v -0.015524 -0.043621 -0.065227
v -0.015951 -0.042637 -0.069015
v -0.014475 -0.043546 -0.065649
v -0.013199 -0.041258 -0.069911
v -0.011572 -0.042099 -0.066598
v -0.014668 -0.041229 -0.070305
v -0.013907 -0.040680 -0.070522
v -0.013907 -0.040680 -0.070522
v -0.014668 -0.041229 -0.070305
v -0.015357 -0.040250 -0.070487
v -0.014764 -0.039820 -0.070659
v -0.015979 -0.039211 -0.070335
v -0.015577 -0.038912 -0.070450
v -0.016392 -0.038442 -0.070091
v -0.016133 -0.038246 -0.070164
v -0.013229 -0.040005 -0.070685
v -0.013229 -0.040005 -0.070685
v -0.014238 -0.039291 -0.070791
v -0.015226 -0.038544 -0.070533
v -0.015911 -0.038005 -0.070213
v -0.012660 -0.039216 -0.070784
v -0.012660 -0.039216 -0.070784
v -0.013796 -0.038674 -0.070875
v -0.014940 -0.038118 -0.070582
v -0.015734 -0.037727 -0.070237
v -0.012233 -0.038331 -0.070809
v -0.012233 -0.038331 -0.070809
v -0.013463 -0.037982 -0.070904
v -0.014730 -0.037647 -0.070591
v -0.015609 -0.037423 -0.070235
v -0.011973 -0.037380 -0.070751
v -0.011973 -0.037380 -0.070751
v -0.013260 -0.037237 -0.070868
v -0.014608 -0.037146 -0.070559
v -0.015541 -0.037105 -0.070206
v -0.011905 -0.036404 -0.070609
v -0.011905 -0.036404 -0.070609
v -0.013205 -0.036471 -0.070765
v -0.014583 -0.036637 -0.070484
v -0.015533 -0.036785 -0.070153
v -0.012039 -0.035448 -0.070386
v -0.012039 -0.035448 -0.070386
v -0.013309 -0.035721 -0.070596
v -0.014657 -0.036141 -0.070368
v -0.015585 -0.036476 -0.070076
v -0.012039 -0.035448 -0.070386
v -0.012370 -0.034563 -0.070092
v -0.012370 -0.034563 -0.070092
v -0.013568 -0.035026 -0.070367
v -0.014830 -0.035681 -0.070216
v -0.015694 -0.036189 -0.069980
v -0.012885 -0.033793 -0.069741
v -0.012885 -0.033793 -0.069741
v -0.013972 -0.034423 -0.070089
v -0.015094 -0.035278 -0.070033
v -0.015857 -0.035935 -0.069867
v -0.013555 -0.033176 -0.069351
v -0.013555 -0.033176 -0.069351
v -0.014497 -0.033943 -0.069778
v -0.015436 -0.034951 -0.069829
v -0.016067 -0.035724 -0.069742
v -0.014345 -0.032742 -0.068944
v -0.014345 -0.032742 -0.068944
v -0.015113 -0.033605 -0.069451
v -0.015839 -0.034712 -0.069614
v -0.016317 -0.035565 -0.069610
v -0.015211 -0.032504 -0.068540
v -0.015211 -0.032504 -0.068540
v -0.015786 -0.033418 -0.069125
v -0.016285 -0.034569 -0.069397
v -0.016596 -0.035462 -0.069476
v -0.016106 -0.032447 -0.068154
v -0.016106 -0.032447 -0.068154
v -0.016484 -0.033379 -0.068815
v -0.016753 -0.034524 -0.069188
v -0.016894 -0.035421 -0.069345
v -0.016998 -0.032568 -0.067801
v -0.016998 -0.032568 -0.067801
v -0.017180 -0.033478 -0.068533
v -0.017228 -0.034574 -0.068994
v -0.017200 -0.035443 -0.069222
v -0.017859 -0.032854 -0.067493
v -0.017859 -0.032854 -0.067493
v -0.017851 -0.033701 -0.068287
v -0.017691 -0.034714 -0.068823
v -0.017501 -0.035527 -0.069111
v -0.018667 -0.033281 -0.067235
v -0.018667 -0.033281 -0.067235
v -0.018484 -0.034034 -0.068081
v -0.018129 -0.034937 -0.068680
v -0.017787 -0.035669 -0.069018
v -0.019406 -0.033835 -0.067029
v -0.019406 -0.033835 -0.067029
v -0.019064 -0.034466 -0.067921
v -0.018528 -0.035237 -0.068569
v -0.018046 -0.035865 -0.068945
v -0.020060 -0.034505 -0.066882
v -0.020060 -0.034505 -0.066882
v -0.019577 -0.034990 -0.067809
v -0.018877 -0.035603 -0.068493
v -0.018268 -0.036106 -0.068896
v -0.020606 -0.035282 -0.066799
v -0.020606 -0.035282 -0.066799
v -0.020008 -0.035598 -0.067750
v -0.019162 -0.036027 -0.068455
v -0.018445 -0.036384 -0.068872
v -0.021019 -0.036149 -0.066788
v -0.021019 -0.036149 -0.066788
v -0.020334 -0.036276 -0.067749
v -0.019372 -0.036494 -0.068457
v -0.018569 -0.036688 -0.068874
v -0.021271 -0.037080 -0.066854
v -0.021271 -0.037080 -0.066854
v -0.020536 -0.037004 -0.067808
v -0.019495 -0.036990 -0.068501
v -0.018637 -0.037006 -0.068903
v -0.021341 -0.038038 -0.066999
v -0.021341 -0.038038 -0.066999
v -0.020595 -0.037753 -0.067928
v -0.019522 -0.037495 -0.068585
v -0.018646 -0.037326 -0.068956
v -0.021217 -0.038978 -0.067219
v -0.021217 -0.038978 -0.067219
v -0.020502 -0.038489 -0.068106
v -0.019451 -0.037987 -0.068706
v -0.018594 -0.037635 -0.069033
v -0.020901 -0.039854 -0.067507
v -0.020901 -0.039854 -0.067507
v -0.020255 -0.039176 -0.068333
v -0.019282 -0.038445 -0.068859
v -0.018485 -0.037922 -0.069129
v -0.020407 -0.040621 -0.067847
v -0.020407 -0.040621 -0.067847
v -0.019866 -0.039777 -0.068599
v -0.019021 -0.038847 -0.069038
v -0.018322 -0.038176 -0.069242
v -0.019759 -0.041241 -0.068224
v -0.019759 -0.041241 -0.068224
v -0.019355 -0.040263 -0.068891
v -0.018682 -0.039176 -0.069234
v -0.018112 -0.038387 -0.069367
v -0.018991 -0.041688 -0.068618
v -0.018991 -0.041688 -0.068618
v -0.018750 -0.040612 -0.069193
v -0.018280 -0.039419 -0.069439
v -0.017862 -0.038547 -0.069499
v -0.018144 -0.041948 -0.069011
v -0.018144 -0.041948 -0.069011
v -0.018082 -0.040814 -0.069493
v -0.017834 -0.039566 -0.069644
v -0.017583 -0.038649 -0.069633
v -0.017255 -0.042020 -0.069385
v -0.017255 -0.042020 -0.069385
v -0.017383 -0.040870 -0.069779
v -0.017363 -0.039616 -0.069842
v -0.017285 -0.038690 -0.069764
v -0.016362 -0.041913 -0.069731
v -0.016362 -0.041913 -0.069731
v -0.016683 -0.040786 -0.070044
v -0.016886 -0.039570 -0.070027
v -0.016979 -0.038668 -0.069887
v -0.015493 -0.041644 -0.070039
v -0.015493 -0.041644 -0.070039
v -0.016002 -0.040575 -0.070281
v -0.016420 -0.039433 -0.070192
v -0.016678 -0.038584 -0.069998
vn 0.2328 -0.9059 -0.3536
vn 0.1337 -0.8207 -0.5555
vn 0.2745 -0.7479 -0.6044
vn 0.3871 -0.8281 -0.4056
vn 0.6580 -0.5938 -0.4631
vn 0.5292 -0.5345 -0.6589
vn 0.6371 -0.3912 -0.6642
vn 0.7671 -0.4385 -0.4683
vn 0.7224 -0.2243 -0.6541
vn 0.8497 -0.2616 -0.4577
vn 0.7773 -0.0385 -0.6280
vn 0.8994 -0.0686 -0.4317
vn 0.7941 0.1580 -0.5869
vn 0.9107 0.1324 -0.3913
vn 0.7689 0.3534 -0.5328
vn 0.8812 0.3303 -0.3383
vn 0.8810 0.3308 -0.3381
vn 0.7688 0.3538 -0.5327
vn 0.7015 0.5372 -0.4684
vn 0.8114 0.5158 -0.2747
vn 0.5949 0.6984 -0.3979
vn 0.7045 0.6800 -0.2031
vn 0.4551 0.8295 -0.3238
vn 0.5653 0.8150 -0.1275
vn 0.2913 0.9230 -0.2515
vn 0.4016 0.9143 -0.0521
vn 0.1184 0.9756 -0.1848
vn 0.2257 0.9740 0.0190
vn -0.0544 0.9908 -0.1241
vn 0.0460 0.9953 0.0852
vn -0.2240 0.9722 -0.0681
vn -0.1327 0.9803 0.1461
vn -0.3830 0.9236 -0.0192
vn -0.3031 0.9317 0.2000
vn -0.5269 0.8496 0.0242
vn -0.4590 0.8535 0.2467
vn -0.6558 0.7524 0.0626
vn -0.5991 0.7473 0.2873
vn -0.7702 0.6305 0.0963
vn -0.7208 0.6148 0.3202
vn -0.8667 0.4837 0.1218
vn -0.8206 0.4572 0.3429
vn -0.9397 0.3144 0.1348
vn -0.8935 0.2785 0.3523
vn -0.9831 0.1269 0.1322
vn -0.9347 0.0843 0.3454
vn -0.9914 -0.0704 0.1108
vn -0.9399 -0.1176 0.3204
vn -0.9613 -0.2663 0.0702
vn -0.9071 -0.3166 0.2772
vn -0.8933 -0.4493 0.0114
vn -0.8367 -0.5027 0.2172
vn -0.7899 -0.6100 -0.0630
vn -0.7320 -0.6660 0.1433
vn -0.6579 -0.7383 -0.1487
vn -0.5982 -0.7992 0.0590
vn -0.5054 -0.8288 -0.2402
vn -0.4428 -0.8961 -0.0311
vn -0.3419 -0.8793 -0.3315
vn -0.2745 -0.9538 -0.1221
vn -0.1769 -0.8915 -0.4171
vn -0.1015 -0.9726 -0.2091
vn -0.0170 -0.8700 -0.4927
vn 0.0692 -0.9553 -0.2874
vn 0.4071 -0.6529 -0.6388
vn 0.5296 -0.7239 -0.4422
vn 0.0127 -0.4643 -0.8856
vn 0.1021 -0.4001 -0.9108
vn 0.1017 -0.3997 -0.9110
vn 0.0123 -0.4639 -0.8858
vn -0.2016 -0.1544 -0.9672
vn -0.1597 -0.1217 -0.9796
vn -0.3135 0.0375 -0.9488
vn -0.2982 0.0513 -0.9531
vn -0.3640 0.1331 -0.9219
vn -0.3600 0.1376 -0.9227
vn 0.1871 -0.3202 -0.9287
vn 0.1867 -0.3199 -0.9289
vn -0.1221 -0.0794 -0.9893
vn -0.2866 0.0698 -0.9555
vn -0.3584 0.1413 -0.9228
vn 0.2658 -0.2212 -0.9383
vn 0.2653 -0.2210 -0.9385
vn -0.0898 -0.0276 -0.9956
vn -0.2790 0.0906 -0.9560
vn -0.3578 0.1466 -0.9222
vn 0.3320 -0.1015 -0.9378
vn 0.3315 -0.1013 -0.9380
vn -0.0643 0.0338 -0.9974
vn -0.2751 0.1148 -0.9546
vn -0.3584 0.1521 -0.9211
vn 0.3785 0.0366 -0.9249
vn 0.3780 0.0367 -0.9251
vn -0.0483 0.1037 -0.9934
vn -0.2748 0.1399 -0.9513
vn -0.3598 0.1573 -0.9197
vn 0.3967 0.1872 -0.8986
vn 0.3962 0.1873 -0.8989
vn -0.0446 0.1786 -0.9829
vn -0.2781 0.1658 -0.9461
vn -0.3618 0.1618 -0.9181
vn 0.3813 0.3401 -0.8596
vn 0.3808 0.3401 -0.8599
vn -0.0552 0.2544 -0.9655
vn -0.2844 0.1904 -0.9396
vn -0.3642 0.1669 -0.9162
vn 0.3813 0.3403 -0.8596
vn 0.3306 0.4844 -0.8100
vn 0.3301 0.4843 -0.8102
vn -0.0810 0.3266 -0.9417
vn -0.2936 0.2140 -0.9317
vn -0.3657 0.1704 -0.9150
vn 0.2475 0.6096 -0.7531
vn 0.2470 0.6094 -0.7534
vn -0.1208 0.3904 -0.9127
vn -0.3056 0.2360 -0.9224
vn -0.3671 0.1742 -0.9137
vn 0.1381 0.7084 -0.6921
vn 0.1377 0.7081 -0.6925
vn -0.1712 0.4422 -0.8804
vn -0.3203 0.2560 -0.9121
vn -0.3696 0.1788 -0.9118
vn 0.0118 0.7749 -0.6319
vn 0.0115 0.7746 -0.6323
vn -0.2292 0.4802 -0.8467
vn -0.3373 0.2733 -0.9009
vn -0.3723 0.1833 -0.9098
vn -0.1178 0.8078 -0.5775
vn -0.1180 0.8075 -0.5779
vn -0.2899 0.5031 -0.8142
vn -0.3574 0.2870 -0.8888
vn -0.3754 0.1876 -0.9077
vn -0.2433 0.8131 -0.5288
vn -0.2434 0.8128 -0.5292
vn -0.3507 0.5115 -0.7844
vn -0.3779 0.2963 -0.8771
vn -0.3794 0.1912 -0.9053
vn -0.3636 0.7949 -0.4858
vn -0.3637 0.7945 -0.4862
vn -0.4092 0.5076 -0.7582
vn -0.3995 0.3003 -0.8662
vn -0.3841 0.1934 -0.9028
vn -0.4735 0.7577 -0.4491
vn -0.4735 0.7574 -0.4496
vn -0.4636 0.4932 -0.7361
vn -0.4198 0.2991 -0.8569
vn -0.3889 0.1940 -0.9006
vn -0.5721 0.7060 -0.4175
vn -0.5720 0.7058 -0.4180
vn -0.5135 0.4692 -0.7185
vn -0.4398 0.2909 -0.8497
vn -0.3934 0.1925 -0.8990
vn -0.6627 0.6396 -0.3895
vn -0.6626 0.6394 -0.3901
vn -0.5592 0.4355 -0.7054
vn -0.4571 0.2768 -0.8453
vn -0.3972 0.1889 -0.8981
vn -0.7461 0.5562 -0.3659
vn -0.7460 0.5561 -0.3664
vn -0.6005 0.3920 -0.6969
vn -0.4708 0.2575 -0.8438
vn -0.3995 0.1840 -0.8981
vn -0.8204 0.4535 -0.3482
vn -0.8203 0.4534 -0.3487
vn -0.6363 0.3377 -0.6936
vn -0.4803 0.2343 -0.8452
vn -0.4003 0.1783 -0.8989
vn -0.8805 0.3309 -0.3394
vn -0.8803 0.3308 -0.3400
vn -0.6640 0.2738 -0.6959
vn -0.4853 0.2096 -0.8488
vn -0.3997 0.1727 -0.9002
vn -0.9198 0.1909 -0.3429
vn -0.9196 0.1909 -0.3435
vn -0.6807 0.2018 -0.7042
vn -0.4860 0.1833 -0.8545
vn -0.3982 0.1674 -0.9019
vn -0.9318 0.0397 -0.3608
vn -0.9316 0.0398 -0.3614
vn -0.6838 0.1252 -0.7188
vn -0.4823 0.1563 -0.8619
vn -0.3962 0.1626 -0.9036
vn -0.9122 -0.1128 -0.3939
vn -0.9120 -0.1126 -0.3944
vn -0.6715 0.0483 -0.7394
vn -0.4750 0.1310 -0.8702
vn -0.3939 0.1579 -0.9055
vn -0.8600 -0.2562 -0.4414
vn -0.8598 -0.2559 -0.4419
vn -0.6437 -0.0238 -0.7649
vn -0.4643 0.1073 -0.8792
vn -0.3916 0.1539 -0.9072
vn -0.7779 -0.3801 -0.5005
vn -0.7777 -0.3797 -0.5010
vn -0.6003 -0.0874 -0.7950
vn -0.4505 0.0856 -0.8887
vn -0.3904 0.1504 -0.9083
vn -0.6720 -0.4764 -0.5670
vn -0.6719 -0.4760 -0.5674
vn -0.5467 -0.1376 -0.8260
vn -0.4341 0.0665 -0.8984
vn -0.3875 0.1459 -0.9103
vn -0.5511 -0.5406 -0.6357
vn -0.5510 -0.5401 -0.6361
vn -0.4855 -0.1731 -0.8570
vn -0.4150 0.0503 -0.9084
vn -0.3846 0.1415 -0.9122
vn -0.4247 -0.5719 -0.7018
vn -0.4247 -0.5715 -0.7021
vn -0.4217 -0.1936 -0.8858
vn -0.3951 0.0379 -0.9179
vn -0.3814 0.1375 -0.9141
vn -0.3013 -0.5744 -0.7611
vn -0.3014 -0.5740 -0.7614
vn -0.3591 -0.2000 -0.9116
vn -0.3737 0.0298 -0.9271
vn -0.3774 0.1341 -0.9163
vn -0.1868 -0.5536 -0.8116
vn -0.1870 -0.5531 -0.8119
vn -0.3010 -0.1944 -0.9336
vn -0.3523 0.0267 -0.9355
vn -0.3729 0.1320 -0.9184
vn -0.0826 -0.5156 -0.8529
vn -0.0829 -0.5151 -0.8531
vn -0.2482 -0.1785 -0.9521
vn -0.3319 0.0292 -0.9429
vn -0.3682 0.1316 -0.9204
s 1
usemtl ButtonE
f 1//1 2//2 3//3
f 1//1 3//3 4//4
f 5//5 6//6 7//7
f 5//5 7//7 8//8
f 8//8 7//7 9//9
f 8//8 9//9 10//10
f 10//10 9//9 11//11
f 10//10 11//11 12//12
f 12//12 11//11 13//13
f 12//12 13//13 14//14
f 14//14 13//13 15//15
f 14//14 15//15 16//16
f 17//17 18//18 19//19
f 17//17 19//19 20//20
f 20//20 19//19 21//21
f 20//20 21//21 22//22
f 22//22 21//21 23//23
f 22//22 23//23 24//24
f 24//24 23//23 25//25
f 24//24 25//25 26//26
f 26//26 25//25 27//27
f 26//26 27//27 28//28
f 28//28 27//27 29//29
f 28//28 29//29 30//30
f 30//30 29//29 31//31
f 30//30 31//31 32//32
f 32//32 31//31 33//33
f 32//32 33//33 34//34
f 34//34 33//33 35//35
f 34//34 35//35 36//36
f 36//36 35//35 37//37
f 36//36 37//37 38//38
f 38//38 37//37 39//39
f 38//38 39//39 40//40
f 40//40 39//39 41//41
f 40//40 41//41 42//42
f 42//42 41//41 43//43
f 42//42 43//43 44//44
f 44//44 43//43 45//45
f 44//44 45//45 46//46
f 46//46 45//45 47//47
f 46//46 47//47 48//48
f 48//48 47//47 49//49
f 48//48 49//49 50//50
f 50//50 49//49 51//51
f 50//50 51//51 52//52
f 52//52 51//51 53//53
f 52//52 53//53 54//54
f 54//54 53//53 55//55
f 54//54 55//55 56//56
f 56//56 55//55 57//57
f 56//56 57//57 58//58
f 58//58 57//57 59//59
f 58//58 59//59 60//60
f 60//60 59//59 61//61
f 60//60 61//61 62//62
f 62//62 61//61 63//63
f 62//62 63//63 64//64
f 64//64 63//63 2//2
f 64//64 2//2 1//1
f 4//4 3//3 65//65
f 4//4 65//65 66//66
f 66//66 65//65 6//6
f 66//66 6//6 5//5
f 65//65 3//3 67//67
f 65//65 67//67 68//68
f 69//69 70//70 71//71
f 69//69 71//71 72//72
f 72//72 71//71 73//73
f 72//72 73//73 74//74
f 74//74 73//73 75//75
f 74//74 75//75 76//76
f 6//6 65//65 68//68
f 6//6 68//68 77//77
f 78//78 69//69 72//72
f 78//78 72//72 79//79
f 79//79 72//72 74//74
f 79//79 74//74 80//80
f 80//80 74//74 76//76
f 80//80 76//76 81//81
f 7//7 6//6 77//77
f 7//7 77//77 82//82
f 83//83 78//78 79//79
f 83//83 79//79 84//84
f 84//84 79//79 80//80
f 84//84 80//80 85//85
f 85//85 80//80 81//81
f 85//85 81//81 86//86
f 9//9 7//7 82//82
f 9//9 82//82 87//87
f 88//88 83//83 84//84
f 88//88 84//84 89//89
f 89//89 84//84 85//85
f 89//89 85//85 90//90
f 90//90 85//85 86//86
f 90//90 86//86 91//91
f 11//11 9//9 87//87
f 11//11 87//87 92//92
f 93//93 88//88 89//89
f 93//93 89//89 94//94
f 94//94 89//89 90//90
f 94//94 90//90 95//95
f 95//95 90//90 91//91
f 95//95 91//91 96//96
f 13//13 11//11 92//92
f 13//13 92//92 97//97
f 98//98 93//93 94//94
f 98//98 94//94 99//99
f 99//99 94//94 95//95
f 99//99 95//95 100//100
f 100//100 95//95 96//96
f 100//100 96//96 101//101
f 15//15 13//13 97//97
f 15//15 97//97 102//102
f 103//103 98//98 99//99
f 103//103 99//99 104//104
f 104//104 99//99 100//100
f 104//104 100//100 105//105
f 105//105 100//100 101//101
f 105//105 101//101 106//106
f 19//19 18//18 107//107
f 19//19 107//107 108//108
f 109//109 103//103 104//104
f 109//109 104//104 110//110
f 110//110 104//104 105//105
f 110//110 105//105 111//111
f 111//111 105//105 106//106
f 111//111 106//106 112//112
f 21//21 19//19 108//108
f 21//21 108//108 113//113
f 114//114 109//109 110//110
f 114//114 110//110 115//115
f 115//115 110//110 111//111
f 115//115 111//111 116//116
f 116//116 111//111 112//112
f 116//116 112//112 117//117
f 23//23 21//21 113//113
f 23//23 113//113 118//118
f 119//119 114//114 115//115
f 119//119 115//115 120//120
f 120//120 115//115 116//116
f 120//120 116//116 121//121
f 121//121 116//116 117//117
f 121//121 117//117 122//122
f 25//25 23//23 118//118
f 25//25 118//118 123//123
f 124//124 119//119 120//120
f 124//124 120//120 125//125
f 125//125 120//120 121//121
f 125//125 121//121 126//126
f 126//126 121//121 122//122
f 126//126 122//122 127//127
f 27//27 25//25 123//123
f 27//27 123//123 128//128
f 129//129 124//124 125//125
f 129//129 125//125 130//130
f 130//130 125//125 126//126
f 130//130 126//126 131//131
f 131//131 126//126 127//127
f 131//131 127//127 132//132
f 29//29 27//27 128//128
f 29//29 128//128 133//133
f 134//134 129//129 130//130
f 134//134 130//130 135//135
f 135//135 130//130 131//131
f 135//135 131//131 136//136
f 136//136 131//131 132//132
f 136//136 132//132 137//137
f 31//31 29//29 133//133
f 31//31 133//133 138//138
f 139//139 134//134 135//135
f 139//139 135//135 140//140
f 140//140 135//135 136//136
f 140//140 136//136 141//141
f 141//141 136//136 137//137
f 141//141 137//137 142//142
f 33//33 31//31 138//138
f 33//33 138//138 143//143
f 144//144 139//139 140//140
f 144//144 140//140 145//145
f 145//145 140//140 141//141
f 145//145 141//141 146//146
f 146//146 141//141 142//142
f 146//146 142//142 147//147
f 35//35 33//33 143//143
f 35//35 143//143 148//148
f 149//149 144//144 145//145
f 149//149 145//145 150//150
f 150//150 145//145 146//146
f 150//150 146//146 151//151
f 151//151 146//146 147//147
f 151//151 147//147 152//152
f 37//37 35//35 148//148
f 37//37 148//148 153//153
f 154//154 149//149 150//150
f 154//154 150//150 155//155
f 155//155 150//150 151//151
f 155//155 151//151 156//156
f 156//156 151//151 152//152
f 156//156 152//152 157//157
f 39//39 37//37 153//153
f 39//39 153//153 158//158
f 159//159 154//154 155//155
f 159//159 155//155 160//160
f 160//160 155//155 156//156
f 160//160 156//156 161//161
f 161//161 156//156 157//157
f 161//161 157//157 162//162
f 41//41 39//39 158//158
f 41//41 158//158 163//163
f 164//164 159//159 160//160
f 164//164 160//160 165//165
f 165//165 160//160 161//161
f 165//165 161//161 166//166
f 166//166 161//161 162//162
f 166//166 162//162 167//167
f 43//43 41//41 163//163
f 43//43 163//163 168//168
f 169//169 164//164 165//165
f 169//169 165//165 170//170
f 170//170 165//165 166//166
f 170//170 166//166 171//171
f 171//171 166//166 167//167
f 171//171 167//167 172//172
f 45//45 43//43 168//168
f 45//45 168//168 173//173
f 174//174 169//169 170//170
f 174//174 170//170 175//175
f 175//175 170//170 171//171
f 175//175 171//171 176//176
f 176//176 171//171 172//172
f 176//176 172//172 177//177
f 47//47 45//45 173//173
f 47//47 173//173 178//178
f 179//179 174//174 175//175
f 179//179 175//175 180//180
f 180//180 175//175 176//176
f 180//180 176//176 181//181
f 181//181 176//176 177//177
f 181//181 177//177 182//182
f 49//49 47//47 178//178
f 49//49 178//178 183//183
f 184//184 179//179 180//180
f 184//184 180//180 185//185
f 185//185 180//180 181//181
f 185//185 181//181 186//186
f 186//186 181//181 182//182
f 186//186 182//182 187//187
f 51//51 49//49 183//183
f 51//51 183//183 188//188
f 189//189 184//184 185//185
f 189//189 185//185 190//190
f 190//190 185//185 186//186
f 190//190 186//186 191//191
f 191//191 186//186 187//187
f 191//191 187//187 192//192
f 53//53 51//51 188//188
f 53//53 188//188 193//193
f 194//194 189//189 190//190
f 194//194 190//190 195//195
f 195//195 190//190 191//191
f 195//195 191//191 196//196
f 196//196 191//191 192//192
f 196//196 192//192 197//197
f 55//55 53//53 193//193
f 55//55 193//193 198//198
f 199//199 194//194 195//195
f 199//199 195//195 200//200
f 200//200 195//195 196//196
f 200//200 196//196 201//201
f 201//201 196//196 197//197
f 201//201 197//197 202//202
f 57//57 55//55 198//198
f 57//57 198//198 203//203
f 204//204 199//199 200//200
f 204//204 200//200 205//205
f 205//205 200//200 201//201
f 205//205 201//201 206//206
f 206//206 201//201 202//202
f 206//206 202//202 207//207
f 59//59 57//57 203//203
f 59//59 203//203 208//208
f 209//209 204//204 205//205
f 209//209 205//205 210//210
f 210//210 205//205 206//206
f 210//210 206//206 211//211
f 211//211 206//206 207//207
f 211//211 207//207 212//212
f 61//61 59//59 208//208
f 61//61 208//208 213//213
f 214//214 209//209 210//210
f 214//214 210//210 215//215
f 215//215 210//210 211//211
f 215//215 211//211 216//216
f 216//216 211//211 212//212
f 216//216 212//212 217//217
f 63//63 61//61 213//213
f 63//63 213//213 218//218
f 219//219 214//214 215//215
f 219//219 215//215 220//220
f 220//220 215//215 216//216
f 220//220 216//216 221//221
f 221//221 216//216 217//217
f 221//221 217//217 222//222
f 2//2 63//63 218//218
f 2//2 218//218 223//223
f 224//224 219//219 220//220
f 224//224 220//220 225//225
f 225//225 220//220 221//221
f 225//225 221//221 226//226
f 226//226 221//221 222//222
f 226//226 222//222 227//227
f 3//3 2//2 223//223
f 3//3 223//223 67//67
f 70//70 224//224 225//225
f 70//70 225//225 71//71
f 71//71 225//225 226//226
f 71//71 226//226 73//73
f 73//73 226//226 227//227
f 73//73 227//227 75//75
f 177//177 187//187 182//182
f 187//187 177//177 172//172
f 187//187 172//172 192//192
f 192//192 172//172 167//167
f 192//192 167//167 197//197
f 197//197 167//167 162//162
f 197//197 162//162 202//202
f 202//202 162//162 157//157
f 202//202 157//157 207//207
f 207//207 157//157 152//152
f 207//207 152//152 212//212
f 212//212 152//152 147//147
f 212//212 147//147 217//217
f 217//217 147//147 142//142
f 217//217 142//142 222//222
f 222//222 142//142 137//137
f 222//222 137//137 227//227
f 227//227 137//137 132//132
f 227//227 132//132 75//75
f 75//75 132//132 127//127
f 75//75 127//127 76//76
f 76//76 127//127 122//122
f 76//76 122//122 81//81
f 81//81 122//122 117//117
f 81//81 117//117 86//86
f 86//86 117//117 112//112
f 86//86 112//112 91//91
f 91//91 112//112 106//106
f 91//91 106//106 96//96
f 96//96 106//106 101//101
