# Blender 4.2.0
# www.blender.org
mtllib ButtonsSide_ButtonD_0.mtl
o ButtonsSide_ButtonD_0
v 0.002757 -0.006163 -0.000787
v 0.002720 -0.006465 0.002705
v 0.003719 -0.006382 0.002723
v 0.003755 -0.006080 -0.000770
v 0.005706 -0.006497 -0.000785
v 0.005669 -0.006799 0.002707
v 0.006546 -0.007283 0.002674
v 0.006583 -0.006981 -0.000818
v 0.007312 -0.007928 0.002626
v 0.007348 -0.007626 -0.000866
v 0.007937 -0.008710 0.002565
v 0.007973 -0.008408 -0.000927
v 0.008396 -0.009598 0.002493
v 0.008433 -0.009295 -0.000999
v 0.008673 -0.010557 0.002413
v 0.008710 -0.010255 -0.001079
v 0.008757 -0.011552 0.002328
v 0.008794 -0.011250 -0.001164
v 0.008645 -0.012545 0.002241
v 0.008681 -0.012242 -0.001251
v 0.008340 -0.013496 0.002156
v 0.008377 -0.013193 -0.001337
v 0.008377 -0.013193 -0.001337
v 0.008340 -0.013496 0.002156
v 0.007855 -0.014369 0.002075
v 0.007892 -0.014067 -0.001417
v 0.007208 -0.015131 0.002002
v 0.007245 -0.014829 -0.001490
v 0.006424 -0.015753 0.001940
v 0.006461 -0.015450 -0.001552
v 0.005534 -0.016210 0.001892
v 0.005570 -0.015908 -0.001601
v 0.004571 -0.016485 0.001858
v 0.004607 -0.016183 -0.001635
v 0.003572 -0.016568 0.001840
v 0.003609 -0.016266 -0.001652
v 0.002576 -0.016455 0.001839
v 0.002613 -0.016153 -0.001653
v 0.001622 -0.016150 0.001856
v 0.001658 -0.015848 -0.001636
v 0.000745 -0.015666 0.001889
v 0.000781 -0.015364 -0.001604
v -0.000021 -0.015021 0.001936
v 0.000016 -0.014719 -0.001556
v -0.000645 -0.014240 0.001997
v -0.000609 -0.013938 -0.001495
v -0.001105 -0.013352 0.002069
v -0.001069 -0.013050 -0.001423
v -0.001382 -0.012392 0.002150
v -0.001346 -0.012090 -0.001343
v -0.001466 -0.011397 0.002235
v -0.001430 -0.011095 -0.001258
v -0.001354 -0.010405 0.002322
v -0.001317 -0.010103 -0.001171
v -0.001049 -0.009454 0.002407
v -0.001013 -0.009152 -0.001085
v -0.000564 -0.008581 0.002488
v -0.000528 -0.008279 -0.001005
v 0.000083 -0.007819 0.002560
v 0.000119 -0.007517 -0.000932
v 0.000867 -0.007197 0.002622
v 0.000903 -0.006895 -0.000870
v 0.001757 -0.006740 0.002671
v 0.001794 -0.006438 -0.000821
v 0.004715 -0.006495 0.002723
v 0.004751 -0.006193 -0.000769
v 0.003706 -0.006669 0.003708
v 0.004662 -0.006778 0.003708
v 0.003688 -0.007313 0.004508
v 0.004534 -0.007409 0.004509
v 0.004534 -0.007409 0.004509
v 0.003688 -0.007313 0.004508
v 0.003670 -0.008216 0.005002
v 0.004348 -0.008293 0.005002
v 0.003654 -0.009240 0.005114
v 0.004135 -0.009295 0.005114
v 0.005579 -0.007070 0.003693
v 0.005344 -0.007667 0.004495
v 0.005344 -0.007667 0.004495
v 0.004999 -0.008500 0.004991
v 0.004596 -0.009442 0.005107
v 0.006422 -0.007535 0.003661
v 0.006088 -0.008078 0.004467
v 0.006088 -0.008078 0.004467
v 0.005596 -0.008830 0.004969
v 0.005020 -0.009676 0.005091
v 0.007157 -0.008155 0.003615
v 0.006738 -0.008625 0.004426
v 0.006738 -0.008625 0.004426
v 0.006117 -0.009269 0.004936
v 0.005390 -0.009988 0.005068
v 0.007757 -0.008905 0.003557
v 0.007268 -0.009289 0.004375
v 0.007268 -0.009289 0.004375
v 0.006542 -0.009801 0.004895
v 0.005692 -0.010365 0.005038
v 0.008199 -0.009758 0.003487
v 0.007658 -0.010042 0.004314
v 0.007658 -0.010042 0.004314
v 0.006855 -0.010406 0.004846
v 0.005914 -0.010794 0.005003
v 0.008465 -0.010680 0.003410
v 0.007893 -0.010856 0.004246
v 0.007893 -0.010856 0.004246
v 0.007044 -0.011059 0.004791
v 0.006048 -0.011258 0.004965
v 0.008546 -0.011636 0.003329
v 0.007964 -0.011701 0.004173
v 0.007964 -0.011701 0.004173
v 0.007101 -0.011737 0.004733
v 0.006088 -0.011739 0.004923
v 0.008438 -0.012589 0.003245
v 0.007869 -0.012543 0.004099
v 0.007869 -0.012543 0.004099
v 0.007025 -0.012413 0.004674
v 0.006034 -0.012218 0.004881
v 0.008145 -0.013503 0.003163
v 0.007610 -0.013350 0.004027
v 0.007610 -0.013350 0.004027
v 0.006817 -0.013060 0.004616
v 0.005887 -0.012678 0.004840
v 0.008145 -0.013503 0.003163
v 0.007679 -0.014342 0.003086
v 0.007610 -0.013350 0.004027
v 0.007199 -0.014091 0.003959
v 0.007199 -0.014091 0.003959
v 0.006487 -0.013655 0.004561
v 0.005652 -0.013100 0.004801
v 0.007058 -0.015074 0.003016
v 0.006650 -0.014738 0.003897
v 0.006650 -0.014738 0.003897
v 0.006046 -0.014174 0.004511
v 0.005340 -0.013468 0.004766
v 0.006305 -0.015671 0.002956
v 0.005985 -0.015265 0.003844
v 0.005985 -0.015265 0.003844
v 0.005513 -0.014597 0.004469
v 0.004961 -0.013768 0.004736
v 0.005449 -0.016110 0.002909
v 0.005229 -0.015653 0.003803
v 0.005229 -0.015653 0.003803
v 0.004906 -0.014909 0.004436
v 0.004531 -0.013989 0.004713
v 0.004524 -0.016375 0.002877
v 0.004411 -0.015887 0.003774
v 0.004411 -0.015887 0.003774
v 0.004250 -0.015096 0.004413
v 0.004065 -0.014122 0.004696
v 0.003565 -0.016454 0.002860
v 0.003564 -0.015957 0.003759
v 0.003564 -0.015957 0.003759
v 0.003570 -0.015152 0.004401
v 0.003583 -0.014162 0.004688
v 0.002608 -0.016346 0.002859
v 0.002719 -0.015861 0.003759
v 0.002719 -0.015861 0.003759
v 0.002892 -0.015075 0.004401
v 0.003102 -0.014108 0.004687
v 0.001691 -0.016053 0.002875
v 0.001909 -0.015603 0.003773
v 0.001909 -0.015603 0.003773
v 0.002242 -0.014868 0.004412
v 0.002640 -0.013961 0.004695
v 0.000848 -0.015588 0.002906
v 0.001164 -0.015192 0.003800
v 0.001164 -0.015192 0.003800
v 0.001645 -0.014538 0.004434
v 0.002216 -0.013727 0.004711
v 0.000113 -0.014968 0.002952
v 0.000515 -0.014645 0.003841
v 0.000515 -0.014645 0.003841
v 0.001124 -0.014099 0.004467
v 0.001847 -0.013415 0.004734
v -0.000487 -0.014218 0.003011
v -0.000015 -0.013981 0.003893
v -0.000015 -0.013981 0.003893
v 0.000698 -0.013567 0.004508
v 0.001545 -0.013037 0.004764
v -0.000929 -0.013365 0.003080
v -0.000405 -0.013228 0.003954
v -0.000405 -0.013228 0.003954
v 0.000385 -0.012963 0.004557
v 0.001323 -0.012608 0.004798
v -0.001195 -0.012443 0.003157
v -0.000641 -0.012414 0.004022
v -0.000641 -0.012414 0.004022
v 0.000196 -0.012309 0.004612
v 0.001189 -0.012145 0.004837
v -0.001276 -0.011487 0.003239
v -0.000712 -0.011569 0.004094
v -0.000712 -0.011569 0.004094
v 0.000139 -0.011631 0.004670
v 0.001148 -0.011664 0.004878
v -0.001167 -0.010534 0.003323
v -0.000616 -0.010727 0.004168
v -0.000616 -0.010727 0.004168
v 0.000216 -0.010956 0.004729
v 0.001203 -0.011184 0.004920
v -0.000875 -0.009620 0.003405
v -0.000358 -0.009920 0.004240
v -0.000358 -0.009920 0.004240
v 0.000423 -0.010308 0.004787
v 0.001350 -0.010725 0.004962
v -0.000409 -0.008781 0.003482
v 0.000054 -0.009179 0.004309
v 0.000054 -0.009179 0.004309
v 0.000754 -0.009713 0.004842
v 0.001584 -0.010303 0.005001
v 0.000213 -0.008049 0.003552
v 0.000603 -0.008532 0.004370
v 0.000603 -0.008532 0.004370
v 0.001194 -0.009194 0.004892
v 0.001897 -0.009935 0.005036
v 0.000965 -0.007452 0.003611
v 0.001268 -0.008005 0.004423
v 0.001268 -0.008005 0.004423
v 0.001728 -0.008771 0.004934
v 0.002275 -0.009634 0.005066
v 0.001821 -0.007013 0.003658
v 0.002024 -0.007617 0.004465
v 0.002024 -0.007617 0.004465
v 0.002334 -0.008460 0.004967
v 0.002706 -0.009413 0.005089
v 0.002746 -0.006748 0.003691
v 0.002841 -0.007383 0.004493
v 0.002841 -0.007383 0.004493
v 0.002990 -0.008272 0.004990
v 0.003171 -0.009280 0.005106
vn -0.1810 0.9800 0.0829
vn -0.1811 0.9668 0.1800
vn 0.0133 0.9829 0.1834
vn 0.0143 0.9962 0.0863
vn 0.3959 0.9145 0.0832
vn 0.3930 0.9017 0.1804
vn 0.5637 0.8075 0.1740
vn 0.5674 0.8198 0.0768
vn 0.7127 0.6819 0.1647
vn 0.7171 0.6937 0.0675
vn 0.8343 0.5298 0.1528
vn 0.8393 0.5408 0.0555
vn 0.9237 0.3570 0.1388
vn 0.9292 0.3672 0.0415
vn 0.9777 0.1701 0.1232
vn 0.9834 0.1794 0.0258
vn 0.9940 -0.0236 0.1066
vn 0.9998 -0.0152 0.0091
vn 0.9721 -0.2167 0.0897
vn 0.9778 -0.2092 -0.0079
vn 0.9129 -0.4016 0.0730
vn 0.9184 -0.3950 -0.0246
vn 0.9181 -0.3955 -0.0246
vn 0.9128 -0.4019 0.0730
vn 0.8184 -0.5718 0.0573
vn 0.8234 -0.5661 -0.0404
vn 0.6925 -0.7201 0.0432
vn 0.6969 -0.7151 -0.0546
vn 0.5399 -0.8411 0.0311
vn 0.5436 -0.8367 -0.0667
vn 0.3666 -0.9301 0.0216
vn 0.3694 -0.9261 -0.0763
vn 0.1791 -0.9837 0.0150
vn 0.1810 -0.9800 -0.0829
vn -0.0153 -0.9998 0.0116
vn -0.0143 -0.9962 -0.0863
vn -0.2091 -0.9778 0.0115
vn -0.2091 -0.9741 -0.0864
vn -0.3950 -0.9186 0.0147
vn -0.3959 -0.9145 -0.0832
vn -0.5657 -0.8243 0.0210
vn -0.5674 -0.8198 -0.0768
vn -0.7147 -0.6988 0.0304
vn -0.7171 -0.6937 -0.0675
vn -0.8363 -0.5466 0.0422
vn -0.8393 -0.5408 -0.0555
vn -0.9258 -0.3739 0.0563
vn -0.9292 -0.3672 -0.0415
vn -0.9797 -0.1870 0.0718
vn -0.9834 -0.1794 -0.0258
vn -0.9961 0.0067 0.0884
vn -0.9998 0.0152 -0.0091
vn -0.9742 0.1998 0.1054
vn -0.9778 0.2092 0.0079
vn -0.9149 0.3849 0.1220
vn -0.9182 0.3952 0.0246
vn -0.8204 0.5549 0.1377
vn -0.8234 0.5661 0.0404
vn -0.6945 0.7033 0.1518
vn -0.6969 0.7151 0.0546
vn -0.5420 0.8243 0.1639
vn -0.5436 0.8367 0.0667
vn -0.3686 0.9133 0.1734
vn -0.3694 0.9261 0.0763
vn 0.2071 0.9609 0.1835
vn 0.2091 0.9741 0.0864
vn 0.0093 0.8888 0.4583
vn 0.1895 0.8683 0.4584
vn 0.0029 0.6485 0.7612
vn 0.1415 0.6328 0.7613
vn 0.1414 0.6323 0.7617
vn 0.0029 0.6480 0.7616
vn -0.0040 0.3107 0.9505
vn 0.0723 0.3021 0.9505
vn -0.0089 0.0175 0.9998
vn 0.0113 0.0152 0.9998
vn 0.3623 0.8132 0.4554
vn 0.2744 0.5904 0.7590
vn 0.2743 0.5900 0.7594
vn 0.1454 0.2788 0.9493
vn 0.0307 0.0090 0.9995
vn 0.5209 0.7256 0.4495
vn 0.3965 0.5230 0.7545
vn 0.3963 0.5226 0.7549
vn 0.2126 0.2417 0.9468
vn 0.0484 -0.0008 0.9988
vn 0.6594 0.6089 0.4409
vn 0.5031 0.4332 0.7478
vn 0.5028 0.4329 0.7482
vn 0.2712 0.1923 0.9431
vn 0.0639 -0.0139 0.9979
vn 0.7724 0.4675 0.4298
vn 0.5901 0.3244 0.7393
vn 0.5897 0.3241 0.7397
vn 0.3190 0.1324 0.9384
vn 0.0766 -0.0297 0.9966
vn 0.8556 0.3069 0.4168
vn 0.6541 0.2008 0.7293
vn 0.6537 0.2006 0.7297
vn 0.3542 0.0645 0.9329
vn 0.0859 -0.0477 0.9952
vn 0.9058 0.1333 0.4023
vn 0.6927 0.0672 0.7181
vn 0.6922 0.0671 0.7185
vn 0.3755 -0.0090 0.9268
vn 0.0915 -0.0671 0.9935
vn 0.9209 -0.0468 0.3869
vn 0.7043 -0.0713 0.7063
vn 0.7039 -0.0714 0.7067
vn 0.3819 -0.0852 0.9203
vn 0.0932 -0.0873 0.9918
vn 0.9006 -0.2263 0.3711
vn 0.6887 -0.2094 0.6942
vn 0.6883 -0.2094 0.6946
vn 0.3733 -0.1612 0.9136
vn 0.0909 -0.1074 0.9900
vn 0.8455 -0.3983 0.3557
vn 0.6463 -0.3417 0.6823
vn 0.6459 -0.3417 0.6827
vn 0.3499 -0.2340 0.9071
vn 0.0848 -0.1267 0.9883
vn 0.7577 -0.5564 0.3411
vn 0.6462 -0.3419 0.6823
vn 0.5787 -0.4634 0.6711
vn 0.5784 -0.4632 0.6715
vn 0.3128 -0.3009 0.9009
vn 0.0749 -0.1443 0.9867
vn 0.6407 -0.6943 0.3280
vn 0.4887 -0.5695 0.6610
vn 0.4884 -0.5693 0.6614
vn 0.2633 -0.3593 0.8953
vn 0.0618 -0.1598 0.9852
vn 0.4989 -0.8067 0.3167
vn 0.3796 -0.6561 0.6523
vn 0.3793 -0.6558 0.6528
vn 0.2032 -0.4069 0.8906
vn 0.0460 -0.1724 0.9840
vn 0.3377 -0.8895 0.3079
vn 0.2556 -0.7197 0.6455
vn 0.2554 -0.7194 0.6460
vn 0.1350 -0.4419 0.8868
vn 0.0279 -0.1816 0.9830
vn 0.1635 -0.9393 0.3018
vn 0.1215 -0.7580 0.6408
vn 0.1214 -0.7577 0.6413
vn 0.0613 -0.4630 0.8842
vn 0.0084 -0.1872 0.9823
vn -0.0172 -0.9542 0.2986
vn -0.0175 -0.7695 0.6384
vn -0.0175 -0.7692 0.6388
vn -0.0152 -0.4693 0.8829
vn -0.0118 -0.1889 0.9819
vn -0.1974 -0.9338 0.2985
vn -0.1561 -0.7538 0.6383
vn -0.1561 -0.7534 0.6387
vn -0.0915 -0.4607 0.8829
vn -0.0320 -0.1866 0.9819
vn -0.3702 -0.8787 0.3014
vn -0.2891 -0.7115 0.6405
vn -0.2889 -0.7111 0.6410
vn -0.1646 -0.4373 0.8841
vn -0.0514 -0.1804 0.9822
vn -0.5288 -0.7911 0.3074
vn -0.4111 -0.6440 0.6451
vn -0.4109 -0.6438 0.6455
vn -0.2317 -0.4003 0.8866
vn -0.0691 -0.1706 0.9829
vn -0.6673 -0.6744 0.3160
vn -0.5177 -0.5542 0.6518
vn -0.5174 -0.5540 0.6522
vn -0.2903 -0.3509 0.8903
vn -0.0846 -0.1576 0.9839
vn -0.7803 -0.5330 0.3271
vn -0.6047 -0.4455 0.6602
vn -0.6044 -0.4453 0.6607
vn -0.3382 -0.2910 0.8950
vn -0.0973 -0.1417 0.9851
vn -0.8635 -0.3724 0.3401
vn -0.6687 -0.3219 0.6703
vn -0.6683 -0.3217 0.6707
vn -0.3734 -0.2231 0.9005
vn -0.1066 -0.1237 0.9866
vn -0.9137 -0.1987 0.3546
vn -0.7072 -0.1882 0.6814
vn -0.7069 -0.1882 0.6819
vn -0.3946 -0.1495 0.9066
vn -0.1122 -0.1043 0.9882
vn -0.9288 -0.0187 0.3700
vn -0.7189 -0.0497 0.6933
vn -0.7185 -0.0498 0.6937
vn -0.4010 -0.0733 0.9131
vn -0.1139 -0.0841 0.9899
vn -0.9085 0.1608 0.3857
vn -0.7033 0.0884 0.7054
vn -0.7029 0.0883 0.7058
vn -0.3924 0.0026 0.9198
vn -0.1116 -0.0640 0.9917
vn -0.8534 0.3329 0.4012
vn -0.6609 0.2208 0.7173
vn -0.6605 0.2206 0.7177
vn -0.3691 0.0755 0.9263
vn -0.1055 -0.0448 0.9934
vn -0.7656 0.4909 0.4158
vn -0.5934 0.3424 0.7285
vn -0.5930 0.3421 0.7289
vn -0.3319 0.1423 0.9325
vn -0.0956 -0.0271 0.9950
vn -0.6486 0.6288 0.4289
vn -0.5033 0.4484 0.7386
vn -0.5030 0.4481 0.7390
vn -0.2824 0.2007 0.9381
vn -0.0825 -0.0116 0.9965
vn -0.5068 0.7413 0.4401
vn -0.3942 0.5350 0.7473
vn -0.3940 0.5346 0.7477
vn -0.2224 0.2483 0.9428
vn -0.0667 0.0010 0.9978
vn -0.3456 0.8240 0.4490
vn -0.2702 0.5986 0.7541
vn -0.2701 0.5982 0.7544
vn -0.1542 0.2833 0.9466
vn -0.0486 0.0102 0.9988
vn -0.1714 0.8738 0.4551
vn -0.1361 0.6370 0.7588
vn -0.1361 0.6365 0.7592
vn -0.0804 0.3044 0.9491
vn -0.0291 0.0158 0.9995
s 1
usemtl ButtonE
f 1//1 2//2 3//3
f 1//1 3//3 4//4
f 5//5 6//6 7//7
f 5//5 7//7 8//8
f 8//8 7//7 9//9
f 8//8 9//9 10//10
f 10//10 9//9 11//11
f 10//10 11//11 12//12
f 12//12 11//11 13//13
f 12//12 13//13 14//14
f 14//14 13//13 15//15
f 14//14 15//15 16//16
f 16//16 15//15 17//17
f 16//16 17//17 18//18
f 18//18 17//17 19//19
f 18//18 19//19 20//20
f 20//20 19//19 21//21
f 20//20 21//21 22//22
f 23//23 24//24 25//25
f 23//23 25//25 26//26
f 26//26 25//25 27//27
f 26//26 27//27 28//28
f 28//28 27//27 29//29
f 28//28 29//29 30//30
f 30//30 29//29 31//31
f 30//30 31//31 32//32
f 32//32 31//31 33//33
f 32//32 33//33 34//34
f 34//34 33//33 35//35
f 34//34 35//35 36//36
f 36//36 35//35 37//37
f 36//36 37//37 38//38
f 38//38 37//37 39//39
f 38//38 39//39 40//40
f 40//40 39//39 41//41
f 40//40 41//41 42//42
f 42//42 41//41 43//43
f 42//42 43//43 44//44
f 44//44 43//43 45//45
f 44//44 45//45 46//46
f 46//46 45//45 47//47
f 46//46 47//47 48//48
f 48//48 47//47 49//49
f 48//48 49//49 50//50
f 50//50 49//49 51//51
f 50//50 51//51 52//52
f 52//52 51//51 53//53
f 52//52 53//53 54//54
f 54//54 53//53 55//55
f 54//54 55//55 56//56
f 56//56 55//55 57//57
f 56//56 57//57 58//58
f 58//58 57//57 59//59
f 58//58 59//59 60//60
f 60//60 59//59 61//61
f 60//60 61//61 62//62
f 62//62 61//61 63//63
f 62//62 63//63 64//64
f 64//64 63//63 2//2
f 64//64 2//2 1//1
f 4//4 3//3 65//65
f 4//4 65//65 66//66
f 66//66 65//65 6//6
f 66//66 6//6 5//5
f 65//65 3//3 67//67
f 65//65 67//67 68//68
f 68//68 67//67 69//69
f 68//68 69//69 70//70
f 71//71 72//72 73//73
f 71//71 73//73 74//74
f 74//74 73//73 75//75
f 74//74 75//75 76//76
f 6//6 65//65 68//68
f 6//6 68//68 77//77
f 77//77 68//68 70//70
f 77//77 70//70 78//78
f 79//79 71//71 74//74
f 79//79 74//74 80//80
f 80//80 74//74 76//76
f 80//80 76//76 81//81
f 7//7 6//6 77//77
f 7//7 77//77 82//82
f 82//82 77//77 78//78
f 82//82 78//78 83//83
f 84//84 79//79 80//80
f 84//84 80//80 85//85
f 85//85 80//80 81//81
f 85//85 81//81 86//86
f 9//9 7//7 82//82
f 9//9 82//82 87//87
f 87//87 82//82 83//83
f 87//87 83//83 88//88
f 89//89 84//84 85//85
f 89//89 85//85 90//90
f 90//90 85//85 86//86
f 90//90 86//86 91//91
f 11//11 9//9 87//87
f 11//11 87//87 92//92
f 92//92 87//87 88//88
f 92//92 88//88 93//93
f 94//94 89//89 90//90
f 94//94 90//90 95//95
f 95//95 90//90 91//91
f 95//95 91//91 96//96
f 13//13 11//11 92//92
f 13//13 92//92 97//97
f 97//97 92//92 93//93
f 97//97 93//93 98//98
f 99//99 94//94 95//95
f 99//99 95//95 100//100
f 100//100 95//95 96//96
f 100//100 96//96 101//101
f 15//15 13//13 97//97
f 15//15 97//97 102//102
f 102//102 97//97 98//98
f 102//102 98//98 103//103
f 104//104 99//99 100//100
f 104//104 100//100 105//105
f 105//105 100//100 101//101
f 105//105 101//101 106//106
f 17//17 15//15 102//102
f 17//17 102//102 107//107
f 107//107 102//102 103//103
f 107//107 103//103 108//108
f 109//109 104//104 105//105
f 109//109 105//105 110//110
f 110//110 105//105 106//106
f 110//110 106//106 111//111
f 19//19 17//17 107//107
f 19//19 107//107 112//112
f 112//112 107//107 108//108
f 112//112 108//108 113//113
f 114//114 109//109 110//110
f 114//114 110//110 115//115
f 115//115 110//110 111//111
f 115//115 111//111 116//116
f 21//21 19//19 112//112
f 21//21 112//112 117//117
f 117//117 112//112 113//113
f 117//117 113//113 118//118
f 119//119 114//114 115//115
f 119//119 115//115 120//120
f 120//120 115//115 116//116
f 120//120 116//116 121//121
f 25//25 24//24 122//117
f 25//25 122//117 123//122
f 123//122 122//117 124//123
f 123//122 124//123 125//124
f 126//125 119//119 120//120
f 126//125 120//120 127//126
f 127//126 120//120 121//121
f 127//126 121//121 128//127
f 27//27 25//25 123//122
f 27//27 123//122 129//128
f 129//128 123//122 125//124
f 129//128 125//124 130//129
f 131//130 126//125 127//126
f 131//130 127//126 132//131
f 132//131 127//126 128//127
f 132//131 128//127 133//132
f 29//29 27//27 129//128
f 29//29 129//128 134//133
f 134//133 129//128 130//129
f 134//133 130//129 135//134
f 136//135 131//130 132//131
f 136//135 132//131 137//136
f 137//136 132//131 133//132
f 137//136 133//132 138//137
f 31//31 29//29 134//133
f 31//31 134//133 139//138
f 139//138 134//133 135//134
f 139//138 135//134 140//139
f 141//140 136//135 137//136
f 141//140 137//136 142//141
f 142//141 137//136 138//137
f 142//141 138//137 143//142
f 33//33 31//31 139//138
f 33//33 139//138 144//143
f 144//143 139//138 140//139
f 144//143 140//139 145//144
f 146//145 141//140 142//141
f 146//145 142//141 147//146
f 147//146 142//141 143//142
f 147//146 143//142 148//147
f 35//35 33//33 144//143
f 35//35 144//143 149//148
f 149//148 144//143 145//144
f 149//148 145//144 150//149
f 151//150 146//145 147//146
f 151//150 147//146 152//151
f 152//151 147//146 148//147
f 152//151 148//147 153//152
f 37//37 35//35 149//148
f 37//37 149//148 154//153
f 154//153 149//148 150//149
f 154//153 150//149 155//154
f 156//155 151//150 152//151
f 156//155 152//151 157//156
f 157//156 152//151 153//152
f 157//156 153//152 158//157
f 39//39 37//37 154//153
f 39//39 154//153 159//158
f 159//158 154//153 155//154
f 159//158 155//154 160//159
f 161//160 156//155 157//156
f 161//160 157//156 162//161
f 162//161 157//156 158//157
f 162//161 158//157 163//162
f 41//41 39//39 159//158
f 41//41 159//158 164//163
f 164//163 159//158 160//159
f 164//163 160//159 165//164
f 166//165 161//160 162//161
f 166//165 162//161 167//166
f 167//166 162//161 163//162
f 167//166 163//162 168//167
f 43//43 41//41 164//163
f 43//43 164//163 169//168
f 169//168 164//163 165//164
f 169//168 165//164 170//169
f 171//170 166//165 167//166
f 171//170 167//166 172//171
f 172//171 167//166 168//167
f 172//171 168//167 173//172
f 45//45 43//43 169//168
f 45//45 169//168 174//173
f 174//173 169//168 170//169
f 174//173 170//169 175//174
f 176//175 171//170 172//171
f 176//175 172//171 177//176
f 177//176 172//171 173//172
f 177//176 173//172 178//177
f 47//47 45//45 174//173
f 47//47 174//173 179//178
f 179//178 174//173 175//174
f 179//178 175//174 180//179
f 181//180 176//175 177//176
f 181//180 177//176 182//181
f 182//181 177//176 178//177
f 182//181 178//177 183//182
f 49//49 47//47 179//178
f 49//49 179//178 184//183
f 184//183 179//178 180//179
f 184//183 180//179 185//184
f 186//185 181//180 182//181
f 186//185 182//181 187//186
f 187//186 182//181 183//182
f 187//186 183//182 188//187
f 51//51 49//49 184//183
f 51//51 184//183 189//188
f 189//188 184//183 185//184
f 189//188 185//184 190//189
f 191//190 186//185 187//186
f 191//190 187//186 192//191
f 192//191 187//186 188//187
f 192//191 188//187 193//192
f 53//53 51//51 189//188
f 53//53 189//188 194//193
f 194//193 189//188 190//189
f 194//193 190//189 195//194
f 196//195 191//190 192//191
f 196//195 192//191 197//196
f 197//196 192//191 193//192
f 197//196 193//192 198//197
f 55//55 53//53 194//193
f 55//55 194//193 199//198
f 199//198 194//193 195//194
f 199//198 195//194 200//199
f 201//200 196//195 197//196
f 201//200 197//196 202//201
f 202//201 197//196 198//197
f 202//201 198//197 203//202
f 57//57 55//55 199//198
f 57//57 199//198 204//203
f 204//203 199//198 200//199
f 204//203 200//199 205//204
f 206//205 201//200 202//201
f 206//205 202//201 207//206
f 207//206 202//201 203//202
f 207//206 203//202 208//207
f 59//59 57//57 204//203
f 59//59 204//203 209//208
f 209//208 204//203 205//204
f 209//208 205//204 210//209
f 211//210 206//205 207//206
f 211//210 207//206 212//211
f 212//211 207//206 208//207
f 212//211 208//207 213//212
f 61//61 59//59 209//208
f 61//61 209//208 214//213
f 214//213 209//208 210//209
f 214//213 210//209 215//214
f 216//215 211//210 212//211
f 216//215 212//211 217//216
f 217//216 212//211 213//212
f 217//216 213//212 218//217
f 63//63 61//61 214//213
f 63//63 214//213 219//218
f 219//218 214//213 215//214
f 219//218 215//214 220//219
f 221//220 216//215 217//216
f 221//220 217//216 222//221
f 222//221 217//216 218//217
f 222//221 218//217 223//222
f 2//2 63//63 219//218
f 2//2 219//218 224//223
f 224//223 219//218 220//219
f 224//223 220//219 225//224
f 226//225 221//220 222//221
f 226//225 222//221 227//226
f 227//226 222//221 223//222
f 227//226 223//222 228//227
f 3//3 2//2 224//223
f 3//3 224//223 67//67
f 67//67 224//223 225//224
f 67//67 225//224 69//69
f 72//72 226//225 227//226
f 72//72 227//226 73//73
f 73//73 227//226 228//227
f 73//73 228//227 75//75
f 188//187 198//197 193//192
f 198//197 188//187 183//182
f 198//197 183//182 203//202
f 203//202 183//182 178//177
f 203//202 178//177 208//207
f 208//207 178//177 173//172
f 208//207 173//172 213//212
f 213//212 173//172 168//167
f 213//212 168//167 218//217
f 218//217 168//167 163//162
f 218//217 163//162 223//222
f 223//222 163//162 158//157
f 223//222 158//157 228//227
f 228//227 158//157 153//152
f 228//227 153//152 75//75
f 75//75 153//152 148//147
f 75//75 148//147 76//76
f 76//76 148//147 143//142
f 76//76 143//142 81//81
f 81//81 143//142 138//137
f 81//81 138//137 86//86
f 86//86 138//137 133//132
f 86//86 133//132 91//91
f 91//91 133//132 128//127
f 91//91 128//127 96//96
f 96//96 128//127 121//121
f 96//96 121//121 101//101
f 101//101 121//121 116//116
f 101//101 116//116 106//106
f 106//106 116//116 111//111
