# Blender 4.2.0
# www.blender.org
mtllib Buttons_LaptopKeys_0.mtl
o Buttons_LaptopKeys_0
v 0.001090 -0.001090 0.000403
v 0.001090 -0.001090 0.000758
v -0.005700 -0.008168 0.000758
v -0.005700 -0.008168 0.000403
v -0.001090 0.001090 0.000403
v -0.001090 0.001001 0.000758
v -0.001090 0.009048 0.000758
v -0.001090 0.009048 0.000403
v 0.001090 -0.001090 0.000758
v 0.001090 -0.001090 0.000403
v 0.000752 0.008105 0.000403
v 0.000752 0.008105 0.000758
v -0.000199 0.008610 0.000779
v -0.000036 0.000009 0.001046
v 0.001090 -0.001090 0.000758
v 0.000752 0.008105 0.000758
v -0.001090 0.009048 0.000758
v -0.001090 0.001001 0.000758
v -0.000036 0.000009 0.001046
v -0.000199 0.008610 0.000779
v -0.000036 0.000009 0.001046
v -0.001090 0.001001 0.000758
v -0.006304 -0.007515 0.000758
v -0.006012 -0.007813 0.000762
v -0.005700 -0.008168 0.000758
v 0.001090 -0.001090 0.000758
v -0.000036 0.000009 0.001046
v -0.006012 -0.007813 0.000762
v -0.001090 0.001001 0.000758
v -0.001090 0.001090 0.000403
v -0.006304 -0.007515 0.000403
v -0.006304 -0.007515 0.000758
v -0.000841 0.011328 0.000591
v -0.000841 0.011328 0.000165
v 0.000762 0.009499 0.000165
v 0.000762 0.009499 0.000591
v -0.000841 0.016755 0.000591
v -0.000841 0.016755 0.000165
v -0.000841 0.011328 0.000165
v -0.000841 0.011328 0.000591
v 0.000762 0.016755 0.000165
v 0.000762 0.016755 0.000591
v 0.000762 0.009499 0.000591
v 0.000762 0.009499 0.000165
v -0.000841 0.016755 0.000165
v -0.000841 0.016755 0.000591
v -0.000841 0.024382 0.000591
v -0.000841 0.024382 0.000165
v -0.000841 0.024382 0.000165
v -0.000841 0.024382 0.000591
v 0.000742 0.022588 0.000591
v 0.000742 0.022588 0.000165
v 0.000596 0.016755 0.000758
v -0.000675 0.016755 0.000758
v -0.000675 0.011391 0.000758
v 0.000596 0.009942 0.000758
v 0.000762 0.016755 0.000591
v 0.000762 0.016755 0.000165
v 0.000742 0.022588 0.000165
v 0.000742 0.022588 0.000591
v 0.000762 0.016755 0.000591
v 0.000742 0.022588 0.000591
v 0.000576 0.022525 0.000758
v 0.000596 0.016755 0.000758
v -0.000841 0.024382 0.000591
v -0.000841 0.016755 0.000591
v -0.000675 0.016755 0.000758
v -0.000675 0.023942 0.000758
v 0.000742 0.022588 0.000591
v -0.000841 0.024382 0.000591
v -0.000675 0.023942 0.000758
v 0.000576 0.022525 0.000758
v 0.000596 0.009942 0.000758
v -0.000675 0.011391 0.000758
v -0.000841 0.011328 0.000591
v 0.000762 0.009499 0.000591
v 0.000596 0.016755 0.000758
v 0.000596 0.009942 0.000758
v 0.000762 0.009499 0.000591
v 0.000762 0.016755 0.000591
v -0.000675 0.011391 0.000758
v -0.000675 0.016755 0.000758
v -0.000841 0.016755 0.000591
v -0.000841 0.011328 0.000591
v 0.000596 0.016755 0.000758
v 0.000576 0.022525 0.000758
v -0.000675 0.023942 0.000758
v -0.000675 0.016755 0.000758
v -0.000841 0.024784 0.000591
v -0.000841 0.024784 0.000165
v 0.000762 0.022954 0.000165
v 0.000762 0.022954 0.000591
v -0.000841 0.030211 0.000591
v -0.000841 0.030211 0.000165
v -0.000841 0.024784 0.000165
v -0.000841 0.024784 0.000591
v 0.000762 0.030211 0.000165
v 0.000762 0.030211 0.000591
v 0.000762 0.022954 0.000591
v 0.000762 0.022954 0.000165
v -0.000841 0.030211 0.000165
v -0.000841 0.030211 0.000591
v -0.000841 0.037837 0.000591
v -0.000841 0.037837 0.000165
v -0.000841 0.037837 0.000165
v -0.000841 0.037837 0.000591
v 0.000742 0.036043 0.000591
v 0.000742 0.036043 0.000165
v 0.000596 0.030211 0.000758
v -0.000675 0.030211 0.000758
v -0.000675 0.024846 0.000758
v 0.000596 0.023397 0.000758
v 0.000762 0.030211 0.000591
v 0.000762 0.030211 0.000165
v 0.000742 0.036043 0.000165
v 0.000742 0.036043 0.000591
v 0.000762 0.030211 0.000591
v 0.000742 0.036043 0.000591
v 0.000576 0.035980 0.000758
v 0.000596 0.030211 0.000758
v -0.000841 0.037837 0.000591
v -0.000841 0.030211 0.000591
v -0.000675 0.030211 0.000758
v -0.000675 0.037397 0.000758
v 0.000742 0.036043 0.000591
v -0.000841 0.037837 0.000591
v -0.000675 0.037397 0.000758
v 0.000576 0.035980 0.000758
v 0.000596 0.023397 0.000758
v -0.000675 0.024846 0.000758
v -0.000841 0.024784 0.000591
v 0.000762 0.022954 0.000591
v 0.000596 0.030211 0.000758
v 0.000596 0.023397 0.000758
v 0.000762 0.022954 0.000591
v 0.000762 0.030211 0.000591
v -0.000675 0.024846 0.000758
v -0.000675 0.030211 0.000758
v -0.000841 0.030211 0.000591
v -0.000841 0.024784 0.000591
v 0.000596 0.030211 0.000758
v 0.000576 0.035980 0.000758
v -0.000675 0.037397 0.000758
v -0.000675 0.030211 0.000758
v -0.001090 0.009048 0.000403
v -0.001090 0.009048 0.000758
v -0.000199 0.008610 0.000779
v 0.000752 0.008105 0.000758
v 0.000752 0.008105 0.000403
v -0.005700 -0.008168 0.000403
v -0.005700 -0.008168 0.000758
v -0.006012 -0.007813 0.000762
v -0.006304 -0.007515 0.000758
v -0.006304 -0.007515 0.000403
vn 0.7216 -0.6923 -0.0000
vn -1.0000 -0.0000 -0.0000
vn 0.9993 0.0367 -0.0000
vn 0.1609 0.0193 0.9868
vn 0.1614 0.0194 0.9867
vn 0.1613 0.0194 0.9867
vn -0.1458 0.0145 0.9892
vn -0.1463 0.0145 0.9891
vn -0.1461 0.0145 0.9892
vn -0.1390 0.0781 0.9872
vn -0.1388 0.0779 0.9873
vn 0.0972 -0.1021 0.9900
vn 0.0974 -0.1023 0.9900
vn 0.0972 -0.1022 0.9900
vn -0.8522 0.5191 0.0648
vn -0.7520 -0.6592 -0.0000
vn 1.0000 -0.0000 -0.0000
vn 0.7497 0.6617 -0.0000
vn -0.0000 -0.0000 1.0000
vn 1.0000 0.0034 -0.0000
vn 0.7071 0.0024 0.7071
vn -0.7071 -0.0000 0.7071
vn 0.5301 0.4679 0.7071
vn -0.5317 -0.4661 0.7071
vn 0.7071 -0.0000 0.7071
vn 0.4553 0.8901 -0.0213
vn 0.4554 0.8901 -0.0210
vn -0.7338 -0.6792 0.0172
vn -0.7338 -0.6791 0.0171
vt 0.017293 0.953876
vt 0.015139 0.954119
vt 0.012361 0.909561
vt 0.013135 0.910906
vt 0.011064 0.956539
vt 0.014034 0.956256
vt 0.015654 0.989161
vt 0.014233 0.989927
vt 0.014810 0.956474
vt 0.015797 0.956500
vt 0.017293 0.983916
vt 0.016571 0.984106
vt 0.017072 0.986481
vt 0.015573 0.956473
vt 0.013618 0.956459
vt 0.015318 0.986670
vt 0.016016 0.954850
vt 0.014236 0.956094
vt 0.011557 0.912636
vt 0.012461 0.911015
vt 0.010642 0.955923
vt 0.011492 0.913003
vt 0.020757 0.937261
vt 0.022701 0.935631
vt 0.012060 0.931104
vt 0.013790 0.933516
vt 0.022658 0.961449
vt 0.024636 0.961360
vt 0.011940 0.962148
vt 0.013910 0.962063
vt 0.022888 0.991735
vt 0.024636 0.994151
vt 0.015943 0.988062
vt 0.013995 0.989721
vt 0.014970 0.962014
vt 0.021594 0.961501
vt 0.019859 0.937808
vt 0.014635 0.934864
vt 0.016846 0.987505
vt 0.022031 0.990383
vt 0.026750 0.910257
vt 0.029538 0.907921
vt 0.014279 0.901429
vt 0.016760 0.904888
vt 0.029476 0.944943
vt 0.032312 0.944815
vt 0.014107 0.945944
vt 0.016932 0.945823
vt 0.029806 0.988371
vt 0.032312 0.991835
vt 0.019847 0.983104
vt 0.017053 0.985483
vt 0.018451 0.945753
vt 0.027951 0.945017
vt 0.025462 0.911042
vt 0.017971 0.906821
vt 0.021142 0.982306
vt 0.028576 0.986432
vt 0.011259 0.911387
s 1
usemtl LaptopKeys
f 1/1/1 2/2/1 3/3/1
f 1/1/1 3/3/1 4/4/1
f 5/5/2 6/6/2 7/7/2
f 5/5/2 7/7/2 8/8/2
f 9/9/3 10/10/3 11/11/3
f 9/9/3 11/11/3 12/12/3
f 13/13/4 14/14/5 15/9/6
f 13/13/4 15/9/6 16/12/4
f 17/7/7 18/6/8 19/15/9
f 17/7/7 19/15/9 20/16/7
f 21/17/10 22/18/10 23/19/11
f 21/17/10 23/19/11 24/20/11
f 25/3/12 26/2/13 27/17/13
f 25/3/12 27/17/13 28/20/14
f 29/18/15 30/21/15 31/22/15
f 29/18/15 31/22/15 32/19/15
f 33/23/16 34/24/16 35/25/16
f 33/23/16 35/25/16 36/26/16
f 37/27/2 38/28/2 39/24/2
f 37/27/2 39/24/2 40/23/2
f 41/29/17 42/30/17 43/26/17
f 41/29/17 43/26/17 44/25/17
f 45/28/2 46/27/2 47/31/2
f 45/28/2 47/31/2 48/32/2
f 49/32/18 50/31/18 51/33/18
f 49/32/18 51/33/18 52/34/18
f 53/35/19 54/36/19 55/37/19
f 53/35/19 55/37/19 56/38/19
f 57/30/20 58/29/20 59/34/20
f 57/30/20 59/34/20 60/33/20
f 61/30/21 62/33/21 63/39/21
f 61/30/21 63/39/21 64/35/21
f 65/31/22 66/27/22 67/36/22
f 65/31/22 67/36/22 68/40/22
f 69/33/23 70/31/23 71/40/23
f 69/33/23 71/40/23 72/39/23
f 73/38/24 74/37/24 75/23/24
f 73/38/24 75/23/24 76/26/24
f 77/35/25 78/38/25 79/26/25
f 77/35/25 79/26/25 80/30/25
f 81/37/22 82/36/22 83/27/22
f 81/37/22 83/27/22 84/23/22
f 85/35/19 86/39/19 87/40/19
f 85/35/19 87/40/19 88/36/19
f 89/41/16 90/42/16 91/43/16
f 89/41/16 91/43/16 92/44/16
f 93/45/2 94/46/2 95/42/2
f 93/45/2 95/42/2 96/41/2
f 97/47/17 98/48/17 99/44/17
f 97/47/17 99/44/17 100/43/17
f 101/46/2 102/45/2 103/49/2
f 101/46/2 103/49/2 104/50/2
f 105/50/18 106/49/18 107/51/18
f 105/50/18 107/51/18 108/52/18
f 109/53/19 110/54/19 111/55/19
f 109/53/19 111/55/19 112/56/19
f 113/48/20 114/47/20 115/52/20
f 113/48/20 115/52/20 116/51/20
f 117/48/21 118/51/21 119/57/21
f 117/48/21 119/57/21 120/53/21
f 121/49/22 122/45/22 123/54/22
f 121/49/22 123/54/22 124/58/22
f 125/51/23 126/49/23 127/58/23
f 125/51/23 127/58/23 128/57/23
f 129/56/24 130/55/24 131/41/24
f 129/56/24 131/41/24 132/44/24
f 133/53/25 134/56/25 135/44/25
f 133/53/25 135/44/25 136/48/25
f 137/55/22 138/54/22 139/45/22
f 137/55/22 139/45/22 140/41/22
f 141/53/19 142/57/19 143/58/19
f 141/53/19 143/58/19 144/54/19
f 146/7/26 149/11/26 145/8/26
f 149/11/26 146/7/26 148/12/26
f 148/12/26 146/7/26 147/13/27
f 152/59/28 150/4/29 151/3/29
f 150/4/29 152/59/28 154/22/29
f 154/22/29 152/59/28 153/19/29
