# Blender 4.2.0
# www.blender.org
mtllib Cube_139.mtl
o Cube_139
v -0.103006 -0.112329 0.058785
v -0.126549 0.084932 0.058785
v 0.126549 -0.084932 0.058785
v 0.103006 0.112329 0.058785
v -0.099296 -0.108283 0.058785
v -0.121991 0.081873 0.058785
v 0.121991 -0.081873 0.058785
v 0.099296 0.108283 0.058785
v -0.050031 0.094064 0.058785
v 0.026488 0.103196 0.058785
v -0.090012 0.089292 -0.030739
v 0.066468 0.107968 -0.030739
v -0.090012 0.089292 -0.058785
v 0.066468 0.107968 -0.058785
v -0.090206 0.090919 -0.030739
v 0.066274 0.109595 -0.030739
v -0.090206 0.090919 -0.058785
v 0.066274 0.109595 -0.058785
v -0.087847 0.091201 -0.032081
v 0.063915 0.109314 -0.032081
v -0.087847 0.091201 -0.057443
v 0.063915 0.109314 -0.057443
v 0.062819 0.109676 -0.057033
v -0.086867 0.091811 -0.057033
v 0.062819 0.109676 -0.032490
v -0.086867 0.091811 -0.032490
v -0.086617 0.089720 -0.032490
v 0.063068 0.107585 -0.032490
v -0.086617 0.089720 -0.057033
v 0.063068 0.107585 -0.057033
v -0.105115 -0.114629 0.058785
v -0.129140 0.086671 0.058785
v 0.129140 -0.086671 0.058785
v 0.105115 0.114629 0.058785
v -0.105115 -0.114629 0.055182
v -0.129140 0.086671 0.055182
v 0.129140 -0.086671 0.055182
v 0.105115 0.114629 0.055182
v -0.101454 -0.110636 0.055182
v -0.124642 0.083652 0.055182
v 0.124642 -0.083652 0.055182
v 0.101454 0.110636 0.055182
v 0.103006 0.112329 0.055182
v -0.103006 -0.112329 0.055182
v -0.126549 0.084932 0.055182
v 0.126549 -0.084932 0.055182
vn -0.0000 -0.0000 1.0000
vn -0.0000 -0.0000 -1.0000
vn -0.9929 -0.1187 -0.0000
vn 0.9929 0.1187 -0.0000
vn -0.1185 0.9930 -0.0000
vn 0.7694 0.6388 -0.0000
vn -0.0291 0.2438 0.9694
vn -0.8981 0.4397 -0.0000
vn -0.0291 0.2438 -0.9694
vn -0.9930 -0.1185 -0.0000
vn 0.9930 0.1185 -0.0000
vn 0.1185 -0.9930 -0.0000
s 1
usemtl Metal_Black_Paint
f 3//1 8//1 7//1
f 1//1 6//1 2//1
f 3//1 5//1 1//1
f 9//1 6//1 8//1
f 13//2 18//2 14//2
f 11//3 17//3 13//3
f 11//1 16//1 15//1
f 14//4 16//4 12//4
f 18//5 20//5 16//5
f 19//6 29//6 21//6
f 16//5 19//5 15//5
f 15//5 21//5 17//5
f 18//5 21//5 22//5
f 29//2 23//2 30//2
f 22//7 29//7 30//7
f 22//8 28//8 20//8
f 20//9 27//9 19//9
f 27//3 24//3 29//3
f 25//5 24//5 26//5
f 27//1 25//1 26//1
f 30//4 25//4 28//4
f 1//1 33//1 3//1
f 3//1 34//1 4//1
f 2//1 31//1 1//1
f 32//1 4//1 34//1
f 32//10 35//10 31//10
f 34//5 36//5 32//5
f 33//11 38//11 34//11
f 31//12 37//12 33//12
f 44//2 41//2 46//2
f 40//2 39//2 44//2
f 43//2 40//2 45//2
f 41//2 42//2 43//2
f 3//1 4//1 8//1
f 1//1 5//1 6//1
f 3//1 7//1 5//1
f 8//1 4//1 10//1
f 9//1 2//1 6//1
f 8//1 10//1 9//1
f 13//2 17//2 18//2
f 11//3 15//3 17//3
f 11//1 12//1 16//1
f 14//4 18//4 16//4
f 18//5 22//5 20//5
f 19//6 27//6 29//6
f 16//5 20//5 19//5
f 15//5 19//5 21//5
f 18//5 17//5 21//5
f 29//2 24//2 23//2
f 22//7 21//7 29//7
f 22//8 30//8 28//8
f 20//9 28//9 27//9
f 27//3 26//3 24//3
f 25//5 23//5 24//5
f 27//1 28//1 25//1
f 30//4 23//4 25//4
f 1//1 31//1 33//1
f 3//1 33//1 34//1
f 2//1 32//1 31//1
f 32//1 2//1 4//1
f 32//10 36//10 35//10
f 34//5 38//5 36//5
f 33//11 37//11 38//11
f 31//12 35//12 37//12
f 46//2 37//2 44//2
f 37//2 35//2 44//2
f 44//2 39//2 41//2
f 44//2 35//2 36//2
f 36//2 45//2 44//2
f 45//2 40//2 44//2
f 45//2 36//2 43//2
f 36//2 38//2 43//2
f 43//2 42//2 40//2
f 43//2 38//2 37//2
f 37//2 46//2 43//2
f 46//2 41//2 43//2
