# Blender 4.2.0
# www.blender.org
mtllib Cube_135.mtl
o Cube_135
v -0.102744 -0.112569 0.058785
v -0.126747 0.084636 0.058785
v 0.126747 -0.084636 0.058785
v 0.102744 0.112569 0.058785
v -0.099043 -0.108515 0.058785
v -0.122182 0.081588 0.058785
v 0.122182 -0.081588 0.058785
v 0.099043 0.108515 0.058785
v -0.050250 0.093947 0.058785
v 0.026247 0.103258 0.058785
v -0.090220 0.089082 -0.030739
v 0.066216 0.108123 -0.030739
v -0.090220 0.089082 -0.058785
v 0.066216 0.108123 -0.058785
v -0.090418 0.090709 -0.030739
v 0.066018 0.109750 -0.030739
v -0.090418 0.090709 -0.058785
v 0.066018 0.109750 -0.058785
v -0.088059 0.090996 -0.032081
v 0.063660 0.109462 -0.032081
v -0.088059 0.090996 -0.057443
v 0.063660 0.109462 -0.057443
v 0.062562 0.109822 -0.057033
v -0.087081 0.091608 -0.057033
v 0.062562 0.109822 -0.032490
v -0.087081 0.091608 -0.032490
v -0.086826 0.089518 -0.032490
v 0.062817 0.107732 -0.032490
v -0.086826 0.089518 -0.057033
v 0.062817 0.107732 -0.057033
v -0.104847 -0.114874 0.058785
v -0.129342 0.086369 0.058785
v 0.129342 -0.086369 0.058785
v 0.104847 0.114874 0.058785
v -0.104847 -0.114874 0.055182
v -0.129342 0.086369 0.055182
v 0.129342 -0.086369 0.055182
v 0.104847 0.114874 0.055182
v -0.101196 -0.110873 0.055182
v -0.124837 0.083361 0.055182
v 0.124837 -0.083361 0.055182
v 0.101196 0.110873 0.055182
v 0.102744 0.112569 0.055182
v -0.102744 -0.112569 0.055182
v -0.126747 0.084636 0.055182
v 0.126747 -0.084636 0.055182
vn -0.0000 -0.0000 1.0000
vn -0.0000 -0.0000 -1.0000
vn -0.9927 -0.1207 -0.0000
vn 0.9926 0.1210 -0.0000
vn -0.1208 0.9927 -0.0000
vn 0.7679 0.6406 -0.0000
vn -0.0297 0.2437 0.9694
vn -0.8991 0.4377 -0.0000
vn -0.0297 0.2437 -0.9694
vn -0.9927 -0.1209 -0.0000
vn 0.9927 0.1209 -0.0000
vn -0.9927 -0.1208 -0.0000
vn 0.9927 0.1208 -0.0000
vn 0.1208 -0.9927 -0.0000
s 1
usemtl Metal_Black_Paint
f 3//1 8//1 7//1
f 1//1 6//1 2//1
f 1//1 7//1 5//1
f 6//1 8//1 10//1
f 13//2 18//2 14//2
f 11//3 17//3 13//3
f 11//1 16//1 15//1
f 14//4 16//4 12//4
f 18//5 20//5 16//5
f 19//6 29//6 21//6
f 16//5 19//5 15//5
f 15//5 21//5 17//5
f 18//5 21//5 22//5
f 29//2 23//2 30//2
f 21//7 30//7 22//7
f 22//8 28//8 20//8
f 19//9 28//9 27//9
f 27//10 24//10 29//10
f 25//5 24//5 26//5
f 27//1 25//1 26//1
f 30//11 25//11 28//11
f 3//1 31//1 33//1
f 3//1 34//1 4//1
f 2//1 31//1 1//1
f 34//1 2//1 4//1
f 32//12 35//12 31//12
f 34//5 36//5 32//5
f 33//13 38//13 34//13
f 31//14 37//14 33//14
f 44//2 41//2 46//2
f 45//2 39//2 44//2
f 43//2 40//2 45//2
f 46//2 42//2 43//2
f 3//1 4//1 8//1
f 1//1 5//1 6//1
f 1//1 3//1 7//1
f 8//1 4//1 10//1
f 10//1 9//1 6//1
f 9//1 2//1 6//1
f 13//2 17//2 18//2
f 11//12 15//12 17//12
f 11//1 12//1 16//1
f 14//4 18//4 16//4
f 18//5 22//5 20//5
f 19//6 27//6 29//6
f 16//5 20//5 19//5
f 15//5 19//5 21//5
f 18//5 17//5 21//5
f 29//2 24//2 23//2
f 21//7 29//7 30//7
f 22//8 30//8 28//8
f 19//9 20//9 28//9
f 27//10 26//10 24//10
f 25//5 23//5 24//5
f 27//1 28//1 25//1
f 30//11 23//11 25//11
f 3//1 1//1 31//1
f 3//1 33//1 34//1
f 2//1 32//1 31//1
f 34//1 32//1 2//1
f 32//12 36//12 35//12
f 34//5 38//5 36//5
f 33//13 37//13 38//13
f 31//14 35//14 37//14
f 46//2 37//2 35//2
f 44//2 39//2 41//2
f 46//2 35//2 44//2
f 44//2 35//2 36//2
f 45//2 40//2 39//2
f 44//2 36//2 45//2
f 45//2 36//2 38//2
f 43//2 42//2 40//2
f 45//2 38//2 43//2
f 43//2 38//2 37//2
f 46//2 41//2 42//2
f 43//2 37//2 46//2
