# Blender 4.2.0
# www.blender.org
mtllib Cube_178.mtl
o Cube_178
v -0.306853 0.080265 -0.113497
v -0.306853 0.080265 0.251182
v -0.308130 0.053803 -0.113497
v -0.308130 0.053803 0.251182
v 0.308130 0.050597 -0.113497
v 0.308130 0.050597 0.251182
v 0.306853 0.024136 -0.113497
v 0.306853 0.024136 0.251182
v -0.308130 0.053803 0.068843
v -0.000638 0.038970 -0.113497
v -0.000638 0.038970 0.251182
v 0.306853 0.024136 0.068843
v -0.018718 -0.026732 0.068843
v -0.308130 0.053803 -0.022327
v -0.154384 0.046386 -0.113497
v 0.153108 0.031553 0.251182
v 0.306853 0.024136 -0.022327
v -0.308130 0.053803 0.160012
v 0.153108 0.031553 -0.113497
v -0.154384 0.046386 0.251182
v 0.306853 0.024136 0.160012
v 0.135513 0.033926 0.068843
v -0.136643 0.047055 0.068843
v -0.000565 0.040490 -0.011850
v -0.000565 0.040490 0.149535
v -0.136643 0.047055 0.149535
v -0.136643 0.047055 -0.011850
v 0.135513 0.033926 -0.011850
v 0.135513 0.033926 0.149535
v -0.030317 0.041925 0.068843
v -0.000565 0.040490 0.092518
v 0.029188 0.039055 0.068843
v -0.000565 0.040490 0.045167
v -0.068604 0.043772 0.149535
v -0.136643 0.047055 0.109189
v -0.068604 0.043772 -0.011850
v -0.136643 0.047055 0.028496
v 0.067474 0.037208 -0.011850
v 0.135513 0.033926 0.028496
v 0.067474 0.037208 0.149535
v 0.135513 0.033926 0.109189
v 0.029188 0.039055 0.092518
v 0.029188 0.039055 0.045167
v -0.030317 0.041925 0.092518
v -0.030317 0.041925 0.045167
v -0.003842 -0.027450 0.068843
v -0.033594 -0.026015 0.068843
v -0.003842 -0.027450 0.092518
v 0.025910 -0.028885 0.068843
v -0.003842 -0.027450 0.045167
v 0.025910 -0.028885 0.092518
v 0.025910 -0.028885 0.045167
v -0.033594 -0.026015 0.092518
v -0.033594 -0.026015 0.045167
v -0.003842 -0.027450 0.080680
v 0.011034 -0.028167 0.068843
v -0.003842 -0.027450 0.057005
v 0.011034 -0.028167 0.092518
v 0.025910 -0.028885 0.080680
v 0.011034 -0.028167 0.045167
v 0.025910 -0.028885 0.057005
v -0.018718 -0.026732 0.092518
v -0.033594 -0.026015 0.080680
v -0.018718 -0.026732 0.045167
v -0.033594 -0.026015 0.057005
v -0.018718 -0.026732 0.080680
v 0.011034 -0.028167 0.057005
v 0.011034 -0.028167 0.080680
v -0.018718 -0.026732 0.057005
v -0.039630 -0.062468 0.125810
v -0.003514 -0.020645 0.125810
v -0.038357 -0.036082 0.125810
v -0.005611 -0.064109 0.125811
v 0.029682 -0.039365 0.125810
v 0.028409 -0.065750 0.125810
v 0.032001 0.008731 -0.242678
v -0.003291 -0.016013 -0.242679
v -0.036037 0.012014 -0.242678
v -0.001194 0.027451 -0.242678
v -0.037310 -0.014372 -0.242679
v 0.032825 0.025810 -0.242678
v 0.030728 -0.017654 -0.242679
v -0.035213 0.029092 -0.242678
v -0.306853 0.080265 0.068843
v 0.308130 0.050597 0.068843
v 0.000638 0.065431 -0.113497
v 0.000638 0.065431 0.251182
v -0.306853 0.080265 0.160012
v 0.308130 0.050597 -0.022327
v 0.154384 0.058014 -0.113497
v -0.153108 0.072848 0.251182
v -0.306853 0.080265 -0.022327
v 0.308130 0.050597 0.160012
v -0.153108 0.072848 -0.113497
v 0.154384 0.058014 0.251182
v -0.297381 0.066395 0.068843
v 0.297368 0.037704 0.068843
v -0.000007 0.052050 -0.102428
v -0.000007 0.052050 0.240114
v 0.297368 0.037704 0.240114
v 0.297368 0.037704 -0.102428
v -0.297381 0.066395 -0.102428
v -0.297381 0.066395 0.240114
v 0.000639 0.065430 0.242065
v 0.301401 0.050921 0.242065
v -0.300123 0.079939 0.242065
v -0.300123 0.079939 0.068843
v -0.300123 0.079939 -0.104379
v -0.300123 0.079939 0.242065
v 0.301401 0.050921 0.068843
v 0.301401 0.050921 0.242065
v 0.301401 0.050921 -0.104379
v 0.000639 0.065430 -0.104379
v 0.301401 0.050921 -0.104379
v -0.300123 0.079940 -0.104379
v 0.030506 -0.022286 0.125810
v -0.037534 -0.019004 0.125810
v 0.129799 0.024228 -0.240794
v -0.007799 -0.109463 -0.240795
v -0.131889 0.036852 -0.240794
v 0.002524 0.104542 -0.240794
v -0.153966 -0.076678 -0.240795
v 0.104546 0.099620 -0.240794
v 0.140843 -0.090899 -0.240794
v -0.099496 0.109463 -0.240794
v 0.129799 0.024228 -0.251180
v -0.007799 -0.109463 -0.251182
v -0.131889 0.036852 -0.251180
v 0.002524 0.104542 -0.251180
v -0.153966 -0.076678 -0.251182
v 0.104546 0.099620 -0.251180
v 0.140843 -0.090899 -0.251181
v -0.099496 0.109463 -0.251180
vn 0.9988 -0.0482 -0.0000
vn 0.0489 0.9986 0.0183
vn 0.0492 0.9987 0.0124
vn 0.0524 0.9984 0.0210
vn -0.9988 0.0482 -0.0000
vn -0.0000 -0.0000 1.0000
vn -0.0000 -0.0000 -1.0000
vn 0.0601 0.9982 -0.0031
vn 0.0570 0.9984 -0.0000
vn 0.0602 0.9982 0.0030
vn 0.0482 0.9987 0.0150
vn 0.0482 0.9988 -0.0000
vn 0.0362 0.9993 -0.0030
vn 0.0356 0.9993 -0.0061
vn 0.0362 0.9993 0.0031
vn 0.0430 0.9990 0.0103
vn 0.0444 0.9989 0.0140
vn 0.0339 0.9993 0.0171
vn 0.0482 0.9987 -0.0150
vn 0.0552 0.9985 0.0012
vn 0.0525 0.9986 -0.0004
vn 0.0393 0.9992 -0.0000
vn 0.0415 0.9991 0.0008
vn 0.0453 0.9990 0.0033
vn 0.0578 0.9982 -0.0145
vn 0.0467 0.9987 -0.0197
vn 0.0438 0.9990 -0.0003
vn 0.0578 0.9983 -0.0071
vn 0.0440 0.9990 0.0012
vn 0.0526 0.9986 0.0003
vn 0.0524 0.9986 -0.0012
vn 0.0440 0.9990 0.0026
vn 0.0478 0.9904 0.1296
vn -0.0478 -0.9904 -0.1296
vn 1.0000 -0.0000 -0.0000
vn -0.0069 -0.1439 0.9896
vn -0.9801 -0.1984 -0.0000
vn 0.9565 -0.2918 -0.0000
vn -0.0069 -0.1439 -0.9896
vn 0.0482 0.9988 -0.0001
vn -0.0482 -0.9988 0.0001
vn -0.0483 -0.9988 0.0001
vn -0.0483 -0.9988 -0.0000
vn -0.0482 -0.9988 -0.0000
vn -0.0482 -0.9988 -0.0001
vn -0.0481 -0.9988 -0.0000
vn 0.0012 0.0244 -0.9997
vn -0.0008 -0.0202 -0.9998
vn -0.0009 -0.0183 -0.9998
vn -0.0010 -0.0201 -0.9998
vn -0.0188 0.0084 -0.9998
vn -0.0188 0.0022 -0.9998
vn -0.0191 0.0016 -0.9998
vn -0.0194 0.0009 -0.9998
vn -0.0195 -0.0065 0.9998
vn 0.0045 0.0928 -0.9957
vn -0.0189 -0.0003 0.9998
vn -0.0191 0.0002 0.9998
vn -0.0194 0.0009 0.9998
vn -0.0011 -0.0201 -0.9998
vn -0.0048 -0.0213 -0.9998
vn 0.9816 -0.1909 -0.0000
vn 0.9482 0.3176 -0.0000
vn 0.9954 0.0955 -0.0000
vn 0.2189 0.9758 -0.0000
vn -0.1239 0.9923 -0.0000
vn 0.9132 -0.4074 -0.0000
vn 0.0438 0.9990 0.0004
vn 0.0412 0.9992 -0.0012
vn 0.0572 0.9984 0.0034
vn 0.0510 0.9985 0.0216
vn 0.0480 0.9987 0.0193
vn 0.0511 0.9987 -0.0033
vn 0.0525 0.9986 0.0004
vn 0.0480 0.9987 -0.0192
vn 0.0507 0.9986 -0.0169
vn 0.0472 0.9988 -0.0124
vn 0.0382 0.9991 -0.0160
vn 0.0444 0.9989 -0.0140
vn 0.0332 0.9994 -0.0044
vn 0.0385 0.9992 0.0071
vn 0.0533 0.9985 -0.0103
vn 0.0632 0.9980 0.0044
vn 0.0524 0.9986 -0.0026
vn 0.0544 0.9985 -0.0036
vn -0.4363 -0.0000 -0.8998
vn 0.0027 -0.0216 -0.9998
vn -0.0180 0.0035 -0.9998
vn -0.0183 -0.0018 0.9998
s 1
usemtl Agent_Gray_Matte_03
f 88//1 18//1 9//1
f 16//2 21//3 29//4
f 93//5 85//5 21//5
f 19//6 5//6 90//6
f 20//7 2//7 91//7
f 39//8 12//9 17//10
f 42//7 51//7 58//7
f 11//11 25//11 34//11
f 44//12 25//12 31//12
f 18//13 26//14 35//15
f 18//16 20//17 26//18
f 36//19 24//19 10//19
f 14//20 15//21 3//12
f 9//22 23//22 37//15
f 19//23 17//24 7//12
f 38//19 28//25 19//26
f 43//12 22//12 39//27
f 41//8 21//28 12//9
f 40//12 41//29 42//12
f 16//2 29//4 40//11
f 42//12 22//12 32//12
f 45//6 54//6 64//6
f 25//12 42//12 31//12
f 38//12 39//27 28//12
f 24//12 43//12 38//12
f 33//6 50//6 60//6
f 43//5 52//5 61//5
f 23//12 44//12 30//12
f 35//30 34//12 44//12
f 45//12 24//12 36//12
f 37//31 36//12 27//32
f 23//12 45//12 37//31
f 13//12 57//12 69//12
f 58//12 59//12 68//12
f 56//12 61//12 67//12
f 62//12 55//12 66//12
f 44//1 53//1 63//1
f 31//7 48//7 62//7
f 30//1 47//1 65//1
f 32//5 49//5 59//5
f 66//12 46//12 13//12
f 63//12 13//12 47//12
f 53//12 66//12 63//12
f 67//12 52//12 60//12
f 57//12 60//12 50//12
f 46//12 67//12 57//12
f 68//12 49//12 56//12
f 55//12 56//12 46//12
f 48//12 68//12 55//12
f 69//12 50//12 64//12
f 65//12 64//12 54//12
f 47//12 69//12 65//12
f 80//1 72//1 70//1
f 82//1 74//1 75//1
f 78//1 117//1 72//1
f 70//33 77//33 80//33
f 76//34 72//34 78//34
f 79//34 117//34 83//34
f 75//33 77//33 73//33
f 76//1 116//1 74//1
f 112//35 114//35 110//35
f 103//36 104//36 106//36
f 100//36 104//36 99//36
f 103//37 107//37 96//37
f 102//37 107//37 108//37
f 101//38 110//38 97//38
f 100//38 110//38 111//38
f 102//39 113//39 98//39
f 101//39 113//39 114//39
f 87//40 111//12 104//40
f 87//41 106//42 104//41
f 84//43 106//42 2//41
f 84//43 115//44 107//43
f 115//44 86//45 113//45
f 86//45 114//46 113//45
f 85//46 114//46 5//46
f 85//46 111//46 110//46
f 81//34 71//34 79//34
f 83//47 121//47 79//47
f 81//47 121//47 123//47
f 82//48 119//49 77//50
f 83//51 120//51 125//51
f 80//52 120//53 78//54
f 81//55 118//55 123//55
f 78//56 118//56 76//56
f 82//57 118//58 76//59
f 80//60 119//49 122//61
f 122//62 128//62 120//62
f 118//63 131//63 123//63
f 120//44 126//44 118//44
f 124//64 126//64 118//64
f 119//65 130//65 122//65
f 121//44 133//44 129//44
f 121//44 131//44 123//44
f 119//66 132//66 127//66
f 120//67 133//67 125//67
f 128//6 130//6 127//6
f 71//6 117//6 72//6
f 72//6 75//6 74//6
f 3//1 1//1 92//1
f 3//1 92//1 14//1
f 92//1 84//1 14//1
f 88//1 2//1 4//1
f 14//1 84//1 9//1
f 84//1 88//1 9//1
f 88//1 4//1 18//1
f 16//68 8//12 21//69
f 5//5 7//5 17//5
f 5//5 17//5 89//5
f 17//5 12//5 89//5
f 21//5 8//5 6//5
f 89//5 12//5 85//5
f 12//5 21//5 85//5
f 6//5 93//5 21//5
f 1//6 3//6 15//6
f 10//6 19//6 90//6
f 19//6 7//6 5//6
f 1//6 15//6 94//6
f 15//6 10//6 94//6
f 90//6 86//6 10//6
f 86//6 94//6 10//6
f 6//7 8//7 16//7
f 11//7 20//7 91//7
f 20//7 4//7 2//7
f 6//7 16//7 95//7
f 16//7 11//7 95//7
f 91//7 87//7 11//7
f 87//7 95//7 11//7
f 17//10 28//70 39//8
f 39//8 22//9 12//9
f 48//7 31//7 58//7
f 31//7 42//7 58//7
f 34//11 26//71 20//72
f 20//72 11//11 34//11
f 44//12 34//12 25//12
f 23//22 9//22 35//15
f 9//22 18//13 35//15
f 18//73 4//12 20//74
f 10//19 15//75 36//19
f 15//75 27//76 36//19
f 14//77 27//78 15//79
f 27//80 14//81 37//15
f 14//81 9//22 37//15
f 19//26 28//25 17//82
f 19//26 10//19 38//19
f 10//19 24//19 38//19
f 43//12 32//12 22//12
f 12//9 22//9 41//8
f 41//8 29//83 21//28
f 40//12 29//84 41//29
f 40//11 25//11 11//11
f 11//11 16//2 40//11
f 42//12 41//29 22//12
f 50//6 33//6 64//6
f 33//6 45//6 64//6
f 25//12 40//12 42//12
f 38//12 43//12 39//27
f 24//12 33//12 43//12
f 52//6 43//6 60//6
f 43//6 33//6 60//6
f 49//5 32//5 61//5
f 32//5 43//5 61//5
f 23//12 35//30 44//12
f 35//30 26//85 34//12
f 45//12 33//12 24//12
f 37//31 45//12 36//12
f 23//12 30//12 45//12
f 13//12 46//12 57//12
f 58//12 51//12 59//12
f 56//12 49//12 61//12
f 62//12 48//12 55//12
f 47//1 30//1 63//1
f 30//1 44//1 63//1
f 53//7 44//7 62//7
f 44//7 31//7 62//7
f 54//1 45//1 65//1
f 45//1 30//1 65//1
f 51//5 42//5 59//5
f 42//5 32//5 59//5
f 66//12 55//12 46//12
f 63//12 66//12 13//12
f 53//12 62//12 66//12
f 67//12 61//12 52//12
f 57//12 67//12 60//12
f 46//12 56//12 67//12
f 68//12 59//12 49//12
f 55//12 68//12 56//12
f 48//12 58//12 68//12
f 69//12 57//12 50//12
f 65//12 69//12 64//12
f 47//12 13//12 69//12
f 80//1 78//1 72//1
f 82//1 76//1 74//1
f 78//1 83//1 117//1
f 70//33 73//33 77//33
f 76//34 74//34 72//34
f 79//34 71//34 117//34
f 75//33 82//33 77//33
f 76//1 81//1 116//1
f 112//86 101//86 114//86
f 103//36 99//36 104//36
f 100//36 105//36 104//36
f 103//37 109//37 107//37
f 102//37 96//37 107//37
f 101//38 112//38 110//38
f 100//38 97//38 110//38
f 102//39 115//39 113//39
f 101//39 98//39 113//39
f 87//40 6//12 111//12
f 87//41 2//41 106//42
f 84//43 107//43 106//43
f 84//43 1//45 115//44
f 115//44 1//45 86//45
f 86//45 5//46 114//46
f 85//46 110//46 114//46
f 85//44 6//44 111//44
f 81//34 116//34 71//34
f 83//47 125//47 121//47
f 81//47 79//47 121//47
f 82//48 124//87 119//49
f 83//54 78//54 120//54
f 80//52 122//88 120//53
f 81//59 76//59 118//59
f 78//56 120//56 118//56
f 82//57 124//89 118//58
f 80//60 77//50 119//49
f 122//62 130//62 128//62
f 118//63 126//63 131//63
f 120//44 128//44 126//44
f 124//64 132//64 126//64
f 119//65 127//65 130//65
f 121//44 125//44 133//44
f 121//44 129//44 131//44
f 119//66 124//66 132//66
f 120//67 128//67 133//67
f 127//6 132//6 126//6
f 126//6 128//6 127//6
f 72//6 74//6 71//6
f 74//6 116//6 71//6
f 72//6 70//6 75//6
