# Blender 4.2.0
# www.blender.org
mtllib Cube_031.mtl
o Cube_031
v 0.307849 -0.067971 -0.113497
v 0.307849 -0.067971 0.251182
v 0.307849 -0.041479 -0.113497
v 0.307849 -0.041479 0.251182
v -0.307849 -0.067971 -0.113497
v -0.307849 -0.067970 0.251182
v -0.307849 -0.041479 -0.113497
v -0.307849 -0.041479 0.251182
v 0.307849 -0.041479 0.068843
v 0.000000 -0.041479 -0.113497
v 0.000000 -0.041479 0.251182
v -0.307849 -0.041479 0.068843
v 0.014893 0.025018 0.068843
v 0.307849 -0.041479 -0.022327
v 0.153925 -0.041479 -0.113497
v -0.153924 -0.041479 0.251182
v -0.307849 -0.041479 -0.022327
v 0.307849 -0.041479 0.160012
v -0.153924 -0.041479 -0.113497
v 0.153924 -0.041479 0.251182
v -0.307849 -0.041479 0.160012
v -0.136236 -0.043001 0.068843
v 0.136236 -0.043001 0.068843
v 0.000000 -0.043001 -0.011850
v 0.000000 -0.043001 0.149535
v 0.136236 -0.043001 0.149535
v 0.136236 -0.043001 -0.011850
v -0.136236 -0.043001 -0.011850
v -0.136236 -0.043001 0.149535
v 0.029787 -0.043001 0.068843
v -0.000000 -0.043001 0.092518
v -0.029787 -0.043001 0.068843
v -0.000000 -0.043001 0.045167
v 0.068118 -0.043001 0.149535
v 0.136236 -0.043001 0.109189
v 0.068118 -0.043001 -0.011850
v 0.136236 -0.043001 0.028496
v -0.068118 -0.043001 -0.011850
v -0.136236 -0.043001 0.028496
v -0.068118 -0.043001 0.149535
v -0.136236 -0.043001 0.109189
v -0.029787 -0.043001 0.092518
v -0.029787 -0.043001 0.045167
v 0.029787 -0.043001 0.092518
v 0.029787 -0.043001 0.045167
v -0.000000 0.025018 0.068843
v 0.029786 0.025018 0.068843
v -0.000000 0.025018 0.092518
v -0.029787 0.025018 0.068843
v -0.000000 0.025018 0.045167
v -0.029787 0.025018 0.092518
v -0.029787 0.025018 0.045167
v 0.029786 0.025018 0.092518
v 0.029786 0.025018 0.045167
v -0.000000 0.025018 0.080680
v -0.014894 0.025018 0.068843
v -0.000000 0.025018 0.057005
v -0.014894 0.025018 0.092518
v -0.029787 0.025018 0.080680
v -0.014894 0.025018 0.045167
v -0.029787 0.025018 0.057005
v 0.014893 0.025018 0.092518
v 0.029786 0.025018 0.080680
v 0.014893 0.025018 0.045167
v 0.029786 0.025018 0.057005
v 0.014893 0.025018 0.080680
v -0.014894 0.025018 0.057005
v -0.014894 0.025018 0.080680
v 0.014893 0.025018 0.057005
v 0.034059 0.061720 0.125810
v 0.000000 0.018205 0.125810
v 0.034059 0.035304 0.125810
v 0.000000 0.061720 0.125811
v -0.034059 0.035304 0.125810
v -0.034059 0.061720 0.125810
v -0.034059 -0.012848 -0.242678
v 0.000000 0.013568 -0.242679
v 0.034059 -0.012848 -0.242678
v 0.000000 -0.029947 -0.242678
v 0.034059 0.013568 -0.242679
v -0.034059 -0.029947 -0.242678
v -0.034059 0.013568 -0.242679
v 0.034059 -0.029947 -0.242678
v 0.307849 -0.067971 0.068843
v -0.307849 -0.067971 0.068843
v 0.000000 -0.067971 -0.113497
v 0.000000 -0.067971 0.251182
v 0.307849 -0.067971 0.160012
v -0.307849 -0.067971 -0.022327
v -0.153924 -0.067971 -0.113497
v 0.153924 -0.067971 0.251182
v 0.307849 -0.067971 -0.022327
v -0.307849 -0.067971 0.160012
v 0.153925 -0.067971 -0.113497
v -0.153924 -0.067970 0.251182
v 0.294377 -0.054574 0.068843
v -0.294378 -0.054574 0.068843
v -0.000000 -0.054574 -0.100505
v -0.000000 -0.054574 0.238190
v -0.294378 -0.054574 0.238190
v -0.294378 -0.054574 -0.100505
v 0.294377 -0.054574 -0.100505
v 0.294377 -0.054574 0.238190
v -0.000000 -0.067970 0.242065
v -0.301112 -0.067970 0.242065
v 0.301111 -0.067970 0.242065
v 0.301111 -0.067970 0.068843
v 0.301111 -0.067970 -0.104379
v 0.301111 -0.067970 0.242065
v -0.301112 -0.067970 0.068843
v -0.301112 -0.067970 0.242065
v -0.301112 -0.067970 -0.104379
v -0.000000 -0.067970 -0.104379
v -0.301112 -0.067970 -0.104379
v 0.301111 -0.067970 -0.104379
v -0.034059 0.018205 0.125810
v 0.034059 0.018205 0.125810
v -0.130996 -0.033039 -0.240794
v 0.000000 0.107127 -0.240795
v 0.130997 -0.033039 -0.240794
v 0.000000 -0.107127 -0.240794
v 0.147578 0.081422 -0.240795
v -0.102139 -0.107127 -0.240794
v -0.147574 0.081422 -0.240794
v 0.102140 -0.107127 -0.240794
v -0.130996 -0.033039 -0.251180
v 0.000000 0.107127 -0.251182
v 0.130997 -0.033039 -0.251180
v 0.000000 -0.107127 -0.251180
v 0.147578 0.081422 -0.251182
v -0.102139 -0.107127 -0.251180
v -0.147574 0.081422 -0.251181
v 0.102140 -0.107127 -0.251180
vn -1.0000 -0.0000 -0.0000
vn -0.0007 -0.9998 0.0184
vn -0.0010 -0.9999 0.0124
vn -0.0044 -0.9998 0.0210
vn 1.0000 -0.0000 -0.0000
vn -0.0000 -0.0000 1.0000
vn -0.0000 -0.0000 -1.0000
vn -0.0120 -0.9999 -0.0032
vn -0.0089 -1.0000 -0.0000
vn -0.0120 -0.9999 0.0030
vn -0.0000 -0.9999 0.0150
vn -0.0000 -1.0000 -0.0000
vn 0.0120 -0.9999 -0.0030
vn 0.0126 -0.9999 -0.0061
vn 0.0120 -0.9999 0.0031
vn 0.0052 -0.9999 0.0103
vn 0.0037 -0.9999 0.0140
vn 0.0143 -0.9998 0.0171
vn -0.0000 -0.9999 -0.0150
vn -0.0070 -1.0000 0.0012
vn -0.0043 -1.0000 -0.0004
vn 0.0089 -1.0000 -0.0000
vn 0.0120 -0.9999 0.0032
vn 0.0067 -1.0000 0.0009
vn 0.0029 -1.0000 0.0033
vn -0.0096 -0.9998 -0.0145
vn 0.0015 -0.9998 -0.0197
vn 0.0044 -1.0000 -0.0004
vn -0.0120 -0.9999 -0.0031
vn -0.0097 -0.9999 -0.0071
vn 0.0042 -1.0000 0.0012
vn -0.0044 -1.0000 0.0004
vn -0.0042 -1.0000 -0.0012
vn 0.0043 -1.0000 0.0027
vn -0.0000 -0.9916 0.1296
vn -0.0000 0.9916 -0.1296
vn -0.0000 0.2778 0.9606
vn 0.8935 0.4491 -0.0000
vn -0.8935 0.4491 -0.0000
vn -0.0000 0.2778 -0.9606
vn -0.0000 -1.0000 -0.0001
vn -0.0000 1.0000 0.0001
vn 0.0001 1.0000 -0.0000
vn 0.0001 1.0000 0.0001
vn -0.0000 1.0000 -0.0001
vn -0.0001 1.0000 -0.0000
vn -0.0001 1.0000 -0.0001
vn -0.0000 -0.0244 -0.9997
vn -0.0001 0.0202 -0.9998
vn -0.0000 0.0185 -0.9998
vn -0.0000 0.0201 -0.9998
vn 0.0192 -0.0075 -0.9998
vn 0.0188 -0.0012 -0.9998
vn 0.0191 -0.0007 -0.9998
vn 0.0194 -0.0000 -0.9998
vn 0.0192 0.0075 0.9998
vn -0.0000 -0.0929 -0.9957
vn 0.0188 0.0012 0.9998
vn 0.0191 0.0007 0.9998
vn 0.0194 -0.0000 0.9998
vn 0.0037 0.0215 -0.9998
vn -0.9897 0.1434 -0.0000
vn -0.9318 -0.3629 -0.0000
vn -0.0000 1.0000 -0.0000
vn -0.9897 -0.1433 -0.0000
vn -0.1716 -0.9852 -0.0000
vn 0.1716 -0.9852 -0.0000
vn -0.9318 0.3629 -0.0000
vn 0.0043 -1.0000 0.0004
vn 0.0070 -1.0000 -0.0012
vn -0.0090 -1.0000 0.0034
vn -0.0029 -0.9998 0.0216
vn 0.0002 -0.9998 0.0194
vn -0.0029 -1.0000 -0.0033
vn -0.0043 -1.0000 0.0004
vn 0.0002 -0.9998 -0.0193
vn -0.0025 -0.9999 -0.0169
vn 0.0010 -0.9999 -0.0124
vn 0.0101 -0.9998 -0.0161
vn 0.0037 -0.9999 -0.0140
vn 0.0150 -0.9999 -0.0044
vn 0.0097 -0.9999 0.0071
vn -0.0052 -0.9999 -0.0103
vn -0.0150 -0.9999 0.0044
vn -0.0043 -1.0000 -0.0027
vn -0.0062 -1.0000 -0.0036
vn -0.0038 0.0215 -0.9998
vn 0.0182 -0.0026 -0.9998
vn 0.0182 0.0026 0.9998
s 1
usemtl Agent_Gray_Matte_03
f 88//1 18//1 9//1
f 16//2 21//3 29//4
f 93//5 85//5 21//5
f 86//6 94//6 15//6
f 6//7 16//7 95//7
f 39//8 12//9 17//10
f 42//7 51//7 58//7
f 11//11 25//11 34//11
f 44//12 25//12 31//12
f 18//13 26//14 35//15
f 18//16 20//17 26//18
f 36//19 24//19 10//19
f 14//20 15//21 3//12
f 9//22 23//22 37//23
f 19//24 17//25 7//12
f 38//19 28//26 19//27
f 43//12 22//12 39//28
f 41//29 21//30 12//9
f 40//12 41//31 42//12
f 16//2 29//4 40//11
f 42//12 22//12 32//12
f 45//6 54//6 64//6
f 25//12 42//12 31//12
f 38//12 39//28 28//12
f 24//12 43//12 38//12
f 33//6 50//6 60//6
f 43//5 52//5 61//5
f 23//12 44//12 30//12
f 35//32 34//12 44//12
f 45//12 24//12 36//12
f 37//33 36//12 27//34
f 23//12 45//12 37//33
f 13//12 57//12 69//12
f 58//12 59//12 68//12
f 56//12 61//12 67//12
f 62//12 55//12 66//12
f 44//1 53//1 63//1
f 31//7 48//7 62//7
f 30//1 47//1 65//1
f 32//5 49//5 59//5
f 66//12 46//12 13//12
f 63//12 13//12 47//12
f 53//12 66//12 63//12
f 67//12 52//12 60//12
f 57//12 60//12 50//12
f 46//12 67//12 57//12
f 68//12 49//12 56//12
f 55//12 56//12 46//12
f 48//12 68//12 55//12
f 69//12 50//12 64//12
f 65//12 64//12 54//12
f 47//12 69//12 65//12
f 80//1 72//1 70//1
f 82//1 74//1 75//1
f 78//1 117//1 72//1
f 70//35 77//35 80//35
f 78//36 74//36 72//36
f 83//36 71//36 117//36
f 75//35 77//35 73//35
f 76//1 116//1 74//1
f 103//37 104//37 106//37
f 100//37 104//37 99//37
f 103//38 107//38 96//38
f 102//38 107//38 108//38
f 101//39 110//39 97//39
f 100//39 110//39 111//39
f 102//40 113//40 98//40
f 101//40 113//40 114//40
f 87//41 111//12 104//41
f 87//42 106//43 104//42
f 84//43 106//43 2//44
f 84//43 115//43 107//43
f 115//43 86//45 113//45
f 86//45 114//46 113//45
f 85//46 114//46 5//47
f 85//46 111//46 110//46
f 81//36 71//36 79//36
f 83//48 121//48 79//48
f 81//48 121//48 123//48
f 82//49 119//50 77//51
f 83//52 120//52 125//52
f 80//53 120//54 78//55
f 81//56 118//56 123//56
f 78//57 118//57 76//57
f 82//58 118//59 76//60
f 80//51 119//50 122//61
f 122//62 128//62 120//62
f 118//63 131//63 123//63
f 120//64 126//64 118//64
f 124//65 126//65 118//65
f 119//66 130//66 122//66
f 121//64 133//64 129//64
f 121//64 131//64 123//64
f 119//67 132//67 127//67
f 120//68 133//68 125//68
f 128//6 130//6 127//6
f 71//6 117//6 72//6
f 72//6 75//6 74//6
f 3//1 1//1 92//1
f 3//1 92//1 14//1
f 92//1 84//1 14//1
f 88//1 2//1 4//1
f 14//1 84//1 9//1
f 84//1 88//1 9//1
f 88//1 4//1 18//1
f 16//69 8//12 21//70
f 5//5 7//5 17//5
f 5//5 17//5 89//5
f 17//5 12//5 89//5
f 21//5 8//5 6//5
f 89//5 12//5 85//5
f 12//5 21//5 85//5
f 6//5 93//5 21//5
f 1//6 3//6 15//6
f 15//6 10//6 86//6
f 10//6 19//6 86//6
f 19//6 7//6 5//6
f 5//6 90//6 19//6
f 90//6 86//6 19//6
f 94//6 1//6 15//6
f 6//7 8//7 16//7
f 16//7 11//7 95//7
f 11//7 20//7 87//7
f 95//7 11//7 87//7
f 20//7 4//7 2//7
f 91//7 87//7 20//7
f 20//7 2//7 91//7
f 17//10 28//71 39//8
f 39//8 22//9 12//9
f 48//7 31//7 58//7
f 31//7 42//7 58//7
f 34//11 26//72 20//73
f 20//73 11//11 34//11
f 44//12 34//12 25//12
f 23//22 9//22 35//15
f 9//22 18//13 35//15
f 18//74 4//12 20//75
f 10//19 15//76 36//19
f 15//76 27//77 36//19
f 14//78 27//79 15//80
f 27//81 14//82 37//23
f 14//82 9//22 37//23
f 19//27 28//26 17//83
f 19//27 10//19 38//19
f 10//19 24//19 38//19
f 43//12 32//12 22//12
f 12//9 22//9 41//29
f 41//29 29//84 21//30
f 40//12 29//85 41//31
f 40//11 25//11 11//11
f 11//11 16//2 40//11
f 42//12 41//31 22//12
f 50//6 33//6 64//6
f 33//6 45//6 64//6
f 25//12 40//12 42//12
f 38//12 43//12 39//28
f 24//12 33//12 43//12
f 52//6 43//6 60//6
f 43//6 33//6 60//6
f 49//5 32//5 61//5
f 32//5 43//5 61//5
f 23//12 35//32 44//12
f 35//32 26//86 34//12
f 45//12 33//12 24//12
f 37//33 45//12 36//12
f 23//12 30//12 45//12
f 13//12 46//12 57//12
f 58//12 51//12 59//12
f 56//12 49//12 61//12
f 62//12 48//12 55//12
f 47//1 30//1 63//1
f 30//1 44//1 63//1
f 53//7 44//7 62//7
f 44//7 31//7 62//7
f 54//1 45//1 65//1
f 45//1 30//1 65//1
f 51//5 42//5 59//5
f 42//5 32//5 59//5
f 66//12 55//12 46//12
f 63//12 66//12 13//12
f 53//12 62//12 66//12
f 67//12 61//12 52//12
f 57//12 67//12 60//12
f 46//12 56//12 67//12
f 68//12 59//12 49//12
f 55//12 68//12 56//12
f 48//12 58//12 68//12
f 69//12 57//12 50//12
f 65//12 69//12 64//12
f 47//12 13//12 69//12
f 80//1 78//1 72//1
f 82//1 76//1 74//1
f 78//1 83//1 117//1
f 70//35 73//35 77//35
f 78//36 76//36 74//36
f 83//36 79//36 71//36
f 75//35 82//35 77//35
f 76//1 81//1 116//1
f 103//37 99//37 104//37
f 100//37 105//37 104//37
f 103//38 109//38 107//38
f 102//38 96//38 107//38
f 101//39 112//39 110//39
f 100//39 97//39 110//39
f 102//40 115//40 113//40
f 101//40 98//40 113//40
f 87//41 6//12 111//12
f 87//42 2//44 106//43
f 84//43 107//43 106//43
f 84//43 1//45 115//43
f 115//43 1//45 86//45
f 86//45 5//47 114//46
f 85//46 110//46 114//46
f 85//64 6//64 111//64
f 81//36 116//36 71//36
f 83//48 125//48 121//48
f 81//48 79//48 121//48
f 82//49 124//87 119//50
f 83//55 78//55 120//55
f 80//53 122//88 120//54
f 81//60 76//60 118//60
f 78//57 120//57 118//57
f 82//58 124//89 118//59
f 80//51 77//51 119//50
f 122//62 130//62 128//62
f 118//63 126//63 131//63
f 120//64 128//64 126//64
f 124//65 132//65 126//65
f 119//66 127//66 130//66
f 121//64 125//64 133//64
f 121//64 129//64 131//64
f 119//67 124//67 132//67
f 120//68 128//68 133//68
f 127//6 132//6 126//6
f 126//6 128//6 127//6
f 72//6 74//6 71//6
f 74//6 116//6 71//6
f 72//6 70//6 75//6
