# Blender 4.2.0
# www.blender.org
mtllib Cube_093.mtl
o Cube_093
v 0.291087 -0.002348 -0.011947
v 0.291087 0.021673 -0.011947
v 0.298778 -0.002289 -0.011947
v 0.298778 0.021732 -0.011947
v 0.294932 -0.004017 -0.011947
v 0.294932 0.023401 -0.011947
v 0.293010 -0.003438 -0.011947
v 0.293009 0.022793 -0.011947
v 0.296855 -0.003408 -0.011947
v 0.296855 0.022822 -0.011947
v 0.309209 -0.113607 -0.006383
v 0.312722 -0.102682 -0.011949
v 0.280670 -0.113816 -0.006380
v 0.277150 -0.102944 -0.011944
v 0.291170 -0.120977 -0.006381
v 0.294938 -0.115313 -0.011947
v 0.298711 -0.120922 -0.006382
v 0.307350 -0.115276 -0.006383
v 0.300063 -0.120265 -0.006382
v 0.302978 -0.111409 -0.011948
v 0.289818 -0.120339 -0.006381
v 0.282531 -0.115458 -0.006380
v 0.286896 -0.111526 -0.011946
v 0.309215 -0.113622 0.006380
v 0.312733 -0.102721 0.011944
v 0.280675 -0.113831 0.006384
v 0.277161 -0.102984 0.011949
v 0.298717 -0.120937 0.006381
v 0.294948 -0.115040 0.011947
v 0.291175 -0.120992 0.006382
v 0.307355 -0.115291 0.006380
v 0.303840 -0.110710 0.011946
v 0.300068 -0.120280 0.006381
v 0.282536 -0.115474 0.006383
v 0.289824 -0.120355 0.006382
v 0.286054 -0.110839 0.011948
v 0.309188 0.113806 -0.006384
v 0.312703 0.102905 -0.011949
v 0.280649 0.113576 -0.006380
v 0.277131 0.102618 -0.011944
v 0.291147 0.120931 -0.006381
v 0.298689 0.120992 -0.006382
v 0.294917 0.115313 -0.011947
v 0.307328 0.115455 -0.006383
v 0.302958 0.111515 -0.011948
v 0.300040 0.120353 -0.006382
v 0.289796 0.120270 -0.006381
v 0.286876 0.111385 -0.011946
v 0.282509 0.115253 -0.006380
v 0.309194 0.113790 0.006380
v 0.312714 0.102885 0.011944
v 0.280654 0.113559 0.006384
v 0.277142 0.102598 0.011949
v 0.294927 0.114979 0.011947
v 0.298694 0.120975 0.006381
v 0.291153 0.120914 0.006382
v 0.307333 0.115438 0.006380
v 0.300046 0.120337 0.006381
v 0.303820 0.110767 0.011946
v 0.289801 0.120253 0.006382
v 0.282515 0.115237 0.006383
v 0.286034 0.110622 0.011948
v -0.291087 -0.002348 -0.011947
v -0.291087 0.021673 -0.011947
v -0.298778 -0.002289 -0.011947
v -0.298778 0.021732 -0.011947
v -0.294932 -0.004017 -0.011947
v -0.294932 0.023401 -0.011947
v -0.293010 -0.003438 -0.011947
v -0.293009 0.022793 -0.011947
v -0.296855 -0.003408 -0.011947
v -0.296855 0.022822 -0.011947
v -0.309209 -0.113607 -0.006383
v -0.312722 -0.102682 -0.011949
v -0.280670 -0.113816 -0.006380
v -0.277150 -0.102944 -0.011944
v -0.291170 -0.120977 -0.006381
v -0.294938 -0.115313 -0.011947
v -0.298711 -0.120922 -0.006382
v -0.307350 -0.115276 -0.006383
v -0.300063 -0.120265 -0.006382
v -0.302978 -0.111409 -0.011948
v -0.289818 -0.120339 -0.006381
v -0.282531 -0.115458 -0.006380
v -0.286896 -0.111526 -0.011946
v -0.309215 -0.113622 0.006380
v -0.312733 -0.102721 0.011944
v -0.280675 -0.113831 0.006384
v -0.277161 -0.102984 0.011949
v -0.298717 -0.120937 0.006381
v -0.294948 -0.115040 0.011947
v -0.291175 -0.120992 0.006382
v -0.307355 -0.115291 0.006380
v -0.303840 -0.110710 0.011946
v -0.300068 -0.120280 0.006381
v -0.282536 -0.115474 0.006383
v -0.289824 -0.120355 0.006382
v -0.286054 -0.110839 0.011948
v -0.309188 0.113806 -0.006384
v -0.312703 0.102905 -0.011949
v -0.280649 0.113576 -0.006380
v -0.277131 0.102618 -0.011944
v -0.291147 0.120931 -0.006381
v -0.298689 0.120992 -0.006382
v -0.294917 0.115313 -0.011947
v -0.307328 0.115455 -0.006383
v -0.302958 0.111515 -0.011948
v -0.300040 0.120353 -0.006382
v -0.289796 0.120270 -0.006381
v -0.286876 0.111385 -0.011946
v -0.282509 0.115253 -0.006380
v -0.309194 0.113790 0.006380
v -0.312714 0.102885 0.011944
v -0.280654 0.113559 0.006384
v -0.277142 0.102598 0.011949
v -0.294927 0.114979 0.011947
v -0.298694 0.120975 0.006381
v -0.291153 0.120914 0.006382
v -0.307333 0.115438 0.006380
v -0.300046 0.120337 0.006381
v -0.303820 0.110767 0.011946
v -0.289801 0.120253 0.006382
v -0.282515 0.115237 0.006383
v -0.286034 0.110622 0.011948
vn -0.0000 -0.0000 1.0000
vn -0.0001 -0.0000 -1.0000
vn 0.2278 -0.9737 -0.0013
vn 0.5024 -0.8646 -0.0012
vn 0.2279 -0.9737 -0.0012
vn -0.5046 0.8634 0.0013
vn -0.2294 0.9733 0.0014
vn -0.2295 0.9733 0.0014
vn 0.6178 -0.7863 -0.0012
vn 0.6680 -0.7441 -0.0012
vn 0.6178 -0.7864 -0.0012
vn 0.0001 -0.0000 1.0000
vn 0.4940 0.8695 0.0009
vn 0.2151 0.9766 0.0012
vn 0.4940 0.8694 0.0009
vn -0.6105 -0.7920 -0.0007
vn -0.6618 -0.7497 -0.0006
vn -0.6617 -0.7497 -0.0006
vn 0.9917 -0.1288 -0.0006
vn 0.9916 0.1292 -0.0003
vn 0.9916 -0.1292 -0.0006
vn -0.9916 -0.1295 0.0002
vn -0.9917 0.1285 0.0005
vn -0.9917 0.1287 0.0006
vn -0.6698 0.7425 0.0013
vn -0.6198 0.7848 0.0013
vn -0.6197 0.7848 0.0013
vn -0.2150 -0.9766 -0.0011
vn -0.4928 -0.8701 -0.0008
vn -0.1629 -0.6342 -0.7558
vn 0.0046 -0.6250 -0.7806
vn 0.1709 -0.6336 -0.7546
vn 0.4325 -0.5448 -0.7184
vn 0.3113 -0.5769 -0.7551
vn 0.3943 -0.5517 -0.7349
vn -0.3042 -0.5786 -0.7568
vn -0.4262 -0.5468 -0.7207
vn -0.3874 -0.5536 -0.7372
vn 0.1659 -0.6187 0.7679
vn 0.0048 -0.6085 0.7935
vn -0.1578 -0.6191 0.7693
vn 0.4286 -0.5458 0.7200
vn 0.3982 -0.5449 0.7379
vn 0.3036 -0.5656 0.7667
vn -0.4218 -0.5475 0.7227
vn -0.2961 -0.5671 0.7686
vn -0.3908 -0.5467 0.7406
vn 0.4623 -0.5157 -0.7214
vn -0.4565 -0.5177 -0.7236
vn -0.4562 -0.5180 -0.7235
vn -0.2149 -0.9766 -0.0011
vn 0.4644 -0.5171 0.7190
vn -0.4581 -0.5188 0.7218
vn 0.9518 -0.3066 -0.0009
vn 0.9518 -0.3068 -0.0008
vn -0.9915 -0.1298 0.0003
vn -0.9514 -0.3081 -0.0001
vn -0.9513 -0.3083 0.0001
vn -0.1719 0.6327 -0.7551
vn 0.1627 0.6333 -0.7566
vn -0.0054 0.6239 -0.7815
vn 0.4266 0.5456 -0.7213
vn 0.3878 0.5525 -0.7379
vn 0.3044 0.5774 -0.7576
vn -0.3127 0.5757 -0.7555
vn -0.3958 0.5506 -0.7350
vn -0.4339 0.5436 -0.7184
vn -0.0050 0.6059 0.7955
vn 0.1573 0.6168 0.7712
vn -0.1660 0.6162 0.7699
vn 0.4218 0.5456 0.7242
vn 0.2960 0.5648 0.7703
vn 0.3909 0.5445 0.7421
vn -0.3038 0.5631 0.7685
vn -0.4286 0.5434 0.7218
vn -0.3984 0.5425 0.7396
vn 0.4569 0.5165 -0.7242
vn 0.9517 0.3070 -0.0001
vn 0.9916 0.1294 -0.0003
vn 0.9517 0.3069 -0.0000
vn -0.4636 0.5146 -0.7213
vn -0.4634 0.5150 -0.7212
vn 0.4581 0.5169 0.7231
vn -0.4643 0.5148 0.7207
vn -0.4644 0.5147 0.7207
vn 0.2150 0.9766 0.0012
vn 0.6118 0.7910 0.0008
vn 0.6119 0.7910 0.0007
vn -0.9522 0.3055 0.0007
vn 0.6632 0.7485 0.0007
vn 0.6631 0.7485 0.0007
vn 0.0001 -0.0000 -1.0000
vn -0.2278 -0.9737 -0.0013
vn -0.5024 -0.8646 -0.0012
vn 0.2294 0.9733 0.0014
vn 0.5046 0.8634 0.0013
vn 0.2295 0.9733 0.0014
vn -0.6178 -0.7863 -0.0012
vn -0.6680 -0.7441 -0.0012
vn -0.0001 -0.0000 1.0000
vn -0.4940 0.8695 0.0009
vn -0.2151 0.9766 0.0012
vn -0.2150 0.9766 0.0012
vn 0.6618 -0.7497 -0.0006
vn 0.6105 -0.7920 -0.0007
vn 0.6617 -0.7497 -0.0006
vn -0.9917 -0.1288 -0.0006
vn -0.9916 0.1292 -0.0003
vn -0.9916 0.1294 -0.0003
vn 0.9917 0.1285 0.0005
vn 0.9916 -0.1295 0.0002
vn 0.9917 0.1287 0.0006
vn 0.6198 0.7848 0.0013
vn 0.6698 0.7425 0.0013
vn 0.6197 0.7848 0.0013
vn 0.4928 -0.8701 -0.0008
vn 0.2150 -0.9766 -0.0011
vn 0.1629 -0.6342 -0.7558
vn -0.1709 -0.6336 -0.7546
vn -0.0046 -0.6250 -0.7806
vn -0.4325 -0.5448 -0.7184
vn -0.3943 -0.5517 -0.7349
vn -0.3113 -0.5769 -0.7551
vn 0.3042 -0.5786 -0.7568
vn 0.3874 -0.5536 -0.7372
vn 0.4262 -0.5468 -0.7207
vn -0.1659 -0.6187 0.7679
vn 0.1578 -0.6191 0.7693
vn -0.0048 -0.6085 0.7935
vn -0.4286 -0.5458 0.7200
vn -0.3036 -0.5656 0.7667
vn -0.3982 -0.5449 0.7379
vn 0.4218 -0.5475 0.7227
vn 0.3908 -0.5467 0.7406
vn 0.2961 -0.5671 0.7686
vn -0.4623 -0.5157 -0.7214
vn -0.4621 -0.5160 -0.7213
vn 0.4565 -0.5177 -0.7236
vn 0.4562 -0.5180 -0.7235
vn 0.2149 -0.9766 -0.0011
vn -0.2279 -0.9737 -0.0012
vn -0.4644 -0.5171 0.7190
vn 0.4581 -0.5188 0.7218
vn -0.9916 -0.1292 -0.0006
vn -0.9518 -0.3066 -0.0009
vn -0.9518 -0.3068 -0.0008
vn 0.9915 -0.1298 0.0003
vn 0.9514 -0.3081 -0.0001
vn -0.6178 -0.7864 -0.0012
vn 0.1719 0.6327 -0.7551
vn 0.0054 0.6239 -0.7815
vn -0.1627 0.6332 -0.7567
vn -0.4266 0.5456 -0.7213
vn -0.3044 0.5774 -0.7576
vn -0.3878 0.5525 -0.7379
vn 0.3127 0.5757 -0.7555
vn 0.4339 0.5436 -0.7184
vn 0.3958 0.5506 -0.7350
vn 0.0050 0.6059 0.7955
vn 0.1660 0.6162 0.7699
vn -0.1573 0.6168 0.7712
vn -0.4218 0.5456 0.7242
vn -0.3909 0.5445 0.7421
vn -0.2960 0.5648 0.7703
vn 0.3038 0.5631 0.7685
vn 0.3984 0.5425 0.7396
vn 0.4286 0.5434 0.7218
vn -0.4569 0.5165 -0.7242
vn -0.9517 0.3070 -0.0001
vn -0.9518 0.3069 -0.0000
vn 0.4636 0.5146 -0.7213
vn -0.4581 0.5169 0.7231
vn -0.4582 0.5169 0.7231
vn 0.4643 0.5148 0.7207
vn 0.4644 0.5147 0.7207
vn -0.4940 0.8694 0.0009
vn -0.6118 0.7910 0.0008
vn -0.6119 0.7910 0.0007
vn 0.9522 0.3055 0.0007
vn 0.9522 0.3053 0.0008
vn -0.6632 0.7485 0.0007
vn -0.6698 0.7426 0.0012
vn 0.4621 -0.5160 -0.7213
vn 0.4645 -0.5169 0.7190
vn 0.4566 0.5169 -0.7241
vn 0.4582 0.5169 0.7231
vn -0.9522 0.3053 0.0008
vn 0.6698 0.7426 0.0012
vn -0.4645 -0.5169 0.7190
vn 0.9513 -0.3083 0.0001
vn -0.4566 0.5169 -0.7241
vn 0.4634 0.5150 -0.7212
vn -0.6631 0.7485 0.0007
s 1
usemtl Metal_Black_Paint
f 10//1 40//2 48//2
f 17//3 33//4 28//5
f 5//1 23//2 9//1
f 8//1 38//2 2//2
f 6//1 45//2 8//1
f 47//6 56//7 41//8
f 18//9 24//10 31//11
f 36//12 53//12 27//12
f 25//12 59//12 32//12
f 46//13 55//14 58//15
f 1//2 38//2 12//2
f 5//1 20//2 16//2
f 22//16 26//17 13//18
f 3//2 40//2 4//2
f 32//12 54//12 29//12
f 29//12 62//12 36//12
f 12//19 51//20 25//21
f 9//1 14//2 3//2
f 6//1 48//2 43//2
f 14//22 53//23 40//24
f 39//25 61//26 49//27
f 15//28 35//29 21//29
f 15//30 16//31 17//32
f 18//33 19//34 20//35
f 21//36 22//37 23//38
f 28//39 29//40 30//41
f 31//42 32//43 33//44
f 34//45 35//46 36//47
f 20//35 11//48 18//33
f 16//31 21//36 23//38
f 16//31 19//34 17//32
f 23//38 13//49 14//50
f 34//16 21//29 35//29
f 17//3 30//51 15//28
f 24//52 32//43 31//42
f 35//46 29//40 36//47
f 33//44 29//40 28//39
f 26//53 36//47 27//53
f 11//54 25//21 24//55
f 27//56 13//57 26//58
f 19//4 31//11 33//4
f 7//1 12//2 20//2
f 41//59 42//60 43//61
f 44//62 45//63 46//64
f 47//65 48//66 49//67
f 54//68 55//69 56//70
f 57//71 58//72 59//73
f 60//74 61//75 62//76
f 37//77 45//63 44//62
f 47//65 43//61 48//66
f 50//78 38//79 37//80
f 46//64 43//61 42//60
f 39//81 48//66 40//82
f 59//73 50//83 57//71
f 54//68 60//74 62//76
f 54//68 58//72 55//69
f 62//76 52//84 53//85
f 56//7 42//86 41//8
f 44//87 58//15 57//88
f 49//27 60//6 47//6
f 52//89 40//24 53//23
f 37//90 57//88 50//91
f 72//1 102//92 66//92
f 79//93 95//94 81//94
f 85//92 67//1 71//1
f 100//92 70//1 64//92
f 107//92 68//1 70//1
f 118//95 109//96 103//97
f 80//98 86//99 73//99
f 98//100 115//100 124//100
f 87//100 121//100 113//100
f 108//101 117//102 104//103
f 63//92 100//92 64//92
f 67//1 82//92 69//1
f 88//104 84//105 75//106
f 102//92 65//92 66//92
f 94//100 116//100 121//100
f 91//100 124//100 116//100
f 74//107 113//108 100//109
f 76//92 71//1 65//92
f 68//1 110//92 72//1
f 115//110 76//111 102//112
f 123//113 101//114 111//115
f 97//116 77//117 83//116
f 77//118 79//119 78//120
f 80//121 82//122 81//123
f 83//124 85//125 84//126
f 90//127 92//128 91//129
f 93//130 95//131 94//132
f 96//133 98//134 97//135
f 82//122 73//136 74//137
f 83//124 78//120 85//125
f 78//120 81//123 82//122
f 75//138 85//125 76//139
f 96//105 83//116 84//105
f 79//93 92//140 90//141
f 94//132 86//142 93//130
f 97//135 91//129 92//128
f 91//129 95//131 90//127
f 88//143 98//134 96//133
f 87//144 73//145 86//146
f 89//147 75//148 76//111
f 93//149 81//94 95//94
f 69//1 74//92 63//92
f 103//150 105//151 104//152
f 106//153 108//154 107//155
f 109//156 111//157 110//158
f 116//159 118//160 117//161
f 119//162 121//163 120//164
f 122//165 124//166 123//167
f 107//155 99//168 106//153
f 109//156 105//151 103//150
f 100//109 112//169 99//170
f 105//151 108//154 104//152
f 101//171 110//158 111//157
f 121//163 112//172 113//173
f 122//165 116//159 124//166
f 116//159 120//164 121//163
f 114//174 124//166 115//175
f 104//103 118//95 103//97
f 120//176 106//177 119//178
f 111//115 122//96 123//113
f 114//179 102//112 101//180
f 99//181 119//178 106//177
f 10//1 4//2 40//2
f 17//3 19//4 33//4
f 5//1 16//2 23//2
f 8//1 45//2 38//2
f 6//1 43//2 45//2
f 47//6 60//6 56//7
f 18//9 11//10 24//10
f 36//12 62//12 53//12
f 25//12 51//12 59//12
f 46//13 42//86 55//14
f 1//2 2//2 38//2
f 5//1 7//1 20//2
f 22//16 34//16 26//17
f 3//2 14//2 40//2
f 32//12 59//12 54//12
f 29//12 54//12 62//12
f 12//19 38//79 51//20
f 9//1 23//2 14//2
f 6//1 10//1 48//2
f 14//22 27//56 53//23
f 39//25 52//182 61//26
f 15//28 30//51 35//29
f 20//35 12//183 11//48
f 16//31 15//30 21//36
f 16//31 20//35 19//34
f 23//38 22//37 13//49
f 34//16 22//16 21//29
f 17//3 28//5 30//51
f 24//52 25//184 32//43
f 35//46 30//41 29//40
f 33//44 32//43 29//40
f 26//53 34//45 36//47
f 11//54 12//19 25//21
f 27//56 14//22 13//57
f 19//4 18//9 31//11
f 7//1 1//2 12//2
f 37//77 38//185 45//63
f 47//65 41//59 43//61
f 50//78 51//20 38//79
f 46//64 45//63 43//61
f 39//81 49//67 48//66
f 59//73 51//186 50//83
f 54//68 56//70 60//74
f 54//68 59//73 58//72
f 62//76 61//75 52//84
f 56//7 55//14 42//86
f 44//87 46//13 58//15
f 49//27 61//26 60//6
f 52//89 39//187 40//24
f 37//90 44//87 57//88
f 72//1 110//92 102//92
f 79//93 90//141 95//94
f 85//92 78//92 67//1
f 100//92 107//92 70//1
f 107//92 105//92 68//1
f 118//95 122//96 109//96
f 80//98 93//149 86//99
f 98//100 89//100 115//100
f 87//100 94//100 121//100
f 108//101 120//176 117//102
f 63//92 74//92 100//92
f 67//1 78//92 82//92
f 88//104 96//105 84//105
f 102//92 76//92 65//92
f 94//100 91//100 116//100
f 91//100 98//100 124//100
f 74//107 87//144 113//108
f 76//92 85//92 71//1
f 68//1 105//92 110//92
f 115//110 89//147 76//111
f 123//113 114//188 101//114
f 97//116 92//140 77//117
f 82//122 80//121 73//136
f 83//124 77//118 78//120
f 78//120 79//119 81//123
f 75//138 84//126 85//125
f 96//105 97//116 83//116
f 79//93 77//117 92//140
f 94//132 87//189 86//142
f 97//135 98//134 91//129
f 91//129 94//132 95//131
f 88//143 89//143 98//134
f 87//144 74//107 73//145
f 89//147 88//190 75//148
f 93//149 80//98 81//94
f 69//1 82//92 74//92
f 107//155 100//191 99//168
f 109//156 110//158 105//151
f 100//109 113//108 112//169
f 105//151 107//155 108//154
f 101//171 102//192 110//158
f 121//163 119//162 112//172
f 122//165 118//160 116//159
f 116//159 117//161 120//164
f 114//174 123//167 124//166
f 104//103 117//102 118//95
f 120//176 108//101 106//177
f 111//115 109//96 122//96
f 114//179 115//110 102//112
f 99//181 112//193 119//178
