# Blender 4.2.0
# www.blender.org
mtllib Cube_172.mtl
o Cube_172
v -0.314557 0.048772 -0.006070
v -0.314556 -0.048319 -0.006070
v -0.345649 0.048535 -0.006070
v -0.345648 -0.048559 -0.006070
v -0.330103 0.055516 -0.006070
v -0.330102 -0.055311 -0.006070
v -0.322330 0.053175 -0.006070
v -0.322329 -0.052847 -0.006070
v -0.337876 0.053057 -0.006070
v -0.337875 -0.052967 -0.006070
v -0.315515 0.048567 0.006070
v -0.315514 -0.048524 0.006070
v -0.346607 0.048330 0.006070
v -0.346606 -0.048765 0.006070
v -0.331061 0.055311 0.006070
v -0.331060 -0.055516 0.006070
v -0.323288 0.052970 0.006070
v -0.323287 -0.053052 0.006070
v -0.338834 0.052851 0.006070
v -0.338833 -0.053172 0.006070
v 0.314557 0.048772 -0.006070
v 0.314556 -0.048319 -0.006070
v 0.345649 0.048536 -0.006070
v 0.345648 -0.048559 -0.006070
v 0.330103 0.055516 -0.006070
v 0.330102 -0.055311 -0.006070
v 0.322330 0.053175 -0.006070
v 0.322329 -0.052847 -0.006070
v 0.337876 0.053057 -0.006070
v 0.337875 -0.052967 -0.006070
v 0.315515 0.048567 0.006070
v 0.315514 -0.048524 0.006070
v 0.346607 0.048330 0.006070
v 0.346606 -0.048765 0.006070
v 0.331061 0.055311 0.006070
v 0.331060 -0.055516 0.006070
v 0.323288 0.052971 0.006070
v 0.323287 -0.053052 0.006070
v 0.338834 0.052851 0.006070
v 0.338833 -0.053172 0.006070
vn -0.0000 -0.0000 1.0000
vn -0.0000 -0.0000 -1.0000
vn 0.5027 -0.8641 0.0250
vn 0.4096 -0.9121 0.0169
vn 0.3887 0.9202 0.0462
vn 0.2885 0.9567 0.0389
vn -0.4102 0.9119 -0.0170
vn -0.5032 0.8638 -0.0251
vn 0.4925 0.8686 0.0536
vn 0.3972 0.9165 0.0468
vn -0.2881 -0.9568 -0.0389
vn -0.3883 -0.9204 -0.0462
vn 0.9969 -0.0000 0.0787
vn -0.3969 -0.9167 -0.0468
vn -0.4922 -0.8688 -0.0535
vn -0.3021 0.9532 -0.0077
vn -0.4001 0.9163 -0.0161
vn 0.3996 -0.9166 0.0160
vn 0.3016 -0.9534 0.0077
vn -0.9969 -0.0000 -0.0787
vn -0.5026 -0.8641 0.0250
vn -0.4097 -0.9121 0.0169
vn -0.3996 -0.9166 0.0160
vn -0.2885 0.9567 0.0389
vn -0.3887 0.9202 0.0462
vn 0.5032 0.8638 -0.0251
vn 0.4102 0.9119 -0.0170
vn -0.3972 0.9165 0.0468
vn -0.4925 0.8686 0.0536
vn 0.2881 -0.9568 -0.0389
vn 0.3883 -0.9204 -0.0462
vn 0.3969 -0.9167 -0.0468
vn -0.9969 -0.0000 0.0787
vn 0.4922 -0.8688 -0.0535
vn 0.4001 0.9163 -0.0161
vn 0.3021 0.9532 -0.0077
vn -0.3016 -0.9534 0.0077
vn 0.9969 -0.0000 -0.0787
vn -0.5027 -0.8641 0.0250
s 1
usemtl Metal_Black_Paint
f 2//1 1//1 3//1
f 13//2 19//2 11//2
f 3//3 19//4 13//3
f 10//5 16//6 6//6
f 8//7 12//8 2//8
f 4//9 20//10 10//5
f 5//11 17//12 15//11
f 4//13 13//13 14//13
f 7//14 11//15 17//12
f 6//16 18//17 8//7
f 9//18 15//19 19//4
f 2//20 11//20 1//20
f 23//1 29//1 21//1
f 32//2 31//2 33//2
f 23//21 39//22 29//23
f 36//24 30//25 26//24
f 32//26 28//27 22//26
f 40//28 24//29 30//25
f 25//30 37//31 27//32
f 24//33 33//33 23//33
f 27//32 31//34 21//34
f 38//35 26//36 28//27
f 29//23 35//37 25//37
f 31//38 22//38 21//38
f 1//1 7//1 9//1
f 7//1 5//1 9//1
f 9//1 3//1 1//1
f 3//1 4//1 2//1
f 4//1 10//1 8//1
f 10//1 6//1 8//1
f 8//1 2//1 4//1
f 15//2 17//2 19//2
f 17//2 11//2 19//2
f 11//2 12//2 13//2
f 12//2 18//2 14//2
f 13//2 12//2 14//2
f 18//2 16//2 20//2
f 20//2 14//2 18//2
f 3//3 9//18 19//4
f 10//5 20//10 16//6
f 8//7 18//17 12//8
f 4//9 14//9 20//10
f 5//11 7//14 17//12
f 4//13 3//13 13//13
f 7//14 1//15 11//15
f 6//16 16//16 18//17
f 9//18 5//19 15//19
f 2//20 12//20 11//20
f 25//1 27//1 29//1
f 27//1 21//1 29//1
f 21//1 22//1 23//1
f 22//1 28//1 24//1
f 23//1 22//1 24//1
f 28//1 26//1 30//1
f 30//1 24//1 28//1
f 31//2 37//2 39//2
f 37//2 35//2 39//2
f 39//2 33//2 31//2
f 33//2 34//2 32//2
f 34//2 40//2 38//2
f 40//2 36//2 38//2
f 38//2 32//2 34//2
f 23//21 33//39 39//22
f 36//24 40//28 30//25
f 32//26 38//35 28//27
f 40//28 34//29 24//29
f 25//30 35//30 37//31
f 24//33 34//33 33//33
f 27//32 37//31 31//34
f 38//35 36//36 26//36
f 29//23 39//22 35//37
f 31//38 32//38 22//38
