# Blender 4.2.0
# www.blender.org
mtllib Cube_132.mtl
o Cube_132
v -0.115592 -0.099377 0.058785
v -0.115592 0.099283 0.058785
v 0.115592 -0.099377 0.058785
v 0.115592 0.099283 0.058785
v -0.111429 -0.095800 0.058785
v -0.111429 0.095706 0.058785
v 0.111429 -0.095800 0.058785
v 0.111429 0.095706 0.058785
v -0.038531 0.099283 0.058785
v 0.038531 0.099283 0.058785
v -0.078795 0.099283 -0.030739
v 0.078794 0.099283 -0.030739
v -0.078795 0.099283 -0.058785
v 0.078794 0.099283 -0.058785
v -0.078795 0.100922 -0.030739
v 0.078794 0.100922 -0.030739
v -0.078795 0.100922 -0.058785
v 0.078794 0.100922 -0.058785
v -0.076420 0.100922 -0.032081
v 0.076419 0.100922 -0.032081
v -0.076420 0.100922 -0.057443
v 0.076419 0.100922 -0.057443
v 0.075373 0.101411 -0.057033
v -0.075374 0.101411 -0.057033
v 0.075373 0.101411 -0.032490
v -0.075374 0.101411 -0.032490
v -0.075374 0.099305 -0.032490
v 0.075373 0.099305 -0.032490
v -0.075374 0.099305 -0.057033
v 0.075373 0.099305 -0.057033
v -0.117959 -0.101411 0.058785
v -0.117959 0.101317 0.058785
v 0.117959 -0.101411 0.058785
v 0.117959 0.101317 0.058785
v -0.117959 -0.101411 0.055182
v -0.117959 0.101317 0.055182
v 0.117959 -0.101411 0.055182
v 0.117959 0.101317 0.055182
v -0.113851 -0.097881 0.055182
v -0.113851 0.097787 0.055182
v 0.113851 -0.097881 0.055182
v 0.113851 0.097787 0.055182
v 0.115592 0.099283 0.055182
v -0.115592 -0.099377 0.055182
v -0.115592 0.099283 0.055182
v 0.115592 -0.099377 0.055182
vn -0.0000 -0.0000 1.0000
vn -0.0000 -0.0000 -1.0000
vn -1.0000 -0.0000 -0.0000
vn 1.0000 -0.0000 -0.0000
vn -0.0000 1.0000 -0.0000
vn 0.8396 0.5432 -0.0000
vn -0.0000 0.2455 0.9694
vn -0.8396 0.5432 -0.0000
vn -0.0000 0.2455 -0.9694
vn -0.0000 -1.0000 -0.0000
s 1
usemtl Metal_Black_Paint
f 4//1 7//1 3//1
f 1//1 6//1 2//1
f 3//1 5//1 1//1
f 9//1 6//1 8//1
f 13//2 18//2 14//2
f 11//3 17//3 13//3
f 12//1 15//1 11//1
f 14//4 16//4 12//4
f 18//5 20//5 16//5
f 19//6 29//6 21//6
f 16//5 19//5 15//5
f 15//5 21//5 17//5
f 17//5 22//5 18//5
f 29//2 23//2 30//2
f 21//7 30//7 22//7
f 22//8 28//8 20//8
f 20//9 27//9 19//9
f 27//3 24//3 29//3
f 25//5 24//5 26//5
f 28//1 26//1 27//1
f 30//4 25//4 28//4
f 1//1 33//1 3//1
f 4//1 33//1 34//1
f 2//1 31//1 1//1
f 32//1 4//1 34//1
f 32//3 35//3 31//3
f 34//5 36//5 32//5
f 33//4 38//4 34//4
f 31//10 37//10 33//10
f 46//2 35//2 44//2
f 40//2 39//2 44//2
f 42//2 40//2 45//2
f 41//2 42//2 43//2
f 4//1 8//1 7//1
f 1//1 5//1 6//1
f 3//1 7//1 5//1
f 8//1 4//1 10//1
f 9//1 2//1 6//1
f 8//1 10//1 9//1
f 13//2 17//2 18//2
f 11//3 15//3 17//3
f 12//1 16//1 15//1
f 14//4 18//4 16//4
f 18//5 22//5 20//5
f 19//6 27//6 29//6
f 16//5 20//5 19//5
f 15//5 19//5 21//5
f 17//5 21//5 22//5
f 29//2 24//2 23//2
f 21//7 29//7 30//7
f 22//8 30//8 28//8
f 20//9 28//9 27//9
f 27//3 26//3 24//3
f 25//5 23//5 24//5
f 28//1 25//1 26//1
f 30//4 23//4 25//4
f 1//1 31//1 33//1
f 4//1 3//1 33//1
f 2//1 32//1 31//1
f 32//1 2//1 4//1
f 32//3 36//3 35//3
f 34//5 38//5 36//5
f 33//4 37//4 38//4
f 31//10 35//10 37//10
f 46//2 37//2 35//2
f 44//2 39//2 46//2
f 39//2 41//2 46//2
f 44//2 35//2 45//2
f 35//2 36//2 45//2
f 45//2 40//2 44//2
f 45//2 36//2 38//2
f 38//2 43//2 45//2
f 43//2 42//2 45//2
f 43//2 38//2 37//2
f 37//2 46//2 43//2
f 46//2 41//2 43//2
