# Blender 4.2.0
# www.blender.org
mtllib Cube_058.mtl
o Cube_058
v -0.297645 0.008754 0.000000
v 0.297105 -0.019938 -0.000000
v -0.000270 -0.005592 -0.171271
v -0.000270 -0.005592 0.171271
v 0.297105 -0.019938 0.171271
v 0.297105 -0.019938 -0.171271
v -0.297645 0.008754 -0.171271
v -0.297645 0.008754 0.171271
v -0.297105 0.019938 0.000000
v 0.297645 -0.008754 -0.000000
v 0.000270 0.005592 -0.171271
v 0.000270 0.005592 0.171271
v 0.297645 -0.008754 0.171271
v 0.297645 -0.008754 -0.171271
v -0.297105 0.019938 -0.171271
v -0.297105 0.019938 0.171271
vn 0.9988 -0.0482 -0.0000
vn -0.0482 -0.9988 -0.0000
vn -0.9988 0.0482 -0.0000
vn -0.0000 -0.0000 -1.0000
vn -0.0000 -0.0000 1.0000
s 1
usemtl Carbon_Fiber_ANI_01_Clearcoat
f 1//1 16//1 8//1
f 11//2 14//2 10//2
f 7//1 9//1 1//1
f 2//3 14//3 6//3
f 5//3 10//3 2//3
f 4//4 16//4 12//4
f 3//5 15//5 7//5
f 6//5 11//5 3//5
f 5//4 12//4 13//4
f 1//1 9//1 16//1
f 13//2 12//2 10//2
f 12//2 16//2 9//2
f 9//2 15//2 11//2
f 12//2 9//2 11//2
f 10//2 12//2 11//2
f 7//1 15//1 9//1
f 2//3 10//3 14//3
f 5//3 13//3 10//3
f 4//4 8//4 16//4
f 3//5 11//5 15//5
f 6//5 14//5 11//5
f 5//4 4//4 12//4
