# Blender 4.2.0
# www.blender.org
mtllib Cube_281.mtl
o Cube_281
v -0.124505 -0.158723 -0.003624
v -0.124505 0.158723 -0.003624
v 0.124505 -0.158723 -0.003624
v 0.124505 0.158723 -0.003624
v -0.063997 -0.081586 -0.045435
v -0.112590 -0.143534 -0.022502
v -0.070850 -0.090322 -0.044320
v -0.077052 -0.098228 -0.043477
v -0.082955 -0.105754 -0.042400
v -0.088913 -0.113349 -0.040578
v -0.094259 -0.120164 -0.038089
v -0.098068 -0.125020 -0.035530
v -0.101110 -0.128898 -0.032849
v -0.104156 -0.132782 -0.029998
v -0.063997 0.081586 -0.045435
v -0.112590 0.143534 -0.022502
v -0.070850 0.090322 -0.044320
v -0.077052 0.098228 -0.043477
v -0.082955 0.105754 -0.042400
v -0.088913 0.113349 -0.040578
v -0.094259 0.120164 -0.038089
v -0.098068 0.125020 -0.035530
v -0.101110 0.128898 -0.032849
v -0.104156 0.132782 -0.029998
v 0.063997 -0.081586 -0.045435
v 0.112590 -0.143534 -0.022502
v 0.070850 -0.090322 -0.044320
v 0.077052 -0.098228 -0.043477
v 0.082955 -0.105754 -0.042400
v 0.088913 -0.113349 -0.040578
v 0.094259 -0.120164 -0.038089
v 0.098067 -0.125020 -0.035530
v 0.101109 -0.128898 -0.032849
v 0.104156 -0.132782 -0.029998
v 0.063997 0.081586 -0.045435
v 0.112590 0.143534 -0.022502
v 0.070850 0.090322 -0.044320
v 0.077052 0.098228 -0.043477
v 0.082955 0.105754 -0.042400
v 0.088913 0.113349 -0.040578
v 0.094259 0.120164 -0.038089
v 0.098067 0.125020 -0.035530
v 0.101109 0.128898 -0.032849
v 0.104156 0.132782 -0.029998
v 0.128347 -0.163621 0.004233
v 0.128347 0.163621 0.004233
v -0.128347 0.163621 0.004233
v -0.128347 -0.163621 0.004233
v 0.130768 -0.166707 0.045435
v 0.130768 0.166707 0.045435
v -0.130768 0.166707 0.045435
v -0.130768 -0.166707 0.045435
v 0.130768 0.112936 -0.003624
v 0.130768 -0.112936 -0.003624
v -0.130768 -0.112936 -0.003624
v -0.130768 0.112936 -0.003624
v 0.130768 0.083354 0.045435
v 0.130768 -0.083354 0.045435
v -0.130768 -0.083354 0.045435
v -0.130768 0.083354 0.045435
v -0.124505 -0.158723 0.042250
v -0.124505 0.158723 0.042250
v 0.124505 -0.158723 0.042250
v 0.124505 0.158723 0.042250
v 0.130768 0.107792 0.008240
v 0.130768 0.102254 0.019694
v 0.130768 0.095462 0.031149
v 0.130768 -0.107792 0.008240
v 0.130768 -0.102254 0.019694
v 0.130768 -0.095462 0.031149
v -0.130768 0.107792 0.008240
v -0.130768 0.102254 0.019694
v -0.130768 0.095462 0.031149
v -0.130768 -0.107792 0.008240
v -0.130768 -0.102254 0.019694
v -0.130768 -0.095462 0.031149
v 0.000000 0.111138 -0.002735
v 0.000000 -0.111138 -0.002735
v -0.124505 -0.086355 0.042250
v -0.124505 0.000000 0.042250
v -0.124505 0.086355 0.042250
v 0.124505 0.086355 0.042250
v 0.124505 0.000000 0.042250
v 0.124505 -0.086355 0.042250
v -0.124505 0.000000 0.045435
v 0.124505 0.000000 0.045435
v 0.124792 -0.159088 0.045435
v 0.124792 0.159088 0.045435
v -0.124792 0.159088 0.045435
v -0.124792 -0.159088 0.045435
v 0.124792 0.079544 0.045435
v 0.124792 -0.079544 0.045435
v -0.124792 -0.079544 0.045435
v -0.124792 0.079544 0.045435
v -0.124462 -0.112936 -0.003624
v -0.124462 0.112936 -0.003624
v -0.124462 -0.083354 0.045435
v -0.124462 0.083354 0.045435
v -0.124462 0.107792 0.008240
v -0.124462 0.102254 0.019694
v -0.124462 0.095462 0.031149
v -0.124462 -0.107792 0.008240
v -0.124462 -0.102254 0.019694
v -0.124462 -0.095462 0.031149
v -0.124462 0.085165 0.043298
v -0.124462 -0.085165 0.043298
v 0.124461 0.112936 -0.003624
v 0.124461 -0.112936 -0.003624
v 0.124462 0.083354 0.045435
v 0.124462 -0.083354 0.045435
v 0.124461 0.107792 0.008240
v 0.124461 0.102254 0.019694
v 0.124461 0.095462 0.031149
v 0.124461 -0.107792 0.008240
v 0.124461 -0.102254 0.019694
v 0.124461 -0.095462 0.031149
v 0.124462 -0.085165 0.043298
v 0.124462 0.085165 0.043298
v -0.120017 0.000000 0.045435
v 0.120017 0.000000 0.045435
v 0.120294 -0.153354 0.045435
v 0.120294 0.153354 0.045435
v -0.120294 0.153354 0.045435
v -0.120294 -0.153354 0.045435
v 0.120294 0.076677 0.045435
v 0.120294 -0.076677 0.045435
v -0.120294 -0.076677 0.045435
v -0.120294 0.076677 0.045435
v -0.119975 -0.080349 0.045435
v -0.119975 0.080349 0.045435
v 0.119975 0.080349 0.045435
v 0.119975 -0.080349 0.045435
v 0.119988 -0.083354 0.045435
v 0.120294 0.153354 -0.002892
v 0.120294 -0.153354 -0.002892
v 0.119988 0.083354 0.045435
v -0.119988 0.083354 0.045435
v 0.120017 0.000000 -0.002892
v -0.120017 0.000000 -0.002892
v -0.119988 -0.083354 0.045435
v -0.120294 0.153354 -0.002892
v -0.120294 -0.153354 -0.002892
v 0.120294 0.076677 -0.002892
v 0.120294 -0.076677 -0.002892
v -0.120294 -0.076677 -0.002892
v -0.120294 0.076677 -0.002892
v -0.119975 -0.080349 -0.002892
v -0.119975 0.080349 -0.002892
v 0.119975 0.080349 -0.002892
v 0.119975 -0.080349 -0.002892
v 0.099344 -0.153354 -0.002892
v -0.099344 -0.153354 -0.002892
v 0.099344 0.153354 -0.002892
v -0.099344 0.153354 -0.002892
vn -0.0000 -0.7171 -0.6970
vn -0.0000 -0.7791 -0.6269
vn -0.0000 -0.7171 -0.6969
vn 0.8464 -0.0002 -0.5325
vn 0.8464 0.0002 -0.5325
vn 0.8030 0.0004 -0.5960
vn -0.0000 0.7791 -0.6269
vn -0.0000 0.7171 -0.6969
vn -0.8464 0.0002 -0.5325
vn -0.8464 -0.0002 -0.5325
vn -0.8030 -0.0004 -0.5960
vn -0.0000 -0.9620 -0.2730
vn -0.0000 -0.8486 -0.5290
vn -0.0636 -0.0453 -0.9969
vn -0.0704 0.0562 -0.9959
vn -0.0636 0.0453 -0.9969
vn -0.0704 -0.0562 -0.9959
vn -0.0855 0.0661 -0.9941
vn -0.0855 -0.0661 -0.9941
vn -0.2685 -0.0000 -0.9633
vn -0.3941 -0.0000 -0.9191
vn -0.5276 -0.0000 -0.8495
vn -0.6368 -0.0000 -0.7710
vn -0.6776 -0.0000 -0.7354
vn -0.6693 -0.0000 -0.7430
vn 0.0704 0.0562 -0.9959
vn 0.0636 0.0453 -0.9969
vn 0.0855 0.0661 -0.9941
vn -0.0000 0.2069 -0.9784
vn -0.0000 0.3111 -0.9504
vn -0.0000 0.4301 -0.9028
vn -0.0000 0.5377 -0.8432
vn -0.0000 0.5844 -0.8115
vn -0.0000 0.5783 -0.8158
vn 0.0704 -0.0562 -0.9959
vn 0.0636 -0.0453 -0.9969
vn 0.0855 -0.0661 -0.9941
vn 0.2685 -0.0000 -0.9633
vn 0.3941 -0.0000 -0.9191
vn 0.5277 -0.0000 -0.8494
vn 0.6368 -0.0000 -0.7710
vn 0.6776 -0.0000 -0.7355
vn 0.6693 -0.0000 -0.7430
vn -0.0000 -0.2069 -0.9784
vn -0.0000 -0.3111 -0.9504
vn -0.0000 -0.4301 -0.9028
vn -0.0000 -0.5377 -0.8432
vn -0.0000 -0.5844 -0.8115
vn -0.0000 -0.5783 -0.8158
vn -0.0000 0.9972 -0.0747
vn -0.0000 1.0000 -0.0000
vn -0.0000 -1.0000 -0.0000
vn -0.9999 -0.0096 -0.0030
vn -1.0000 0.0002 0.0007
vn -1.0000 -0.0000 0.0016
vn 0.9999 0.0096 -0.0030
vn 1.0000 -0.0002 0.0007
vn 1.0000 -0.0000 0.0016
vn -0.9990 -0.0242 -0.0384
vn -1.0000 -0.0000 -0.0000
vn -0.9997 -0.0231 -0.0057
vn -0.9990 0.0242 -0.0384
vn 0.9990 0.0242 -0.0384
vn 1.0000 -0.0000 -0.0000
vn 0.9997 0.0231 -0.0057
vn 0.9990 -0.0242 -0.0384
vn -0.0000 -0.3706 0.9288
vn -0.0000 -0.8486 0.5290
vn -0.0000 -0.9972 -0.0747
vn -0.0000 0.3706 0.9288
vn 0.9783 0.1213 -0.1681
vn 0.9979 0.0130 0.0632
vn -0.9979 0.0130 0.0633
vn 0.9979 -0.0130 0.0632
vn -0.9784 -0.1211 -0.1674
vn -0.9979 -0.0130 0.0633
vn -0.4534 -0.0000 0.8913
vn 0.4534 -0.0000 0.8913
vn -0.0938 -0.7252 0.6821
vn -0.0335 -0.7276 0.6852
vn -0.9831 -0.1397 0.1184
vn 0.0937 -0.7252 0.6821
vn 0.0335 -0.7276 0.6852
vn -0.0000 -0.7278 0.6858
vn 0.0335 0.7276 0.6852
vn 0.0936 0.7252 0.6821
vn -0.0000 0.7278 0.6858
vn -0.0937 0.7252 0.6821
vn -0.0335 0.7276 0.6852
vn -0.0000 -0.0000 -1.0000
vn -0.0000 0.8810 -0.4731
vn -0.0000 0.9091 -0.4166
vn 0.0048 0.8178 -0.5755
vn 0.0298 0.7645 -0.6439
vn -0.0000 0.8190 -0.5737
vn -0.0000 -0.8810 -0.4731
vn -0.0000 -0.8190 -0.5737
vn 0.0048 -0.8178 -0.5755
vn -0.0000 -0.9175 -0.3978
vn -0.0000 -0.9091 -0.4166
vn -0.0000 0.9175 -0.3978
vn 0.0298 -0.7645 -0.6439
vn -0.0048 0.8178 -0.5755
vn -0.0000 -0.9091 -0.4167
vn 0.5331 0.0297 -0.8455
vn 0.8318 0.1138 -0.5432
vn 0.9817 0.0240 0.1891
vn -0.0048 -0.8178 -0.5755
vn -0.0298 -0.7645 -0.6439
vn -0.8318 0.1138 -0.5432
vn -0.8066 0.0399 -0.5897
vn -0.9754 0.0683 -0.2097
vn -0.0298 0.7645 -0.6439
vn 0.8066 -0.0399 -0.5897
vn 0.8318 -0.1138 -0.5432
vn -0.8066 -0.0399 -0.5898
vn -0.8318 -0.1138 -0.5432
vn -0.9754 -0.0683 -0.2097
vn -0.9991 -0.0414 -0.0000
vn 0.9991 0.0414 -0.0000
vn 0.9992 0.0411 -0.0000
vn 0.9992 0.0410 -0.0000
vn -0.9992 0.0410 -0.0000
vn -0.9991 0.0415 -0.0000
vn -0.9991 0.0414 -0.0000
vn 0.9992 -0.0410 -0.0000
vn 0.9991 -0.0414 -0.0000
vn -0.9992 -0.0411 -0.0000
vn -0.9992 -0.0410 -0.0000
vn -1.0000 0.0044 -0.0000
vn -0.9992 0.0411 -0.0000
vn -1.0000 -0.0044 -0.0000
vn 1.0000 -0.0044 -0.0000
vn 0.9992 -0.0411 -0.0000
vn 1.0000 0.0044 -0.0000
vn 0.1662 0.0006 0.9861
vn 0.1662 -0.0006 0.9861
vn 0.1629 -0.0000 0.9866
vn -0.0000 -0.1351 0.9908
vn -0.0732 -0.0781 0.9942
vn -0.1661 -0.0006 0.9861
vn -0.1661 0.0006 0.9861
vn -0.1629 -0.0000 0.9866
vn -0.0000 0.1351 0.9908
vn 0.0732 0.0781 0.9942
vn -0.0000 -0.7172 -0.6969
vn 0.8030 -0.0004 -0.5960
vn 0.8459 -0.0008 -0.5333
vn 0.8459 0.0008 -0.5333
vn -0.8030 0.0004 -0.5960
vn -0.8459 0.0008 -0.5333
vn -0.8459 -0.0008 -0.5333
vn -1.0000 0.0005 0.0005
vn -1.0000 0.0010 -0.0000
vn -1.0000 -0.0002 0.0007
vn -1.0000 -0.0010 -0.0000
vn -1.0000 -0.0005 0.0005
vn -0.9999 0.0096 -0.0030
vn 1.0000 -0.0005 0.0005
vn 1.0000 -0.0009 -0.0000
vn 1.0000 0.0002 0.0007
vn 1.0000 0.0009 -0.0000
vn 1.0000 0.0005 0.0005
vn 0.9999 -0.0096 -0.0030
vn -0.9997 0.0231 -0.0057
vn 0.9329 0.0635 -0.3546
vn 0.9229 0.0755 -0.3775
vn 0.9754 -0.0683 -0.2097
vn 0.9997 -0.0231 -0.0057
vn 0.9936 0.0861 -0.0729
vn -0.9784 0.1211 -0.1674
vn -0.9936 0.0861 -0.0729
vn 0.9783 -0.1213 -0.1681
vn 0.9936 -0.0861 -0.0729
vn -0.9936 -0.0861 -0.0729
vn -0.0937 -0.7252 0.6821
vn 0.9827 -0.1411 0.1197
vn 0.9827 0.1412 0.1197
vn 0.0938 0.7252 0.6821
vn -0.9831 0.1396 0.1184
vn 0.0368 0.7624 -0.6461
vn 0.0368 -0.7624 -0.6461
vn -0.0368 -0.7624 -0.6461
vn -0.0368 0.7624 -0.6461
vn -0.8066 -0.0400 -0.5897
vn 0.0906 0.0644 0.9938
vn 0.1026 0.0082 0.9947
vn 0.1736 -0.0001 0.9848
vn 0.1736 0.0001 0.9848
vn 0.1026 -0.0082 0.9947
vn 0.0906 -0.0644 0.9938
vn 0.0732 -0.0781 0.9942
vn -0.0906 -0.0644 0.9938
vn -0.1026 -0.0082 0.9947
vn -0.1735 0.0001 0.9848
vn -0.1735 -0.0001 0.9848
vn -0.1026 0.0082 0.9947
vn -0.0906 0.0644 0.9938
vn -0.0732 0.0781 0.9942
s 1
usemtl Glass_Reflectors_Base_Clear_Thick
f 26//1 1//2 6//3
f 107//4 108//5 26//6
f 2//7 36//8 16//8
f 95//9 96//10 16//11
f 45//12 1//13 3//13
f 5//14 17//15 15//16
f 7//17 18//18 17//15
f 8//19 19//20 18//18
f 9//20 20//21 19//20
f 20//21 11//22 21//22
f 21//22 12//23 22//23
f 12//23 23//24 22//23
f 13//24 24//25 23//24
f 14//25 16//11 24//25
f 15//16 37//26 35//27
f 17//15 38//28 37//26
f 18//18 39//29 38//28
f 19//29 40//30 39//29
f 40//30 21//31 41//31
f 21//31 42//32 41//31
f 22//32 43//33 42//32
f 43//33 24//34 44//34
f 24//34 36//8 44//34
f 35//27 27//35 25//36
f 37//26 28//37 27//35
f 38//28 29//38 28//37
f 29//38 40//39 30//39
f 40//39 31//40 30//39
f 41//40 32//41 31//40
f 32//41 43//42 33//42
f 43//42 34//43 33//42
f 44//43 26//6 34//43
f 25//36 7//17 5//14
f 27//35 8//19 7//17
f 28//37 9//44 8//19
f 29//44 10//45 9//44
f 30//45 11//46 10//45
f 11//46 32//47 12//47
f 32//47 13//48 12//47
f 33//48 14//49 13//48
f 14//49 26//1 6//3
f 35//27 5//14 15//16
f 51//50 46//50 47//50
f 1//51 63//51 3//51
f 4//52 62//52 2//52
f 82//53 107//54 83//55
f 79//56 95//57 80//58
f 52//59 75//60 74//61
f 72//60 73//60 51//62
f 50//63 66//64 65//65
f 69//64 70//64 49//66
f 64//67 51//67 62//67
f 2//68 46//68 47//68
f 49//69 48//12 45//12
f 52//70 63//70 61//70
f 106//71 79//56 93//72
f 92//73 86//60 83//55
f 94//74 85//64 80//58
f 118//75 82//53 91//76
f 58//77 63//77 49//77
f 59//78 61//78 79//78
f 62//78 60//78 81//78
f 57//77 64//77 82//77
f 84//79 110//80 117//81
f 79//82 97//83 59//84
f 98//85 81//86 60//87
f 82//88 109//89 57//87
f 50//90 89//90 51//90
f 57//90 88//90 50//90
f 59//90 90//90 52//90
f 58//90 110//90 92//90
f 49//90 90//90 87//90
f 60//90 98//90 94//90
f 97//90 59//90 93//90
f 60//90 89//90 98//90
f 58//90 87//90 110//90
f 109//90 57//90 91//90
f 75//91 102//92 74//92
f 76//93 79//94 104//95
f 72//96 101//97 73//98
f 56//99 99//100 71//100
f 76//93 103//91 75//91
f 74//92 95//101 55//101
f 71//100 100//96 72//96
f 81//102 73//98 101//97
f 69//91 116//95 70//103
f 54//101 114//92 68//92
f 66//96 111//100 65//104
f 53//105 4//106 46//107
f 68//92 115//91 69//91
f 67//108 112//96 66//96
f 65//100 107//99 53//99
f 67//108 82//109 113//97
f 2//110 56//111 47//112
f 84//113 70//103 116//95
f 54//114 3//115 108//90
f 55//116 1//117 48//118
f 89//90 122//90 123//90
f 110//90 133//90 132//90
f 90//90 121//90 87//90
f 91//90 131//90 109//90
f 109//90 122//90 88//90
f 85//90 127//90 93//90
f 119//60 145//119 127//119
f 94//90 130//90 128//90
f 86//90 125//90 91//90
f 125//120 149//121 131//122
f 93//90 129//90 97//90
f 86//90 126//90 120//90
f 97//90 124//90 90//90
f 85//90 128//90 119//90
f 98//90 137//90 130//90
f 92//90 132//90 126//90
f 130//123 146//124 128//125
f 140//90 97//90 129//90
f 98//90 123//90 137//90
f 128//125 139//60 119//60
f 136//90 109//90 131//90
f 110//90 121//90 133//90
f 120//64 143//120 125//120
f 132//126 144//127 126//127
f 122//51 153//51 154//51
f 127//119 147//128 129//129
f 126//127 138//64 120//64
f 124//52 152//52 151//52
f 142//130 124//130 140//130
f 148//131 130//123 137//132
f 134//133 122//133 136//133
f 150//134 132//126 133//135
f 108//136 107//137 138//138
f 151//139 152//139 1//140
f 96//141 95//142 139//143
f 154//144 153//144 4//145
f 26//146 3//2 1//2
f 26//6 36//147 107//4
f 36//147 4//148 107//4
f 108//5 3//149 26//6
f 2//7 4//7 36//8
f 16//11 6//150 95//9
f 6//150 1//151 95//9
f 96//10 2//152 16//11
f 45//12 48//12 1//13
f 5//14 7//17 17//15
f 7//17 8//19 18//18
f 8//19 9//20 19//20
f 9//20 10//21 20//21
f 20//21 10//21 11//22
f 21//22 11//22 12//23
f 12//23 13//24 23//24
f 13//24 14//25 24//25
f 14//25 6//150 16//11
f 15//16 17//15 37//26
f 17//15 18//18 38//28
f 18//18 19//29 39//29
f 19//29 20//30 40//30
f 40//30 20//30 21//31
f 21//31 22//32 42//32
f 22//32 23//33 43//33
f 43//33 23//33 24//34
f 24//34 16//8 36//8
f 35//27 37//26 27//35
f 37//26 38//28 28//37
f 38//28 39//38 29//38
f 29//38 39//38 40//39
f 40//39 41//40 31//40
f 41//40 42//41 32//41
f 32//41 42//41 43//42
f 43//42 44//43 34//43
f 44//43 36//147 26//6
f 25//36 27//35 7//17
f 27//35 28//37 8//19
f 28//37 29//44 9//44
f 29//44 30//45 10//45
f 30//45 31//46 11//46
f 11//46 31//46 32//47
f 32//47 33//48 13//48
f 33//48 34//49 14//49
f 14//49 34//49 26//1
f 35//27 25//36 5//14
f 51//50 50//50 46//50
f 1//51 61//51 63//51
f 4//52 64//52 62//52
f 64//153 4//154 107//54
f 107//54 108//155 83//55
f 108//155 3//156 63//157
f 83//55 108//155 84//158
f 63//157 84//158 108//155
f 64//153 107//54 82//53
f 61//159 1//160 95//57
f 95//57 96//161 80//58
f 96//161 2//162 62//163
f 80//58 96//161 81//164
f 62//163 81//164 96//161
f 61//159 95//57 79//56
f 48//118 52//59 74//61
f 52//59 59//60 76//60
f 52//59 76//60 75//60
f 74//61 55//116 48//118
f 51//62 47//112 71//165
f 47//112 56//111 71//165
f 73//60 60//60 51//62
f 51//62 71//165 72//60
f 46//166 50//63 65//65
f 50//63 57//64 67//64
f 50//63 67//64 66//64
f 65//65 53//167 46//166
f 49//66 45//168 68//169
f 45//168 54//114 68//169
f 70//64 58//64 49//66
f 49//66 68//169 69//64
f 64//67 50//67 51//67
f 2//68 4//68 46//68
f 49//69 52//69 48//12
f 52//70 49//70 63//70
f 79//56 80//58 93//72
f 80//58 85//64 93//72
f 93//72 97//170 106//71
f 83//55 84//158 92//73
f 84//158 117//171 92//73
f 117//171 110//172 92//73
f 80//58 81//164 94//74
f 81//164 105//173 94//74
f 105//173 98//174 94//74
f 82//53 83//55 91//76
f 83//55 86//60 91//76
f 91//76 109//175 118//75
f 58//77 84//77 63//77
f 59//78 52//78 61//78
f 62//78 51//78 60//78
f 57//77 50//77 64//77
f 84//176 58//84 110//80
f 79//82 106//177 97//83
f 98//85 105//178 81//179
f 82//88 118//180 109//89
f 50//90 88//90 89//90
f 57//90 109//90 88//90
f 59//90 97//90 90//90
f 49//90 52//90 90//90
f 60//90 51//90 89//90
f 58//90 49//90 87//90
f 75//91 103//91 102//92
f 76//93 59//181 79//94
f 72//96 100//96 101//97
f 56//99 96//99 99//100
f 76//93 104//95 103//91
f 74//92 102//92 95//101
f 71//100 99//100 100//96
f 81//102 60//182 73//98
f 69//91 115//91 116//95
f 54//101 108//101 114//92
f 66//96 112//96 111//100
f 53//105 107//90 4//106
f 68//92 114//92 115//91
f 67//108 113//97 112//96
f 65//104 111//100 107//99
f 67//108 57//183 82//109
f 2//110 96//90 56//111
f 84//113 58//184 70//103
f 54//114 45//168 3//115
f 55//185 95//90 1//117
f 89//90 88//90 122//90
f 90//90 124//90 121//90
f 91//90 125//90 131//90
f 109//90 136//90 122//90
f 85//90 119//90 127//90
f 119//60 139//60 145//119
f 94//90 98//90 130//90
f 86//90 120//90 125//90
f 125//120 143//120 149//121
f 93//90 127//90 129//90
f 86//90 92//90 126//90
f 97//90 140//90 124//90
f 85//90 94//90 128//90
f 92//90 110//90 132//90
f 130//123 148//131 146//124
f 98//90 89//90 123//90
f 128//125 146//124 139//60
f 110//90 87//90 121//90
f 120//64 138//64 143//120
f 132//126 150//134 144//127
f 141//51 123//51 154//51
f 123//51 122//51 154//51
f 122//51 134//51 153//51
f 127//119 145//119 147//128
f 126//127 144//127 138//64
f 135//52 121//52 151//52
f 121//52 124//52 151//52
f 124//52 142//52 152//52
f 140//130 129//129 147//128
f 147//128 142//130 140//130
f 137//132 123//132 141//132
f 141//132 148//131 137//132
f 136//133 131//122 149//121
f 149//121 134//133 136//133
f 133//135 121//135 135//135
f 135//135 150//134 133//135
f 107//137 4//145 134//186
f 134//186 149//187 107//137
f 149//187 143//188 107//137
f 143//188 138//138 107//137
f 138//138 144//189 108//136
f 144//189 150//190 108//136
f 150//190 135//191 108//136
f 135//191 3//192 108//136
f 1//140 3//192 151//139
f 3//192 135//191 151//139
f 152//139 142//193 1//140
f 95//142 1//140 142//193
f 142//193 147//194 95//142
f 147//194 145//195 95//142
f 145//195 139//143 95//142
f 139//143 146//196 96//141
f 146//196 148//197 96//141
f 148//197 141//198 96//141
f 141//198 2//199 96//141
f 4//145 2//199 154//144
f 2//199 141//198 154//144
f 153//144 134//186 4//145
