# Blender 4.2.0
# www.blender.org
mtllib Cube_068.mtl
o Cube_068
v 0.000000 -0.025132 -0.110961
v 0.000000 -0.025132 0.114192
v 0.000000 0.025132 -0.110961
v 0.000000 0.025132 0.114192
v 0.005241 0.024649 -0.110961
v 0.005241 0.024649 0.114192
v 0.009956 0.023219 -0.110961
v 0.009956 0.023219 0.114192
v 0.014301 0.020897 -0.110961
v 0.014301 0.020897 0.114192
v 0.018109 0.017771 -0.110961
v 0.018109 0.017771 0.114192
v 0.021235 0.013963 -0.110961
v 0.021235 0.013963 0.114192
v 0.023557 0.009618 -0.110961
v 0.023557 0.009618 0.114192
v 0.024987 0.004903 -0.110961
v 0.024987 0.004903 0.114192
v 0.025470 0.000000 -0.110961
v 0.025470 0.000000 0.114192
v 0.024987 -0.004903 -0.110961
v 0.024987 -0.004903 0.114192
v 0.023557 -0.009618 -0.110961
v 0.023557 -0.009618 0.114192
v 0.021235 -0.013963 -0.110961
v 0.021235 -0.013963 0.114192
v 0.018109 -0.017771 -0.110961
v 0.018109 -0.017771 0.114192
v 0.014301 -0.020897 -0.110961
v 0.014301 -0.020897 0.114192
v 0.009956 -0.023219 -0.110961
v 0.009956 -0.023219 0.114192
v 0.005241 -0.024649 -0.110961
v 0.005241 -0.024649 0.114192
v -0.000511 -0.026830 -0.114192
v -0.000511 0.026830 -0.114192
v 0.004724 0.026314 -0.114192
v 0.009757 0.024788 -0.114192
v 0.014395 0.022308 -0.114192
v 0.018461 0.018972 -0.114192
v 0.021798 0.014906 -0.114192
v 0.024277 0.010267 -0.114192
v 0.025804 0.005234 -0.114192
v 0.026319 0.000000 -0.114192
v 0.025804 -0.005234 -0.114192
v 0.024277 -0.010267 -0.114192
v 0.021798 -0.014906 -0.114192
v 0.018461 -0.018972 -0.114192
v 0.014395 -0.022308 -0.114192
v 0.009757 -0.024788 -0.114192
v 0.004724 -0.026314 -0.114192
v -0.005241 0.024649 -0.110961
v -0.005241 0.024649 0.114192
v -0.009956 0.023219 -0.110961
v -0.009956 0.023219 0.114192
v -0.014301 0.020897 -0.110961
v -0.014301 0.020897 0.114192
v -0.018109 0.017771 -0.110961
v -0.018109 0.017771 0.114192
v -0.021235 0.013963 -0.110961
v -0.021235 0.013963 0.114192
v -0.023557 0.009618 -0.110961
v -0.023557 0.009618 0.114192
v -0.024987 0.004903 -0.110961
v -0.024987 0.004903 0.114192
v -0.025470 0.000000 -0.110961
v -0.025470 0.000000 0.114192
v -0.024987 -0.004903 -0.110961
v -0.024987 -0.004903 0.114192
v -0.023557 -0.009618 -0.110961
v -0.023557 -0.009618 0.114192
v -0.021235 -0.013963 -0.110961
v -0.021235 -0.013963 0.114192
v -0.018109 -0.017771 -0.110961
v -0.018109 -0.017771 0.114192
v -0.014301 -0.020897 -0.110961
v -0.014301 -0.020897 0.114192
v -0.009956 -0.023219 -0.110961
v -0.009956 -0.023219 0.114192
v -0.005241 -0.024649 -0.110961
v -0.005241 -0.024649 0.114192
v 0.000511 -0.026830 -0.114192
v 0.000511 0.026830 -0.114192
v -0.004724 0.026314 -0.114192
v -0.009757 0.024788 -0.114192
v -0.014395 0.022308 -0.114192
v -0.018461 0.018972 -0.114192
v -0.021798 0.014906 -0.114192
v -0.024277 0.010267 -0.114192
v -0.025804 0.005234 -0.114192
v -0.026319 0.000000 -0.114192
v -0.025804 -0.005234 -0.114192
v -0.024277 -0.010267 -0.114192
v -0.021798 -0.014906 -0.114192
v -0.018461 -0.018972 -0.114192
v -0.014395 -0.022308 -0.114192
v -0.009757 -0.024788 -0.114192
v -0.004724 -0.026314 -0.114192
vn -0.0000 1.0000 -0.0000
vn 0.1943 0.9556 0.2214
vn -0.0000 0.9696 0.2449
vn 0.1920 0.9814 -0.0000
vn 0.3812 0.9025 0.2005
vn 0.3827 0.9239 -0.0000
vn 0.5516 0.8142 0.1811
vn 0.5556 0.8315 -0.0000
vn 0.7014 0.6937 0.1637
vn 0.7071 0.7071 -0.0000
vn 0.8246 0.5457 0.1492
vn 0.8315 0.5556 -0.0000
vn 0.9162 0.3762 0.1382
vn 0.9239 0.3827 -0.0000
vn 0.9726 0.1919 0.1314
vn 0.9808 0.1951 -0.0000
vn 0.9916 -0.0000 0.1291
vn 1.0000 -0.0000 -0.0000
vn 0.9726 -0.1919 0.1314
vn 0.9808 -0.1951 -0.0000
vn 0.9162 -0.3762 0.1382
vn 0.9239 -0.3827 -0.0000
vn 0.8246 -0.5457 0.1492
vn 0.8315 -0.5556 -0.0000
vn 0.7014 -0.6937 0.1637
vn 0.7071 -0.7071 -0.0000
vn 0.5516 -0.8142 0.1811
vn 0.5556 -0.8315 -0.0000
vn 0.3812 -0.9025 0.2005
vn 0.3827 -0.9239 -0.0000
vn 0.1943 -0.9556 0.2214
vn 0.1920 -0.9814 -0.0000
vn -0.0000 -0.9696 0.2449
vn 0.1618 0.8868 0.4330
vn 0.0874 0.8875 0.4524
vn 0.8867 0.3734 0.2725
vn 0.7901 0.5376 0.2945
vn 0.8867 -0.3734 0.2725
vn 0.1618 -0.8868 0.4330
vn 0.6621 0.6762 0.3232
vn 0.5095 0.7830 0.3569
vn 0.9672 -0.0000 0.2540
vn 0.5095 -0.7830 0.3569
vn 0.3405 0.8539 0.3935
vn 0.9468 0.1913 0.2588
vn 0.7901 -0.5376 0.2945
vn 0.9468 -0.1913 0.2588
vn 0.3405 -0.8539 0.3935
vn 0.6621 -0.6762 0.3232
vn -0.1943 0.9556 0.2214
vn -0.3812 0.9025 0.2005
vn -0.1920 0.9814 -0.0000
vn -0.5516 0.8142 0.1811
vn -0.3827 0.9239 -0.0000
vn -0.7014 0.6937 0.1637
vn -0.5556 0.8315 -0.0000
vn -0.8246 0.5457 0.1492
vn -0.7071 0.7071 -0.0000
vn -0.9162 0.3762 0.1382
vn -0.8315 0.5556 -0.0000
vn -0.9726 0.1919 0.1314
vn -0.9239 0.3827 -0.0000
vn -0.9916 -0.0000 0.1291
vn -0.9808 0.1951 -0.0000
vn -0.9726 -0.1919 0.1314
vn -1.0000 -0.0000 -0.0000
vn -0.9162 -0.3762 0.1382
vn -0.9808 -0.1951 -0.0000
vn -0.8246 -0.5457 0.1492
vn -0.9239 -0.3827 -0.0000
vn -0.7014 -0.6937 0.1637
vn -0.8315 -0.5556 -0.0000
vn -0.5516 -0.8142 0.1811
vn -0.7071 -0.7071 -0.0000
vn -0.3812 -0.9025 0.2005
vn -0.5556 -0.8315 -0.0000
vn -0.1943 -0.9556 0.2214
vn -0.3827 -0.9239 -0.0000
vn -0.1920 -0.9814 -0.0000
vn -0.1618 0.8868 0.4330
vn -0.8867 0.3734 0.2725
vn -0.8867 -0.3734 0.2725
vn -0.1618 -0.8868 0.4330
vn -0.6621 0.6762 0.3232
vn -0.9672 -0.0000 0.2540
vn -0.5095 -0.7830 0.3569
vn -0.3405 0.8539 0.3935
vn -0.9468 0.1913 0.2588
vn -0.7901 -0.5376 0.2945
vn -0.7901 0.5376 0.2945
vn -0.9468 -0.1913 0.2588
vn -0.3405 -0.8539 0.3935
vn -0.5095 0.7830 0.3569
vn -0.6621 -0.6762 0.3232
vn -0.0000 -1.0000 -0.0000
vn 0.0874 -0.8875 0.4524
vn -0.0874 0.8875 0.4524
vn -0.0874 -0.8875 0.4524
s 1
usemtl Metal_Black_Paint
f 4//1 5//2 3//3
f 6//4 7//5 5//2
f 8//6 9//7 7//5
f 10//8 11//9 9//7
f 12//10 13//11 11//9
f 14//12 15//13 13//11
f 16//14 17//15 15//13
f 18//16 19//17 17//15
f 20//18 21//19 19//17
f 22//20 23//21 21//19
f 24//22 25//23 23//21
f 26//24 27//25 25//23
f 28//26 29//27 27//25
f 30//28 31//29 29//27
f 32//30 33//31 31//29
f 34//32 1//33 33//31
f 3//3 37//34 36//35
f 13//11 42//36 41//37
f 25//23 46//38 23//21
f 1//33 51//39 33//31
f 9//7 40//40 39//41
f 21//19 44//42 19//17
f 31//29 49//43 29//27
f 5//2 38//44 37//34
f 15//13 43//45 42//36
f 27//25 47//46 25//23
f 11//9 41//37 40//40
f 23//21 45//47 21//19
f 33//31 50//48 31//29
f 7//5 39//41 38//44
f 17//15 44//42 43//45
f 29//27 48//49 27//25
f 52//50 4//1 3//3
f 54//51 53//52 52//50
f 56//53 55//54 54//51
f 58//55 57//56 56//53
f 60//57 59//58 58//55
f 62//59 61//60 60//57
f 64//61 63//62 62//59
f 66//63 65//64 64//61
f 68//65 67//66 66//63
f 70//67 69//68 68//65
f 72//69 71//70 70//67
f 74//71 73//72 72//69
f 76//73 75//74 74//71
f 78//75 77//76 76//73
f 80//77 79//78 78//75
f 1//33 81//79 80//77
f 3//3 84//80 52//50
f 60//57 89//81 62//59
f 93//82 72//69 70//67
f 98//83 1//33 80//77
f 56//53 87//84 58//55
f 91//85 68//65 66//63
f 96//86 78//75 76//73
f 52//50 85//87 54//51
f 62//59 90//88 64//61
f 94//89 74//71 72//69
f 58//55 88//90 60//57
f 92//91 70//67 68//65
f 97//92 80//77 78//75
f 54//51 86//93 56//53
f 64//61 91//85 66//63
f 95//94 76//73 74//71
f 4//1 6//4 5//2
f 6//4 8//6 7//5
f 8//6 10//8 9//7
f 10//8 12//10 11//9
f 12//10 14//12 13//11
f 14//12 16//14 15//13
f 16//14 18//16 17//15
f 18//16 20//18 19//17
f 20//18 22//20 21//19
f 22//20 24//22 23//21
f 24//22 26//24 25//23
f 26//24 28//26 27//25
f 28//26 30//28 29//27
f 30//28 32//30 31//29
f 32//30 34//32 33//31
f 34//32 2//95 1//33
f 3//3 5//2 37//34
f 13//11 15//13 42//36
f 25//23 47//46 46//38
f 1//33 35//96 51//39
f 9//7 11//9 40//40
f 21//19 45//47 44//42
f 31//29 50//48 49//43
f 5//2 7//5 38//44
f 15//13 17//15 43//45
f 27//25 48//49 47//46
f 11//9 13//11 41//37
f 23//21 46//38 45//47
f 33//31 51//39 50//48
f 7//5 9//7 39//41
f 17//15 19//17 44//42
f 29//27 49//43 48//49
f 52//50 53//52 4//1
f 54//51 55//54 53//52
f 56//53 57//56 55//54
f 58//55 59//58 57//56
f 60//57 61//60 59//58
f 62//59 63//62 61//60
f 64//61 65//64 63//62
f 66//63 67//66 65//64
f 68//65 69//68 67//66
f 70//67 71//70 69//68
f 72//69 73//72 71//70
f 74//71 75//74 73//72
f 76//73 77//76 75//74
f 78//75 79//78 77//76
f 80//77 81//79 79//78
f 1//33 2//95 81//79
f 3//3 83//97 84//80
f 60//57 88//90 89//81
f 93//82 94//89 72//69
f 98//83 82//98 1//33
f 56//53 86//93 87//84
f 91//85 92//91 68//65
f 96//86 97//92 78//75
f 52//50 84//80 85//87
f 62//59 89//81 90//88
f 94//89 95//94 74//71
f 58//55 87//84 88//90
f 92//91 93//82 70//67
f 97//92 98//83 80//77
f 54//51 85//87 86//93
f 64//61 90//88 91//85
f 95//94 96//86 76//73
