# Blender 4.2.0
# www.blender.org
mtllib Cube_116.mtl
o Cube_116
v -0.010098 -0.023014 -0.023535
v 0.010099 0.023014 -0.023535
v 0.014704 0.020466 -0.023535
v 0.018447 0.017262 -0.023535
v 0.021492 0.013389 -0.023535
v 0.023724 0.008997 -0.023535
v 0.025056 0.004253 -0.023535
v 0.025436 -0.000659 -0.023535
v 0.024852 -0.005551 -0.023535
v 0.023324 -0.010235 -0.023535
v 0.020911 -0.014530 -0.023535
v 0.017707 -0.018273 -0.023535
v 0.013834 -0.021319 -0.023535
v 0.009442 -0.023550 -0.023535
v 0.004699 -0.024882 -0.023535
v -0.000213 -0.025263 -0.023535
v -0.005105 -0.024678 -0.023535
v 0.005105 0.024678 -0.023535
v 0.000214 0.025263 -0.023535
v -0.004698 0.024882 -0.023535
v -0.009442 0.023550 -0.023535
v -0.013834 0.021318 -0.023535
v -0.017707 0.018273 -0.023535
v -0.020911 0.014530 -0.023535
v -0.023323 0.010234 -0.023535
v -0.024851 0.005551 -0.023535
v -0.025436 0.000659 -0.023535
v -0.025055 -0.004254 -0.023535
v -0.023724 -0.008997 -0.023535
v -0.021492 -0.013389 -0.023535
v -0.018446 -0.017262 -0.023535
v -0.014704 -0.020466 -0.023535
v -0.017575 -0.040051 -0.023535
v 0.017574 0.040050 -0.023535
v 0.025589 0.035616 -0.023535
v 0.032102 0.030040 -0.023535
v 0.037402 0.023301 -0.023535
v 0.041286 0.015657 -0.023535
v 0.043603 0.007402 -0.023535
v 0.044266 -0.001146 -0.023535
v 0.043248 -0.009660 -0.023535
v 0.040589 -0.017811 -0.023535
v 0.036391 -0.025287 -0.023535
v 0.030815 -0.031800 -0.023535
v 0.024076 -0.037100 -0.023535
v 0.016432 -0.040984 -0.023535
v 0.008177 -0.043301 -0.023535
v -0.000371 -0.043964 -0.023535
v -0.008885 -0.042946 -0.023535
v 0.008885 0.042946 -0.023535
v 0.000371 0.043964 -0.023535
v -0.008177 0.043301 -0.023535
v -0.016432 0.040984 -0.023535
v -0.024076 0.037100 -0.023535
v -0.030815 0.031800 -0.023535
v -0.036391 0.025287 -0.023535
v -0.040589 0.017811 -0.023535
v -0.043248 0.009660 -0.023535
v -0.044266 0.001146 -0.023535
v -0.043603 -0.007402 -0.023535
v -0.041286 -0.015657 -0.023535
v -0.037402 -0.023301 -0.023535
v -0.032102 -0.030040 -0.023535
v -0.025589 -0.035616 -0.023535
v -0.017575 -0.040051 0.023535
v 0.017574 0.040050 0.023535
v 0.025589 0.035616 0.023535
v 0.032102 0.030040 0.023535
v 0.037402 0.023301 0.023535
v 0.041286 0.015657 0.023535
v 0.043603 0.007402 0.023535
v 0.044266 -0.001146 0.023535
v 0.043248 -0.009660 0.023535
v 0.040589 -0.017811 0.023535
v 0.036391 -0.025287 0.023535
v 0.030815 -0.031800 0.023535
v 0.024076 -0.037100 0.023535
v 0.016432 -0.040984 0.023535
v 0.008177 -0.043301 0.023535
v -0.000371 -0.043964 0.023535
v -0.008885 -0.042946 0.023535
v 0.008885 0.042946 0.023535
v 0.000371 0.043964 0.023535
v -0.008177 0.043301 0.023535
v -0.016432 0.040984 0.023535
v -0.024076 0.037100 0.023535
v -0.030815 0.031800 0.023535
v -0.036391 0.025287 0.023535
v -0.040589 0.017811 0.023535
v -0.043248 0.009660 0.023535
v -0.044266 0.001146 0.023535
v -0.043603 -0.007402 0.023535
v -0.041286 -0.015657 0.023535
v -0.037402 -0.023301 0.023535
v -0.032102 -0.030040 0.023535
v -0.025589 -0.035616 0.023535
vn -0.0000 -0.0000 -1.0000
vn -0.2645 0.6781 -0.6857
vn -0.5253 -0.5039 -0.6857
vn -0.6135 -0.3917 -0.6857
vn 0.7277 -0.0152 -0.6857
vn 0.7108 -0.1568 -0.6857
vn -0.2920 -0.6654 -0.6870
vn 0.2920 0.6654 -0.6870
vn -0.7277 0.0152 -0.6857
vn -0.7108 0.1568 -0.6857
vn 0.5253 0.5039 -0.6857
vn 0.6135 0.3917 -0.6857
vn 0.2645 -0.6781 -0.6857
vn -0.3917 0.6135 -0.6857
vn -0.4154 -0.5985 -0.6850
vn 0.6665 -0.2925 -0.6857
vn 0.1592 0.7109 -0.6850
vn -0.7167 -0.1271 -0.6857
vn 0.6781 0.2645 -0.6857
vn 0.1271 -0.7167 -0.6857
vn -0.5039 0.5253 -0.6857
vn 0.5967 -0.4169 -0.6857
vn 0.0151 0.7277 -0.6857
vn 0.7167 0.1271 -0.6857
vn -0.6781 -0.2645 -0.6857
vn -0.0152 -0.7277 -0.6857
vn -0.5967 0.4169 -0.6857
vn 0.4154 0.5985 -0.6850
vn 0.5039 -0.5253 -0.6857
vn -0.1271 0.7167 -0.6857
vn -0.1592 -0.7109 -0.6850
vn -0.6665 0.2925 -0.6857
vn 0.3917 -0.6135 -0.6857
vn 0.6923 -0.7217 -0.0000
vn -0.8197 0.5727 -0.0000
vn 0.5382 -0.8428 -0.0000
vn -0.9157 0.4018 -0.0000
vn 0.3634 -0.9316 -0.0000
vn -0.9765 0.2155 -0.0000
vn 0.1746 -0.9846 -0.0000
vn -0.9998 0.0208 -0.0000
vn -0.0208 -0.9998 -0.0000
vn 0.5701 0.8215 -0.0000
vn -0.9846 -0.1746 -0.0000
vn -0.2185 -0.9758 -0.0000
vn 0.7217 0.6922 -0.0000
vn -0.9316 -0.3634 -0.0000
vn -0.4018 -0.9157 -0.0000
vn 0.8428 0.5382 -0.0000
vn -0.8428 -0.5382 -0.0000
vn 0.4018 0.9157 -0.0000
vn 0.9316 0.3634 -0.0000
vn -0.7217 -0.6922 -0.0000
vn 0.2186 0.9758 -0.0000
vn 0.9846 0.1746 -0.0000
vn -0.5702 -0.8215 -0.0000
vn 0.0208 0.9998 -0.0000
vn 0.9998 -0.0208 -0.0000
vn -0.1746 0.9846 -0.0000
vn 0.9765 -0.2155 -0.0000
vn -0.3634 0.9316 -0.0000
vn 0.9157 -0.4018 -0.0000
vn -0.5382 0.8428 -0.0000
vn 0.8197 -0.5728 -0.0000
vn -0.6922 0.7217 -0.0000
s 1
usemtl Metal_Black_Paint
f 22//1 53//2 21//1
f 30//1 63//3 62//4
f 9//1 40//5 41//6
f 17//1 33//7 1//1
f 18//1 34//8 2//1
f 26//1 59//9 58//10
f 5//1 36//11 37//12
f 13//1 46//13 14//1
f 23//1 54//14 22//1
f 31//1 64//15 63//3
f 10//1 41//6 42//16
f 19//1 50//17 18//1
f 27//1 60//18 59//9
f 6//1 37//12 38//19
f 14//1 47//20 15//1
f 24//1 55//21 23//1
f 32//1 33//7 64//15
f 10//1 43//22 11//1
f 20//1 51//23 19//1
f 7//1 38//19 39//24
f 28//1 61//25 60//18
f 15//1 48//26 16//1
f 25//1 56//27 24//1
f 3//1 34//8 35//28
f 11//1 44//29 12//1
f 21//1 52//30 20//1
f 29//1 62//4 61//25
f 8//1 39//24 40//5
f 16//1 49//31 17//1
f 25//1 58//10 57//32
f 4//1 35//28 36//11
f 12//1 45//33 13//1
f 43//22 76//34 44//29
f 57//32 88//35 56//27
f 44//29 77//36 45//33
f 58//10 89//37 57//32
f 45//33 78//38 46//13
f 59//9 90//39 58//10
f 46//13 79//40 47//20
f 60//18 91//41 59//9
f 47//20 80//42 48//26
f 34//8 67//43 35//28
f 61//25 92//44 60//18
f 48//26 81//45 49//31
f 35//28 68//46 36//11
f 62//4 93//47 61//25
f 49//31 65//48 33//7
f 36//11 69//49 37//12
f 63//3 94//50 62//4
f 50//17 66//51 34//8
f 37//12 70//52 38//19
f 64//15 95//53 63//3
f 51//23 82//54 50//17
f 38//19 71//55 39//24
f 33//7 96//56 64//15
f 52//30 83//57 51//23
f 39//24 72//58 40//5
f 53//2 84//59 52//30
f 40//5 73//60 41//6
f 54//14 85//61 53//2
f 41//6 74//62 42//16
f 55//21 86//63 54//14
f 42//16 75//64 43//22
f 56//27 87//65 55//21
f 22//1 54//14 53//2
f 30//1 31//1 63//3
f 9//1 8//1 40//5
f 17//1 49//31 33//7
f 18//1 50//17 34//8
f 26//1 27//1 59//9
f 5//1 4//1 36//11
f 13//1 45//33 46//13
f 23//1 55//21 54//14
f 31//1 32//1 64//15
f 10//1 9//1 41//6
f 19//1 51//23 50//17
f 27//1 28//1 60//18
f 6//1 5//1 37//12
f 14//1 46//13 47//20
f 24//1 56//27 55//21
f 32//1 1//1 33//7
f 10//1 42//16 43//22
f 20//1 52//30 51//23
f 7//1 6//1 38//19
f 28//1 29//1 61//25
f 15//1 47//20 48//26
f 25//1 57//32 56//27
f 3//1 2//1 34//8
f 11//1 43//22 44//29
f 21//1 53//2 52//30
f 29//1 30//1 62//4
f 8//1 7//1 39//24
f 16//1 48//26 49//31
f 25//1 26//1 58//10
f 4//1 3//1 35//28
f 12//1 44//29 45//33
f 43//22 75//64 76//34
f 57//32 89//37 88//35
f 44//29 76//34 77//36
f 58//10 90//39 89//37
f 45//33 77//36 78//38
f 59//9 91//41 90//39
f 46//13 78//38 79//40
f 60//18 92//44 91//41
f 47//20 79//40 80//42
f 34//8 66//51 67//43
f 61//25 93//47 92//44
f 48//26 80//42 81//45
f 35//28 67//43 68//46
f 62//4 94//50 93//47
f 49//31 81//45 65//48
f 36//11 68//46 69//49
f 63//3 95//53 94//50
f 50//17 82//54 66//51
f 37//12 69//49 70//52
f 64//15 96//56 95//53
f 51//23 83//57 82//54
f 38//19 70//52 71//55
f 33//7 65//48 96//56
f 52//30 84//59 83//57
f 39//24 71//55 72//58
f 53//2 85//61 84//59
f 40//5 72//58 73//60
f 54//14 86//63 85//61
f 41//6 73//60 74//62
f 55//21 87//65 86//63
f 42//16 74//62 75//64
f 56//27 88//35 87//65
