# Blender 4.2.0
# www.blender.org
mtllib Cube_059.mtl
o Cube_059
v 0.127022 -0.082307 -0.000361
v 0.132816 -0.072550 -0.002336
v -0.127022 0.082307 0.000361
v -0.020293 -0.030544 -0.243938
v 0.026087 0.040300 0.241963
v -0.103831 0.117729 0.243311
v -0.150212 0.046885 -0.242590
v 0.109626 -0.107973 -0.245287
v 0.156006 -0.037128 0.240615
v -0.133875 0.071333 0.003094
v -0.132816 0.072551 0.002336
v -0.026087 -0.040300 -0.241963
v 0.020293 0.030544 0.243938
v -0.109625 0.107973 0.245287
v -0.156006 0.037128 -0.240614
v 0.103832 -0.117729 -0.243311
v 0.150212 -0.046885 0.242590
vn 0.0954 0.1428 0.9851
vn -0.0954 -0.1428 -0.9851
vn 0.5031 0.8471 -0.1715
vn -0.8591 0.5117 0.0074
vn 0.8591 -0.5117 -0.0074
s 1
usemtl Carbon_Fiber_ANI_01_Clearcoat
f 8//1 12//1 16//1
f 4//1 15//1 12//1
f 9//2 13//2 5//2
f 1//3 12//3 11//3
f 5//2 14//2 6//2
f 2//4 17//4 9//4
f 8//4 1//4 2//4
f 7//5 11//5 15//5
f 3//5 14//5 11//5
f 8//1 4//1 12//1
f 4//1 7//1 15//1
f 9//2 17//2 13//2
f 13//3 17//3 1//3
f 1//3 16//3 12//3
f 12//3 15//3 11//3
f 11//3 14//3 13//3
f 13//3 1//3 11//3
f 5//2 13//2 14//2
f 2//4 1//4 17//4
f 8//4 16//4 1//4
f 7//5 3//5 11//5
f 3//5 6//5 14//5
