# Blender 4.2.0
# www.blender.org
mtllib Cube_117.mtl
o Cube_117
v 0.222074 0.592095 -0.000000
v 0.179512 0.592095 -0.000000
v 0.222074 0.594647 0.013187
v 0.179512 0.594647 0.013179
v 0.222074 0.601949 0.024370
v 0.179512 0.601949 0.024370
v 0.222074 0.612864 0.031839
v 0.179512 0.612864 0.031839
v 0.222074 0.625752 0.034460
v 0.179512 0.625752 0.034460
v 0.222074 0.638640 0.031839
v 0.179512 0.638640 0.031839
v 0.222074 0.649554 0.024370
v 0.179512 0.649554 0.024370
v 0.222074 0.656857 0.013187
v 0.179512 0.656857 0.013179
v 0.222074 0.659409 -0.000000
v 0.179512 0.659409 -0.000000
v 0.222074 0.656857 -0.013187
v 0.179512 0.656857 -0.013187
v 0.222074 0.649554 -0.024370
v 0.179512 0.649554 -0.024370
v 0.222074 0.638640 -0.031839
v 0.179512 0.638640 -0.031839
v 0.222074 0.625752 -0.034460
v 0.179512 0.625752 -0.034460
v 0.222074 0.612864 -0.031839
v 0.179512 0.612864 -0.031839
v 0.222074 0.601949 -0.024370
v 0.179512 0.601949 -0.024370
v 0.222074 0.594647 -0.013187
v 0.179512 0.594647 -0.013187
v -0.179512 0.592095 -0.000000
v -0.222074 0.592095 -0.000000
v -0.179512 0.594647 0.013187
v -0.222074 0.594647 0.013179
v -0.179512 0.601949 0.024370
v -0.222074 0.601949 0.024370
v -0.179512 0.612864 0.031839
v -0.222074 0.612864 0.031839
v -0.179512 0.625752 0.034460
v -0.222074 0.625752 0.034460
v -0.179512 0.638640 0.031839
v -0.222074 0.638640 0.031839
v -0.179512 0.649554 0.024370
v -0.222074 0.649554 0.024370
v -0.179512 0.656857 0.013187
v -0.222074 0.656857 0.013179
v -0.179512 0.659409 -0.000000
v -0.222074 0.659409 -0.000000
v -0.179512 0.656857 -0.013187
v -0.222074 0.656857 -0.013187
v -0.179512 0.649554 -0.024370
v -0.222074 0.649554 -0.024370
v -0.179512 0.638640 -0.031839
v -0.222074 0.638640 -0.031839
v -0.179512 0.625752 -0.034460
v -0.222074 0.625752 -0.034460
v -0.179512 0.612864 -0.031839
v -0.222074 0.612864 -0.031839
v -0.179512 0.601949 -0.024370
v -0.222074 0.601949 -0.024370
v -0.179512 0.594647 -0.013187
v -0.222074 0.594647 -0.013187
v 0.222074 -0.659409 -0.000000
v 0.179512 -0.659409 -0.000000
v 0.222074 -0.656857 0.013187
v 0.179512 -0.656857 0.013179
v 0.222074 -0.649554 0.024370
v 0.179512 -0.649554 0.024370
v 0.222074 -0.638640 0.031839
v 0.179512 -0.638640 0.031839
v 0.222074 -0.625752 0.034460
v 0.179512 -0.625752 0.034460
v 0.222074 -0.612864 0.031839
v 0.179512 -0.612864 0.031839
v 0.222074 -0.601949 0.024370
v 0.179512 -0.601949 0.024370
v 0.222074 -0.594647 0.013187
v 0.179512 -0.594647 0.013179
v 0.222074 -0.592095 -0.000000
v 0.179512 -0.592095 -0.000000
v 0.222074 -0.594647 -0.013187
v 0.179512 -0.594647 -0.013187
v 0.222074 -0.601949 -0.024370
v 0.179512 -0.601949 -0.024370
v 0.222074 -0.612864 -0.031839
v 0.179512 -0.612864 -0.031839
v 0.222074 -0.625752 -0.034460
v 0.179512 -0.625752 -0.034460
v 0.222074 -0.638640 -0.031839
v 0.179512 -0.638640 -0.031839
v 0.222074 -0.649554 -0.024370
v 0.179512 -0.649554 -0.024370
v 0.222074 -0.656857 -0.013187
v 0.179512 -0.656857 -0.013187
v -0.179512 -0.659409 -0.000000
v -0.222074 -0.659409 -0.000000
v -0.179512 -0.656857 0.013187
v -0.222074 -0.656857 0.013179
v -0.179512 -0.649554 0.024370
v -0.222074 -0.649554 0.024370
v -0.179512 -0.638640 0.031839
v -0.222074 -0.638640 0.031839
v -0.179512 -0.625752 0.034460
v -0.222074 -0.625752 0.034460
v -0.179512 -0.612864 0.031839
v -0.222074 -0.612864 0.031839
v -0.179512 -0.601949 0.024370
v -0.222074 -0.601949 0.024370
v -0.179512 -0.594647 0.013187
v -0.222074 -0.594647 0.013179
v -0.179512 -0.592095 -0.000000
v -0.222074 -0.592095 -0.000000
v -0.179512 -0.594647 -0.013187
v -0.222074 -0.594647 -0.013187
v -0.179512 -0.601949 -0.024370
v -0.222074 -0.601949 -0.024370
v -0.179512 -0.612864 -0.031839
v -0.222074 -0.612864 -0.031839
v -0.179512 -0.625752 -0.034460
v -0.222074 -0.625752 -0.034460
v -0.179512 -0.638640 -0.031839
v -0.222074 -0.638640 -0.031839
v -0.179512 -0.649554 -0.024370
v -0.222074 -0.649554 -0.024370
v -0.179512 -0.656857 -0.013187
v -0.222074 -0.656857 -0.013187
vn -0.0000 0.9818 -0.1900
vn -0.0000 0.9818 -0.1901
vn -0.0000 0.8373 -0.5467
vn 0.0001 0.8374 -0.5466
vn -0.0000 0.8373 -0.5468
vn -0.0000 0.5647 -0.8253
vn -0.0000 0.1993 -0.9799
vn -0.0000 -0.1993 -0.9799
vn -0.0000 -0.5648 -0.8253
vn 0.0001 -0.8374 -0.5466
vn -0.0000 -0.8373 -0.5467
vn -0.0000 -0.8373 -0.5468
vn -0.0000 -0.9818 -0.1901
vn -0.0000 -0.9818 -0.1900
vn -0.0000 -0.9818 0.1900
vn -0.0000 -0.8373 0.5468
vn -0.0000 -0.5648 0.8253
vn -0.0000 -0.1993 0.9799
vn -0.0000 0.1993 0.9799
vn -0.0000 0.5647 0.8253
vn 1.0000 -0.0000 -0.0000
vn -0.0000 0.8373 0.5468
vn -0.0000 0.9818 0.1900
vn -1.0000 -0.0000 -0.0000
vn -0.0000 0.5648 -0.8253
vn -0.0000 -0.5647 -0.8253
vn -0.0000 -0.5647 0.8253
vn -0.0000 0.5648 0.8253
vn 0.0001 0.8375 -0.5465
vn 0.0001 -0.8375 -0.5465
s 1
usemtl Eraser_Gray
f 1//1 4//2 3//1
f 3//3 6//4 5//5
f 6//6 7//6 5//6
f 8//7 9//7 7//7
f 10//8 11//8 9//8
f 12//9 13//9 11//9
f 14//10 15//11 13//12
f 16//13 17//14 15//14
f 17//15 20//15 19//15
f 19//16 22//16 21//16
f 22//17 23//17 21//17
f 24//18 25//18 23//18
f 26//19 27//19 25//19
f 28//20 29//20 27//20
f 8//21 6//21 14//21
f 30//22 31//22 29//22
f 32//23 1//23 31//23
f 27//24 29//24 23//24
f 33//1 36//2 35//1
f 35//3 38//4 37//5
f 38//6 39//6 37//6
f 40//7 41//7 39//7
f 42//8 43//8 41//8
f 44//9 45//9 43//9
f 46//10 47//11 45//12
f 48//13 49//14 47//14
f 49//15 52//15 51//15
f 51//16 54//16 53//16
f 54//17 55//17 53//17
f 56//18 57//18 55//18
f 58//19 59//19 57//19
f 60//20 61//20 59//20
f 40//21 38//21 46//21
f 62//22 63//22 61//22
f 64//23 33//23 63//23
f 59//24 61//24 55//24
f 65//1 68//2 67//1
f 67//3 70//4 69//5
f 70//25 71//25 69//25
f 72//7 73//7 71//7
f 74//8 75//8 73//8
f 75//26 78//26 77//26
f 78//10 79//11 77//12
f 80//13 81//14 79//14
f 81//15 84//15 83//15
f 83//16 86//16 85//16
f 85//27 88//27 87//27
f 88//18 89//18 87//18
f 90//19 91//19 89//19
f 92//28 93//28 91//28
f 70//21 76//21 72//21
f 94//22 95//22 93//22
f 96//23 65//23 95//23
f 91//24 93//24 87//24
f 97//1 100//2 99//1
f 99//3 102//4 101//5
f 102//25 103//25 101//25
f 104//7 105//7 103//7
f 106//8 107//8 105//8
f 107//26 110//26 109//26
f 110//10 111//11 109//12
f 112//13 113//14 111//14
f 113//15 116//15 115//15
f 115//16 118//16 117//16
f 117//27 120//27 119//27
f 120//18 121//18 119//18
f 122//19 123//19 121//19
f 124//28 125//28 123//28
f 102//21 108//21 104//21
f 126//22 127//22 125//22
f 128//23 97//23 127//23
f 123//24 125//24 119//24
f 1//1 2//2 4//2
f 3//3 4//29 6//4
f 6//6 8//6 7//6
f 8//7 10//7 9//7
f 10//8 12//8 11//8
f 12//9 14//9 13//9
f 14//10 16//30 15//11
f 16//13 18//13 17//14
f 17//15 18//15 20//15
f 19//16 20//16 22//16
f 22//17 24//17 23//17
f 24//18 26//18 25//18
f 26//19 28//19 27//19
f 28//20 30//20 29//20
f 6//21 4//21 16//21
f 4//21 2//21 18//21
f 2//21 32//21 20//21
f 32//21 30//21 22//21
f 30//21 28//21 22//21
f 28//21 26//21 24//21
f 22//21 28//21 24//21
f 22//21 20//21 32//21
f 20//21 18//21 2//21
f 18//21 16//21 4//21
f 16//21 14//21 6//21
f 14//21 12//21 8//21
f 12//21 10//21 8//21
f 30//22 32//22 31//22
f 32//23 2//23 1//23
f 31//24 1//24 17//24
f 1//24 3//24 15//24
f 3//24 5//24 15//24
f 5//24 7//24 13//24
f 15//24 5//24 13//24
f 7//24 9//24 11//24
f 11//24 13//24 7//24
f 15//24 17//24 1//24
f 17//24 19//24 31//24
f 19//24 21//24 31//24
f 21//24 23//24 29//24
f 31//24 21//24 29//24
f 23//24 25//24 27//24
f 33//1 34//2 36//2
f 35//3 36//29 38//4
f 38//6 40//6 39//6
f 40//7 42//7 41//7
f 42//8 44//8 43//8
f 44//9 46//9 45//9
f 46//10 48//30 47//11
f 48//13 50//13 49//14
f 49//15 50//15 52//15
f 51//16 52//16 54//16
f 54//17 56//17 55//17
f 56//18 58//18 57//18
f 58//19 60//19 59//19
f 60//20 62//20 61//20
f 38//21 36//21 48//21
f 36//21 34//21 50//21
f 34//21 64//21 52//21
f 64//21 62//21 54//21
f 62//21 60//21 54//21
f 60//21 58//21 56//21
f 54//21 60//21 56//21
f 54//21 52//21 64//21
f 52//21 50//21 34//21
f 50//21 48//21 36//21
f 48//21 46//21 38//21
f 46//21 44//21 40//21
f 44//21 42//21 40//21
f 62//22 64//22 63//22
f 64//23 34//23 33//23
f 63//24 33//24 49//24
f 33//24 35//24 47//24
f 35//24 37//24 47//24
f 37//24 39//24 45//24
f 47//24 37//24 45//24
f 39//24 41//24 43//24
f 43//24 45//24 39//24
f 47//24 49//24 33//24
f 49//24 51//24 63//24
f 51//24 53//24 63//24
f 53//24 55//24 61//24
f 63//24 53//24 61//24
f 55//24 57//24 59//24
f 65//1 66//2 68//2
f 67//3 68//29 70//4
f 70//25 72//25 71//25
f 72//7 74//7 73//7
f 74//8 76//8 75//8
f 75//26 76//26 78//26
f 78//10 80//30 79//11
f 80//13 82//13 81//14
f 81//15 82//15 84//15
f 83//16 84//16 86//16
f 85//27 86//27 88//27
f 88//18 90//18 89//18
f 90//19 92//19 91//19
f 92//28 94//28 93//28
f 70//21 68//21 80//21
f 68//21 66//21 82//21
f 66//21 96//21 84//21
f 96//21 94//21 86//21
f 94//21 92//21 88//21
f 92//21 90//21 88//21
f 88//21 86//21 94//21
f 86//21 84//21 96//21
f 84//21 82//21 66//21
f 82//21 80//21 68//21
f 80//21 78//21 70//21
f 78//21 76//21 70//21
f 76//21 74//21 72//21
f 94//22 96//22 95//22
f 96//23 66//23 65//23
f 95//24 65//24 81//24
f 65//24 67//24 79//24
f 67//24 69//24 79//24
f 69//24 71//24 77//24
f 79//24 69//24 77//24
f 71//24 73//24 75//24
f 75//24 77//24 71//24
f 79//24 81//24 65//24
f 81//24 83//24 95//24
f 83//24 85//24 95//24
f 85//24 87//24 93//24
f 95//24 85//24 93//24
f 87//24 89//24 91//24
f 97//1 98//2 100//2
f 99//3 100//29 102//4
f 102//25 104//25 103//25
f 104//7 106//7 105//7
f 106//8 108//8 107//8
f 107//26 108//26 110//26
f 110//10 112//30 111//11
f 112//13 114//13 113//14
f 113//15 114//15 116//15
f 115//16 116//16 118//16
f 117//27 118//27 120//27
f 120//18 122//18 121//18
f 122//19 124//19 123//19
f 124//28 126//28 125//28
f 102//21 100//21 112//21
f 100//21 98//21 114//21
f 98//21 128//21 116//21
f 128//21 126//21 118//21
f 126//21 124//21 120//21
f 124//21 122//21 120//21
f 120//21 118//21 126//21
f 118//21 116//21 128//21
f 116//21 114//21 98//21
f 114//21 112//21 100//21
f 112//21 110//21 102//21
f 110//21 108//21 102//21
f 108//21 106//21 104//21
f 126//22 128//22 127//22
f 128//23 98//23 97//23
f 127//24 97//24 113//24
f 97//24 99//24 111//24
f 99//24 101//24 111//24
f 101//24 103//24 109//24
f 111//24 101//24 109//24
f 103//24 105//24 107//24
f 107//24 109//24 103//24
f 111//24 113//24 97//24
f 113//24 115//24 127//24
f 115//24 117//24 127//24
f 117//24 119//24 125//24
f 127//24 117//24 125//24
f 119//24 121//24 123//24
