# Blender 4.2.0
# www.blender.org
mtllib Cube_182.mtl
o Cube_182
v -0.146789 -0.043908 -0.172115
v 0.143755 -0.048874 -0.172115
v -0.146789 -0.043908 0.172115
v 0.143755 -0.048874 0.172115
v 0.262372 -0.015111 0.172115
v 0.321795 0.008497 0.172115
v 0.381282 0.035839 0.172115
v 0.381282 0.035839 -0.172115
v -0.381282 0.048874 -0.172115
v -0.381282 0.048874 0.172115
v 0.203002 -0.035569 0.172115
v 0.321795 0.008497 -0.172115
v 0.262372 -0.015111 -0.172115
v 0.203002 -0.035569 -0.172115
v -0.205547 -0.028585 0.172115
v -0.264183 -0.006110 0.172115
v -0.322764 0.019514 0.172115
v -0.322764 0.019514 -0.172115
v -0.264183 -0.006110 -0.172115
v -0.205547 -0.028585 -0.172115
vn -0.4247 -0.9053 -0.0000
vn -0.4484 -0.8938 -0.0000
vn -0.3794 -0.9252 -0.0000
vn -0.3056 -0.9522 -0.0000
vn -0.2523 -0.9676 -0.0000
vn -0.0171 -0.9999 -0.0000
vn 0.2191 -0.9757 -0.0000
vn 0.2729 -0.9620 -0.0000
vn 0.2729 -0.9621 -0.0000
vn 0.3476 -0.9376 -0.0000
vn 0.3936 -0.9193 -0.0000
vn 0.4176 -0.9086 -0.0000
s 1
usemtl Carbon_Fiber_ANI_01_Clearcoat
f 18//1 10//2 9//2
f 18//1 16//3 17//1
f 19//3 15//4 16//3
f 20//4 3//5 15//4
f 4//6 1//6 2//6
f 4//7 14//8 11//9
f 14//8 5//10 11//9
f 13//10 6//11 5//10
f 12//11 7//12 6//11
f 18//1 17//1 10//2
f 18//1 19//3 16//3
f 19//3 20//4 15//4
f 20//4 1//5 3//5
f 4//6 3//6 1//6
f 4//7 2//7 14//9
f 14//8 13//10 5//10
f 13//10 12//11 6//11
f 12//11 8//12 7//12
