# Blender 4.2.0
# www.blender.org
mtllib Cube_130.mtl
o Cube_130
v 0.333632 -0.266238 0.459335
v -0.333631 0.266238 0.459335
v -0.333631 0.266238 -0.459335
v 0.333632 -0.266238 -0.459335
v -0.333631 -0.266238 -0.459335
v 0.333631 0.266238 -0.459335
v -0.333631 -0.266238 0.459335
v 0.333631 0.266238 0.459335
v 0.351363 0.250569 -0.459335
v 0.351363 -0.250569 -0.459335
v 0.351363 0.250569 0.459335
v 0.351363 -0.250569 0.459335
v -0.351363 -0.250569 -0.459335
v -0.351363 0.250569 -0.459335
v -0.351363 -0.250569 0.459335
v -0.351363 0.250569 0.459335
v 0.333632 0.250569 0.474701
v 0.333632 -0.250569 0.474701
v -0.333631 0.250569 0.474701
v -0.333631 -0.250569 0.474701
v -0.333631 0.250569 -0.474701
v -0.333631 -0.250569 -0.474701
v 0.333632 0.250569 -0.474701
v 0.333632 -0.250569 -0.474701
vn 1.0000 -0.0000 -0.0000
vn -0.0000 -1.0000 -0.0000
vn -0.0000 1.0000 -0.0000
vn -1.0000 -0.0000 -0.0000
vn -0.0000 -0.0000 1.0000
vn -0.0000 -0.0000 -1.0000
s 1
usemtl Aluminum_Anodized_02
f 9//1 12//1 10//1
f 5//2 1//2 7//2
f 3//3 8//3 6//3
f 13//4 16//4 14//4
f 17//5 20//5 18//5
f 21//6 24//6 22//6
f 9//1 11//1 12//1
f 5//2 4//2 1//2
f 3//3 2//3 8//3
f 13//4 15//4 16//4
f 17//5 19//5 20//5
f 21//6 23//6 24//6
