# Blender 4.2.0
# www.blender.org
mtllib Cube_171.mtl
o Cube_171
v -0.325964 0.002527 -0.012856
v -0.325964 -0.023323 -0.012856
v -0.334241 0.002463 -0.012856
v -0.334240 -0.023387 -0.012856
v -0.330102 0.004323 -0.012856
v -0.330102 -0.025184 -0.012856
v -0.328033 0.003700 -0.012856
v -0.328033 -0.024528 -0.012856
v -0.332171 0.003668 -0.012856
v -0.332171 -0.024560 -0.012856
v -0.345467 0.122258 -0.006870
v -0.349247 0.110502 -0.012859
v -0.314754 0.122483 -0.006866
v -0.310966 0.110784 -0.012854
v -0.326054 0.130190 -0.006867
v -0.330108 0.124094 -0.012856
v -0.334169 0.130130 -0.006868
v -0.343465 0.124055 -0.006869
v -0.335623 0.129424 -0.006868
v -0.338761 0.119893 -0.012857
v -0.324598 0.129504 -0.006867
v -0.316756 0.124251 -0.006866
v -0.321454 0.120019 -0.012855
v -0.345472 0.122275 0.006866
v -0.349258 0.110543 0.012854
v -0.314760 0.122500 0.006870
v -0.310977 0.110826 0.012859
v -0.334175 0.130147 0.006867
v -0.330119 0.123801 0.012856
v -0.326059 0.130206 0.006868
v -0.343471 0.124071 0.006866
v -0.339689 0.119141 0.012855
v -0.335629 0.129440 0.006867
v -0.316762 0.124267 0.006869
v -0.324604 0.129520 0.006868
v -0.320549 0.119280 0.012858
v -0.345444 -0.122473 -0.006870
v -0.349226 -0.110741 -0.012859
v -0.314732 -0.122225 -0.006866
v -0.310945 -0.110433 -0.012854
v -0.326029 -0.130140 -0.006867
v -0.334145 -0.130206 -0.006868
v -0.330086 -0.124094 -0.012856
v -0.343441 -0.124247 -0.006869
v -0.338739 -0.120008 -0.012857
v -0.335599 -0.129518 -0.006868
v -0.324574 -0.129429 -0.006867
v -0.321433 -0.119867 -0.012855
v -0.316733 -0.124030 -0.006866
v -0.345450 -0.122455 0.006866
v -0.349238 -0.110720 0.012854
v -0.314737 -0.122207 0.006870
v -0.310956 -0.110411 0.012859
v -0.330096 -0.123735 0.012856
v -0.334151 -0.130188 0.006867
v -0.326035 -0.130122 0.006868
v -0.343448 -0.124229 0.006866
v -0.335606 -0.129501 0.006867
v -0.339667 -0.119202 0.012855
v -0.324581 -0.129411 0.006868
v -0.316739 -0.124013 0.006869
v -0.320526 -0.119046 0.012858
v 0.325964 0.002527 -0.012856
v 0.325964 -0.023323 -0.012856
v 0.334241 0.002464 -0.012856
v 0.334240 -0.023387 -0.012856
v 0.330102 0.004323 -0.012856
v 0.330102 -0.025183 -0.012856
v 0.328033 0.003700 -0.012856
v 0.328033 -0.024528 -0.012856
v 0.332171 0.003668 -0.012856
v 0.332171 -0.024560 -0.012856
v 0.345467 0.122258 -0.006870
v 0.349247 0.110502 -0.012859
v 0.314754 0.122483 -0.006866
v 0.310966 0.110784 -0.012854
v 0.326054 0.130190 -0.006867
v 0.330108 0.124094 -0.012856
v 0.334169 0.130131 -0.006868
v 0.343465 0.124055 -0.006869
v 0.335623 0.129424 -0.006868
v 0.338761 0.119893 -0.012857
v 0.324598 0.129504 -0.006867
v 0.316756 0.124251 -0.006866
v 0.321454 0.120019 -0.012855
v 0.345472 0.122275 0.006866
v 0.349258 0.110544 0.012854
v 0.314760 0.122500 0.006870
v 0.310977 0.110826 0.012859
v 0.334175 0.130147 0.006867
v 0.330119 0.123801 0.012856
v 0.326059 0.130206 0.006868
v 0.343471 0.124071 0.006866
v 0.339689 0.119141 0.012855
v 0.335629 0.129440 0.006867
v 0.316762 0.124267 0.006869
v 0.324604 0.129520 0.006868
v 0.320548 0.119280 0.012858
v 0.345444 -0.122473 -0.006870
v 0.349227 -0.110741 -0.012859
v 0.314732 -0.122225 -0.006866
v 0.310945 -0.110433 -0.012854
v 0.326029 -0.130140 -0.006867
v 0.334145 -0.130206 -0.006868
v 0.330086 -0.124094 -0.012856
v 0.343442 -0.124247 -0.006869
v 0.338739 -0.120008 -0.012857
v 0.335599 -0.129518 -0.006868
v 0.324575 -0.129428 -0.006867
v 0.321433 -0.119867 -0.012855
v 0.316733 -0.124030 -0.006866
v 0.345450 -0.122455 0.006866
v 0.349238 -0.110720 0.012854
v 0.314737 -0.122207 0.006870
v 0.310957 -0.110411 0.012859
v 0.330096 -0.123735 0.012856
v 0.334151 -0.130188 0.006867
v 0.326035 -0.130122 0.006868
v 0.343448 -0.124229 0.006866
v 0.335606 -0.129501 0.006867
v 0.339667 -0.119202 0.012855
v 0.324581 -0.129411 0.006868
v 0.316739 -0.124012 0.006869
v 0.320526 -0.119046 0.012858
vn -0.0000 -0.0000 1.0000
vn 0.0001 -0.0000 -1.0000
vn -0.2278 0.9737 -0.0013
vn -0.5024 0.8647 -0.0012
vn 0.5045 -0.8634 0.0013
vn 0.2295 -0.9733 0.0014
vn 0.2294 -0.9733 0.0014
vn -0.6178 0.7863 -0.0012
vn -0.6681 0.7441 -0.0012
vn -0.0001 -0.0000 1.0000
vn -0.4940 -0.8695 0.0009
vn -0.2151 -0.9766 0.0012
vn -0.4940 -0.8694 0.0009
vn 0.6105 0.7920 -0.0007
vn 0.6617 0.7497 -0.0006
vn 0.6618 0.7497 -0.0006
vn -0.9917 0.1288 -0.0007
vn -0.9916 -0.1292 -0.0003
vn -0.9916 0.1292 -0.0006
vn 0.9916 0.1295 0.0002
vn 0.9917 -0.1286 0.0005
vn 0.9917 -0.1287 0.0006
vn 0.6698 -0.7425 0.0013
vn 0.6197 -0.7848 0.0013
vn 0.2150 0.9766 -0.0011
vn 0.4928 0.8701 -0.0008
vn 0.4929 0.8701 -0.0008
vn 0.1630 0.6342 -0.7558
vn -0.0046 0.6250 -0.7806
vn -0.1709 0.6336 -0.7546
vn -0.4325 0.5448 -0.7184
vn -0.3113 0.5769 -0.7551
vn -0.3943 0.5517 -0.7349
vn 0.3042 0.5786 -0.7568
vn 0.4262 0.5468 -0.7207
vn 0.3874 0.5536 -0.7372
vn -0.1659 0.6187 0.7679
vn -0.0048 0.6085 0.7935
vn 0.1578 0.6191 0.7693
vn -0.4286 0.5458 0.7200
vn -0.3982 0.5449 0.7379
vn -0.3036 0.5657 0.7667
vn 0.4218 0.5476 0.7227
vn 0.2961 0.5670 0.7686
vn 0.3908 0.5467 0.7406
vn -0.4623 0.5157 -0.7214
vn 0.4565 0.5177 -0.7236
vn 0.4562 0.5180 -0.7235
vn 0.6104 0.7921 -0.0007
vn 0.2149 0.9766 -0.0011
vn -0.4644 0.5170 0.7190
vn 0.4580 0.5189 0.7218
vn 0.4581 0.5188 0.7218
vn -0.9518 0.3066 -0.0009
vn -0.9518 0.3068 -0.0008
vn 0.9915 0.1298 0.0002
vn 0.9513 0.3081 -0.0001
vn 0.9513 0.3083 0.0001
vn -0.5024 0.8646 -0.0013
vn 0.1719 -0.6327 -0.7551
vn -0.1627 -0.6333 -0.7566
vn 0.0054 -0.6239 -0.7815
vn -0.4266 -0.5457 -0.7213
vn -0.3878 -0.5525 -0.7379
vn -0.3043 -0.5774 -0.7576
vn 0.3127 -0.5758 -0.7555
vn 0.3958 -0.5506 -0.7350
vn 0.4339 -0.5436 -0.7184
vn 0.0050 -0.6059 0.7955
vn -0.1573 -0.6168 0.7712
vn 0.1660 -0.6162 0.7699
vn -0.4218 -0.5456 0.7242
vn -0.2960 -0.5648 0.7703
vn -0.3909 -0.5445 0.7421
vn 0.3038 -0.5631 0.7685
vn 0.4286 -0.5435 0.7218
vn 0.3984 -0.5425 0.7396
vn -0.4569 -0.5165 -0.7242
vn -0.9517 -0.3070 -0.0001
vn -0.9916 -0.1294 -0.0003
vn -0.9518 -0.3069 -0.0000
vn 0.4636 -0.5146 -0.7213
vn 0.4634 -0.5150 -0.7212
vn -0.4581 -0.5169 0.7231
vn 0.4643 -0.5148 0.7207
vn 0.4644 -0.5147 0.7207
vn -0.2149 -0.9766 0.0012
vn -0.6118 -0.7910 0.0007
vn -0.6119 -0.7910 0.0007
vn 0.5046 -0.8633 0.0013
vn 0.9522 -0.3055 0.0007
vn -0.6631 -0.7485 0.0007
vn -0.0001 -0.0000 -1.0000
vn 0.2279 0.9737 -0.0013
vn 0.5024 0.8647 -0.0013
vn 0.5024 0.8646 -0.0013
vn -0.2295 -0.9733 0.0014
vn -0.5046 -0.8634 0.0013
vn 0.6178 0.7863 -0.0012
vn 0.6681 0.7441 -0.0012
vn 0.0001 -0.0000 1.0000
vn 0.4940 -0.8695 0.0009
vn 0.2151 -0.9766 0.0012
vn 0.2150 -0.9766 0.0012
vn -0.6617 0.7497 -0.0006
vn -0.6105 0.7920 -0.0007
vn -0.6618 0.7497 -0.0006
vn 0.9917 0.1288 -0.0007
vn 0.9916 -0.1292 -0.0003
vn 0.9916 -0.1294 -0.0003
vn -0.9917 -0.1286 0.0006
vn -0.9916 0.1295 0.0002
vn -0.9917 -0.1287 0.0006
vn -0.6197 -0.7848 0.0013
vn -0.6698 -0.7425 0.0013
vn -0.4928 0.8702 -0.0008
vn -0.2150 0.9766 -0.0011
vn -0.4929 0.8701 -0.0008
vn -0.1630 0.6342 -0.7558
vn 0.1709 0.6336 -0.7546
vn 0.0046 0.6250 -0.7806
vn 0.4326 0.5448 -0.7184
vn 0.3943 0.5517 -0.7349
vn 0.3113 0.5769 -0.7551
vn -0.3042 0.5786 -0.7568
vn -0.3874 0.5536 -0.7372
vn -0.4262 0.5468 -0.7207
vn 0.1659 0.6187 0.7679
vn -0.1578 0.6191 0.7693
vn 0.0048 0.6085 0.7935
vn 0.4286 0.5458 0.7200
vn 0.3036 0.5656 0.7667
vn 0.3982 0.5449 0.7379
vn -0.4218 0.5476 0.7227
vn -0.3908 0.5467 0.7406
vn -0.2961 0.5670 0.7686
vn 0.4623 0.5157 -0.7214
vn 0.4621 0.5160 -0.7213
vn -0.4565 0.5177 -0.7236
vn -0.4562 0.5180 -0.7235
vn -0.6105 0.7921 -0.0007
vn -0.2148 0.9767 -0.0011
vn 0.2278 0.9737 -0.0013
vn 0.4644 0.5170 0.7190
vn -0.4581 0.5189 0.7218
vn 0.9916 0.1292 -0.0006
vn 0.9518 0.3066 -0.0009
vn 0.9518 0.3068 -0.0008
vn -0.9915 0.1298 0.0002
vn -0.9513 0.3081 -0.0001
vn -0.1719 -0.6327 -0.7551
vn -0.0054 -0.6239 -0.7815
vn 0.1627 -0.6333 -0.7567
vn 0.4266 -0.5456 -0.7213
vn 0.3044 -0.5774 -0.7576
vn 0.3878 -0.5525 -0.7379
vn -0.3127 -0.5758 -0.7555
vn -0.4339 -0.5436 -0.7184
vn -0.3958 -0.5506 -0.7350
vn -0.0050 -0.6059 0.7955
vn -0.1660 -0.6162 0.7699
vn 0.1573 -0.6168 0.7712
vn 0.4218 -0.5456 0.7242
vn 0.3909 -0.5445 0.7421
vn 0.2960 -0.5648 0.7703
vn -0.3038 -0.5631 0.7685
vn -0.3984 -0.5425 0.7396
vn -0.4286 -0.5435 0.7218
vn 0.4569 -0.5165 -0.7242
vn 0.9517 -0.3070 -0.0001
vn 0.9517 -0.3069 -0.0000
vn -0.4636 -0.5146 -0.7213
vn 0.4581 -0.5169 0.7231
vn 0.4582 -0.5169 0.7232
vn -0.4643 -0.5148 0.7207
vn -0.4644 -0.5147 0.7207
vn 0.4940 -0.8694 0.0009
vn 0.6118 -0.7910 0.0008
vn 0.6119 -0.7910 0.0007
vn -0.5046 -0.8633 0.0013
vn -0.9522 -0.3055 0.0007
vn -0.9522 -0.3053 0.0008
vn 0.6632 -0.7485 0.0007
vn -0.6680 0.7441 -0.0012
vn 0.6698 -0.7426 0.0012
vn -0.4621 0.5160 -0.7213
vn -0.4645 0.5169 0.7190
vn -0.4566 -0.5169 -0.7241
vn -0.4582 -0.5169 0.7232
vn 0.9522 -0.3053 0.0008
vn -0.6698 -0.7426 0.0012
vn 0.4645 0.5169 0.7190
vn -0.4581 0.5188 0.7218
vn -0.9513 0.3083 0.0001
vn 0.4566 -0.5169 -0.7241
vn -0.4634 -0.5150 -0.7212
vn 0.6631 -0.7485 0.0007
s 1
usemtl Metal_Black_Paint
f 10//1 40//2 48//2
f 17//3 33//4 28//3
f 5//1 23//2 9//1
f 8//1 38//2 2//2
f 6//1 45//2 8//1
f 47//5 56//6 41//7
f 18//8 24//9 31//8
f 36//10 53//10 27//10
f 25//10 59//10 32//10
f 46//11 55//12 58//13
f 1//2 38//2 12//2
f 5//1 20//2 16//2
f 22//14 26//15 13//16
f 3//2 40//2 4//2
f 32//10 54//10 29//10
f 29//10 62//10 36//10
f 12//17 51//18 25//19
f 9//1 14//2 3//2
f 6//1 48//2 43//2
f 14//20 53//21 40//22
f 39//23 61//24 49//24
f 15//25 35//26 21//27
f 15//28 16//29 17//30
f 18//31 19//32 20//33
f 21//34 22//35 23//36
f 28//37 29//38 30//39
f 31//40 32//41 33//42
f 34//43 35//44 36//45
f 20//33 11//46 18//31
f 16//29 21//34 23//36
f 16//29 19//32 17//30
f 23//36 13//47 14//48
f 34//49 21//27 35//26
f 17//3 30//50 15//25
f 24//51 32//41 31//40
f 35//44 29//38 36//45
f 33//42 29//38 28//37
f 26//52 36//45 27//53
f 11//54 25//19 24//55
f 27//56 13//57 26//58
f 19//59 31//8 33//4
f 7//1 12//2 20//2
f 41//60 42//61 43//62
f 44//63 45//64 46//65
f 47//66 48//67 49//68
f 54//69 55//70 56//71
f 57//72 58//73 59//74
f 60//75 61//76 62//77
f 37//78 45//64 44//63
f 47//66 43//62 48//67
f 50//79 38//80 37//81
f 46//65 43//62 42//61
f 39//82 48//67 40//83
f 59//74 50//84 57//72
f 54//69 60//75 62//77
f 54//69 58//73 55//70
f 62//77 52//85 53//86
f 56//6 42//87 41//7
f 44//88 58//13 57//89
f 49//24 60//90 47//5
f 52//91 40//22 53//21
f 37//92 57//89 50//92
f 72//1 102//93 66//93
f 79//94 95//95 81//96
f 85//93 67//1 71//1
f 100//93 70//1 64//93
f 107//93 68//1 70//1
f 118//97 109//98 103//97
f 80//99 86//100 73//100
f 98//101 115//101 124//101
f 87//101 121//101 113//101
f 108//102 117//103 104//104
f 63//93 100//93 64//93
f 67//1 82//93 69//1
f 88//105 84//106 75//107
f 102//93 65//93 66//93
f 94//101 116//101 121//101
f 91//101 124//101 116//101
f 74//108 113//109 100//110
f 76//93 71//1 65//93
f 68//1 110//93 72//1
f 115//111 76//112 102//113
f 123//114 101//115 111//114
f 97//116 77//117 83//118
f 77//119 79//120 78//121
f 80//122 82//123 81//124
f 83//125 85//126 84//127
f 90//128 92//129 91//130
f 93//131 95//132 94//133
f 96//134 98//135 97//136
f 82//123 73//137 74//138
f 83//125 78//121 85//126
f 78//121 81//124 82//123
f 75//139 85//126 76//140
f 96//141 83//118 84//106
f 79//94 92//142 90//143
f 94//133 86//144 93//131
f 97//136 91//130 92//129
f 91//130 95//132 90//128
f 88//145 98//135 96//134
f 87//146 73//147 86//148
f 89//149 75//150 76//112
f 93//99 81//96 95//95
f 69//1 74//93 63//93
f 103//151 105//152 104//153
f 106//154 108//155 107//156
f 109//157 111//158 110//159
f 116//160 118//161 117//162
f 119//163 121//164 120//165
f 122//166 124//167 123//168
f 107//156 99//169 106//154
f 109//157 105//152 103//151
f 100//110 112//170 99//171
f 105//152 108//155 104//153
f 101//172 110//159 111//158
f 121//164 112//173 113//174
f 122//166 116//160 124//167
f 116//160 120//165 121//164
f 114//175 124//167 115//176
f 104//104 118//97 103//97
f 120//177 106//178 119//179
f 111//114 122//180 123//114
f 114//181 102//113 101//182
f 99//183 119//179 106//178
f 10//1 4//2 40//2
f 17//3 19//59 33//4
f 5//1 16//2 23//2
f 8//1 45//2 38//2
f 6//1 43//2 45//2
f 47//5 60//90 56//6
f 18//8 11//184 24//9
f 36//10 62//10 53//10
f 25//10 51//10 59//10
f 46//11 42//87 55//12
f 1//2 2//2 38//2
f 5//1 7//1 20//2
f 22//14 34//49 26//15
f 3//2 14//2 40//2
f 32//10 59//10 54//10
f 29//10 54//10 62//10
f 12//17 38//80 51//18
f 9//1 23//2 14//2
f 6//1 10//1 48//2
f 14//20 27//56 53//21
f 39//23 52//185 61//24
f 15//25 30//50 35//26
f 20//33 12//186 11//46
f 16//29 15//28 21//34
f 16//29 20//33 19//32
f 23//36 22//35 13//47
f 34//49 22//14 21//27
f 17//3 28//3 30//50
f 24//51 25//187 32//41
f 35//44 30//39 29//38
f 33//42 32//41 29//38
f 26//52 34//43 36//45
f 11//54 12//17 25//19
f 27//56 14//20 13//57
f 19//59 18//8 31//8
f 7//1 1//2 12//2
f 37//78 38//188 45//64
f 47//66 41//60 43//62
f 50//79 51//18 38//80
f 46//65 45//64 43//62
f 39//82 49//68 48//67
f 59//74 51//189 50//84
f 54//69 56//71 60//75
f 54//69 59//74 58//73
f 62//77 61//76 52//85
f 56//6 55//12 42//87
f 44//88 46//11 58//13
f 49//24 61//24 60//90
f 52//91 39//190 40//22
f 37//92 44//88 57//89
f 72//1 110//93 102//93
f 79//94 90//143 95//95
f 85//93 78//93 67//1
f 100//93 107//93 70//1
f 107//93 105//93 68//1
f 118//97 122//180 109//98
f 80//99 93//99 86//100
f 98//101 89//101 115//101
f 87//101 94//101 121//101
f 108//102 120//177 117//103
f 63//93 74//93 100//93
f 67//1 78//93 82//93
f 88//105 96//141 84//106
f 102//93 76//93 65//93
f 94//101 91//101 116//101
f 91//101 98//101 124//101
f 74//108 87//146 113//109
f 76//93 85//93 71//1
f 68//1 105//93 110//93
f 115//111 89//149 76//112
f 123//114 114//191 101//115
f 97//116 92//142 77//117
f 82//123 80//122 73//137
f 83//125 77//119 78//121
f 78//121 79//120 81//124
f 75//139 84//127 85//126
f 96//141 97//116 83//118
f 79//94 77//117 92//142
f 94//133 87//192 86//144
f 97//136 98//135 91//130
f 91//130 94//133 95//132
f 88//145 89//193 98//135
f 87//146 74//108 73//147
f 89//149 88//194 75//150
f 93//99 80//99 81//96
f 69//1 82//93 74//93
f 107//156 100//195 99//169
f 109//157 110//159 105//152
f 100//110 113//109 112//170
f 105//152 107//156 108//155
f 101//172 102//196 110//159
f 121//164 119//163 112//173
f 122//166 118//161 116//160
f 116//160 117//162 120//165
f 114//175 123//168 124//167
f 104//104 117//103 118//97
f 120//177 108//102 106//178
f 111//114 109//98 122//180
f 114//181 115//111 102//113
f 99//183 112//197 119//179
