# Blender 4.2.0
# www.blender.org
mtllib Cube_094.mtl
o Cube_094
v -0.004248 -0.072561 0.368582
v -0.025701 -0.062579 0.369500
v -0.000299 -0.071964 0.454337
v -0.021752 -0.061982 0.455256
v -0.046375 -0.163945 0.377741
v -0.067829 -0.153964 0.378660
v -0.042729 -0.163394 0.456927
v -0.064182 -0.153413 0.457846
v 0.099914 0.151887 0.362224
v 0.101742 0.161579 0.371404
v 0.102074 0.158227 0.364813
v 0.078460 0.161869 0.363142
v 0.085335 0.169213 0.372107
v 0.082099 0.167521 0.365669
v 0.104834 0.162046 0.438536
v 0.103862 0.152483 0.447980
v 0.105771 0.158786 0.445114
v 0.082409 0.162465 0.448898
v 0.088426 0.169680 0.439238
v 0.085796 0.168080 0.445969
v -0.041887 -0.078249 -0.448881
v -0.048761 -0.085594 -0.457846
v -0.044078 -0.080427 -0.455364
v -0.065169 -0.077960 -0.457143
v -0.063340 -0.068268 -0.447963
v -0.064054 -0.071133 -0.454509
v -0.083346 -0.160118 -0.455735
v -0.084318 -0.169680 -0.446291
v -0.084211 -0.166906 -0.452914
v -0.105771 -0.159698 -0.445373
v -0.099754 -0.152483 -0.455032
v -0.104186 -0.157612 -0.452059
vn -0.0460 -0.0070 -0.9989
vn 0.0460 0.0070 0.9989
vn -0.4208 -0.9068 0.0257
vn -0.9060 0.4215 0.0388
vn 0.9060 -0.4215 -0.0388
vn 0.4208 0.9068 -0.0257
vn 0.9508 -0.3069 -0.0416
vn 0.9508 -0.3070 -0.0416
vn 0.9810 0.1883 -0.0465
vn 0.9810 0.1885 -0.0465
vn 0.1186 0.3406 -0.9327
vn 0.1185 0.3406 -0.9327
vn 0.3712 0.8351 -0.4060
vn -0.8474 0.5297 0.0353
vn -0.8474 0.5298 0.0353
vn -0.4888 0.8723 0.0164
vn -0.4887 0.8723 0.0164
vn 0.2035 0.3534 0.9131
vn 0.2035 0.3534 0.9130
vn 0.4064 0.8404 0.3586
vn 0.4064 0.8404 0.3585
vn -0.2035 -0.3534 -0.9131
vn -0.2035 -0.3534 -0.9130
vn -0.2035 -0.3535 -0.9130
vn -0.4064 -0.8404 -0.3585
vn 0.8935 -0.4192 -0.1611
vn 0.8935 -0.4192 -0.1612
vn 0.7079 -0.3460 -0.6157
vn 0.7080 -0.3460 -0.6157
vn 0.7079 -0.3460 -0.6158
vn -0.9048 0.4175 -0.0842
vn -0.7618 0.3379 -0.5527
vn -0.7618 0.3379 -0.5528
s 1
usemtl Pristine_Wood_Grain_Varnish_05
f 27//1 24//1 22//1
f 4//2 7//2 3//2
f 8//3 5//3 7//3
f 2//4 30//4 6//4
f 3//5 5//5 1//5
f 4//4 6//4 8//4
f 1//1 12//1 9//1
f 4//4 12//4 2//4
f 3//2 18//2 4//2
f 10//6 19//6 15//6
f 1//5 28//5 21//5
f 1//6 25//6 2//6
f 6//3 28//3 5//3
f 9//7 17//8 16//8
f 17//9 10//10 15//9
f 9//11 14//12 11//11
f 14//13 10//13 11//13
f 18//14 14//15 12//15
f 14//16 19//17 13//16
f 18//18 17//19 20//18
f 17//20 19//21 20//21
f 22//12 26//12 23//12
f 26//13 21//13 23//13
f 27//22 32//23 31//24
f 32//25 28//25 30//25
f 21//26 29//27 23//26
f 23//28 27//29 22//30
f 30//31 26//31 32//31
f 32//32 24//33 31//32
f 3//5 9//5 16//5
f 27//1 31//1 24//1
f 4//2 8//2 7//2
f 8//3 6//3 5//3
f 2//4 25//4 30//4
f 3//5 7//5 5//5
f 4//4 2//4 6//4
f 1//1 2//1 12//1
f 4//4 18//4 12//4
f 3//2 16//2 18//2
f 10//6 13//6 19//6
f 1//5 5//5 28//5
f 1//6 21//6 25//6
f 6//3 30//3 28//3
f 9//7 11//7 17//8
f 17//9 11//10 10//10
f 9//11 12//12 14//12
f 14//13 13//13 10//13
f 18//14 20//14 14//15
f 14//16 20//17 19//17
f 18//18 16//19 17//19
f 17//20 15//20 19//21
f 22//12 24//12 26//12
f 26//13 25//13 21//13
f 27//22 29//22 32//23
f 32//25 29//25 28//25
f 21//26 28//27 29//27
f 23//28 29//29 27//29
f 30//31 25//31 26//31
f 32//32 26//33 24//33
f 3//5 1//5 9//5
