# Blender 4.2.0
# www.blender.org
mtllib Cube_184.mtl
o Cube_184
v 0.262670 -0.060860 -0.072921
v 0.262392 -0.060882 0.237895
v 0.262299 -0.038284 -0.072920
v 0.262020 -0.038305 0.237896
v -0.262020 -0.069493 -0.073392
v -0.262299 -0.069513 0.237424
v -0.262391 -0.046916 -0.073391
v -0.262670 -0.046937 0.237425
v 0.013579 0.026078 0.082270
v 0.029590 -0.041687 0.082279
v -0.000215 -0.042178 0.105928
v -0.029976 -0.042666 0.082226
v -0.000172 -0.042175 0.058577
v -0.029997 -0.042668 0.105901
v -0.029954 -0.042665 0.058550
v 0.029568 -0.041688 0.105955
v 0.029611 -0.041685 0.058604
v -0.001312 0.025833 0.082256
v 0.028471 0.026323 0.082283
v -0.001333 0.025831 0.105932
v -0.031095 0.025343 0.082229
v -0.001291 0.025835 0.058581
v -0.031116 0.025342 0.105905
v -0.031074 0.025345 0.058554
v 0.028450 0.026322 0.105958
v 0.028492 0.026325 0.058608
v -0.001323 0.025832 0.094094
v -0.016203 0.025588 0.082243
v -0.001301 0.025834 0.070419
v -0.016225 0.025587 0.105918
v -0.031106 0.025342 0.094067
v -0.016182 0.025590 0.058567
v -0.031084 0.025344 0.070392
v 0.013558 0.026077 0.105945
v 0.028460 0.026322 0.094121
v 0.013600 0.026080 0.058594
v 0.028481 0.026324 0.070445
v 0.013568 0.026077 0.094107
v -0.016193 0.025589 0.070405
v -0.016214 0.025587 0.094081
v 0.013590 0.026079 0.070432
v 0.032088 0.063087 0.139256
v -0.001251 0.019017 0.139223
v 0.032522 0.036674 0.139255
v -0.001966 0.062526 0.139226
v -0.035586 0.035553 0.139193
v -0.036021 0.061966 0.139195
v -0.034464 -0.012567 -0.229297
v -0.000844 0.014406 -0.229266
v 0.033645 -0.011446 -0.229236
v -0.000128 -0.029103 -0.229268
v 0.033210 0.014966 -0.229235
v -0.034183 -0.029663 -0.229298
v -0.034898 0.013846 -0.229296
v 0.033926 -0.028543 -0.229237
v 0.262531 -0.060871 0.082487
v -0.262159 -0.069503 0.082016
v 0.000046 -0.065198 0.237660
v 0.262461 -0.060876 0.160191
v -0.262090 -0.069498 0.004312
v 0.131219 -0.063040 0.237777
v 0.262600 -0.060866 0.004783
v -0.262229 -0.069509 0.159720
v -0.131126 -0.067355 0.237542
v 0.256601 -0.049549 0.082482
v -0.256606 -0.057992 0.082021
v 0.000130 -0.053760 -0.065385
v -0.000135 -0.053780 0.229889
v -0.256738 -0.058002 0.229659
v -0.256474 -0.057982 -0.065616
v 0.256733 -0.049539 -0.065155
v 0.256468 -0.049559 0.230120
v 0.000053 -0.065196 0.229889
v -0.256550 -0.069418 0.229658
v 0.256656 -0.060975 0.230119
v 0.256788 -0.060965 0.082482
v 0.256921 -0.060955 -0.065156
v 0.256656 -0.060975 0.230119
v -0.256418 -0.069408 0.082021
v -0.256550 -0.069418 0.229658
v -0.256286 -0.069398 -0.065616
v 0.000318 -0.065176 -0.065386
v -0.256286 -0.069398 -0.065616
v 0.256921 -0.060955 -0.065156
v -0.035305 0.018457 0.139192
v 0.032804 0.019578 0.139254
v -0.131057 -0.034350 -0.227501
v -0.002384 0.107952 -0.227377
v 0.130900 -0.030040 -0.227265
v 0.001140 -0.106272 -0.227387
v 0.145596 0.084679 -0.227246
v -0.100986 -0.107953 -0.227479
v -0.149516 0.079823 -0.227510
v 0.103266 -0.104592 -0.227295
v -0.131048 -0.034349 -0.237888
v -0.002375 0.107953 -0.237764
v 0.130909 -0.030039 -0.237652
v 0.001150 -0.106272 -0.237774
v 0.145605 0.084679 -0.237633
v -0.100976 -0.107952 -0.237865
v -0.149507 0.079824 -0.237896
v 0.103275 -0.104592 -0.237682
vn -0.9999 -0.0164 -0.0009
vn -0.9999 -0.0165 -0.0009
vn -0.0165 0.9999 -0.0000
vn -0.0164 0.9999 -0.0000
vn 0.0009 0.0001 -1.0000
vn -0.0009 -0.0001 1.0000
vn 0.9999 0.0165 0.0009
vn 0.0165 -0.9999 -0.0001
vn 0.0164 -0.9999 -0.0001
vn 0.0164 -0.9999 -0.0000
vn 0.9999 0.0164 0.0009
vn 0.0165 -0.9999 -0.0000
vn 0.0162 -0.9914 0.1295
vn -0.0162 0.9914 -0.1295
vn 0.0165 -0.9999 -0.0002
vn -0.0164 0.9999 0.0002
vn -0.0164 0.9999 0.0001
vn -0.0163 0.9999 0.0001
vn -0.0166 0.9999 0.0001
vn 0.0013 -0.0243 -0.9997
vn 0.0004 0.0203 -0.9998
vn 0.0006 0.0185 -0.9998
vn 0.0006 0.0202 -0.9998
vn 0.0202 -0.0071 -0.9998
vn 0.0198 -0.0009 -0.9998
vn 0.0200 -0.0002 -0.9998
vn 0.0203 0.0004 -0.9998
vn 0.0182 0.0077 0.9998
vn 0.0024 -0.0929 -0.9957
vn 0.0179 0.0015 0.9998
vn 0.0182 0.0009 0.9998
vn 0.0185 0.0003 0.9998
vn 0.0007 0.0202 -0.9998
vn 0.0043 0.0216 -0.9998
vn -0.9919 0.1271 -0.0009
vn -0.9257 -0.3782 -0.0008
vn -0.9257 -0.3782 -0.0009
vn -0.9872 -0.1596 -0.0009
vn -0.1554 -0.9879 -0.0002
vn 0.1878 -0.9822 0.0001
vn -0.9377 0.3476 -0.0008
vn -0.0032 0.0215 -0.9998
vn 0.0191 -0.0023 -0.9998
vn 0.0185 0.0002 0.9998
vn 0.0172 0.0029 0.9998
s 1
usemtl Agent_Gray_Matte_03
f 1//1 4//2 3//1
f 5//3 84//4 1//4
f 14//5 23//5 30//5
f 6//5 4//5 2//5
f 17//6 26//6 36//6
f 13//6 22//6 32//6
f 15//7 24//7 33//7
f 9//8 29//8 41//9
f 30//10 31//9 40//9
f 39//10 21//9 33//9
f 38//8 20//9 27//9
f 16//1 25//1 35//1
f 11//5 20//5 34//5
f 10//2 19//2 37//2
f 12//7 21//11 31//7
f 38//8 18//8 9//8
f 35//12 9//8 19//9
f 35//12 34//12 38//8
f 39//10 24//10 32//10
f 29//8 32//10 22//12
f 18//8 39//10 29//8
f 40//9 21//9 28//9
f 18//8 40//9 28//9
f 20//9 40//9 27//9
f 36//9 29//8 22//12
f 37//9 36//9 26//10
f 37//9 9//8 41//9
f 52//2 44//1 42//1
f 54//1 46//1 47//1
f 50//2 86//2 44//2
f 42//13 49//13 52//13
f 48//14 44//14 50//14
f 51//14 86//14 55//14
f 47//13 49//13 45//13
f 48//1 85//1 46//1
f 72//6 73//6 75//6
f 68//6 74//6 73//6
f 72//7 76//11 65//11
f 65//11 77//7 71//7
f 66//2 81//2 79//2
f 69//2 79//2 80//2
f 71//5 82//5 67//5
f 67//5 83//5 70//5
f 58//15 80//9 73//15
f 58//16 75//17 73//16
f 56//18 75//17 2//17
f 56//18 84//18 76//18
f 7//6 1//6 3//6
f 7//7 6//7 5//7
f 57//19 83//3 5//3
f 57//19 80//19 79//19
f 53//14 43//14 51//14
f 55//20 90//20 51//20
f 53//20 90//20 92//20
f 54//21 88//22 49//23
f 55//24 89//24 94//24
f 52//25 89//26 50//27
f 53//28 87//28 92//28
f 50//29 87//29 48//29
f 54//30 87//31 48//32
f 52//33 88//22 91//34
f 91//35 97//35 89//35
f 87//36 100//37 92//37
f 87//17 97//17 95//17
f 93//38 95//38 87//38
f 88//39 99//39 91//39
f 90//17 102//17 98//17
f 90//17 100//17 92//17
f 88//40 101//40 96//40
f 89//41 102//41 94//41
f 97//6 99//6 96//6
f 43//6 86//6 44//6
f 44//6 47//6 46//6
f 4//9 7//9 3//9
f 1//1 2//2 4//2
f 5//3 83//3 84//4
f 20//5 11//5 30//5
f 11//5 14//5 30//5
f 6//5 8//5 4//5
f 22//6 13//6 36//6
f 13//6 17//6 36//6
f 24//6 15//6 32//6
f 15//6 13//6 32//6
f 21//11 12//7 33//11
f 12//7 15//11 33//11
f 9//8 18//8 29//8
f 30//10 23//8 31//9
f 39//10 28//9 21//9
f 38//8 34//12 20//9
f 19//2 10//2 35//2
f 10//2 16//1 35//2
f 25//5 16//5 34//5
f 16//5 11//5 34//5
f 26//1 17//2 37//2
f 17//2 10//2 37//2
f 23//7 14//7 31//7
f 14//7 12//7 31//7
f 38//8 27//9 18//8
f 35//12 38//8 9//8
f 35//12 25//12 34//12
f 39//10 33//9 24//10
f 29//8 39//10 32//10
f 18//8 28//9 39//10
f 40//9 31//9 21//9
f 18//8 27//9 40//9
f 20//9 30//10 40//9
f 36//9 41//9 29//8
f 37//9 41//9 36//9
f 37//9 19//9 9//8
f 52//2 50//2 44//1
f 54//1 48//1 46//1
f 50//2 55//2 86//2
f 42//13 45//13 49//13
f 48//14 46//14 44//14
f 51//14 43//14 86//14
f 47//13 54//13 49//13
f 48//2 53//2 85//2
f 72//6 68//6 73//6
f 68//6 69//6 74//6
f 72//7 78//7 76//11
f 65//11 76//11 77//7
f 66//2 70//2 81//2
f 69//2 66//2 79//2
f 71//5 84//5 82//5
f 67//5 82//5 83//5
f 58//15 6//9 80//9
f 58//16 2//17 75//17
f 56//18 76//18 75//18
f 56//18 1//18 84//18
f 7//6 5//6 1//6
f 7//7 8//7 6//7
f 57//19 79//19 83//3
f 57//3 6//3 80//3
f 53//14 85//14 43//14
f 55//20 94//20 90//20
f 53//20 51//20 90//20
f 54//21 93//42 88//22
f 55//27 50//27 89//27
f 52//25 91//43 89//26
f 53//44 48//44 87//44
f 50//29 89//29 87//29
f 54//30 93//45 87//31
f 52//33 49//23 88//22
f 91//35 99//35 97//35
f 87//36 95//36 100//37
f 87//17 89//17 97//17
f 93//38 101//38 95//38
f 88//39 96//39 99//39
f 90//17 94//17 102//17
f 90//17 98//17 100//17
f 88//40 93//40 101//40
f 89//41 97//41 102//41
f 96//6 101//6 95//6
f 95//6 97//6 96//6
f 44//6 46//6 43//6
f 46//6 85//6 43//6
f 44//6 42//6 47//6
f 4//9 8//9 7//9
