# Blender 4.2.0
# www.blender.org
mtllib Cube_134.mtl
o Cube_134
v -0.102744 -0.112569 -0.099330
v -0.102744 -0.112569 0.099330
v -0.126747 0.084636 -0.099330
v -0.126747 0.084636 0.099330
v 0.126747 -0.084636 -0.099330
v 0.126747 -0.084636 0.099330
v 0.102744 0.112569 -0.099330
v 0.102744 0.112569 0.099330
v -0.099043 -0.108515 0.099330
v -0.122182 0.081588 0.099330
v 0.122182 -0.081588 0.099330
v 0.099043 0.108515 0.099330
v -0.099043 -0.108515 -0.098080
v -0.122182 0.081588 -0.098080
v 0.122182 -0.081588 -0.098080
v 0.099043 0.108515 -0.098080
v -0.050250 0.093947 0.099330
v 0.026247 0.103258 0.099330
v 0.102744 0.112569 0.095728
v -0.102744 -0.112569 0.095728
v -0.126747 0.084636 0.095728
v 0.126747 -0.084636 0.095728
vn -0.9927 -0.1208 -0.0000
vn -0.1208 0.9927 -0.0000
vn 0.9927 0.1208 -0.0000
vn 0.1208 -0.9927 -0.0000
vn -0.0000 -0.0000 -1.0000
vn -0.0000 -0.0000 1.0000
s 1
usemtl Fabric_Cotton_Roughly_Woven_Green_02
f 20//1 4//1 21//1
f 19//2 7//2 18//2
f 19//3 6//3 22//3
f 22//4 2//4 20//4
f 7//5 1//5 3//5
f 10//4 16//4 12//4
f 14//6 15//6 16//6
f 12//1 15//1 11//1
f 9//3 14//3 10//3
f 11//2 13//2 9//2
f 3//1 1//1 20//1
f 20//1 2//1 4//1
f 21//1 3//1 20//1
f 7//2 3//2 18//2
f 3//2 21//2 17//2
f 18//2 3//2 17//2
f 21//2 4//2 17//2
f 18//2 8//2 19//2
f 5//3 7//3 19//3
f 19//3 8//3 6//3
f 22//3 5//3 19//3
f 1//4 5//4 22//4
f 22//4 6//4 2//4
f 20//4 1//4 22//4
f 7//5 5//5 1//5
f 10//4 14//4 16//4
f 14//6 13//6 15//6
f 12//1 16//1 15//1
f 9//3 13//3 14//3
f 11//2 15//2 13//2
