# Blender 4.2.0
# www.blender.org
mtllib Cube_291.mtl
o Cube_291
v -0.124505 -0.158723 -0.003624
v -0.124505 0.158723 -0.003624
v 0.124505 -0.158723 -0.003624
v 0.124505 0.158723 -0.003624
v -0.063997 -0.081586 -0.045435
v -0.112590 -0.143534 -0.022502
v -0.070850 -0.090322 -0.044320
v -0.077052 -0.098228 -0.043477
v -0.082956 -0.105754 -0.042400
v -0.088913 -0.113349 -0.040578
v -0.094259 -0.120164 -0.038089
v -0.098068 -0.125020 -0.035530
v -0.101110 -0.128898 -0.032849
v -0.104156 -0.132782 -0.029998
v -0.063997 0.081586 -0.045435
v -0.112590 0.143534 -0.022502
v -0.070850 0.090322 -0.044320
v -0.077052 0.098228 -0.043477
v -0.082956 0.105754 -0.042400
v -0.088913 0.113349 -0.040578
v -0.094259 0.120164 -0.038089
v -0.098068 0.125020 -0.035530
v -0.101110 0.128898 -0.032849
v -0.104156 0.132782 -0.029998
v 0.063997 -0.081586 -0.045435
v 0.112590 -0.143534 -0.022502
v 0.070850 -0.090322 -0.044320
v 0.077052 -0.098228 -0.043477
v 0.082956 -0.105754 -0.042400
v 0.088913 -0.113349 -0.040578
v 0.094259 -0.120164 -0.038089
v 0.098068 -0.125020 -0.035530
v 0.101110 -0.128898 -0.032849
v 0.104156 -0.132782 -0.029998
v 0.063997 0.081586 -0.045435
v 0.112590 0.143534 -0.022502
v 0.070850 0.090322 -0.044320
v 0.077052 0.098228 -0.043477
v 0.082956 0.105754 -0.042400
v 0.088913 0.113349 -0.040578
v 0.094259 0.120164 -0.038089
v 0.098068 0.125020 -0.035530
v 0.101110 0.128898 -0.032849
v 0.104156 0.132782 -0.029998
v 0.128347 -0.163621 0.004233
v 0.128347 0.163621 0.004233
v -0.128347 0.163621 0.004233
v -0.128347 -0.163621 0.004233
v 0.130768 -0.166707 0.045435
v 0.130768 0.166707 0.045435
v -0.130768 0.166707 0.045435
v -0.130768 -0.166707 0.045435
v 0.130768 0.112936 -0.003624
v 0.130768 -0.112936 -0.003624
v -0.130768 -0.112936 -0.003624
v -0.130768 0.112936 -0.003624
v 0.130768 0.083354 0.045435
v 0.130768 -0.083354 0.045435
v -0.130768 -0.083354 0.045435
v -0.130768 0.083354 0.045435
v -0.124505 -0.158723 0.042250
v -0.124505 0.158723 0.042250
v 0.124505 -0.158723 0.042250
v 0.124505 0.158723 0.042250
v 0.130768 0.107792 0.008240
v 0.130768 0.102254 0.019694
v 0.130768 0.095462 0.031149
v 0.130768 -0.107792 0.008240
v 0.130768 -0.102254 0.019694
v 0.130768 -0.095462 0.031149
v -0.130768 0.107792 0.008240
v -0.130768 0.102254 0.019694
v -0.130768 0.095462 0.031149
v -0.130768 -0.107792 0.008240
v -0.130768 -0.102254 0.019694
v -0.130768 -0.095462 0.031149
v 0.000000 0.111138 -0.002735
v 0.000000 -0.111138 -0.002735
v -0.124505 -0.086355 0.042250
v -0.124505 0.000000 0.042250
v -0.124505 0.086355 0.042250
v 0.124505 0.086355 0.042250
v 0.124505 0.000000 0.042250
v 0.124505 -0.086355 0.042250
v -0.124505 0.000000 0.045435
v 0.124505 0.000000 0.045435
v 0.124792 -0.159088 0.045435
v 0.124792 0.159088 0.045435
v -0.124792 0.159088 0.045435
v -0.124792 -0.159088 0.045435
v 0.124792 0.079544 0.045435
v 0.124792 -0.079544 0.045435
v -0.124792 -0.079544 0.045435
v -0.124792 0.079544 0.045435
v -0.124462 -0.112936 -0.003624
v -0.124462 0.112936 -0.003624
v -0.124462 -0.083354 0.045435
v -0.124462 0.083354 0.045435
v -0.124462 0.107792 0.008240
v -0.124462 0.102254 0.019694
v -0.124462 0.095462 0.031149
v -0.124462 -0.107792 0.008240
v -0.124462 -0.102254 0.019694
v -0.124462 -0.095462 0.031149
v -0.124462 0.085165 0.043298
v -0.124462 -0.085165 0.043298
v 0.124462 0.112936 -0.003624
v 0.124462 -0.112936 -0.003624
v 0.124462 0.083354 0.045435
v 0.124462 -0.083354 0.045435
v 0.124462 0.107792 0.008240
v 0.124462 0.102254 0.019694
v 0.124462 0.095462 0.031149
v 0.124462 -0.107792 0.008240
v 0.124462 -0.102254 0.019694
v 0.124462 -0.095462 0.031149
v 0.124462 -0.085165 0.043298
v 0.124462 0.085165 0.043298
v -0.120017 0.000000 0.045435
v 0.120017 0.000000 0.045435
v 0.120293 -0.153354 0.045435
v 0.120293 0.153354 0.045435
v -0.120293 0.153354 0.045435
v -0.120293 -0.153354 0.045435
v 0.120293 0.076677 0.045435
v 0.120293 -0.076677 0.045435
v -0.120293 -0.076677 0.045435
v -0.120293 0.076677 0.045435
v -0.119975 -0.080349 0.045435
v -0.119975 0.080349 0.045435
v 0.119975 0.080349 0.045435
v 0.119975 -0.080349 0.045435
v 0.119988 -0.083354 0.045435
v 0.120293 0.153354 -0.002892
v 0.120293 -0.153354 -0.002892
v 0.119988 0.083354 0.045435
v -0.119988 0.083354 0.045435
v 0.120017 0.000000 -0.002892
v -0.120017 0.000000 -0.002892
v -0.119988 -0.083354 0.045435
v -0.120293 0.153354 -0.002892
v -0.120293 -0.153354 -0.002892
v 0.120293 0.076677 -0.002892
v 0.120293 -0.076677 -0.002892
v -0.120293 -0.076677 -0.002892
v -0.120293 0.076677 -0.002892
v -0.119975 -0.080349 -0.002892
v -0.119975 0.080349 -0.002892
v 0.119975 0.080349 -0.002892
v 0.119975 -0.080349 -0.002892
v 0.099344 -0.153354 -0.002892
v -0.099344 -0.153354 -0.002892
v 0.099344 0.153354 -0.002892
v -0.099344 0.153354 -0.002892
vn -0.0000 -0.7791 -0.6269
vn -0.0000 -0.7171 -0.6969
vn 0.8464 -0.0002 -0.5325
vn 0.8464 0.0002 -0.5325
vn 0.8030 0.0004 -0.5960
vn -0.0000 0.7791 -0.6269
vn -0.0000 0.7171 -0.6969
vn -0.8464 0.0002 -0.5325
vn -0.8464 -0.0002 -0.5325
vn -0.8030 -0.0004 -0.5960
vn -0.0000 -0.9620 -0.2730
vn -0.0000 -0.8486 -0.5290
vn -0.0636 -0.0453 -0.9969
vn -0.0704 0.0562 -0.9959
vn -0.0636 0.0453 -0.9969
vn -0.0704 -0.0562 -0.9959
vn -0.0855 0.0661 -0.9941
vn -0.0855 -0.0661 -0.9941
vn -0.2685 -0.0000 -0.9633
vn -0.3941 -0.0000 -0.9191
vn -0.5277 -0.0000 -0.8495
vn -0.6368 -0.0000 -0.7711
vn -0.6776 -0.0000 -0.7354
vn -0.6693 -0.0000 -0.7430
vn 0.0704 0.0562 -0.9959
vn 0.0636 0.0453 -0.9969
vn 0.0855 0.0661 -0.9941
vn -0.0000 0.2069 -0.9784
vn -0.0000 0.3111 -0.9504
vn -0.0000 0.4301 -0.9028
vn -0.0000 0.5377 -0.8432
vn -0.0000 0.5844 -0.8115
vn -0.0000 0.5783 -0.8158
vn 0.0704 -0.0562 -0.9959
vn 0.0636 -0.0453 -0.9969
vn 0.0855 -0.0661 -0.9941
vn 0.2685 -0.0000 -0.9633
vn 0.3941 -0.0000 -0.9191
vn 0.5277 -0.0000 -0.8495
vn 0.6368 -0.0000 -0.7711
vn 0.6776 -0.0000 -0.7354
vn 0.6693 -0.0000 -0.7430
vn -0.0000 -0.2069 -0.9784
vn -0.0000 -0.3111 -0.9504
vn -0.0000 -0.4301 -0.9028
vn -0.0000 -0.5377 -0.8432
vn -0.0000 -0.5844 -0.8115
vn -0.0000 -0.5783 -0.8158
vn -0.0000 0.9972 -0.0747
vn -0.0000 1.0000 -0.0000
vn -0.0000 -1.0000 -0.0000
vn -0.9999 -0.0096 -0.0030
vn -1.0000 0.0002 0.0007
vn -1.0000 -0.0000 0.0016
vn 0.9999 0.0097 -0.0031
vn 1.0000 -0.0002 0.0007
vn 1.0000 -0.0000 0.0016
vn -0.9990 -0.0242 -0.0384
vn -1.0000 -0.0000 -0.0000
vn -0.9997 -0.0231 -0.0057
vn -0.9990 0.0242 -0.0384
vn 0.9990 0.0242 -0.0384
vn 1.0000 -0.0000 -0.0000
vn 0.9997 0.0231 -0.0057
vn 0.9990 -0.0243 -0.0384
vn -0.0000 -0.3706 0.9288
vn -0.0000 -0.8486 0.5290
vn -0.0000 -0.9972 -0.0747
vn -0.0000 0.3706 0.9288
vn 0.9782 0.1215 -0.1684
vn 0.9979 0.0130 0.0632
vn -0.9979 0.0130 0.0632
vn 0.9979 -0.0130 0.0632
vn -0.9783 -0.1213 -0.1681
vn -0.9979 -0.0130 0.0632
vn -0.4534 -0.0000 0.8913
vn 0.4534 -0.0000 0.8913
vn -0.0938 -0.7252 0.6821
vn -0.0335 -0.7276 0.6851
vn -0.9827 -0.1412 0.1197
vn 0.0937 -0.7252 0.6821
vn 0.0335 -0.7276 0.6852
vn -0.0000 -0.7278 0.6858
vn 0.0335 0.7276 0.6852
vn 0.0936 0.7252 0.6821
vn -0.0000 0.7278 0.6858
vn -0.0937 0.7252 0.6821
vn -0.0335 0.7276 0.6852
vn -0.0000 -0.0000 -1.0000
vn -0.0000 0.8810 -0.4731
vn -0.0000 0.9091 -0.4166
vn 0.0048 0.8178 -0.5755
vn 0.0298 0.7645 -0.6439
vn -0.0000 0.8190 -0.5737
vn -0.0000 -0.8810 -0.4731
vn -0.0000 -0.8190 -0.5737
vn 0.0048 -0.8178 -0.5755
vn -0.0000 -0.9175 -0.3978
vn -0.0000 -0.9091 -0.4166
vn -0.0000 0.9175 -0.3978
vn 0.0298 -0.7645 -0.6439
vn -0.0048 0.8178 -0.5755
vn 0.5331 0.0297 -0.8455
vn 0.8319 0.1138 -0.5432
vn 0.9817 0.0240 0.1891
vn -0.0048 -0.8178 -0.5755
vn -0.0298 -0.7645 -0.6439
vn -0.8318 0.1138 -0.5432
vn -0.8066 0.0399 -0.5897
vn -0.9754 0.0683 -0.2097
vn -0.0298 0.7645 -0.6439
vn 0.8066 -0.0399 -0.5897
vn 0.8319 -0.1138 -0.5432
vn -0.8066 -0.0399 -0.5898
vn -0.8319 -0.1138 -0.5432
vn -0.9754 -0.0683 -0.2097
vn -0.9991 -0.0414 -0.0000
vn 0.9991 0.0414 -0.0000
vn 0.9992 0.0410 -0.0000
vn -0.9992 0.0410 -0.0000
vn -0.9991 0.0414 -0.0000
vn 0.9992 -0.0410 -0.0000
vn 0.9991 -0.0414 -0.0000
vn -0.9992 -0.0410 -0.0000
vn -1.0000 0.0044 -0.0000
vn -1.0000 -0.0044 -0.0000
vn 1.0000 -0.0044 -0.0000
vn 1.0000 0.0044 -0.0000
vn 0.1661 0.0006 0.9861
vn 0.1661 -0.0006 0.9861
vn 0.1629 -0.0000 0.9866
vn -0.0000 -0.1351 0.9908
vn -0.0732 -0.0781 0.9942
vn -0.1661 -0.0006 0.9861
vn -0.1661 0.0006 0.9861
vn -0.1629 -0.0000 0.9866
vn -0.0000 0.1351 0.9908
vn 0.0732 0.0781 0.9942
vn 0.8030 -0.0004 -0.5960
vn 0.8459 -0.0008 -0.5333
vn 0.8459 0.0008 -0.5333
vn -0.8030 0.0004 -0.5960
vn -0.8459 0.0008 -0.5333
vn -0.8459 -0.0008 -0.5333
vn -1.0000 0.0005 0.0005
vn -1.0000 0.0010 -0.0000
vn -1.0000 -0.0002 0.0007
vn -1.0000 -0.0010 -0.0000
vn -1.0000 -0.0005 0.0005
vn -0.9999 0.0096 -0.0030
vn 1.0000 -0.0005 0.0005
vn 1.0000 -0.0010 -0.0000
vn 1.0000 0.0002 0.0007
vn 1.0000 0.0010 -0.0000
vn 1.0000 0.0005 0.0005
vn 0.9999 -0.0097 -0.0031
vn -0.9997 0.0231 -0.0057
vn 0.9329 0.0635 -0.3546
vn 0.9230 0.0755 -0.3774
vn 0.9754 -0.0683 -0.2097
vn 0.9997 -0.0231 -0.0057
vn 0.9990 -0.0242 -0.0384
vn 0.9936 0.0861 -0.0730
vn -0.9783 0.1213 -0.1681
vn -0.9936 0.0861 -0.0729
vn 0.9782 -0.1215 -0.1684
vn 0.9936 -0.0861 -0.0730
vn -0.9936 -0.0861 -0.0729
vn -0.0937 -0.7252 0.6821
vn -0.0335 -0.7276 0.6852
vn 0.9825 -0.1421 0.1203
vn 0.0335 0.7276 0.6851
vn 0.9825 0.1420 0.1204
vn 0.0937 0.7252 0.6821
vn -0.9827 0.1412 0.1196
vn 0.0368 0.7624 -0.6461
vn 0.0368 -0.7624 -0.6461
vn -0.0368 -0.7624 -0.6461
vn -0.0368 0.7624 -0.6461
vn -0.8066 -0.0400 -0.5897
vn 0.0906 0.0644 0.9938
vn 0.1026 0.0082 0.9947
vn 0.1735 -0.0001 0.9848
vn 0.1735 0.0001 0.9848
vn 0.1026 -0.0082 0.9947
vn 0.0906 -0.0644 0.9938
vn 0.0732 -0.0781 0.9942
vn -0.0906 -0.0644 0.9938
vn -0.1026 -0.0082 0.9947
vn -0.1735 0.0001 0.9848
vn -0.1735 -0.0001 0.9848
vn -0.1026 0.0082 0.9947
vn -0.0906 0.0644 0.9938
vn -0.0732 0.0781 0.9942
s 1
usemtl Glass_Reflectors_Base_Clear_Thick
f 3//1 6//2 26//2
f 107//3 108//4 26//5
f 2//6 36//7 16//7
f 95//8 96//9 16//10
f 45//11 1//12 3//12
f 5//13 17//14 15//15
f 7//16 18//17 17//14
f 8//18 19//19 18//17
f 9//19 20//20 19//19
f 10//20 21//21 20//20
f 11//21 22//22 21//21
f 12//22 23//23 22//22
f 13//23 24//24 23//23
f 14//24 16//10 24//24
f 15//15 37//25 35//26
f 17//14 38//27 37//25
f 18//17 39//28 38//27
f 19//28 40//29 39//28
f 20//29 41//30 40//29
f 21//30 42//31 41//30
f 22//31 43//32 42//31
f 23//32 44//33 43//32
f 24//33 36//7 44//33
f 35//26 27//34 25//35
f 37//25 28//36 27//34
f 38//27 29//37 28//36
f 39//37 30//38 29//37
f 40//38 31//39 30//38
f 41//39 32//40 31//39
f 42//40 33//41 32//40
f 43//41 34//42 33//41
f 44//42 26//5 34//42
f 25//35 7//16 5//13
f 27//34 8//18 7//16
f 28//36 9//43 8//18
f 29//43 10//44 9//43
f 30//44 11//45 10//44
f 31//45 12//46 11//45
f 32//46 13//47 12//46
f 33//47 14//48 13//47
f 34//48 6//2 14//48
f 35//26 5//13 15//15
f 51//49 46//49 47//49
f 1//50 63//50 3//50
f 4//51 62//51 2//51
f 82//52 107//53 83//54
f 79//55 95//56 80//57
f 52//58 75//59 74//60
f 72//59 73//59 51//61
f 50//62 66//63 65//64
f 69//63 70//63 49//65
f 64//66 51//66 62//66
f 2//67 46//67 47//67
f 49//68 48//11 45//11
f 61//69 49//69 63//69
f 106//70 79//55 93//71
f 92//72 86//59 83//54
f 94//73 85//63 80//57
f 118//74 82//52 91//75
f 58//76 63//76 49//76
f 59//77 61//77 79//77
f 62//77 60//77 81//77
f 57//76 64//76 82//76
f 84//78 110//79 117//80
f 79//81 97//82 59//83
f 98//84 81//85 60//86
f 82//87 109//88 57//86
f 51//89 88//89 89//89
f 57//89 88//89 50//89
f 59//89 90//89 52//89
f 58//89 110//89 92//89
f 49//89 90//89 87//89
f 60//89 98//89 94//89
f 97//89 59//89 93//89
f 60//89 89//89 98//89
f 58//89 87//89 110//89
f 109//89 57//89 91//89
f 75//90 102//91 74//91
f 76//92 79//93 104//94
f 72//95 101//96 73//97
f 56//98 99//99 71//99
f 76//92 103//90 75//90
f 74//91 95//100 55//100
f 71//99 100//95 72//95
f 81//101 73//97 101//96
f 69//90 116//94 70//102
f 54//100 114//91 68//91
f 66//95 111//99 65//99
f 53//103 4//104 46//105
f 68//91 115//90 69//90
f 67//106 112//95 66//95
f 65//99 107//98 53//98
f 67//106 82//107 113//96
f 2//108 56//109 47//110
f 84//111 70//102 116//94
f 54//112 3//113 108//89
f 55//114 1//115 48//116
f 88//89 123//89 89//89
f 110//89 133//89 132//89
f 90//89 121//89 87//89
f 91//89 131//89 109//89
f 109//89 122//89 88//89
f 85//89 127//89 93//89
f 119//59 145//117 127//117
f 94//89 130//89 128//89
f 86//89 125//89 91//89
f 125//118 149//119 131//119
f 93//89 129//89 97//89
f 86//89 126//89 120//89
f 97//89 124//89 90//89
f 85//89 128//89 119//89
f 98//89 137//89 130//89
f 92//89 132//89 126//89
f 130//120 146//121 128//121
f 140//89 97//89 129//89
f 98//89 123//89 137//89
f 128//121 139//59 119//59
f 136//89 109//89 131//89
f 110//89 121//89 133//89
f 120//63 143//118 125//118
f 132//122 144//123 126//123
f 122//50 153//50 154//50
f 127//117 147//124 129//124
f 126//123 138//63 120//63
f 124//51 152//51 151//51
f 142//125 124//125 140//125
f 148//120 130//120 137//126
f 134//127 122//127 136//127
f 150//122 132//122 133//128
f 108//129 107//130 138//131
f 151//132 152//132 1//133
f 96//134 95//135 139//136
f 154//137 153//137 4//138
f 3//1 1//1 6//2
f 26//5 36//139 107//3
f 36//139 4//140 107//3
f 108//4 3//141 26//5
f 2//6 4//6 36//7
f 16//10 6//142 95//8
f 6//142 1//143 95//8
f 96//9 2//144 16//10
f 45//11 48//11 1//12
f 5//13 7//16 17//14
f 7//16 8//18 18//17
f 8//18 9//19 19//19
f 9//19 10//20 20//20
f 10//20 11//21 21//21
f 11//21 12//22 22//22
f 12//22 13//23 23//23
f 13//23 14//24 24//24
f 14//24 6//142 16//10
f 15//15 17//14 37//25
f 17//14 18//17 38//27
f 18//17 19//28 39//28
f 19//28 20//29 40//29
f 20//29 21//30 41//30
f 21//30 22//31 42//31
f 22//31 23//32 43//32
f 23//32 24//33 44//33
f 24//33 16//7 36//7
f 35//26 37//25 27//34
f 37//25 38//27 28//36
f 38//27 39//37 29//37
f 39//37 40//38 30//38
f 40//38 41//39 31//39
f 41//39 42//40 32//40
f 42//40 43//41 33//41
f 43//41 44//42 34//42
f 44//42 36//139 26//5
f 25//35 27//34 7//16
f 27//34 28//36 8//18
f 28//36 29//43 9//43
f 29//43 30//44 10//44
f 30//44 31//45 11//45
f 31//45 32//46 12//46
f 32//46 33//47 13//47
f 33//47 34//48 14//48
f 34//48 26//2 6//2
f 35//26 25//35 5//13
f 51//49 50//49 46//49
f 1//50 61//50 63//50
f 4//51 64//51 62//51
f 64//145 4//146 107//53
f 107//53 108//147 83//54
f 108//147 3//148 63//149
f 83//54 108//147 84//150
f 63//149 84//150 108//147
f 64//145 107//53 82//52
f 61//151 1//152 95//56
f 95//56 96//153 80//57
f 96//153 2//154 62//155
f 80//57 96//153 81//156
f 62//155 81//156 96//153
f 61//151 95//56 79//55
f 48//116 52//58 74//60
f 52//58 59//59 76//59
f 52//58 76//59 75//59
f 74//60 55//114 48//116
f 51//61 47//110 71//157
f 47//110 56//109 71//157
f 73//59 60//59 51//61
f 51//61 71//157 72//59
f 46//158 50//62 65//64
f 50//62 57//63 67//63
f 50//62 67//63 66//63
f 65//64 53//159 46//158
f 49//65 45//160 68//161
f 45//160 54//112 68//161
f 70//63 58//63 49//162
f 49//65 68//161 69//63
f 64//66 50//66 51//66
f 2//67 4//67 46//67
f 49//68 52//68 48//11
f 61//69 52//69 49//69
f 79//55 80//57 93//71
f 80//57 85//63 93//71
f 93//71 97//163 106//70
f 83//54 84//150 92//72
f 84//150 117//164 92//72
f 117//164 110//165 92//72
f 80//57 81//156 94//73
f 81//156 105//166 94//73
f 105//166 98//167 94//73
f 82//52 83//54 91//75
f 83//54 86//59 91//75
f 91//75 109//168 118//74
f 58//76 84//76 63//76
f 59//77 52//77 61//77
f 62//77 51//77 60//77
f 57//76 50//76 64//76
f 84//169 58//83 110//170
f 79//81 106//171 97//82
f 98//172 105//173 81//174
f 82//87 118//175 109//88
f 51//89 50//89 88//89
f 57//89 109//89 88//89
f 59//89 97//89 90//89
f 49//89 52//89 90//89
f 60//89 51//89 89//89
f 58//89 49//89 87//89
f 75//90 103//90 102//91
f 76//92 59//176 79//93
f 72//95 100//95 101//96
f 56//98 96//98 99//99
f 76//92 104//94 103//90
f 74//91 102//91 95//100
f 71//99 99//99 100//95
f 81//101 60//177 73//97
f 69//90 115//90 116//94
f 54//100 108//100 114//91
f 66//95 112//95 111//99
f 53//103 107//89 4//104
f 68//91 114//91 115//90
f 67//106 113//96 112//95
f 65//99 111//99 107//98
f 67//106 57//178 82//107
f 2//108 96//89 56//109
f 84//111 58//179 70//102
f 54//112 45//160 3//113
f 55//180 95//89 1//115
f 88//89 122//89 123//89
f 90//89 124//89 121//89
f 91//89 125//89 131//89
f 109//89 136//89 122//89
f 85//89 119//89 127//89
f 119//59 139//59 145//117
f 94//89 98//89 130//89
f 86//89 120//89 125//89
f 125//118 143//118 149//119
f 93//89 127//89 129//89
f 86//89 92//89 126//89
f 97//89 140//89 124//89
f 85//89 94//89 128//89
f 92//89 110//89 132//89
f 130//120 148//120 146//121
f 98//89 89//89 123//89
f 128//121 146//121 139//59
f 110//89 87//89 121//89
f 120//63 138//63 143//118
f 132//122 150//122 144//123
f 141//50 123//50 154//50
f 123//50 122//50 154//50
f 122//50 134//50 153//50
f 127//117 145//117 147//124
f 126//123 144//123 138//63
f 135//51 121//51 151//51
f 121//51 124//51 151//51
f 124//51 142//51 152//51
f 140//125 129//124 147//124
f 147//124 142//125 140//125
f 137//126 123//126 141//126
f 141//126 148//120 137//126
f 136//127 131//119 149//119
f 149//119 134//127 136//127
f 133//128 121//128 135//128
f 135//128 150//122 133//128
f 107//130 4//138 134//181
f 134//181 149//182 107//130
f 149//182 143//183 107//130
f 143//183 138//131 107//130
f 138//131 144//184 108//129
f 144//184 150//185 108//129
f 150//185 135//186 108//129
f 135//186 3//187 108//129
f 1//133 3//187 151//132
f 3//187 135//186 151//132
f 152//132 142//188 1//133
f 95//135 1//133 142//188
f 142//188 147//189 95//135
f 147//189 145//190 95//135
f 145//190 139//136 95//135
f 139//136 146//191 96//134
f 146//191 148//192 96//134
f 148//192 141//193 96//134
f 141//193 2//194 96//134
f 4//138 2//194 154//137
f 2//194 141//193 154//137
f 153//137 134//181 4//138
