# Blender 4.2.0
# www.blender.org
mtllib Cube_129.mtl
o Cube_129
v -0.358740 -0.271298 -0.484668
v -0.358740 -0.271298 0.484668
v -0.358740 0.271298 -0.484668
v -0.358740 0.271298 0.484668
v 0.358740 -0.271298 -0.484668
v 0.358740 -0.271298 0.484668
v 0.358740 0.271298 -0.484668
v 0.358740 0.271298 0.484668
v -0.358740 -0.271298 -0.468979
v -0.358740 -0.271298 0.468980
v -0.358740 0.271298 0.468980
v -0.358740 0.271298 -0.468980
v 0.358740 0.271298 0.468980
v 0.358740 0.271298 -0.468980
v 0.358740 -0.271298 0.468980
v 0.358740 -0.271298 -0.468980
v 0.340637 0.271298 -0.484668
v -0.340636 0.271298 -0.484668
v -0.340636 0.271298 0.484668
v 0.340637 0.271298 0.484668
v -0.340636 -0.271298 -0.484668
v 0.340637 -0.271298 -0.484668
v 0.340637 -0.271298 0.484668
v -0.340636 -0.271298 0.484668
v 0.340637 -0.271827 -0.468979
v -0.340636 -0.271827 -0.468979
v 0.340637 -0.271827 0.468980
v -0.340636 -0.271827 0.468980
v -0.340636 0.271827 -0.468980
v 0.340637 0.271827 -0.468980
v -0.340636 0.271827 0.468980
v 0.340637 0.271827 0.468980
v -0.358740 0.255830 -0.484668
v -0.358740 -0.255830 -0.484668
v -0.358740 -0.255830 0.484668
v -0.358740 0.255830 0.484668
v 0.358740 -0.255830 -0.484668
v 0.358740 0.255830 -0.484668
v 0.358740 0.255830 0.484668
v 0.358740 -0.255830 0.484668
v 0.358740 0.255830 -0.468980
v 0.358740 -0.255830 -0.468980
v 0.358740 0.255830 0.468980
v 0.358740 -0.255830 0.468980
v -0.358740 -0.255830 -0.468979
v -0.358740 0.255830 -0.468979
v -0.358740 -0.255830 0.468980
v -0.358740 0.255830 0.468980
v 0.340637 0.255830 0.484668
v 0.340637 -0.255830 0.484668
v -0.340636 0.255830 0.484668
v -0.340636 -0.255830 0.484668
v -0.340636 0.255830 -0.484668
v -0.340636 -0.255830 -0.484668
v 0.340637 0.255830 -0.484668
v 0.340637 -0.255830 -0.484668
v 0.333632 -0.266238 0.459335
v -0.333631 0.266238 0.459335
v -0.333631 0.266238 -0.459335
v 0.333632 -0.266238 -0.459335
v -0.333631 -0.266238 -0.459335
v 0.333631 0.266238 -0.459335
v -0.333631 -0.266238 0.459335
v 0.333631 0.266238 0.459335
v 0.351363 0.250569 -0.459335
v 0.351363 -0.250569 -0.459335
v 0.351363 0.250569 0.459335
v 0.351363 -0.250569 0.459335
v -0.351363 -0.250569 -0.459335
v -0.351363 0.250569 -0.459335
v -0.351363 -0.250569 0.459335
v -0.351363 0.250569 0.459335
v 0.333632 0.250569 0.474701
v 0.333632 -0.250569 0.474701
v -0.333631 0.250569 0.474701
v -0.333631 -0.250569 0.474701
v -0.333631 0.250569 -0.474701
v -0.333631 -0.250569 -0.474701
v 0.333632 0.250569 -0.474701
v 0.333632 -0.250569 -0.474701
vn -1.0000 -0.0000 -0.0000
vn 0.0292 0.9990 0.0337
vn 1.0000 -0.0000 -0.0000
vn -0.0292 -0.9990 0.0337
vn -0.0000 -0.0000 -1.0000
vn -0.0000 -0.0000 1.0000
vn -0.0000 -1.0000 -0.0000
vn -0.0292 -0.9996 -0.0000
vn -0.0000 1.0000 -0.0000
vn 0.0292 0.9996 -0.0000
vn -0.0292 0.9996 -0.0000
vn -0.0000 0.9994 -0.0337
vn 0.0292 -0.9996 -0.0000
vn 0.8181 -0.0000 -0.5750
vn -0.0000 -0.9994 -0.0337
vn 0.0292 -0.9990 0.0337
vn -0.0000 -0.9994 0.0337
vn -0.0292 0.9990 0.0337
vn -0.0000 0.9994 0.0337
vn -0.0000 -0.8844 0.4668
vn -0.7943 -0.0000 0.6076
vn -0.0000 0.8652 -0.5015
vn 0.8181 -0.0000 0.5750
vn 0.6237 -0.7816 -0.0000
vn 0.6237 0.7816 -0.0000
vn 0.5806 -0.8142 -0.0000
vn -0.0000 -0.8652 0.5015
vn -0.0000 0.8844 0.4668
vn -0.6237 0.7816 -0.0000
vn 0.5806 0.8142 -0.0000
vn -0.7943 -0.0000 -0.6076
vn -0.8181 -0.0000 -0.5750
vn -0.0000 -0.8652 -0.5015
vn 0.7943 -0.0000 0.6076
vn -0.0000 -0.8844 -0.4668
vn -0.8181 -0.0000 0.5750
vn -0.5806 0.8142 -0.0000
vn -0.0000 0.8844 -0.4668
vn -0.6237 -0.7816 -0.0000
vn -0.0000 0.8652 0.5015
vn -0.5806 -0.8142 -0.0000
vn 0.7943 -0.0000 -0.6076
vn -0.0292 -0.9990 -0.0337
vn 0.0292 0.9990 -0.0337
vn -0.0292 0.9990 -0.0337
vn 0.0292 -0.9990 -0.0337
vn -0.8182 -0.0000 -0.5750
vn -0.8182 -0.0000 0.5750
s 1
usemtl Aluminum_Anodized_01
f 48//1 4//1 11//1
f 20//2 13//2 32//2
f 40//3 15//3 44//3
f 24//4 10//4 28//4
f 37//5 22//5 56//5
f 35//6 24//6 52//6
f 21//7 9//7 1//7
f 28//8 9//8 26//8
f 42//3 5//3 37//3
f 44//3 16//3 42//3
f 17//9 14//9 7//9
f 32//10 14//10 30//10
f 33//1 12//1 3//1
f 46//1 11//1 12//1
f 11//11 29//11 12//11
f 12//9 18//9 3//9
f 29//12 17//12 18//12
f 15//13 25//13 16//13
f 53//14 78//14 54//14
f 16//7 22//7 5//7
f 25//15 21//15 22//15
f 50//6 6//6 40//6
f 52//6 23//6 50//6
f 54//5 1//5 34//5
f 56//5 21//5 54//5
f 15//16 23//16 27//16
f 23//17 28//17 27//17
f 11//18 19//18 31//18
f 19//19 32//19 31//19
f 17//5 53//5 18//5
f 18//5 33//5 3//5
f 53//5 34//5 33//5
f 19//6 49//6 20//6
f 20//6 39//6 8//6
f 49//6 40//6 39//6
f 9//1 47//1 45//1
f 1//1 45//1 34//1
f 45//1 33//1 34//1
f 13//3 41//3 14//3
f 51//20 73//20 49//20
f 14//3 38//3 7//3
f 41//3 37//3 38//3
f 4//6 51//6 19//6
f 36//6 52//6 51//6
f 7//5 55//5 17//5
f 38//5 56//5 55//5
f 8//3 43//3 13//3
f 39//3 44//3 43//3
f 2//1 47//1 10//1
f 35//1 48//1 47//1
f 45//21 70//21 46//21
f 31//22 64//22 58//22
f 52//23 75//23 51//23
f 26//24 63//24 28//24
f 31//25 59//25 29//25
f 43//26 65//26 41//26
f 25//27 61//27 26//27
f 50//28 76//28 52//28
f 30//29 64//29 32//29
f 42//30 68//30 44//30
f 48//31 71//31 47//31
f 56//32 79//32 55//32
f 28//33 57//33 27//33
f 41//34 66//34 42//34
f 55//35 77//35 53//35
f 49//36 74//36 50//36
f 45//37 71//37 69//37
f 54//38 80//38 56//38
f 25//39 57//39 60//39
f 29//40 62//40 30//40
f 46//41 72//41 48//41
f 44//42 67//42 43//42
f 48//1 36//1 4//1
f 20//9 8//9 13//9
f 40//3 6//3 15//3
f 24//7 2//7 10//7
f 37//5 5//5 22//5
f 35//6 2//6 24//6
f 21//43 26//43 9//43
f 28//8 10//8 9//8
f 42//3 16//3 5//3
f 44//3 15//3 16//3
f 17//44 30//44 14//44
f 32//10 13//10 14//10
f 33//1 46//1 12//1
f 46//1 48//1 11//1
f 11//11 31//11 29//11
f 12//45 29//45 18//45
f 29//12 30//12 17//12
f 15//13 27//13 25//13
f 53//14 77//14 78//14
f 16//46 25//46 22//46
f 25//15 26//15 21//15
f 50//6 23//6 6//6
f 52//6 24//6 23//6
f 54//5 21//5 1//5
f 56//5 22//5 21//5
f 15//7 6//7 23//7
f 23//17 24//17 28//17
f 11//9 4//9 19//9
f 19//19 20//19 32//19
f 17//5 55//5 53//5
f 18//5 53//5 33//5
f 53//5 54//5 34//5
f 19//6 51//6 49//6
f 20//6 49//6 39//6
f 49//6 50//6 40//6
f 9//1 10//1 47//1
f 1//1 9//1 45//1
f 45//1 46//1 33//1
f 13//3 43//3 41//3
f 51//20 75//20 73//20
f 14//3 41//3 38//3
f 41//3 42//3 37//3
f 4//6 36//6 51//6
f 36//6 35//6 52//6
f 7//5 38//5 55//5
f 38//5 37//5 56//5
f 8//3 39//3 43//3
f 39//3 40//3 44//3
f 2//1 35//1 47//1
f 35//1 36//1 48//1
f 45//21 69//21 70//21
f 31//22 32//22 64//22
f 52//23 76//23 75//23
f 26//24 61//24 63//24
f 31//25 58//25 59//25
f 43//26 67//26 65//26
f 25//27 60//27 61//27
f 50//28 74//28 76//28
f 30//29 62//29 64//29
f 42//30 66//30 68//30
f 48//31 72//31 71//31
f 56//47 80//47 79//47
f 28//33 63//33 57//33
f 41//34 65//34 66//34
f 55//35 79//35 77//35
f 49//48 73//48 74//48
f 45//37 47//37 71//37
f 54//38 78//38 80//38
f 25//39 27//39 57//39
f 29//40 59//40 62//40
f 46//41 70//41 72//41
f 44//42 68//42 67//42
