# Blender 4.2.0
# www.blender.org
mtllib Cylinder_006.mtl
o Cylinder_006
v 0.109701 0.171859 0.795173
v -0.126013 -0.224879 -0.772305
v 0.102455 0.174778 0.795205
v -0.133163 -0.221760 -0.771924
v 0.095728 0.178587 0.794104
v -0.139612 -0.217355 -0.771990
v 0.089773 0.183142 0.791911
v -0.145113 -0.211833 -0.772501
v 0.084822 0.188267 0.788713
v -0.149454 -0.205407 -0.773437
v 0.081064 0.193764 0.784631
v -0.152466 -0.198325 -0.774763
v 0.078646 0.199423 0.779822
v -0.154037 -0.190857 -0.776426
v 0.077658 0.205027 0.774472
v -0.154104 -0.183291 -0.778364
v 0.078136 0.210359 0.768785
v -0.152666 -0.175918 -0.780502
v 0.080069 0.215215 0.762980
v -0.149776 -0.169020 -0.782757
v 0.083376 0.219408 0.757281
v -0.145550 -0.162864 -0.785044
v 0.087933 0.222778 0.751906
v -0.140144 -0.157686 -0.787273
v 0.093563 0.225194 0.747062
v -0.133770 -0.153684 -0.789360
v 0.100050 0.226564 0.742936
v -0.126671 -0.151013 -0.791225
v 0.107147 0.226836 0.739684
v -0.119120 -0.149775 -0.792795
v 0.114578 0.225998 0.737434
v -0.111408 -0.150018 -0.794010
v 0.122061 0.224083 0.736271
v -0.103832 -0.151732 -0.794824
v 0.129305 0.221164 0.736239
v -0.096682 -0.154851 -0.795205
v 0.136034 0.217355 0.737340
v -0.090233 -0.159256 -0.795139
v 0.141989 0.212800 0.739532
v -0.084732 -0.164778 -0.794628
v 0.146940 0.207675 0.742731
v -0.080393 -0.171203 -0.793692
v 0.150698 0.202178 0.746813
v -0.077379 -0.178286 -0.792367
v 0.153116 0.196519 0.751622
v -0.075808 -0.185754 -0.790703
v 0.154104 0.190915 0.756972
v -0.075741 -0.193320 -0.788765
v 0.153624 0.185583 0.762659
v -0.077179 -0.200693 -0.786627
v 0.151693 0.180727 0.768464
v -0.080069 -0.207590 -0.784372
v 0.148386 0.176534 0.774163
v -0.084297 -0.213746 -0.782086
v 0.143829 0.173164 0.779538
v -0.089701 -0.218925 -0.779856
v 0.138199 0.170748 0.784382
v -0.096077 -0.222926 -0.777769
v 0.131712 0.169377 0.788508
v -0.103174 -0.225598 -0.775905
v 0.124615 0.169106 0.791760
v -0.110725 -0.226836 -0.774335
v 0.117182 0.169944 0.794010
v -0.118437 -0.226593 -0.773119
vn 0.3577 0.8911 -0.2793
vn 0.5073 0.8142 -0.2823
vn 0.6460 0.7113 -0.2769
vn 0.7706 0.5808 -0.2623
vn 0.8751 0.4217 -0.2375
vn 0.9508 0.2351 -0.2015
vn 0.9877 0.0267 -0.1544
vn 0.9765 -0.1919 -0.0978
vn 0.9146 -0.4028 -0.0358
vn 0.9161 -0.3992 -0.0370
vn 0.9135 -0.4053 -0.0350
vn 0.8033 -0.5949 0.0284
vn 0.6573 -0.7485 0.0880
vn 0.4898 -0.8605 0.1401
vn 0.3134 -0.9317 0.1834
vn 0.1367 -0.9664 0.2177
vn -0.0356 -0.9693 0.2434
vn -0.2010 -0.9441 0.2615
vn -0.3586 -0.8930 0.2722
vn -0.5074 -0.8165 0.2756
vn -0.6458 -0.7138 0.2711
vn -0.7702 -0.5833 0.2578
vn -0.8748 -0.4239 0.2344
vn -0.9508 -0.2366 0.1998
vn -0.9877 -0.0274 0.1537
vn -0.9765 0.1921 0.0976
vn -0.9162 0.3991 0.0370
vn -0.9147 0.4026 0.0358
vn -0.9136 0.4051 0.0351
vn -0.8036 0.5945 -0.0289
vn -0.6582 0.7475 -0.0894
vn -0.4915 0.8591 -0.1428
vn -0.3157 0.9302 -0.1874
vn -0.1390 0.9648 -0.2230
vn 0.1584 0.2463 0.9562
vn 0.0334 0.9677 -0.2499
vn 0.1995 0.9424 -0.2685
vn -0.2802 -0.6883 -0.6691
vn 0.3713 0.8853 -0.2798
vn 0.5432 0.7910 -0.2816
vn 0.6941 0.6663 -0.2724
vn 0.8184 0.5161 -0.2528
vn 0.9114 0.3457 -0.2234
vn 0.9691 0.1626 -0.1857
vn 0.9897 -0.0273 -0.1409
vn 0.9721 -0.2160 -0.0910
vn 0.9172 -0.3966 -0.0378
vn 0.8271 -0.5618 0.0165
vn 0.7050 -0.7058 0.0700
vn 0.5558 -0.8225 0.1206
vn 0.3852 -0.9077 0.1665
vn 0.1999 -0.9579 0.2059
vn 0.0069 -0.9714 0.2375
vn -0.1864 -0.9474 0.2601
vn -0.3725 -0.8871 0.2727
vn -0.5442 -0.7926 0.2749
vn -0.6950 -0.6677 0.2667
vn -0.8192 -0.5170 0.2483
vn -0.9117 -0.3467 0.2204
vn -0.9693 -0.1630 0.1839
vn -0.9898 0.0272 0.1402
vn -0.9722 0.2160 0.0909
vn -0.9172 0.3966 0.0378
vn -0.8271 0.5618 -0.0170
vn -0.7053 0.7053 -0.0714
vn -0.5562 0.8219 -0.1234
vn -0.3860 0.9066 -0.1706
vn -0.2008 0.9566 -0.2114
vn 0.1583 0.2462 0.9562
vn 0.1584 0.2463 0.9561
vn 0.1584 0.2465 0.9561
vn 0.1582 0.2466 0.9561
vn 0.1585 0.2463 0.9562
vn 0.1584 0.2464 0.9561
vn 0.1585 0.2463 0.9561
vn 0.1586 0.2463 0.9561
vn 0.1583 0.2463 0.9562
vn -0.0079 0.9697 -0.2440
vn 0.1853 0.9457 -0.2671
vn -0.2803 -0.6886 -0.6688
vn -0.2802 -0.6882 -0.6692
vn -0.2802 -0.6884 -0.6690
vn -0.2801 -0.6883 -0.6692
vn -0.2798 -0.6885 -0.6691
vn -0.2801 -0.6884 -0.6691
vn -0.2802 -0.6884 -0.6691
vn -0.2803 -0.6881 -0.6693
vn -0.2801 -0.6883 -0.6691
vn -0.2802 -0.6885 -0.6690
s 1
usemtl board_white
f 2//1 3//1 1//1
f 4//2 5//2 3//2
f 6//3 7//3 5//3
f 8//4 9//4 7//4
f 10//5 11//5 9//5
f 12//6 13//6 11//6
f 14//7 15//7 13//7
f 16//8 17//8 15//8
f 18//9 19//10 17//11
f 20//12 21//12 19//12
f 22//13 23//13 21//13
f 24//14 25//14 23//14
f 26//15 27//15 25//15
f 28//16 29//16 27//16
f 30//17 31//17 29//17
f 32//18 33//18 31//18
f 33//19 36//19 35//19
f 35//20 38//20 37//20
f 37//21 40//21 39//21
f 39//22 42//22 41//22
f 41//23 44//23 43//23
f 43//24 46//24 45//24
f 45//25 48//25 47//25
f 47//26 50//26 49//26
f 49//27 52//28 51//29
f 51//30 54//30 53//30
f 53//31 56//31 55//31
f 55//32 58//32 57//32
f 57//33 60//33 59//33
f 59//34 62//34 61//34
f 6//35 54//35 38//35
f 61//36 64//36 63//36
f 63//37 2//37 1//37
f 15//38 31//38 47//38
f 2//39 4//39 3//39
f 4//40 6//40 5//40
f 6//41 8//41 7//41
f 8//42 10//42 9//42
f 10//43 12//43 11//43
f 12//44 14//44 13//44
f 14//45 16//45 15//45
f 16//46 18//46 17//46
f 18//9 20//47 19//10
f 20//48 22//48 21//48
f 22//49 24//49 23//49
f 24//50 26//50 25//50
f 26//51 28//51 27//51
f 28//52 30//52 29//52
f 30//53 32//53 31//53
f 32//54 34//54 33//54
f 33//55 34//55 36//55
f 35//56 36//56 38//56
f 37//57 38//57 40//57
f 39//58 40//58 42//58
f 41//59 42//59 44//59
f 43//60 44//60 46//60
f 45//61 46//61 48//61
f 47//62 48//62 50//62
f 49//27 50//63 52//28
f 51//64 52//64 54//64
f 53//65 54//65 56//65
f 55//66 56//66 58//66
f 57//67 58//67 60//67
f 59//68 60//68 62//68
f 6//35 4//69 2//70
f 2//70 64//70 62//35
f 62//35 60//71 58//35
f 58//35 56//72 54//35
f 54//35 52//35 50//35
f 50//35 48//73 54//35
f 48//73 46//35 54//35
f 46//35 44//35 42//35
f 42//35 40//69 38//35
f 38//35 36//69 34//70
f 34//70 32//35 30//35
f 30//35 28//74 26//74
f 26//74 24//35 30//35
f 24//35 22//35 30//35
f 22//35 20//75 14//35
f 20//75 18//35 14//35
f 18//35 16//76 14//35
f 14//35 12//70 6//35
f 12//70 10//77 6//35
f 10//77 8//75 6//35
f 6//35 2//70 62//35
f 62//35 58//35 6//35
f 58//35 54//35 6//35
f 46//35 42//35 54//35
f 42//35 38//35 54//35
f 38//35 34//70 30//35
f 38//35 30//35 6//35
f 30//35 22//35 6//35
f 22//35 14//35 6//35
f 61//78 62//78 64//78
f 63//79 64//79 2//79
f 63//38 1//80 3//81
f 3//81 5//82 63//38
f 5//82 7//38 63//38
f 7//38 9//38 11//83
f 11//83 13//38 7//38
f 13//38 15//38 7//38
f 15//38 17//84 19//85
f 19//85 21//86 15//38
f 21//86 23//38 15//38
f 23//38 25//38 31//38
f 25//38 27//82 31//38
f 27//82 29//87 31//38
f 31//38 33//38 35//38
f 35//38 37//38 39//38
f 39//38 41//38 43//88
f 43//88 45//38 39//38
f 45//38 47//38 39//38
f 47//38 49//38 55//38
f 49//38 51//85 55//38
f 51//85 53//85 55//38
f 55//38 57//38 63//38
f 57//38 59//89 63//38
f 59//89 61//89 63//38
f 31//38 35//38 47//38
f 35//38 39//38 47//38
f 63//38 7//38 15//38
f 15//38 23//38 31//38
f 47//38 55//38 63//38
f 63//38 15//38 47//38
