# Blender 4.2.0
# www.blender.org
mtllib Cylinder_008.mtl
o Cylinder_008
v 0.129880 0.267886 0.766624
v -0.158185 -0.309273 -0.734662
v 0.123427 0.272220 0.765863
v -0.164509 -0.304710 -0.735103
v 0.117688 0.277131 0.763876
v -0.169866 -0.299122 -0.736141
v 0.112884 0.282431 0.760741
v -0.174049 -0.292722 -0.737736
v 0.109199 0.287915 0.756577
v -0.176899 -0.285757 -0.739828
v 0.106773 0.293374 0.751544
v -0.178306 -0.278495 -0.742335
v 0.105702 0.298597 0.745837
v -0.178215 -0.271215 -0.745161
v 0.106027 0.303384 0.739673
v -0.176631 -0.264195 -0.748198
v 0.107733 0.307550 0.733291
v -0.173614 -0.257707 -0.751329
v 0.110757 0.310936 0.726935
v -0.169279 -0.252000 -0.754434
v 0.114982 0.313411 0.720850
v -0.163794 -0.247292 -0.757393
v 0.120244 0.314881 0.715269
v -0.157370 -0.243765 -0.760092
v 0.126344 0.315288 0.710408
v -0.150252 -0.241554 -0.762428
v 0.133044 0.314618 0.706452
v -0.142715 -0.240744 -0.764312
v 0.140090 0.312895 0.703553
v -0.135049 -0.241367 -0.765670
v 0.147209 0.310187 0.701824
v -0.127548 -0.243398 -0.766451
v 0.154128 0.306597 0.701331
v -0.120500 -0.246760 -0.766624
v 0.160581 0.302263 0.702092
v -0.114176 -0.251322 -0.766183
v 0.166320 0.297351 0.704079
v -0.108819 -0.256911 -0.765145
v 0.171124 0.292052 0.707214
v -0.104635 -0.263310 -0.763549
v 0.174809 0.286567 0.711378
v -0.101786 -0.270275 -0.761458
v 0.177235 0.281108 0.716411
v -0.100379 -0.277537 -0.758951
v 0.178306 0.275885 0.722118
v -0.100470 -0.284818 -0.756124
v 0.177981 0.271099 0.728281
v -0.102055 -0.291837 -0.753088
v 0.176274 0.266932 0.734664
v -0.105072 -0.298325 -0.749957
v 0.173251 0.263546 0.741019
v -0.109406 -0.304033 -0.746852
v 0.169026 0.261071 0.747105
v -0.114891 -0.308740 -0.743893
v 0.163764 0.259602 0.752685
v -0.121316 -0.312268 -0.741194
v 0.157664 0.259194 0.757547
v -0.128433 -0.314478 -0.738857
v 0.150963 0.259865 0.761503
v -0.135970 -0.315288 -0.736974
v 0.143918 0.261587 0.764401
v -0.143636 -0.314665 -0.735616
v 0.136799 0.264296 0.766130
v -0.151137 -0.312634 -0.734835
vn 0.5447 0.7425 -0.3899
vn 0.6743 0.6367 -0.3741
vn 0.7878 0.5091 -0.3466
vn 0.8814 0.3593 -0.3067
vn 0.9489 0.1879 -0.2535
vn 0.9824 -0.0024 -0.1866
vn 0.9731 -0.2041 -0.1073
vn 0.9144 -0.4043 -0.0195
vn 0.8079 -0.5852 0.0697
vn 0.8102 -0.5822 0.0681
vn 0.8063 -0.5873 0.0708
vn 0.6570 -0.7376 0.1561
vn 0.4806 -0.8462 0.2303
vn 0.2921 -0.9113 0.2901
vn 0.1038 -0.9366 0.3346
vn -0.0768 -0.9279 0.3648
vn -0.2461 -0.8907 0.3821
vn -0.4026 -0.8291 0.3879
vn -0.5457 -0.7452 0.3831
vn -0.6748 -0.6398 0.3677
vn -0.7880 -0.5125 0.3413
vn -0.8815 -0.3625 0.3026
vn -0.9491 -0.1905 0.2507
vn -0.9827 0.0007 0.1851
vn -0.9733 0.2033 0.1067
vn -0.9144 0.4043 0.0194
vn -0.8102 0.5821 -0.0681
vn -0.8080 0.5851 -0.0697
vn -0.8064 0.5871 -0.0708
vn -0.6574 0.7371 -0.1565
vn -0.4817 0.8452 -0.2316
vn -0.2940 0.9099 -0.2926
vn -0.1063 0.9349 -0.3385
vn 0.0742 0.9261 -0.3700
vn 0.1909 0.3532 0.9159
vn 0.2438 0.8887 -0.3883
vn 0.4008 0.8267 -0.3947
vn -0.4093 -0.7101 -0.5730
vn -0.4093 -0.7100 -0.5730
vn 0.5567 0.7340 -0.3889
vn 0.7044 0.6068 -0.3682
vn 0.8251 0.4563 -0.3331
vn 0.9140 0.2883 -0.2853
vn 0.9679 0.1093 -0.2265
vn 0.9845 -0.0740 -0.1592
vn 0.9632 -0.2545 -0.0859
vn 0.9049 -0.4254 -0.0095
vn 0.8118 -0.5801 0.0670
vn 0.6874 -0.7125 0.1406
vn 0.5366 -0.8176 0.2086
vn 0.3650 -0.8914 0.2685
vn 0.1795 -0.9310 0.3179
vn -0.0130 -0.9347 0.3551
vn -0.2050 -0.9026 0.3787
vn -0.3890 -0.8357 0.3878
vn -0.5581 -0.7366 0.3821
vn -0.7057 -0.6092 0.3617
vn -0.8261 -0.4584 0.3276
vn -0.9149 -0.2899 0.2810
vn -0.9684 -0.1104 0.2236
vn -0.9848 0.0734 0.1575
vn -0.9633 0.2544 0.0852
vn -0.9050 0.4254 0.0094
vn -0.8118 0.5801 -0.0670
vn -0.6875 0.7123 -0.1411
vn -0.5368 0.8171 -0.2101
vn -0.3656 0.8904 -0.2711
vn -0.1803 0.9295 -0.3219
vn 0.0119 0.9328 -0.3603
vn 0.1909 0.3531 0.9159
vn 0.1910 0.3531 0.9159
vn 0.1910 0.3532 0.9159
vn 0.1909 0.3532 0.9158
vn 0.1908 0.3532 0.9159
vn 0.2037 0.9002 -0.3849
vn 0.3877 0.8331 -0.3946
vn -0.4094 -0.7101 -0.5729
vn -0.4094 -0.7100 -0.5729
vn -0.4092 -0.7101 -0.5730
vn -0.4090 -0.7102 -0.5730
vn -0.4093 -0.7102 -0.5729
vn -0.4092 -0.7100 -0.5731
vn -0.4094 -0.7100 -0.5730
vn -0.4095 -0.7099 -0.5731
vn -0.4095 -0.7098 -0.5731
vn -0.4093 -0.7103 -0.5727
s 1
usemtl board_white
f 2//1 3//1 1//1
f 4//2 5//2 3//2
f 6//3 7//3 5//3
f 8//4 9//4 7//4
f 10//5 11//5 9//5
f 12//6 13//6 11//6
f 14//7 15//7 13//7
f 16//8 17//8 15//8
f 18//9 19//10 17//11
f 20//12 21//12 19//12
f 22//13 23//13 21//13
f 24//14 25//14 23//14
f 26//15 27//15 25//15
f 28//16 29//16 27//16
f 30//17 31//17 29//17
f 32//18 33//18 31//18
f 33//19 36//19 35//19
f 35//20 38//20 37//20
f 37//21 40//21 39//21
f 39//22 42//22 41//22
f 41//23 44//23 43//23
f 43//24 46//24 45//24
f 45//25 48//25 47//25
f 47//26 50//26 49//26
f 49//27 52//28 51//29
f 51//30 54//30 53//30
f 53//31 56//31 55//31
f 55//32 58//32 57//32
f 57//33 60//33 59//33
f 59//34 62//34 61//34
f 54//35 38//35 22//35
f 61//36 64//36 63//36
f 63//37 2//37 1//37
f 15//38 31//38 47//39
f 2//40 4//40 3//40
f 4//41 6//41 5//41
f 6//42 8//42 7//42
f 8//43 10//43 9//43
f 10//44 12//44 11//44
f 12//45 14//45 13//45
f 14//46 16//46 15//46
f 16//47 18//47 17//47
f 18//9 20//48 19//10
f 20//49 22//49 21//49
f 22//50 24//50 23//50
f 24//51 26//51 25//51
f 26//52 28//52 27//52
f 28//53 30//53 29//53
f 30//54 32//54 31//54
f 32//55 34//55 33//55
f 33//56 34//56 36//56
f 35//57 36//57 38//57
f 37//58 38//58 40//58
f 39//59 40//59 42//59
f 41//60 42//60 44//60
f 43//61 44//61 46//61
f 45//62 46//62 48//62
f 47//63 48//63 50//63
f 49//27 50//64 52//28
f 51//65 52//65 54//65
f 53//66 54//66 56//66
f 55//67 56//67 58//67
f 57//68 58//68 60//68
f 59//69 60//69 62//69
f 6//35 4//70 2//35
f 2//35 64//35 62//35
f 62//35 60//70 58//35
f 58//35 56//71 62//35
f 56//71 54//35 62//35
f 54//35 52//71 50//72
f 50//72 48//71 46//35
f 46//35 44//72 38//35
f 44//72 42//72 38//35
f 42//72 40//70 38//35
f 38//35 36//72 34//70
f 34//70 32//35 38//35
f 32//35 30//35 38//35
f 30//35 28//35 22//35
f 28//35 26//73 22//35
f 26//73 24//35 22//35
f 22//35 20//35 18//35
f 18//35 16//74 14//35
f 14//35 12//72 10//72
f 10//72 8//70 6//35
f 6//35 2//35 54//35
f 2//35 62//35 54//35
f 54//35 50//72 38//35
f 50//72 46//35 38//35
f 22//35 18//35 14//35
f 14//35 10//72 22//35
f 10//72 6//35 22//35
f 38//35 30//35 22//35
f 6//35 54//35 22//35
f 61//75 62//75 64//75
f 63//76 64//76 2//76
f 63//38 1//39 3//38
f 3//38 5//77 7//38
f 7//38 9//78 15//38
f 9//78 11//39 15//38
f 11//39 13//79 15//38
f 15//38 17//80 19//79
f 19//79 21//39 15//38
f 21//39 23//38 15//38
f 23//38 25//39 31//38
f 25//39 27//81 31//38
f 27//81 29//39 31//38
f 31//38 33//82 35//39
f 35//39 37//82 39//39
f 39//39 41//78 47//39
f 41//78 43//79 47//39
f 43//79 45//39 47//39
f 47//39 49//83 55//38
f 49//83 51//84 55//38
f 51//84 53//85 55//38
f 55//38 57//39 59//38
f 59//38 61//86 63//38
f 63//38 3//38 15//38
f 3//38 7//38 15//38
f 31//38 35//39 47//39
f 35//39 39//39 47//39
f 55//38 59//38 47//39
f 59//38 63//38 47//39
f 15//38 23//38 31//38
f 63//38 15//38 47//39
