# Blender 4.2.0
# www.blender.org
mtllib Cylinder_005.mtl
o Cylinder_005
v -0.139561 -0.170110 0.057626
v -0.139561 -0.203224 0.048385
v -0.166215 -0.170110 0.048385
v -0.139561 -0.203224 -0.048385
v -0.139561 -0.170110 -0.057626
v -0.166215 -0.170110 -0.048385
v -0.139561 0.176657 0.057626
v -0.166215 0.176657 0.048385
v -0.139561 0.209771 0.048385
v -0.139561 0.176657 -0.057626
v -0.139561 0.209771 -0.048385
v -0.166215 0.176657 -0.048385
v 0.139561 -0.170110 0.057626
v 0.166215 -0.170110 0.048385
v 0.139561 -0.203224 0.048385
v 0.139561 -0.170110 -0.057626
v 0.139561 -0.203224 -0.048385
v 0.166215 -0.170110 -0.048385
v 0.139561 0.176657 0.057626
v 0.139561 0.209771 0.048385
v 0.166215 0.176657 0.048385
v 0.139561 0.176657 -0.057626
v 0.166215 0.176657 -0.048385
v 0.139561 0.209771 -0.048385
v -0.112108 0.209771 0.025611
v -0.112108 0.209771 -0.025611
v 0.028296 0.209771 -0.025611
v 0.028296 0.209771 0.025611
v 0.028296 0.193469 0.025611
v 0.028296 0.193469 -0.025611
v -0.112108 0.193469 0.025611
v -0.112108 0.193469 -0.025611
v -0.093040 -0.170110 0.057626
v -0.046520 -0.170110 0.057626
v 0.000000 -0.170110 0.057626
v 0.046520 -0.170110 0.057626
v 0.093040 -0.170110 0.057626
v -0.093040 -0.203224 0.048385
v -0.046520 -0.203224 0.048385
v 0.000000 -0.203224 0.048385
v 0.046520 -0.203224 0.048385
v 0.093040 -0.203224 0.048385
v -0.093040 0.176657 0.057626
v -0.046520 0.176657 0.057626
v 0.000000 0.176657 0.057626
v 0.046520 0.176657 0.057626
v 0.093040 0.176657 0.057626
v -0.093040 0.209771 0.048385
v -0.046520 0.209771 0.048385
v 0.000000 0.209771 0.048385
v 0.046520 0.209771 0.048385
v 0.093040 0.209771 0.048385
v -0.139561 0.209771 0.040922
v 0.139561 0.209771 0.040917
v -0.130576 0.209771 0.040931
v 0.139561 -0.209771 0.040917
v 0.139561 0.209771 0.037450
v 0.139561 -0.209771 0.037450
v 0.139561 -0.203224 0.040919
v 0.139561 -0.203224 0.038923
v -0.139561 -0.203224 0.038934
v -0.139561 -0.203224 0.040929
v 0.166215 0.176657 0.040917
v 0.166215 0.176657 0.038922
v 0.166215 -0.170110 0.040917
v 0.166215 -0.170110 0.038922
v -0.166215 -0.170110 0.040924
v -0.166215 -0.170110 0.038929
v -0.166215 0.176657 0.040924
v -0.166215 0.176657 0.038929
v -0.128170 0.209771 0.038936
v -0.139561 0.209771 0.038934
v 0.139561 0.209771 0.038923
v -0.139561 0.209771 0.040929
v 0.139561 0.209771 0.040919
v 0.139561 -0.209770 0.040917
v 0.139561 -0.154929 0.038923
v 0.139561 -0.208816 0.038923
v 0.102915 -0.203224 0.040920
v -0.139561 -0.203224 0.040930
v 0.139561 -0.203224 0.040918
v 0.101293 -0.203224 0.038925
v -0.139561 -0.203224 0.038935
v 0.139561 -0.203224 0.038923
v 0.166215 0.176657 0.040917
v 0.166215 -0.170110 0.040917
v 0.166215 0.176657 0.038922
v 0.166215 -0.170110 0.038922
v -0.166215 -0.170110 0.040925
v -0.166215 0.176657 0.040925
v -0.166215 -0.170110 0.038930
v -0.166215 0.176657 0.038930
v -0.130575 0.209771 0.040931
v -0.130867 0.209771 0.040931
v -0.129728 0.209771 0.038935
v -0.139561 0.209771 0.038935
v -0.128170 0.209771 0.038935
v -0.085611 0.209771 0.040929
v 0.139561 0.209771 0.038923
v -0.139561 0.209771 0.040930
v 0.139561 0.209771 0.040918
v -0.131760 0.209771 0.040931
v 0.139561 -0.209771 0.038923
v 0.139561 -0.164804 0.038923
v 0.129439 -0.202128 0.040919
v 0.125816 0.181032 0.040919
v 0.155134 0.165097 0.040918
v 0.129285 -0.202111 0.038923
v 0.129285 -0.155439 0.038923
v 0.101293 -0.104928 0.038925
v -0.139561 -0.203224 0.040657
v 0.139561 -0.203224 0.040645
v 0.139561 -0.203224 0.038663
v -0.139561 -0.203224 0.038675
v 0.166215 0.176657 0.040644
v 0.166215 -0.170110 0.040644
v 0.166215 0.176657 0.038662
v 0.166215 -0.170110 0.038662
v -0.166215 -0.170110 0.040652
v -0.166215 0.176657 0.040652
v -0.166215 -0.170110 0.038670
v -0.166215 0.176657 0.038670
v -0.139561 0.209771 0.040657
v -0.130246 0.209771 0.040658
v -0.127857 0.209771 0.038676
v -0.139561 0.209771 0.038675
v 0.139561 0.209771 0.040645
v 0.139561 0.209771 0.038663
v 0.139561 -0.209771 0.040645
v 0.139561 -0.209640 0.040645
v 0.139561 -0.172733 0.038663
v 0.139561 -0.209771 0.038663
v 0.139561 -0.169131 0.040645
vn -0.0000 1.0000 -0.0000
vn -0.0000 1.0000 -0.0001
vn -1.0000 -0.0000 -0.0000
vn -0.0000 -0.0000 1.0000
vn 1.0000 -0.0000 -0.0000
vn -0.0000 -1.0000 -0.0000
vn -0.0000 -1.0000 -0.0018
vn -0.0000 -1.0000 -0.0021
vn -0.0000 -1.0000 0.0020
vn -0.0000 -0.9999 0.0108
vn -0.0000 -0.9984 -0.0559
vn -0.0000 -1.0000 0.0099
vn 0.3167 0.2550 -0.9136
vn 0.3167 0.2550 0.9136
vn 0.3167 -0.2550 -0.9136
vn 0.3167 -0.2550 0.9136
vn -0.3167 0.2550 -0.9136
vn -0.3167 0.2550 0.9136
vn -0.3167 -0.2550 -0.9136
vn -0.3167 -0.2550 0.9136
vn 0.3276 -0.0000 -0.9448
vn 0.7790 0.6270 -0.0000
vn 0.7791 0.6269 -0.0000
vn 0.7795 0.6264 -0.0000
vn 0.7798 0.6260 -0.0000
vn 0.7794 0.6265 -0.0000
vn 0.7802 0.6255 -0.0000
vn 0.7809 0.6247 -0.0000
vn 0.3276 -0.0000 0.9448
vn 0.7790 -0.6270 -0.0000
vn 0.7795 -0.6264 -0.0000
vn 0.7791 -0.6269 -0.0000
vn 0.7788 -0.6273 -0.0000
vn 0.7794 -0.6266 -0.0000
vn 0.7803 -0.6255 -0.0000
vn 0.7809 -0.6247 -0.0000
vn -0.0000 -0.2688 -0.9632
vn -0.0000 -0.2688 0.9632
vn -0.7790 -0.6270 -0.0000
vn -0.7762 -0.6305 -0.0000
vn -0.3276 -0.0000 -0.9448
vn -0.3276 -0.0000 0.9448
vn -0.7790 0.6270 -0.0000
vn -0.7762 0.6305 -0.0000
vn -0.7783 0.6279 -0.0000
vn -0.7813 0.6242 -0.0000
vn -0.7834 0.6215 -0.0000
vn -0.0000 0.2688 -0.9632
vn -0.0000 0.2688 0.9632
vn -0.0000 -0.0000 -1.0000
vn -0.0000 -1.0000 -0.0011
vn 0.0001 0.0011 -1.0000
vn -0.0000 0.0002 -1.0000
vn -0.0000 0.0001 -1.0000
vn -0.0001 -0.0001 1.0000
vn -0.0000 -0.0001 1.0000
vn 0.0001 0.0001 -1.0000
vn 0.7788 0.6273 -0.0000
vn 0.7798 -0.6260 -0.0000
vn -0.7791 -0.6269 -0.0000
vn -0.7834 -0.6215 -0.0000
vn 0.0002 0.0022 -1.0000
vn -0.0000 0.0007 -1.0000
vn -0.0000 -0.0001 -1.0000
vn -0.0000 -0.0002 -1.0000
vn 0.0002 -0.0000 -1.0000
vn -0.0000 0.0001 1.0000
vn -0.0000 0.0002 1.0000
vn -0.0002 -0.0001 1.0000
vn -0.0000 0.0004 -1.0000
vn -0.0001 -0.0002 -1.0000
s 1
usemtl Carbon_Fiber_NH_02
f 80//1 39//1 40//1
f 79//1 62//1 80//1
f 61//1 83//1 82//1
f 59//1 81//1 79//1
f 79//1 81//1 112//1
f 82//1 83//1 111//1
f 82//1 60//1 84//1
f 82//2 84//1 113//1
f 113//1 4//1 114//1
f 14//3 63//3 65//3
f 65//3 85//3 86//3
f 86//3 115//3 116//3
f 64//3 116//3 115//3
f 66//3 87//3 88//3
f 88//3 117//3 118//3
f 23//3 118//3 117//3
f 10//4 16//4 22//4
f 3//5 90//5 8//5
f 67//5 90//5 89//5
f 70//5 91//5 68//5
f 67//5 120//5 69//5
f 92//5 119//5 91//5
f 68//5 122//5 70//5
f 6//5 122//5 121//5
f 72//6 95//6 96//6
f 55//6 94//6 93//6
f 94//7 53//8 123//6
f 95//6 71//6 124//6
f 95//6 126//6 125//6
f 25//6 125//6 126//6
f 97//9 71//10 95//6
f 98//11 55//11 93//11
f 98//6 124//6 127//6
f 71//6 127//6 124//6
f 99//6 125//6 128//6
f 27//6 24//6 128//6
f 73//12 97//9 99//6
f 1//13 2//13 3//13
f 4//14 5//14 6//14
f 7//15 8//15 9//15
f 10//16 11//16 12//16
f 13//17 14//17 15//17
f 16//18 17//18 18//18
f 19//19 20//19 21//19
f 22//20 23//20 24//20
f 1//21 8//21 7//21
f 3//22 80//22 89//22
f 62//23 89//24 80//25
f 61//26 91//27 83//28
f 67//22 111//22 119//22
f 83//22 119//22 111//22
f 68//22 114//22 121//22
f 4//22 121//22 114//22
f 10//29 6//29 5//29
f 8//30 100//30 9//30
f 69//31 100//32 90//33
f 70//34 96//35 92//36
f 53//30 69//30 123//30
f 120//30 96//30 123//30
f 70//30 126//30 72//30
f 122//30 11//30 126//30
f 7//37 48//37 43//37
f 22//38 11//38 10//38
f 21//39 75//39 63//39
f 75//40 85//40 63//40
f 54//39 127//39 115//39
f 73//39 115//39 127//39
f 73//40 87//40 64//40
f 87//39 128//39 117//39
f 24//39 117//39 128//39
f 19//41 14//41 13//41
f 16//42 23//42 22//42
f 59//43 14//43 65//43
f 59//44 86//44 81//44
f 112//43 86//43 116//43
f 116//43 60//43 112//43
f 60//45 88//46 84//47
f 113//43 88//43 118//43
f 118//43 17//43 113//43
f 13//48 42//48 37//48
f 5//49 17//49 16//49
f 19//50 37//50 47//50
f 32//50 27//50 30//50
f 30//5 28//5 29//5
f 32//3 25//3 26//3
f 31//4 28//4 25//4
f 43//50 1//50 7//50
f 44//50 33//50 43//50
f 45//50 34//50 44//50
f 46//50 35//50 45//50
f 47//50 36//50 46//50
f 33//48 2//48 1//48
f 34//48 38//48 33//48
f 35//48 39//48 34//48
f 36//48 40//48 35//48
f 37//48 41//48 36//48
f 47//37 20//37 19//37
f 46//37 52//37 47//37
f 45//37 51//37 46//37
f 44//37 50//37 45//37
f 43//37 49//37 44//37
f 75//6 51//6 50//6
f 75//6 98//6 101//6
f 101//6 98//6 54//6
f 55//6 100//6 102//6
f 74//6 102//6 100//6
f 94//6 55//6 102//6
f 53//8 102//51 74//6
f 76//5 129//5 130//5
f 78//5 103//5 104//5
f 131//5 128//5 104//5
f 57//5 128//5 131//5
f 76//5 130//5 133//5
f 77//5 127//5 133//5
f 63//50 107//50 106//52
f 102//53 106//50 69//54
f 64//4 73//4 77//4
f 110//4 109//4 77//4
f 109//4 110//4 82//4
f 85//50 107//50 106//50
f 102//53 106//50 90//54
f 95//55 96//56 92//56
f 104//4 99//4 110//4
f 104//4 84//4 88//4
f 120//54 123//57 124//53
f 116//50 112//50 133//50
f 117//4 128//4 131//4
f 131//4 125//56 122//56
f 59//1 79//1 15//1
f 79//1 80//1 40//1
f 15//1 79//1 42//1
f 80//1 2//1 38//1
f 80//1 38//1 39//1
f 42//1 79//1 41//1
f 41//1 79//1 40//1
f 112//1 111//1 79//1
f 111//1 62//1 79//1
f 111//1 112//1 82//1
f 112//1 60//1 82//1
f 113//1 114//2 82//2
f 114//1 61//1 82//1
f 113//1 17//1 4//1
f 14//3 21//3 63//3
f 65//3 63//3 85//3
f 86//3 85//3 115//3
f 64//3 66//3 116//3
f 66//3 64//3 87//3
f 88//3 87//3 117//3
f 23//3 18//3 118//3
f 10//4 5//4 16//4
f 3//5 89//5 90//5
f 67//5 69//5 90//5
f 70//5 92//5 91//5
f 67//5 119//5 120//5
f 92//5 120//5 119//5
f 68//5 121//5 122//5
f 6//5 12//5 122//5
f 123//6 124//6 94//7
f 124//6 93//6 94//7
f 123//6 96//6 124//6
f 96//6 95//6 124//6
f 125//6 97//6 95//6
f 95//6 72//6 126//6
f 11//6 26//6 126//6
f 26//6 25//6 126//6
f 127//6 54//6 98//6
f 98//6 93//6 124//6
f 71//6 73//6 127//6
f 99//6 97//6 125//6
f 128//6 125//6 28//6
f 125//6 25//6 28//6
f 26//6 11//6 27//6
f 11//6 24//6 27//6
f 128//6 28//6 27//6
f 73//12 71//10 97//9
f 1//21 3//21 8//21
f 3//22 2//22 80//22
f 62//23 67//58 89//24
f 61//26 68//58 91//27
f 67//22 62//22 111//22
f 83//22 91//22 119//22
f 68//22 61//22 114//22
f 4//22 6//22 121//22
f 10//29 12//29 6//29
f 8//30 90//30 100//30
f 69//31 74//59 100//32
f 70//34 72//33 96//35
f 53//30 74//30 69//30
f 69//30 120//30 123//30
f 120//30 92//30 96//30
f 70//30 122//30 126//30
f 122//30 12//30 11//30
f 7//37 9//37 48//37
f 22//38 24//38 11//38
f 21//39 20//39 75//39
f 75//40 101//40 85//40
f 115//39 85//39 54//60
f 85//39 101//60 54//60
f 73//39 64//39 115//39
f 73//61 99//61 87//61
f 87//39 99//39 128//39
f 24//39 23//39 117//39
f 19//41 21//41 14//41
f 16//42 18//42 23//42
f 59//43 15//43 14//43
f 59//44 65//44 86//44
f 112//43 81//43 86//43
f 116//43 66//43 60//43
f 60//45 66//44 88//46
f 113//43 84//43 88//43
f 118//43 18//43 17//43
f 13//48 15//48 42//48
f 5//49 4//49 17//49
f 19//50 13//50 37//50
f 32//50 26//50 27//50
f 30//5 27//5 28//5
f 32//3 31//3 25//3
f 31//4 29//4 28//4
f 43//50 33//50 1//50
f 44//50 34//50 33//50
f 45//50 35//50 34//50
f 46//50 36//50 35//50
f 47//50 37//50 36//50
f 33//48 38//48 2//48
f 34//48 39//48 38//48
f 35//48 40//48 39//48
f 36//48 41//48 40//48
f 37//48 42//48 41//48
f 47//37 52//37 20//37
f 46//37 51//37 52//37
f 45//37 50//37 51//37
f 44//37 49//37 50//37
f 43//37 48//37 49//37
f 9//6 55//6 48//6
f 55//6 75//6 50//6
f 48//6 55//6 49//6
f 75//6 20//6 52//6
f 75//6 52//6 51//6
f 49//6 55//6 50//6
f 75//6 55//6 98//6
f 55//6 9//6 100//6
f 53//8 94//7 102//51
f 76//5 56//5 129//5
f 99//5 73//5 77//5
f 78//5 130//5 103//5
f 130//5 129//5 103//5
f 99//5 77//5 104//5
f 77//5 78//5 104//5
f 128//5 99//5 104//5
f 104//5 103//5 131//5
f 103//5 132//5 131//5
f 131//5 132//5 58//5
f 58//5 57//5 131//5
f 127//5 54//5 133//5
f 54//5 76//5 133//5
f 130//5 78//5 133//5
f 78//5 77//5 133//5
f 77//5 73//5 127//5
f 106//52 102//62 55//63
f 55//63 75//50 106//52
f 75//50 63//50 106//52
f 63//50 65//50 107//50
f 65//50 59//50 105//64
f 107//50 65//50 105//64
f 59//50 79//65 105//64
f 106//50 107//50 79//50
f 107//50 105//50 79//50
f 79//50 62//65 67//64
f 106//50 67//64 69//54
f 79//50 67//64 106//50
f 69//54 74//66 102//53
f 77//4 60//4 66//4
f 66//4 64//4 77//4
f 108//67 82//68 60//4
f 77//4 73//4 110//4
f 73//4 71//55 110//4
f 108//67 60//4 77//4
f 109//4 108//67 77//4
f 71//55 95//69 110//4
f 72//55 70//55 95//55
f 70//55 68//67 110//4
f 95//55 70//55 110//4
f 68//67 61//67 110//4
f 61//67 82//4 110//4
f 82//4 108//4 109//4
f 98//50 101//50 106//50
f 101//50 85//50 106//50
f 85//50 86//50 107//50
f 86//50 81//50 105//50
f 107//50 86//50 105//50
f 81//50 79//50 105//50
f 93//70 98//50 106//50
f 106//50 102//71 94//71
f 94//71 93//70 106//50
f 79//50 80//65 89//64
f 106//50 89//64 90//54
f 79//50 89//64 106//50
f 90//54 100//57 102//53
f 92//56 91//67 110//4
f 91//67 83//67 110//4
f 83//67 82//4 110//4
f 110//4 95//55 92//56
f 108//4 82//4 84//4
f 108//4 84//4 104//4
f 109//4 108//4 104//4
f 97//4 95//4 110//4
f 110//4 109//4 104//4
f 99//4 97//4 110//4
f 88//4 87//4 104//4
f 87//4 99//4 104//4
f 124//53 127//50 120//54
f 127//50 133//50 120//54
f 133//50 112//50 111//65
f 111//65 119//64 133//50
f 119//64 120//54 133//50
f 133//50 127//50 115//50
f 115//50 116//50 133//50
f 113//4 118//4 131//4
f 118//4 117//4 131//4
f 121//67 114//68 131//4
f 114//68 113//4 131//4
f 131//4 128//4 125//56
f 126//56 122//56 125//56
f 122//56 121//67 131//4
