# Blender 4.2.0
# www.blender.org
mtllib LaptopKeyboard_BronzeLaptop_0.mtl
o LaptopKeyboard_BronzeLaptop_0
v 0.189752 0.037797 0.000315
v 0.189752 0.037797 -0.000312
v 0.186229 0.037797 -0.000312
v 0.186229 0.037797 0.000315
v 0.189752 0.048354 -0.002433
v 0.189752 0.048999 -0.002433
v 0.186229 0.048999 -0.002433
v 0.186229 0.048354 -0.002433
v 0.189752 0.048999 0.002436
v 0.189752 0.048354 0.002436
v 0.186229 0.048354 0.002436
v 0.186229 0.048999 0.002436
v 0.189752 0.040409 0.002436
v 0.189752 0.039813 0.002436
v 0.186229 0.039813 0.002436
v 0.186229 0.040409 0.002436
v 0.189752 0.051183 -0.000312
v 0.189752 0.051183 0.000315
v 0.186229 0.051183 0.000315
v 0.186229 0.051183 -0.000312
v 0.189752 0.042425 -0.000312
v 0.189752 0.042425 0.000315
v 0.186229 0.042425 0.000315
v 0.186229 0.042425 -0.000312
v 0.189752 0.046170 0.000315
v 0.189752 0.046170 -0.000312
v 0.186229 0.046170 -0.000312
v 0.186229 0.046170 0.000315
v 0.189752 0.039813 -0.002433
v 0.189752 0.040409 -0.002433
v 0.186229 0.040409 -0.002433
v 0.186229 0.039813 -0.002433
v 0.186229 0.050091 0.002152
v 0.189752 0.050091 0.002152
v 0.186229 0.050890 0.001376
v 0.189752 0.050890 0.001376
v 0.189752 0.050091 -0.002149
v 0.186229 0.050091 -0.002149
v 0.189752 0.050890 -0.001373
v 0.186229 0.050890 -0.001373
v 0.186229 0.042155 -0.001373
v 0.189752 0.042155 -0.001373
v 0.186229 0.041417 -0.002149
v 0.189752 0.041417 -0.002149
v 0.189752 0.038067 -0.001373
v 0.186229 0.038067 -0.001373
v 0.189752 0.038805 -0.002149
v 0.186229 0.038805 -0.002149
v 0.189752 0.046463 -0.001373
v 0.186229 0.046463 -0.001373
v 0.189752 0.047262 -0.002149
v 0.186229 0.047262 -0.002149
v 0.189752 0.038805 0.002152
v 0.186229 0.038805 0.002152
v 0.189752 0.038067 0.001376
v 0.186229 0.038067 0.001376
v 0.189752 0.038067 0.001376
v 0.186229 0.041417 0.002152
v 0.189752 0.041417 0.002152
v 0.186229 0.042155 0.001376
v 0.189752 0.042155 0.001376
v 0.186229 0.046463 0.001376
v 0.189752 0.046463 0.001376
v 0.189752 0.046463 0.001376
v 0.186229 0.047262 0.002152
v 0.189752 0.047262 0.002152
vn -0.0000 0.9922 -0.1244
vn -0.0000 0.9922 0.1244
vn -0.0000 0.1270 0.9919
vn -0.0000 -0.1270 0.9919
vn -0.0000 -0.1270 -0.9919
vn -0.0000 0.1270 -0.9919
vn -0.0000 -0.1370 -0.9906
vn -0.0000 0.1370 -0.9906
vn -0.0000 -0.9910 0.1342
vn -0.0000 -0.9910 -0.1342
vn -0.0000 -0.9922 0.1244
vn -0.0000 -0.9922 -0.1244
vn -0.0000 0.9910 -0.1342
vn -0.0000 0.9910 0.1342
vn -0.0000 0.1370 0.9906
vn -0.0000 -0.1370 0.9906
vn -0.0000 -0.4906 -0.8714
vn -0.0000 -0.8605 -0.5094
vn -0.0000 -0.4906 0.8714
vn -0.0000 -0.8605 0.5094
vn -0.0000 -0.8753 0.4835
vn -0.0000 -0.5165 0.8563
vn -0.0000 0.8753 0.4835
vn -0.0000 0.5165 0.8563
vn -0.0000 0.8605 0.5094
vn -0.0000 0.4906 0.8714
vn -0.0000 0.5165 -0.8563
vn -0.0000 0.8752 -0.4838
vn -0.0000 0.8755 -0.4833
vn -0.0000 -0.5165 -0.8563
vn -0.0000 -0.8753 -0.4835
vn -0.0000 0.8607 -0.5092
vn -0.0000 0.8604 -0.5097
vn -0.0000 0.4906 -0.8714
s 1
usemtl BronzeLaptop
f 1//1 2//2 3//2
f 1//1 3//2 4//1
f 5//3 6//4 7//4
f 5//3 7//4 8//3
f 9//5 10//6 11//6
f 9//5 11//6 12//5
f 13//7 14//8 15//8
f 13//7 15//8 16//7
f 17//9 18//10 19//10
f 17//9 19//10 20//9
f 21//11 22//12 23//12
f 21//11 23//12 24//11
f 25//13 26//14 27//14
f 25//13 27//14 28//13
f 29//15 30//16 31//16
f 29//15 31//16 32//15
f 9//5 12//5 33//17
f 9//5 33//17 34//17
f 34//17 33//17 35//18
f 34//17 35//18 36//18
f 36//18 35//18 19//10
f 36//18 19//10 18//10
f 7//4 6//4 37//19
f 7//4 37//19 38//19
f 38//19 37//19 39//20
f 38//19 39//20 40//20
f 40//20 39//20 17//9
f 40//20 17//9 20//9
f 21//11 24//11 41//21
f 21//11 41//21 42//21
f 42//21 41//21 43//22
f 42//21 43//22 44//22
f 44//22 43//22 31//16
f 44//22 31//16 30//16
f 3//2 2//2 45//23
f 3//2 45//23 46//23
f 46//23 45//23 47//24
f 46//23 47//24 48//24
f 48//24 47//24 29//15
f 48//24 29//15 32//15
f 27//14 26//14 49//25
f 27//14 49//25 50//25
f 50//25 49//25 51//26
f 50//25 51//26 52//26
f 52//26 51//26 5//3
f 52//26 5//3 8//3
f 15//8 14//8 53//27
f 15//8 53//27 54//27
f 54//27 53//27 55//28
f 54//27 55//28 56//28
f 56//29 57//29 1//1
f 56//29 1//1 4//1
f 13//7 16//7 58//30
f 13//7 58//30 59//30
f 59//30 58//30 60//31
f 59//30 60//31 61//31
f 61//31 60//31 23//12
f 61//31 23//12 22//12
f 25//13 28//13 62//32
f 25//13 62//32 63//32
f 64//33 62//33 65//34
f 64//33 65//34 66//34
f 66//34 65//34 11//6
f 66//34 11//6 10//6
