# Blender 4.2.0
# www.blender.org
mtllib LaptopKeyboard_LaptopRed_0.mtl
o LaptopKeyboard_LaptopRed_0
v 0.162078 -0.131706 0.010675
v 0.171511 -0.130630 0.011216
v 0.162078 -0.132197 0.010675
v -0.171235 -0.130630 0.011216
v -0.161578 -0.131716 0.010675
v -0.161578 -0.132197 0.010675
v -0.033484 0.038792 0.006985
v 0.019748 0.038932 0.006985
v 0.019748 0.038932 0.006435
v -0.033484 0.038792 0.006435
v -0.033448 0.098277 0.006985
v -0.033484 0.038792 0.006985
v -0.033484 0.038792 0.006435
v -0.033448 0.098277 0.006435
v 0.072980 0.039073 0.006985
v 0.072999 0.098427 0.006985
v 0.072999 0.098427 0.006435
v 0.072980 0.039073 0.006435
v 0.072980 0.039073 0.006985
v 0.072980 0.039073 0.006435
v -0.027383 0.114129 0.006985
v -0.033442 0.109977 0.006985
v -0.033442 0.109977 0.005914
v -0.027383 0.114129 0.005914
v -0.033442 0.109977 0.006985
v -0.033448 0.098277 0.006985
v -0.033448 0.098277 0.005900
v -0.033442 0.109977 0.005914
v 0.072999 0.098427 0.006985
v 0.073002 0.110052 0.006985
v 0.073002 0.110052 0.005914
v 0.072999 0.098427 0.005900
v 0.066947 0.114196 0.006985
v 0.019782 0.114163 0.006985
v 0.019782 0.114163 0.005914
v 0.066947 0.114196 0.005914
v 0.073002 0.110052 0.006985
v 0.066947 0.114196 0.006985
v 0.066947 0.114196 0.005914
v 0.073002 0.110052 0.005914
v -0.027383 0.114129 0.006985
v -0.027383 0.114129 0.005914
v 0.019782 0.114163 0.006985
v 0.066947 0.114196 0.006985
v 0.067338 0.114601 0.006985
v 0.019782 0.114567 0.006985
v 0.072980 0.039073 0.006985
v 0.019748 0.038932 0.006985
v 0.019748 0.038191 0.006985
v 0.073421 0.038334 0.006985
v 0.073002 0.110052 0.006985
v 0.072999 0.098427 0.006985
v 0.073440 0.098592 0.006985
v 0.073444 0.110394 0.006985
v 0.072999 0.098427 0.006985
v 0.072980 0.039073 0.006985
v 0.073421 0.038334 0.006985
v 0.073440 0.098592 0.006985
v -0.033448 0.098277 0.006985
v -0.033442 0.109977 0.006985
v -0.033883 0.110317 0.006985
v -0.033890 0.098440 0.006985
v -0.027383 0.114129 0.006985
v -0.027774 0.114533 0.006985
v -0.033484 0.038792 0.006985
v -0.033926 0.038048 0.006985
v -0.033484 0.038792 0.006985
v -0.033448 0.098277 0.006985
v -0.033890 0.098440 0.006985
v -0.033926 0.038048 0.006985
v 0.073444 0.110394 0.006985
v 0.073440 0.098592 0.006985
v 0.073440 0.098592 0.006040
v 0.073444 0.110394 0.006040
v 0.019748 0.038191 0.006985
v -0.033926 0.038048 0.006985
v -0.033926 0.038048 0.006040
v 0.019748 0.038191 0.006040
v -0.033926 0.038048 0.006985
v -0.033890 0.098440 0.006985
v -0.033890 0.098440 0.006040
v -0.033926 0.038048 0.006040
v -0.033890 0.098440 0.006985
v -0.033883 0.110317 0.006985
v -0.033883 0.110317 0.006040
v -0.033890 0.098440 0.006040
v -0.033883 0.110317 0.006985
v -0.027774 0.114533 0.006985
v -0.027774 0.114533 0.006040
v -0.033883 0.110317 0.006040
v 0.073421 0.038334 0.006985
v 0.073421 0.038334 0.006040
v -0.027774 0.114533 0.006985
v 0.019782 0.114567 0.006985
v 0.019782 0.114567 0.006040
v -0.027774 0.114533 0.006040
v 0.067338 0.114601 0.006985
v 0.073444 0.110394 0.006985
v 0.073444 0.110394 0.006040
v 0.067338 0.114601 0.006040
v 0.073440 0.098592 0.006985
v 0.073421 0.038334 0.006985
v 0.073421 0.038334 0.006040
v 0.073440 0.098592 0.006040
v 0.067338 0.114601 0.006985
v 0.067338 0.114601 0.006040
v 0.126416 -0.131706 0.008330
v 0.135849 -0.131716 0.008875
v 0.135849 -0.132197 0.008875
v 0.126416 -0.132197 0.008330
v -0.113291 -0.131716 0.007882
v -0.103634 -0.131716 0.007210
v -0.103634 -0.132197 0.007210
v -0.113291 -0.132197 0.007882
v 0.135849 -0.131716 0.008875
v 0.145282 -0.131716 0.009521
v 0.145282 -0.132197 0.009521
v 0.135849 -0.132197 0.008875
v -0.103634 -0.131716 0.007210
v -0.093977 -0.131716 0.006539
v -0.093977 -0.132197 0.006539
v -0.103634 -0.132197 0.007210
v 0.145282 -0.131716 0.009521
v 0.154715 -0.131716 0.010069
v 0.154715 -0.132197 0.010069
v 0.145282 -0.132197 0.009521
v 0.154715 -0.131716 0.010069
v 0.162078 -0.131706 0.010675
v 0.162078 -0.132197 0.010675
v 0.154715 -0.132197 0.010069
v 0.095253 -0.131716 0.005644
v 0.098117 -0.131716 0.006539
v 0.098117 -0.132197 0.006539
v 0.095253 -0.132197 0.005644
v -0.122949 -0.131716 0.008330
v -0.113291 -0.131716 0.007882
v -0.113291 -0.132197 0.007882
v -0.122949 -0.132197 0.008330
v -0.089571 -0.131706 0.004715
v -0.080143 -0.131716 -0.001940
v -0.080143 -0.132197 -0.001940
v -0.089571 -0.132197 0.004715
v 0.116983 -0.131706 0.007882
v 0.126416 -0.131706 0.008330
v 0.126416 -0.132197 0.008330
v 0.116983 -0.132197 0.007882
v -0.132606 -0.131716 0.008875
v -0.122949 -0.131716 0.008330
v -0.122949 -0.132197 0.008330
v -0.132606 -0.132197 0.008875
v -0.091987 -0.131716 0.005644
v -0.089571 -0.131706 0.004715
v -0.089571 -0.132197 0.004715
v -0.091987 -0.132197 0.005644
v 0.107550 -0.131716 0.007210
v 0.116983 -0.131706 0.007882
v 0.116983 -0.132197 0.007882
v 0.107550 -0.132197 0.007210
v 0.092838 -0.131716 0.004715
v 0.095253 -0.131716 0.005644
v 0.095253 -0.132197 0.005644
v 0.092838 -0.132197 0.004715
v -0.142263 -0.131716 0.009521
v -0.132606 -0.131716 0.008875
v -0.132606 -0.132197 0.008875
v -0.142263 -0.132197 0.009521
v 0.098117 -0.131716 0.006539
v 0.107550 -0.131716 0.007210
v 0.107550 -0.132197 0.007210
v 0.098117 -0.132197 0.006539
v 0.083355 -0.131716 -0.001950
v 0.092838 -0.131716 0.004715
v 0.092838 -0.132197 0.004715
v 0.083355 -0.132197 -0.001950
v -0.151920 -0.131716 0.010069
v -0.142263 -0.131716 0.009521
v -0.142263 -0.132197 0.009521
v -0.151920 -0.132197 0.010069
v -0.093977 -0.131716 0.006539
v -0.091987 -0.131716 0.005644
v -0.091987 -0.132197 0.005644
v -0.093977 -0.132197 0.006539
v 0.002061 -0.131706 -0.005005
v 0.083355 -0.131716 -0.001950
v 0.083355 -0.132197 -0.001950
v 0.002061 -0.132197 -0.005005
v -0.161578 -0.131716 0.010675
v -0.151920 -0.131716 0.010069
v -0.151920 -0.132197 0.010069
v -0.161578 -0.132197 0.010675
v -0.080143 -0.131716 -0.001940
v 0.002061 -0.131706 -0.005005
v 0.002061 -0.132197 -0.005005
v -0.080143 -0.132197 -0.001940
v 0.107550 -0.132197 0.007210
v 0.116983 -0.132197 0.007882
v 0.116983 -0.132197 0.008314
v 0.107550 -0.132197 0.007642
v -0.161578 -0.132197 0.010675
v -0.151920 -0.132197 0.010069
v -0.151920 -0.132197 0.010501
v -0.161578 -0.132197 0.011107
v 0.098117 -0.132197 0.006539
v 0.098117 -0.132197 0.006970
v 0.002061 -0.132197 -0.005005
v 0.083355 -0.132197 -0.001950
v 0.083355 -0.132197 -0.001519
v 0.002061 -0.132197 -0.004573
v 0.162078 -0.132197 0.010675
v 0.171511 -0.130630 0.011216
v 0.171511 -0.130630 0.011648
v 0.162078 -0.132197 0.011107
v -0.103634 -0.132197 0.007210
v -0.093977 -0.132197 0.006539
v -0.093977 -0.132197 0.006970
v -0.103634 -0.132197 0.007642
v -0.080143 -0.132197 -0.001940
v -0.080143 -0.132197 -0.001509
v 0.154715 -0.132197 0.010069
v 0.162078 -0.132197 0.010675
v 0.162078 -0.132197 0.011107
v 0.154715 -0.132197 0.010501
v -0.113291 -0.132197 0.007882
v -0.113291 -0.132197 0.008314
v -0.089571 -0.132197 0.004715
v -0.089571 -0.132197 0.005147
v 0.145282 -0.132197 0.009521
v 0.145282 -0.132197 0.009953
v -0.122949 -0.132197 0.008330
v -0.122949 -0.132197 0.008762
v -0.091987 -0.132197 0.005644
v -0.091987 -0.132197 0.006076
v 0.135849 -0.132197 0.008875
v 0.135849 -0.132197 0.009307
v -0.132606 -0.132197 0.008875
v -0.132606 -0.132197 0.009307
v 0.095253 -0.132197 0.005644
v 0.095253 -0.132197 0.006076
v 0.126416 -0.132197 0.008330
v 0.126416 -0.132197 0.008762
v -0.142263 -0.132197 0.009521
v -0.142263 -0.132197 0.009953
v 0.092838 -0.132197 0.004715
v 0.092838 -0.132197 0.005147
v -0.171235 -0.130630 0.011216
v -0.161578 -0.132197 0.010675
v -0.161578 -0.132197 0.011107
v -0.171235 -0.130630 0.011648
v 0.162078 -0.132197 0.011107
v 0.171511 -0.130630 0.011648
v 0.171511 -0.130065 0.011648
v 0.162078 -0.131632 0.011107
v -0.103634 -0.132197 0.007642
v -0.093977 -0.132197 0.006970
v -0.093977 -0.131632 0.006970
v -0.103634 -0.131632 0.007642
v -0.080143 -0.132197 -0.001509
v 0.002061 -0.132197 -0.004573
v 0.002061 -0.131632 -0.004573
v -0.080143 -0.131632 -0.001509
v -0.171235 -0.130630 0.011216
v -0.171235 -0.130630 0.011648
v -0.171235 -0.130065 0.011648
v -0.171235 -0.130150 0.011216
v 0.154715 -0.132197 0.010501
v 0.162078 -0.132197 0.011107
v 0.162078 -0.131632 0.011107
v 0.154715 -0.131632 0.010501
v -0.113291 -0.132197 0.008314
v -0.103634 -0.132197 0.007642
v -0.103634 -0.131632 0.007642
v -0.113291 -0.131632 0.008314
v -0.089571 -0.132197 0.005147
v -0.080143 -0.132197 -0.001509
v -0.080143 -0.131632 -0.001509
v -0.089571 -0.131632 0.005147
v 0.145282 -0.132197 0.009953
v 0.154715 -0.132197 0.010501
v 0.154715 -0.131632 0.010501
v 0.145282 -0.131632 0.009953
v -0.122949 -0.132197 0.008762
v -0.113291 -0.132197 0.008314
v -0.113291 -0.131632 0.008314
v -0.122949 -0.131632 0.008762
v -0.091987 -0.132197 0.006076
v -0.089571 -0.132197 0.005147
v -0.089571 -0.131632 0.005147
v -0.091987 -0.131632 0.006076
v 0.135849 -0.132197 0.009307
v 0.145282 -0.132197 0.009953
v 0.145282 -0.131632 0.009953
v 0.135849 -0.131632 0.009307
v -0.132606 -0.132197 0.009307
v -0.122949 -0.132197 0.008762
v -0.122949 -0.131632 0.008762
v -0.132606 -0.131632 0.009307
v 0.095253 -0.132197 0.006076
v 0.098117 -0.132197 0.006970
v 0.098117 -0.131632 0.006970
v 0.095253 -0.131632 0.006076
v 0.126416 -0.132197 0.008762
v 0.135849 -0.132197 0.009307
v 0.135849 -0.131632 0.009307
v 0.126416 -0.131632 0.008762
v -0.142263 -0.132197 0.009953
v -0.132606 -0.132197 0.009307
v -0.132606 -0.131632 0.009307
v -0.142263 -0.131632 0.009953
v 0.092838 -0.132197 0.005147
v 0.095253 -0.132197 0.006076
v 0.095253 -0.131632 0.006076
v 0.092838 -0.131632 0.005147
v -0.171235 -0.130630 0.011648
v -0.161578 -0.132197 0.011107
v -0.161578 -0.131632 0.011107
v -0.171235 -0.130065 0.011648
v 0.116983 -0.132197 0.008314
v 0.126416 -0.132197 0.008762
v 0.126416 -0.131632 0.008762
v 0.116983 -0.131632 0.008314
v -0.151920 -0.132197 0.010501
v -0.142263 -0.132197 0.009953
v -0.142263 -0.131632 0.009953
v -0.151920 -0.131632 0.010501
v 0.083355 -0.132197 -0.001519
v 0.092838 -0.132197 0.005147
v 0.092838 -0.131632 0.005147
v 0.083355 -0.131632 -0.001519
v -0.093977 -0.132197 0.006970
v -0.091987 -0.132197 0.006076
v -0.091987 -0.131632 0.006076
v -0.093977 -0.131632 0.006970
v 0.107550 -0.132197 0.007642
v 0.116983 -0.132197 0.008314
v 0.116983 -0.131632 0.008314
v 0.107550 -0.131632 0.007642
v -0.161578 -0.132197 0.011107
v -0.151920 -0.132197 0.010501
v -0.151920 -0.131632 0.010501
v -0.161578 -0.131632 0.011107
v 0.098117 -0.132197 0.006970
v 0.107550 -0.132197 0.007642
v 0.107550 -0.131632 0.007642
v 0.098117 -0.131632 0.006970
v 0.002061 -0.132197 -0.004573
v 0.083355 -0.132197 -0.001519
v 0.083355 -0.131632 -0.001519
v 0.002061 -0.131632 -0.004573
v 0.171511 -0.130630 0.011648
v 0.171511 -0.130630 0.011216
v 0.171511 -0.130150 0.011216
v 0.171511 -0.130065 0.011648
vn 0.0573 -0.0000 -0.9984
vn -0.0559 -0.0000 -0.9984
vn -0.0026 1.0000 -0.0000
vn 1.0000 -0.0006 -0.0000
vn -1.0000 0.0003 -0.0000
vn 0.5654 -0.8248 -0.0000
vn 1.0000 -0.0005 -0.0000
vn 0.0007 -1.0000 -0.0000
vn -0.5648 -0.8252 -0.0000
vn -0.0000 -0.0000 1.0000
vn 1.0000 -0.0003 -0.0000
vn 0.0027 -1.0000 -0.0000
vn -1.0000 0.0006 -0.0000
vn -1.0000 0.0005 -0.0000
vn -0.5680 0.8230 -0.0000
vn -0.0007 1.0000 -0.0000
vn 0.5674 0.8234 -0.0000
vn 0.0577 -0.0000 -0.9983
vn -0.0694 -0.0000 -0.9976
vn 0.0683 -0.0000 -0.9977
vn 0.0580 -0.0000 -0.9983
vn 0.0821 -0.0000 -0.9966
vn 0.2981 -0.0000 -0.9545
vn -0.0464 -0.0000 -0.9989
vn -0.5767 -0.0000 -0.8169
vn -0.5767 -0.0000 -0.8170
vn 0.0475 -0.0000 -0.9989
vn -0.0564 -0.0000 -0.9984
vn -0.3589 -0.0000 -0.9334
vn 0.0710 -0.0000 -0.9975
vn 0.3589 -0.0000 -0.9334
vn -0.0667 -0.0000 -0.9978
vn 0.5751 -0.0000 -0.8181
vn -0.0567 -0.0000 -0.9984
vn -0.4099 -0.0000 -0.9121
vn -0.4100 -0.0000 -0.9121
vn 0.0375 -0.0000 -0.9993
vn -0.0627 -0.0000 -0.9980
vn -0.0373 -0.0000 -0.9993
vn -0.0000 -1.0000 -0.0000
vn 0.1638 -0.9865 -0.0000
vn -0.1601 -0.9871 -0.0000
vn -0.0573 -0.0000 0.9984
vn 0.0694 -0.0000 0.9976
vn 0.0373 -0.0000 0.9993
vn -1.0000 -0.0000 -0.0000
vn -0.0821 -0.0000 0.9966
vn 0.5767 -0.0000 0.8169
vn -0.0580 -0.0000 0.9983
vn 0.0464 -0.0000 0.9989
vn 0.3589 -0.0000 0.9334
vn -0.0683 -0.0000 0.9977
vn 0.0564 -0.0000 0.9984
vn -0.2981 -0.0000 0.9545
vn -0.0577 -0.0000 0.9983
vn 0.0667 -0.0000 0.9978
vn -0.3589 -0.0000 0.9334
vn 0.0559 -0.0000 0.9984
vn -0.0475 -0.0000 0.9989
vn 0.0567 -0.0000 0.9984
vn -0.5750 -0.0000 0.8181
vn -0.5751 -0.0000 0.8181
vn 0.4099 -0.0000 0.9121
vn 0.4100 -0.0000 0.9121
vn -0.0710 -0.0000 0.9975
vn 0.0627 -0.0000 0.9980
vn -0.0375 -0.0000 0.9993
vn 1.0000 -0.0000 -0.0000
s 1
usemtl LaptopRed
f 1//1 2//1 3//1
f 4//2 5//2 6//2
f 7//3 8//3 9//3
f 7//3 9//3 10//3
f 11//4 12//4 13//4
f 11//4 13//4 14//4
f 15//5 16//5 17//5
f 15//5 17//5 18//5
f 8//3 19//3 20//3
f 8//3 20//3 9//3
f 21//6 22//6 23//6
f 21//6 23//6 24//6
f 25//7 26//7 27//7
f 25//7 27//7 28//7
f 29//5 30//5 31//5
f 29//5 31//5 32//5
f 33//8 34//8 35//8
f 33//8 35//8 36//8
f 37//9 38//9 39//9
f 37//9 39//9 40//9
f 34//8 41//8 42//8
f 34//8 42//8 35//8
f 43//10 44//10 45//10
f 43//10 45//10 46//10
f 47//10 48//10 49//10
f 47//10 49//10 50//10
f 51//10 52//10 53//10
f 51//10 53//10 54//10
f 55//10 56//10 57//10
f 55//10 57//10 58//10
f 59//10 60//10 61//10
f 59//10 61//10 62//10
f 60//10 63//10 64//10
f 60//10 64//10 61//10
f 48//10 65//10 66//10
f 48//10 66//10 49//10
f 67//10 68//10 69//10
f 67//10 69//10 70//10
f 63//10 43//10 46//10
f 63//10 46//10 64//10
f 44//10 51//10 54//10
f 44//10 54//10 45//10
f 71//11 72//11 73//11
f 71//11 73//11 74//11
f 75//12 76//12 77//12
f 75//12 77//12 78//12
f 79//13 80//13 81//13
f 79//13 81//13 82//13
f 83//14 84//14 85//14
f 83//14 85//14 86//14
f 87//15 88//15 89//15
f 87//15 89//15 90//15
f 91//12 75//12 78//12
f 91//12 78//12 92//12
f 93//16 94//16 95//16
f 93//16 95//16 96//16
f 97//17 98//17 99//17
f 97//17 99//17 100//17
f 101//11 102//11 103//11
f 101//11 103//11 104//11
f 94//16 105//16 106//16
f 94//16 106//16 95//16
f 107//18 108//18 109//18
f 107//18 109//18 110//18
f 111//19 112//19 113//19
f 111//19 113//19 114//19
f 115//20 116//20 117//20
f 115//20 117//20 118//20
f 119//19 120//19 121//19
f 119//19 121//19 122//19
f 123//21 124//21 125//21
f 123//21 125//21 126//21
f 127//22 128//22 129//22
f 127//22 129//22 130//22
f 131//23 132//23 133//23
f 131//23 133//23 134//23
f 135//24 136//24 137//24
f 135//24 137//24 138//24
f 139//25 140//26 141//26
f 139//25 141//26 142//25
f 143//27 144//27 145//27
f 143//27 145//27 146//27
f 147//28 148//28 149//28
f 147//28 149//28 150//28
f 151//29 152//29 153//29
f 151//29 153//29 154//29
f 155//30 156//30 157//30
f 155//30 157//30 158//30
f 159//31 160//31 161//31
f 159//31 161//31 162//31
f 163//32 164//32 165//32
f 163//32 165//32 166//32
f 167//30 168//30 169//30
f 167//30 169//30 170//30
f 171//33 172//33 173//33
f 171//33 173//33 174//33
f 175//34 176//34 177//34
f 175//34 177//34 178//34
f 179//35 180//36 181//35
f 179//35 181//35 182//35
f 183//37 184//37 185//37
f 183//37 185//37 186//37
f 187//38 188//38 189//38
f 187//38 189//38 190//38
f 191//39 192//39 193//39
f 191//39 193//39 194//39
f 195//40 196//40 197//40
f 195//40 197//40 198//40
f 199//40 200//40 201//40
f 199//40 201//40 202//40
f 203//40 195//40 198//40
f 203//40 198//40 204//40
f 205//40 206//40 207//40
f 205//40 207//40 208//40
f 209//41 210//41 211//41
f 209//41 211//41 212//41
f 213//40 214//40 215//40
f 213//40 215//40 216//40
f 217//40 205//40 208//40
f 217//40 208//40 218//40
f 219//40 220//40 221//40
f 219//40 221//40 222//40
f 223//40 213//40 216//40
f 223//40 216//40 224//40
f 225//40 217//40 218//40
f 225//40 218//40 226//40
f 227//40 219//40 222//40
f 227//40 222//40 228//40
f 229//40 223//40 224//40
f 229//40 224//40 230//40
f 231//40 225//40 226//40
f 231//40 226//40 232//40
f 233//40 227//40 228//40
f 233//40 228//40 234//40
f 235//40 229//40 230//40
f 235//40 230//40 236//40
f 237//40 203//40 204//40
f 237//40 204//40 238//40
f 239//40 233//40 234//40
f 239//40 234//40 240//40
f 241//40 235//40 236//40
f 241//40 236//40 242//40
f 243//40 237//40 238//40
f 243//40 238//40 244//40
f 245//42 246//42 247//42
f 245//42 247//42 248//42
f 196//40 239//40 240//40
f 196//40 240//40 197//40
f 200//40 241//40 242//40
f 200//40 242//40 201//40
f 206//40 243//40 244//40
f 206//40 244//40 207//40
f 214//40 231//40 232//40
f 214//40 232//40 215//40
f 249//43 250//43 251//43
f 249//43 251//43 252//43
f 253//44 254//44 255//44
f 253//44 255//44 256//44
f 257//45 258//45 259//45
f 257//45 259//45 260//45
f 261//46 262//46 263//46
f 261//46 263//46 264//46
f 265//47 266//47 267//47
f 265//47 267//47 268//47
f 269//44 270//44 271//44
f 269//44 271//44 272//44
f 273//48 274//48 275//48
f 273//48 275//48 276//48
f 277//49 278//49 279//49
f 277//49 279//49 280//49
f 281//50 282//50 283//50
f 281//50 283//50 284//50
f 285//51 286//51 287//51
f 285//51 287//51 288//51
f 289//52 290//52 291//52
f 289//52 291//52 292//52
f 293//53 294//53 295//53
f 293//53 295//53 296//53
f 297//54 298//54 299//54
f 297//54 299//54 300//54
f 301//55 302//55 303//55
f 301//55 303//55 304//55
f 305//56 306//56 307//56
f 305//56 307//56 308//56
f 309//57 310//57 311//57
f 309//57 311//57 312//57
f 313//58 314//58 315//58
f 313//58 315//58 316//58
f 317//59 318//59 319//59
f 317//59 319//59 320//59
f 321//60 322//60 323//60
f 321//60 323//60 324//60
f 325//61 326//62 327//62
f 325//61 327//62 328//61
f 329//63 330//64 331//63
f 329//63 331//63 332//63
f 333//65 334//65 335//65
f 333//65 335//65 336//65
f 337//66 338//66 339//66
f 337//66 339//66 340//66
f 341//65 342//65 343//65
f 341//65 343//65 344//65
f 345//67 346//67 347//67
f 345//67 347//67 348//67
f 349//68 350//68 351//68
f 349//68 351//68 352//68
