# Blender 4.2.0
# www.blender.org
mtllib LaptopKeyboard_MetalLaptop_0.mtl
o LaptopKeyboard_MetalLaptop_0
v 0.189752 -0.025603 -0.003527
v 0.189752 -0.016650 -0.003527
v 0.186015 -0.016650 -0.003527
v 0.186015 -0.025603 -0.003527
v 0.189752 -0.030446 0.003220
v 0.189752 -0.030446 -0.001197
v 0.186015 -0.030446 -0.001197
v 0.186015 -0.030446 0.003220
v 0.189752 -0.011807 0.003220
v 0.189752 -0.030446 0.003220
v 0.186015 -0.030446 0.003220
v 0.186015 -0.011807 0.003220
v 0.189752 -0.011807 -0.001197
v 0.189752 -0.011807 0.003220
v 0.186015 -0.011807 0.003220
v 0.186015 -0.011807 -0.001197
v 0.189752 -0.011807 -0.001197
v 0.186015 -0.011807 -0.001197
v 0.189752 -0.030446 -0.001197
v 0.186015 -0.030446 -0.001197
v 0.189752 0.033100 0.001855
v 0.189752 0.027266 0.001855
v 0.186395 0.027266 0.001855
v 0.186395 0.033100 0.001855
v 0.189752 0.025667 0.000256
v 0.189752 0.025667 -0.000254
v 0.186395 0.025667 -0.000254
v 0.186395 0.025667 0.000256
v 0.189752 0.027266 -0.001853
v 0.189752 0.033100 -0.001853
v 0.186395 0.033100 -0.001853
v 0.186395 0.027266 -0.001853
v -0.189752 0.037874 0.001496
v -0.189752 0.037874 0.000502
v -0.188233 0.037874 0.000502
v -0.188233 0.037874 0.001496
v -0.189752 0.007895 0.000525
v -0.189752 0.007895 0.001451
v -0.188233 0.007895 0.001451
v -0.188233 0.007895 0.000525
v -0.189752 0.009721 0.003280
v -0.189752 0.036048 0.003320
v -0.188233 0.036048 0.003320
v -0.188233 0.009721 0.003280
v -0.189752 0.036048 -0.001323
v -0.189752 0.009721 -0.001303
v -0.188233 0.009721 -0.001303
v -0.188233 0.036048 -0.001323
v 0.189752 0.025667 0.000256
v 0.186395 0.025881 0.001056
v 0.189752 0.025881 0.001056
v 0.186395 0.026466 0.001641
v 0.189752 0.026466 0.001641
v 0.189752 0.027266 0.001855
v 0.186395 0.034699 0.000256
v 0.189752 0.034699 0.000256
v 0.189752 0.034485 0.001056
v 0.186395 0.034485 0.001056
v 0.189752 0.033899 0.001641
v 0.186395 0.033899 0.001641
v 0.186395 0.026466 -0.001639
v 0.189752 0.026466 -0.001639
v 0.186395 0.025881 -0.001053
v 0.189752 0.025881 -0.001053
v 0.189752 0.034699 -0.000254
v 0.186395 0.034699 -0.000254
v 0.186395 0.034485 -0.001053
v 0.189752 0.034485 -0.001053
v 0.186395 0.033899 -0.001639
v 0.189752 0.033899 -0.001639
v -0.188233 0.036961 -0.001079
v -0.189752 0.036961 -0.001079
v -0.188233 0.037629 -0.000411
v -0.189752 0.037629 -0.000411
v -0.189752 0.036961 0.003076
v -0.188233 0.036961 0.003076
v -0.189752 0.037629 0.002409
v -0.188233 0.037629 0.002409
v -0.188233 0.008808 0.003034
v -0.189752 0.008808 0.003034
v -0.188233 0.008140 0.002365
v -0.189752 0.008140 0.002365
v -0.189752 0.008140 0.002365
v -0.188233 0.008140 0.002365
v -0.189752 0.008808 -0.001057
v -0.188233 0.008808 -0.001057
v -0.189752 0.008140 -0.000389
v -0.188233 0.008140 -0.000389
vn -0.0000 0.2223 0.9750
vn -0.0000 -0.2223 0.9750
vn -0.0000 1.0000 -0.0000
vn -0.0000 -0.0000 -1.0000
vn -0.0000 -1.0000 -0.0000
vn -0.0000 -0.4335 0.9012
vn -0.0000 0.4335 0.9012
vn -0.0000 -0.1305 -0.9914
vn -0.0000 0.1303 -0.9915
vn -0.0000 0.9915 -0.1303
vn -0.0000 0.9914 0.1305
vn -0.0000 0.1305 0.9914
vn -0.0000 -0.1305 0.9914
vn -0.0000 -0.9914 -0.1306
vn -0.0000 -0.9914 0.1306
vn -0.0000 0.9915 -0.1305
vn -0.0000 0.1320 -0.9913
vn -0.0000 -0.1291 -0.9916
vn -0.0000 -0.1298 0.9915
vn -0.0000 0.1313 0.9913
vn -0.0000 0.9914 -0.1308
vn -0.0000 0.8660 -0.5000
vn -0.0000 0.5000 -0.8660
vn -0.0000 0.1308 -0.9914
vn -0.0000 -0.9914 -0.1305
vn -0.0000 -0.8660 -0.5000
vn -0.0000 -0.5000 -0.8660
vn -0.0000 0.5000 0.8660
vn -0.0000 0.8660 0.5000
vn -0.0000 -0.9914 0.1305
vn -0.0000 -0.8660 0.5000
vn -0.0000 -0.5000 0.8660
vn -0.0000 -0.4995 0.8663
vn -0.0000 -0.8659 0.5002
vn -0.0000 -0.4991 -0.8666
vn -0.0000 -0.8658 -0.5004
vn -0.0000 0.5009 -0.8655
vn -0.0000 0.8661 -0.4999
vn -0.0000 0.8664 -0.4994
vn -0.0000 0.5005 0.8658
vn -0.0000 0.8661 0.4998
s 1
usemtl MetalLaptop
f 1//1 2//2 3//2
f 1//1 3//2 4//1
f 5//3 6//3 7//3
f 5//3 7//3 8//3
f 9//4 10//4 11//4
f 9//4 11//4 12//4
f 13//5 14//5 15//5
f 13//5 15//5 16//5
f 2//2 17//6 18//6
f 2//2 18//6 3//2
f 19//7 1//1 4//1
f 19//7 4//1 20//7
f 21//8 22//9 23//9
f 21//8 23//9 24//8
f 25//10 26//11 27//11
f 25//10 27//11 28//10
f 29//12 30//13 31//13
f 29//12 31//13 32//12
f 33//14 34//15 35//15
f 33//14 35//15 36//14
f 37//11 38//16 39//16
f 37//11 39//16 40//11
f 41//17 42//18 43//18
f 41//17 43//18 44//17
f 45//19 46//20 47//20
f 45//19 47//20 48//19
f 49//21 28//21 50//22
f 49//21 50//22 51//22
f 51//22 50//22 52//23
f 51//22 52//23 53//23
f 53//23 52//23 23//24
f 53//23 23//24 54//24
f 55//25 56//25 57//26
f 55//25 57//26 58//26
f 58//26 57//26 59//27
f 58//26 59//27 60//27
f 60//27 59//27 21//8
f 60//27 21//8 24//8
f 29//12 32//12 61//28
f 29//12 61//28 62//28
f 62//28 61//28 63//29
f 62//28 63//29 64//29
f 64//29 63//29 27//11
f 64//29 27//11 26//11
f 65//30 66//30 67//31
f 65//30 67//31 68//31
f 68//31 67//31 69//32
f 68//31 69//32 70//32
f 70//32 69//32 31//13
f 70//32 31//13 30//13
f 65//30 56//25 55//25
f 65//30 55//25 66//30
f 45//19 48//19 71//33
f 45//19 71//33 72//33
f 72//33 71//33 73//34
f 72//33 73//34 74//34
f 74//34 73//34 35//15
f 74//34 35//15 34//15
f 43//18 42//18 75//35
f 43//18 75//35 76//35
f 76//35 75//35 77//36
f 76//35 77//36 78//36
f 78//36 77//36 33//14
f 78//36 33//14 36//14
f 41//17 44//17 79//37
f 41//17 79//37 80//37
f 80//37 79//37 81//38
f 80//37 81//38 82//38
f 83//39 84//39 39//16
f 83//39 39//16 38//16
f 47//20 46//20 85//40
f 47//20 85//40 86//40
f 86//40 85//40 87//41
f 86//40 87//41 88//41
f 88//41 87//41 37//11
f 88//41 37//11 40//11
