# Blender 4.2.0
# www.blender.org
mtllib MouseUSB_MetalLaptop_0.mtl
o MouseUSB_MetalLaptop_0
v -0.188726 -0.024674 0.003704
v -0.172836 -0.024674 0.003704
v -0.172836 -0.023173 0.003704
v -0.188726 -0.023173 0.003704
v -0.188726 -0.022172 -0.000739
v -0.172836 -0.022172 -0.000739
v -0.172836 -0.022172 -0.001811
v -0.188726 -0.022172 -0.001811
v -0.188726 -0.039717 -0.002813
v -0.172836 -0.039717 -0.002813
v -0.172836 -0.041217 -0.002813
v -0.188726 -0.041217 -0.002813
v -0.188726 -0.042219 0.001639
v -0.172836 -0.042219 0.001639
v -0.172836 -0.042219 0.002703
v -0.188726 -0.042219 0.002703
v -0.172836 -0.041718 -0.002679
v -0.188726 -0.041718 -0.002679
v -0.172836 -0.042084 -0.002312
v -0.188726 -0.042084 -0.002312
v -0.172836 -0.042219 -0.001811
v -0.188726 -0.042219 -0.001811
v -0.188726 -0.041217 0.003704
v -0.188726 -0.041718 0.003570
v -0.172836 -0.041718 0.003570
v -0.172836 -0.041217 0.003704
v -0.188726 -0.042084 0.003203
v -0.172836 -0.042084 0.003203
v -0.188726 -0.022172 0.002703
v -0.188726 -0.022306 0.003203
v -0.172836 -0.022306 0.003203
v -0.172836 -0.022172 0.002703
v -0.188726 -0.022673 0.003570
v -0.172836 -0.022673 0.003570
v -0.188726 -0.023173 -0.002813
v -0.188726 -0.022673 -0.002679
v -0.172836 -0.022673 -0.002679
v -0.172836 -0.023173 -0.002813
v -0.188726 -0.022306 -0.002312
v -0.172836 -0.022306 -0.002312
v -0.172836 -0.039717 0.003704
v -0.188726 -0.039717 0.003704
v -0.172836 -0.024674 -0.002813
v -0.188726 -0.024674 -0.002813
v -0.172836 -0.039717 -0.002813
v -0.188726 -0.039717 -0.002813
v -0.172836 -0.022172 0.001641
v -0.188726 -0.022172 0.001641
v -0.188726 -0.022172 -0.000697
v -0.172836 -0.022172 -0.000697
v -0.172836 -0.042219 -0.000737
v -0.188726 -0.042219 -0.000737
v -0.188726 -0.042219 0.001598
v -0.172836 -0.042219 0.001598
v -0.172836 -0.022172 0.001601
v -0.188726 -0.022172 0.001601
v -0.172836 -0.042219 -0.000697
v -0.188726 -0.042219 -0.000697
vn -0.0000 -0.0000 1.0000
vn -0.0000 0.1305 0.9914
vn -0.0000 1.0000 -0.0000
vn -0.0000 0.9914 -0.1305
vn -0.0000 -0.0000 -1.0000
vn -0.0000 -0.1305 -0.9914
vn -0.0000 -1.0000 -0.0000
vn -0.0000 -0.9914 0.1305
vn -0.0000 -0.5000 -0.8660
vn -0.0000 -0.8660 -0.5000
vn -0.0000 -0.9914 -0.1305
vn -0.0000 -0.1305 0.9914
vn -0.0000 -0.5000 0.8660
vn -0.0000 -0.8660 0.5000
vn -0.0000 0.9914 0.1305
vn -0.0000 0.8660 0.5000
vn -0.0000 0.5000 0.8660
vn -0.0000 0.1305 -0.9914
vn -0.0000 0.5000 -0.8660
vn -0.0000 0.8660 -0.5000
vn -0.0000 -1.0000 0.0002
s 1
usemtl MetalLaptop
f 1//1 2//1 3//2
f 1//1 3//2 4//2
f 5//3 6//3 7//4
f 5//3 7//4 8//4
f 9//5 10//5 11//6
f 9//5 11//6 12//6
f 13//7 14//7 15//8
f 13//7 15//8 16//8
f 11//6 17//9 18//9
f 11//6 18//9 12//6
f 17//9 19//10 20//10
f 17//9 20//10 18//9
f 19//10 21//11 22//11
f 19//10 22//11 20//10
f 23//12 24//13 25//13
f 23//12 25//13 26//12
f 24//13 27//14 28//14
f 24//13 28//14 25//13
f 27//14 16//8 15//8
f 27//14 15//8 28//14
f 29//15 30//16 31//16
f 29//15 31//16 32//15
f 30//16 33//17 34//17
f 30//16 34//17 31//16
f 33//17 4//2 3//2
f 33//17 3//2 34//17
f 35//18 36//19 37//19
f 35//18 37//19 38//18
f 36//19 39//20 40//20
f 36//19 40//20 37//19
f 39//20 8//4 7//4
f 39//20 7//4 40//20
f 23//12 26//12 41//1
f 23//12 41//1 42//1
f 42//1 41//1 2//1
f 42//1 2//1 1//1
f 35//18 38//18 43//5
f 35//18 43//5 44//5
f 44//5 43//5 45//5
f 44//5 45//5 46//5
f 29//15 32//15 47//3
f 29//15 47//3 48//3
f 49//3 50//3 6//3
f 49//3 6//3 5//3
f 22//11 21//11 51//21
f 22//11 51//21 52//7
f 53//7 54//7 14//7
f 53//7 14//7 13//7
f 48//3 47//3 55//3
f 48//3 55//3 56//3
f 56//3 55//3 50//3
f 56//3 50//3 49//3
f 52//7 51//21 57//21
f 52//7 57//21 58//7
f 58//7 57//21 54//7
f 58//7 54//7 53//7
