# Blender 4.2.0
# www.blender.org
mtllib mouse_pad_mouse_pad_0.mtl
o mouse_pad_mouse_pad_0
v -0.128243 0.107891 0.000000
v -0.136898 0.104305 0.000000
v -0.140484 0.095650 0.000000
v 0.140484 0.095650 0.000000
v 0.140248 0.098038 -0.002476
v 0.140248 0.098038 0.000000
v 0.138421 0.102451 0.000000
v 0.136898 0.104305 -0.002476
v 0.136898 0.104305 0.000000
v 0.130631 0.107655 0.000000
v 0.128243 0.107891 -0.002476
v 0.128243 0.107891 0.000000
v 0.132927 -0.106959 -0.000000
v 0.135044 -0.105828 -0.002476
v 0.135044 -0.105828 -0.000000
v 0.140248 -0.098038 -0.000000
v 0.140484 -0.095650 -0.002476
v 0.140484 -0.095650 -0.000000
v 0.139552 0.100334 0.000000
v 0.138421 0.102451 -0.002476
v 0.136898 -0.104305 -0.000000
v 0.138421 -0.102451 -0.002476
v 0.138421 -0.102451 -0.000000
v 0.136898 -0.104305 -0.002476
v 0.130631 -0.107655 -0.000000
v 0.132927 -0.106959 -0.002476
v 0.140484 0.095650 -0.002476
v 0.128243 -0.107891 -0.000000
v 0.130631 -0.107655 -0.002476
v -0.139552 0.100334 0.000000
v -0.140248 0.098038 -0.002476
v -0.140248 0.098038 0.000000
v -0.132927 -0.106959 -0.000000
v -0.130631 -0.107655 -0.002476
v -0.130631 -0.107655 -0.000000
v -0.128243 -0.107891 -0.000000
v 0.128243 -0.107891 -0.002476
v 0.128243 -0.107891 -0.000000
v -0.140484 0.095650 -0.002476
v -0.140484 0.095650 0.000000
v -0.138421 0.102451 0.000000
v -0.139552 0.100334 -0.002476
v -0.135044 -0.105828 -0.000000
v -0.132927 -0.106959 -0.002476
v -0.128243 -0.107891 -0.002476
v -0.128243 -0.107891 -0.000000
v -0.128243 0.107891 0.000000
v -0.130631 0.107655 -0.002476
v -0.130631 0.107655 0.000000
v -0.136898 0.104305 0.000000
v -0.138421 0.102451 -0.002476
v -0.136898 -0.104305 -0.000000
v -0.135044 -0.105828 -0.002476
v -0.140484 -0.095650 -0.002476
v -0.140484 -0.095650 -0.000000
v 0.128243 0.107891 0.000000
v -0.128243 0.107891 -0.002476
v -0.128243 0.107891 0.000000
v -0.135044 0.105828 0.000000
v -0.136898 0.104305 -0.002476
v -0.138421 -0.102451 -0.000000
v -0.136898 -0.104305 -0.002476
v 0.132927 0.106959 0.000000
v 0.130631 0.107655 -0.002476
v -0.132927 0.106959 0.000000
v -0.135044 0.105828 -0.002476
v -0.139552 -0.100334 -0.000000
v -0.138421 -0.102451 -0.002476
v 0.139552 -0.100334 -0.000000
v 0.140248 -0.098038 -0.002476
v 0.135044 0.105828 0.000000
v 0.132927 0.106959 -0.002476
v -0.132927 0.106959 -0.002476
v -0.140248 -0.098038 -0.000000
v -0.139552 -0.100334 -0.002476
v 0.139552 -0.100334 -0.002476
v 0.135044 0.105828 -0.002476
v -0.140248 -0.098038 -0.002476
v 0.139552 0.100334 -0.002476
v 0.128243 -0.107891 -0.002476
v 0.140484 -0.095650 -0.002476
v 0.136898 -0.104305 -0.002476
v -0.140484 -0.095650 -0.000000
v -0.128243 -0.107891 -0.000000
v -0.140248 -0.098038 -0.000000
v -0.130631 -0.107655 -0.000000
v -0.139552 -0.100334 -0.000000
v -0.138421 -0.102451 -0.000000
v -0.136898 -0.104305 -0.000000
v -0.135044 -0.105828 -0.000000
v -0.132927 -0.106959 -0.000000
v 0.128243 -0.107891 -0.000000
v 0.130631 -0.107655 -0.000000
v 0.132927 -0.106959 -0.000000
v 0.135044 -0.105828 -0.000000
v 0.136898 -0.104305 -0.000000
v 0.138421 -0.102451 -0.000000
v 0.139552 -0.100334 -0.000000
v 0.140248 -0.098038 -0.000000
v 0.140484 -0.095650 -0.000000
v 0.140484 0.095650 0.000000
v 0.140248 0.098038 0.000000
v 0.128243 0.107891 0.000000
v 0.139552 0.100334 0.000000
v 0.138421 0.102451 0.000000
v 0.136898 0.104305 0.000000
v 0.135044 0.105828 0.000000
v 0.132927 0.106959 0.000000
v 0.130631 0.107655 0.000000
v -0.130631 0.107655 0.000000
v -0.132927 0.106959 0.000000
v -0.135044 0.105828 0.000000
v -0.138421 0.102451 0.000000
v -0.139552 0.100334 0.000000
v -0.140248 0.098038 0.000000
v 0.128243 -0.107891 -0.002476
v -0.128243 -0.107891 -0.002476
v -0.128243 0.107891 -0.002476
v 0.128243 0.107891 -0.002476
v -0.140248 -0.098038 -0.002476
v -0.140484 -0.095650 -0.002476
v -0.130631 -0.107655 -0.002476
v -0.140484 0.095650 -0.002476
v -0.128243 -0.107891 -0.002476
v -0.140248 0.098038 -0.002476
v -0.139552 0.100334 -0.002476
v -0.138421 0.102451 -0.002476
v -0.132927 0.106959 -0.002476
v -0.136898 0.104305 -0.002476
v -0.135044 0.105828 -0.002476
v -0.130631 0.107655 -0.002476
v -0.128243 0.107891 -0.002476
v 0.128243 0.107891 -0.002476
v 0.130631 0.107655 -0.002476
v 0.140484 0.095650 -0.002476
v 0.132927 0.106959 -0.002476
v 0.138421 0.102451 -0.002476
v 0.135044 0.105828 -0.002476
v 0.136898 0.104305 -0.002476
v 0.139552 0.100334 -0.002476
v 0.140248 0.098038 -0.002476
v 0.140248 -0.098038 -0.002476
v 0.139552 -0.100334 -0.002476
v 0.138421 -0.102451 -0.002476
v 0.135044 -0.105828 -0.002476
v 0.132927 -0.106959 -0.002476
v 0.130631 -0.107655 -0.002476
v -0.132927 -0.106959 -0.002476
v -0.135044 -0.105828 -0.002476
v -0.136898 -0.104305 -0.002476
v -0.138421 -0.102451 -0.002476
v -0.139552 -0.100334 -0.002476
v 0.140921 0.046653 -0.000452
v 0.140908 0.046646 -0.002135
v 0.140920 0.084357 -0.002046
v 0.140931 0.084347 -0.000430
v 0.137759 0.046643 -0.002773
v 0.137846 0.084360 -0.002777
v 0.140500 0.084359 -0.002680
v 0.140418 0.046639 -0.002690
v 0.128117 0.046660 -0.002547
v 0.128123 0.084356 -0.002546
v 0.140909 0.084339 -0.000230
v 0.140897 0.046654 -0.000253
v 0.140833 0.084339 -0.000050
v 0.140828 0.046652 -0.000078
v 0.140699 0.084336 0.000110
v 0.140690 0.046653 0.000091
v 0.140347 0.084349 0.000238
v 0.140395 0.046656 0.000227
v 0.140868 0.046645 -0.002326
v 0.140890 0.084354 -0.002282
v 0.140768 0.046640 -0.002485
v 0.140802 0.084350 -0.002466
v 0.140618 0.046646 -0.002624
v 0.140675 0.084355 -0.002590
v 0.137770 0.046656 0.000299
v 0.137738 0.084346 0.000307
v 0.128130 0.046670 0.000191
v 0.129825 0.046656 0.000100
v 0.129871 0.084356 0.000094
v 0.128124 0.084345 0.000181
vn -0.0000 -0.0000 1.0000
vn 0.9988 0.0491 -0.0000
vn 0.9808 0.1951 -0.0000
vn 0.8315 0.5556 -0.0000
vn 0.7071 0.7071 -0.0000
vn 0.1951 0.9808 -0.0000
vn 0.0491 0.9988 -0.0000
vn 0.3827 -0.9239 -0.0000
vn 0.5556 -0.8315 -0.0000
vn 0.9808 -0.1951 -0.0000
vn 0.9988 -0.0491 -0.0000
vn 0.9239 0.3827 -0.0000
vn 0.7071 -0.7071 -0.0000
vn 0.8315 -0.5556 -0.0000
vn 0.1951 -0.9808 -0.0000
vn 0.0491 -0.9988 -0.0000
vn -0.9239 0.3827 -0.0000
vn -0.9808 0.1951 -0.0000
vn -0.3827 -0.9239 -0.0000
vn -0.1951 -0.9808 -0.0000
vn -0.0491 -0.9988 -0.0000
vn -0.9988 0.0491 -0.0000
vn -0.8315 0.5556 -0.0000
vn -0.5556 -0.8315 -0.0000
vn -0.0491 0.9988 -0.0000
vn -0.1951 0.9808 -0.0000
vn -0.7071 0.7071 -0.0000
vn -0.7071 -0.7071 -0.0000
vn -0.9988 -0.0491 -0.0000
vn -0.5556 0.8315 -0.0000
vn -0.8315 -0.5556 -0.0000
vn 0.3827 0.9239 -0.0000
vn -0.3827 0.9239 -0.0000
vn -0.9239 -0.3827 -0.0000
vn 0.9239 -0.3827 -0.0000
vn 0.5556 0.8315 -0.0000
vn -0.9808 -0.1951 -0.0000
vn -0.0000 -0.0000 -1.0000
vn 0.9986 -0.0003 0.0534
vn 0.9963 -0.0002 -0.0861
vn 0.9964 -0.0002 -0.0853
vn 0.9986 -0.0003 0.0528
vn 0.0044 0.0001 -1.0000
vn 0.0058 -0.0000 -1.0000
vn 0.2103 -0.0002 -0.9776
vn 0.2096 -0.0001 -0.9778
vn -0.0235 -0.0000 -0.9997
vn -0.0237 -0.0000 -0.9997
vn 0.9688 -0.0004 0.2479
vn 0.9684 -0.0004 0.2494
vn 0.8584 -0.0005 0.5130
vn 0.8579 -0.0005 0.5138
vn 0.5914 -0.0004 0.8064
vn 0.5935 -0.0004 0.8048
vn 0.2037 -0.0002 0.9790
vn 0.2064 -0.0002 0.9785
vn 0.9447 -0.0002 -0.3279
vn 0.9460 -0.0002 -0.3243
vn 0.7931 -0.0003 -0.6091
vn 0.7928 -0.0003 -0.6095
vn 0.5448 -0.0002 -0.8386
vn 0.5430 -0.0003 -0.8397
vn 0.0011 -0.0002 1.0000
vn -0.0002 -0.0000 1.0000
vn 0.0518 0.0002 0.9987
vn 0.0131 -0.0000 0.9999
vn 0.0127 0.0001 0.9999
vn 0.0516 0.0002 0.9987
vt 0.000396 0.975002
vt 0.007602 0.992398
vt 0.024998 0.999604
vt 0.455621 0.812256
vt 0.449984 0.817681
vt 0.455602 0.817700
vt 0.455564 0.828589
vt 0.449928 0.834014
vt 0.455545 0.834033
vt 0.455489 0.850367
vt 0.449852 0.855792
vt 0.455470 0.855811
vt 0.455583 0.457738
vt 0.449946 0.463163
vt 0.455564 0.463182
vt 0.455489 0.484960
vt 0.449852 0.490385
vt 0.455470 0.490404
vt 0.455583 0.823145
vt 0.449946 0.828570
vt 0.455545 0.468627
vt 0.449909 0.474052
vt 0.455526 0.474071
vt 0.449928 0.468607
vt 0.455602 0.452294
vt 0.449965 0.457718
vt 0.450003 0.812236
vt 0.455621 0.446849
vt 0.449984 0.452274
vt 0.462067 0.479516
vt 0.456431 0.484941
vt 0.462048 0.484960
vt 0.462067 0.844922
vt 0.456431 0.850347
vt 0.462048 0.850367
vt 0.434887 0.855771
vt 0.441578 0.472425
vt 0.434887 0.472384
vt 0.456412 0.490385
vt 0.462029 0.490404
vt 0.462086 0.474071
vt 0.456450 0.479496
vt 0.462086 0.839478
vt 0.456450 0.844903
vt 0.456412 0.855792
vt 0.462029 0.855811
vt 0.462180 0.446849
vt 0.456544 0.452274
vt 0.462161 0.452294
vt 0.462105 0.468627
vt 0.456468 0.474052
vt 0.462105 0.834034
vt 0.456468 0.839458
vt 0.456563 0.812236
vt 0.462180 0.812256
vt 0.449061 0.472425
vt 0.442370 0.855771
vt 0.449061 0.855811
vt 0.462124 0.463182
vt 0.456487 0.468607
vt 0.462124 0.828589
vt 0.456487 0.834014
vt 0.455508 0.844922
vt 0.449871 0.850347
vt 0.462142 0.457738
vt 0.456506 0.463163
vt 0.462142 0.823145
vt 0.456506 0.828570
vt 0.455507 0.479516
vt 0.449871 0.484941
vt 0.455526 0.839478
vt 0.449890 0.844903
vt 0.456525 0.457718
vt 0.462161 0.817700
vt 0.456525 0.823125
vt 0.449890 0.479496
vt 0.449909 0.839458
vt 0.456544 0.817681
vt 0.449965 0.823125
vt 0.024998 0.434096
vt 0.000396 0.409493
vt 0.007602 0.426889
vt 0.409493 0.999604
vt 0.434096 0.975002
vt 0.414292 0.999131
vt 0.433623 0.979801
vt 0.418908 0.997731
vt 0.423161 0.995458
vt 0.426889 0.992398
vt 0.429949 0.988670
vt 0.432223 0.984417
vt 0.434096 0.459490
vt 0.433623 0.454690
vt 0.432223 0.450074
vt 0.429949 0.445821
vt 0.426890 0.442093
vt 0.423161 0.439033
vt 0.418908 0.436760
vt 0.414293 0.435360
vt 0.409493 0.434887
vt 0.024998 0.434887
vt 0.020199 0.435360
vt 0.000396 0.459489
vt 0.015583 0.436760
vt 0.011330 0.439033
vt 0.007602 0.442093
vt 0.004542 0.445821
vt 0.002269 0.450075
vt 0.000869 0.454690
vt 0.000868 0.979801
vt 0.002268 0.984417
vt 0.004542 0.988670
vt 0.011330 0.995458
vt 0.015583 0.997732
vt 0.020199 0.999132
vt 0.450003 0.446830
vt 0.441578 0.855811
vt 0.456563 0.446830
vt 0.442370 0.472384
vt 0.564640 0.414293
vt 0.565113 0.409493
vt 0.545310 0.433623
vt 0.565113 0.024998
vt 0.540510 0.434095
vt 0.564640 0.020199
vt 0.563240 0.015583
vt 0.560967 0.011330
vt 0.549925 0.002268
vt 0.557907 0.007602
vt 0.554179 0.004542
vt 0.545310 0.000868
vt 0.540510 0.000396
vt 0.024998 0.000396
vt 0.020199 0.000868
vt 0.000396 0.024998
vt 0.015583 0.002269
vt 0.004542 0.011330
vt 0.011330 0.004542
vt 0.007602 0.007602
vt 0.002268 0.015583
vt 0.000868 0.020199
vt 0.000868 0.414293
vt 0.002268 0.418908
vt 0.004542 0.423161
vt 0.011330 0.429949
vt 0.015583 0.432223
vt 0.020199 0.433623
vt 0.549925 0.432223
vt 0.554179 0.429949
vt 0.557907 0.426889
vt 0.560967 0.423161
vt 0.563240 0.418908
vt 0.497880 0.856737
vt 0.491503 0.856714
vt 0.491915 0.999604
vt 0.498038 0.999562
vt 0.471441 0.856628
vt 0.471875 0.999590
vt 0.481941 0.999577
vt 0.481527 0.856603
vt 0.434887 0.856717
vt 0.435011 0.999600
vt 0.500530 0.999511
vt 0.500372 0.856708
vt 0.503022 0.999475
vt 0.502864 0.856680
vt 0.505514 0.999442
vt 0.505356 0.856658
vt 0.508006 0.999527
vt 0.507848 0.856675
vt 0.489009 0.856695
vt 0.489422 0.999572
vt 0.486516 0.856636
vt 0.486928 0.999532
vt 0.484022 0.856684
vt 0.484435 0.999576
vt 0.517800 0.856677
vt 0.517900 0.999520
vt 0.554353 0.856735
vt 0.547920 0.856681
vt 0.547725 0.999562
vt 0.554353 0.999519
s 1
usemtl mouse_pad
f 1/1/1 2/2/1 3/3/1
f 4/4/2 5/5/3 6/6/3
f 7/7/4 8/8/5 9/9/5
f 10/10/6 11/11/7 12/12/7
f 13/13/8 14/14/9 15/15/9
f 16/16/10 17/17/11 18/18/11
f 19/19/12 20/20/4 7/7/4
f 21/21/13 22/22/14 23/23/14
f 15/15/9 24/24/13 21/21/13
f 25/25/15 26/26/8 13/13/8
f 18/18/11 27/27/2 4/4/2
f 28/28/16 29/29/15 25/25/15
f 30/30/17 31/31/18 32/32/18
f 33/33/19 34/34/20 35/35/20
f 36/36/21 37/37/16 38/38/16
f 32/32/18 39/39/22 40/40/22
f 41/41/23 42/42/17 30/30/17
f 43/43/24 44/44/19 33/33/19
f 35/35/20 45/45/21 46/46/21
f 47/47/25 48/48/26 49/49/26
f 50/50/27 51/51/23 41/41/23
f 52/52/28 53/53/24 43/43/24
f 40/40/22 54/54/29 55/55/29
f 56/56/7 57/57/25 58/58/25
f 59/59/30 60/60/27 50/50/27
f 61/61/31 62/62/28 52/52/28
f 63/63/32 64/64/6 10/10/6
f 65/65/33 66/66/30 59/59/30
f 67/67/34 68/68/31 61/61/31
f 69/69/35 70/70/10 16/16/10
f 71/71/36 72/72/32 63/63/32
f 49/49/26 73/73/33 65/65/33
f 74/74/37 75/75/34 67/67/34
f 23/23/14 76/76/35 69/69/35
f 9/9/5 77/77/36 71/71/36
f 55/55/29 78/78/37 74/74/37
f 6/6/3 79/79/12 19/19/12
f 80/80/38 81/81/38 82/82/38
f 3/3/1 83/83/1 84/84/1
f 83/83/1 85/85/1 86/86/1
f 85/85/1 87/87/1 88/88/1
f 88/88/1 89/89/1 90/90/1
f 90/90/1 91/91/1 88/88/1
f 91/91/1 86/86/1 88/88/1
f 86/86/1 84/84/1 83/83/1
f 84/84/1 92/92/1 1/1/1
f 92/92/1 93/93/1 94/94/1
f 94/94/1 95/95/1 96/96/1
f 96/96/1 97/97/1 94/94/1
f 97/97/1 98/98/1 94/94/1
f 98/98/1 99/99/1 100/100/1
f 100/100/1 101/101/1 92/92/1
f 101/101/1 102/102/1 103/103/1
f 92/92/1 101/101/1 103/103/1
f 102/102/1 104/104/1 105/105/1
f 105/105/1 106/106/1 102/102/1
f 106/106/1 107/107/1 102/102/1
f 107/107/1 108/108/1 109/109/1
f 109/109/1 103/103/1 107/107/1
f 103/103/1 1/1/1 92/92/1
f 1/1/1 110/110/1 2/2/1
f 110/110/1 111/111/1 2/2/1
f 111/111/1 112/112/1 2/2/1
f 2/2/1 113/113/1 114/114/1
f 114/114/1 115/115/1 2/2/1
f 115/115/1 3/3/1 2/2/1
f 85/85/1 88/88/1 86/86/1
f 84/84/1 1/1/1 3/3/1
f 92/92/1 94/94/1 98/98/1
f 98/98/1 100/100/1 92/92/1
f 107/107/1 103/103/1 102/102/1
f 4/4/2 27/27/2 5/5/3
f 7/7/4 20/20/4 8/8/5
f 10/10/6 64/64/6 11/11/7
f 13/13/8 26/26/8 14/14/9
f 16/16/10 70/70/10 17/17/11
f 19/19/12 79/79/12 20/20/4
f 21/21/13 24/24/13 22/22/14
f 15/15/9 14/14/9 24/24/13
f 25/25/15 29/29/15 26/26/8
f 18/18/11 17/17/11 27/27/2
f 28/28/16 116/116/16 29/29/15
f 30/30/17 42/42/17 31/31/18
f 33/33/19 44/44/19 34/34/20
f 36/36/21 117/117/21 37/37/16
f 32/32/18 31/31/18 39/39/22
f 41/41/23 51/51/23 42/42/17
f 43/43/24 53/53/24 44/44/19
f 35/35/20 34/34/20 45/45/21
f 47/47/25 118/118/25 48/48/26
f 50/50/27 60/60/27 51/51/23
f 52/52/28 62/62/28 53/53/24
f 40/40/22 39/39/22 54/54/29
f 56/56/7 119/119/7 57/57/25
f 59/59/30 66/66/30 60/60/27
f 61/61/31 68/68/31 62/62/28
f 63/63/32 72/72/32 64/64/6
f 65/65/33 73/73/33 66/66/30
f 67/67/34 75/75/34 68/68/31
f 69/69/35 76/76/35 70/70/10
f 71/71/36 77/77/36 72/72/32
f 49/49/26 48/48/26 73/73/33
f 74/74/37 78/78/37 75/75/34
f 23/23/14 22/22/14 76/76/35
f 9/9/5 8/8/5 77/77/36
f 55/55/29 54/54/29 78/78/37
f 6/6/3 5/5/3 79/79/12
f 120/120/38 121/121/38 122/122/38
f 121/121/38 123/123/38 124/124/38
f 122/122/38 121/121/38 124/124/38
f 123/123/38 125/125/38 126/126/38
f 126/126/38 127/127/38 128/128/38
f 127/127/38 129/129/38 128/128/38
f 129/129/38 130/130/38 128/128/38
f 128/128/38 131/131/38 132/132/38
f 132/132/38 133/133/38 80/80/38
f 133/133/38 134/134/38 135/135/38
f 80/80/38 133/133/38 81/81/38
f 134/134/38 136/136/38 137/137/38
f 136/136/38 138/138/38 137/137/38
f 138/138/38 139/139/38 137/137/38
f 137/137/38 140/140/38 141/141/38
f 141/141/38 135/135/38 137/137/38
f 135/135/38 81/81/38 133/133/38
f 137/137/38 135/135/38 134/134/38
f 81/81/38 142/142/38 82/82/38
f 142/142/38 143/143/38 82/82/38
f 143/143/38 144/144/38 82/82/38
f 82/82/38 145/145/38 146/146/38
f 146/146/38 147/147/38 82/82/38
f 147/147/38 80/80/38 82/82/38
f 80/80/38 124/124/38 132/132/38
f 132/132/38 124/124/38 123/123/38
f 122/122/38 148/148/38 149/149/38
f 149/149/38 150/150/38 120/120/38
f 150/150/38 151/151/38 120/120/38
f 151/151/38 152/152/38 120/120/38
f 123/123/38 126/126/38 128/128/38
f 128/128/38 132/132/38 123/123/38
f 122/122/38 149/149/38 120/120/38
f 153/153/39 154/154/40 155/155/41
f 153/153/39 155/155/41 156/156/42
f 157/157/43 158/158/44 159/159/45
f 157/157/43 159/159/45 160/160/46
f 161/161/47 162/162/48 158/158/44
f 161/161/47 158/158/44 157/157/43
f 153/153/39 156/156/42 163/163/49
f 153/153/39 163/163/49 164/164/50
f 164/164/50 163/163/49 165/165/51
f 164/164/50 165/165/51 166/166/52
f 166/166/52 165/165/51 167/167/53
f 166/166/52 167/167/53 168/168/54
f 168/168/54 167/167/53 169/169/55
f 168/168/54 169/169/55 170/170/56
f 155/155/41 154/154/40 171/171/57
f 155/155/41 171/171/57 172/172/58
f 172/172/58 171/171/57 173/173/59
f 172/172/58 173/173/59 174/174/60
f 174/174/60 173/173/59 175/175/61
f 174/174/60 175/175/61 176/176/62
f 176/176/62 175/175/61 160/160/46
f 176/176/62 160/160/46 159/159/45
f 177/177/63 170/170/56 169/169/55
f 177/177/63 169/169/55 178/178/64
f 179/179/65 180/180/66 181/181/67
f 179/179/65 181/181/67 182/182/68
f 180/180/66 177/177/63 178/178/64
f 180/180/66 178/178/64 181/181/67
