# Blender 4.2.0
# www.blender.org
mtllib Office_048.mtl
o Office_048
v 0.036718 0.019379 -0.008969
v 0.033823 0.019379 -0.008242
v 0.033823 -0.019011 -0.008242
v 0.031342 0.019379 -0.006622
v 0.031342 -0.017663 -0.006622
v 0.029522 0.019379 -0.004284
v 0.029522 -0.016274 -0.004284
v 0.028561 0.019379 -0.001481
v 0.028561 -0.015404 -0.001481
v 0.028561 0.019379 0.001481
v 0.028561 -0.015404 0.001481
v 0.029522 0.019379 0.004284
v 0.029522 -0.016274 0.004284
v 0.031342 0.019379 0.006621
v 0.031342 -0.017663 0.006621
v 0.033823 0.019379 0.008242
v 0.033815 -0.019011 0.008242
v 0.036711 0.019379 0.008969
v 0.036711 -0.020267 0.008969
v 0.036718 -0.020267 -0.008960
v 0.036718 0.019379 -0.008969
v 0.039616 0.019379 -0.008240
v 0.039616 -0.020267 -0.008240
v 0.042093 0.019379 -0.006617
v 0.042093 -0.020267 -0.006617
v 0.043911 0.019379 -0.004278
v 0.043911 -0.020267 -0.004278
v 0.044870 0.019379 -0.001475
v 0.044870 -0.020267 -0.001475
v 0.044868 0.019379 0.001488
v 0.044868 -0.020267 0.001488
v 0.043905 0.019379 0.004290
v 0.043905 -0.020267 0.004290
v 0.042082 0.019379 0.006626
v 0.042082 -0.020267 0.006626
v 0.039600 0.019379 0.008244
v 0.039600 -0.020267 0.008244
v 0.036711 0.019379 0.008969
v 0.036718 -0.020267 -0.008960
v -0.026358 -0.020267 -0.008242
v -0.026352 -0.020267 -0.006621
v -0.026352 -0.020267 -0.004283
v -0.026354 -0.020267 -0.001480
v -0.026354 -0.020267 0.001482
v -0.026356 -0.020267 0.004285
v -0.026356 -0.020267 0.006622
v -0.026358 -0.020267 0.008242
v -0.025282 -0.019082 0.008969
v -0.025274 -0.019082 -0.008960
v -0.044865 0.020267 -0.008242
v -0.044865 0.020267 -0.006621
v -0.044867 0.020267 -0.004283
v -0.044867 0.020267 -0.001480
v -0.044868 0.020267 0.001482
v -0.044870 0.020267 0.004285
v -0.044870 0.020267 0.006622
v -0.044870 0.020267 0.008242
v -0.043789 0.020267 0.007175
v -0.043781 0.020267 -0.007165
v -0.025843 -0.019011 -0.008243
v -0.026817 -0.017663 -0.006622
v -0.027969 -0.016274 -0.004285
v -0.027693 -0.015404 -0.001482
v -0.027693 -0.015404 0.001480
v -0.027969 -0.016274 0.004283
v -0.026817 -0.017663 0.006621
v -0.025848 -0.019011 0.008241
vn -0.5468 -0.0000 -0.8373
vn -0.7892 -0.0000 -0.6142
vn -0.9459 -0.0000 -0.3245
vn -1.0000 -0.0000 -0.0000
vn -0.9459 -0.0000 0.3245
vn -0.7892 -0.0000 0.6142
vn -0.5473 -0.0000 0.8369
vn -0.5475 0.0001 0.8368
vn -0.5468 -0.0000 0.8373
vn -0.2438 -0.0000 0.9698
vn -0.2442 -0.0000 0.9697
vn -0.2436 -0.0000 -0.9699
vn 0.5478 -0.0000 -0.8366
vn 0.5479 -0.0000 -0.8366
vn 0.7897 -0.0000 -0.6135
vn 0.9461 -0.0000 -0.3238
vn 1.0000 -0.0000 0.0006
vn 0.9457 -0.0000 0.3251
vn 0.7883 -0.0000 0.6152
vn 0.5463 -0.0000 0.8376
vn -0.0099 -0.5166 0.8562
vn 0.2442 -0.0002 -0.9697
vn -0.0000 -1.0000 -0.0000
vn 0.9096 0.4155 0.0003
vn 0.9096 0.4154 -0.0016
vn 0.9096 0.4155 0.0004
vn 0.9096 0.4155 0.0007
vn 0.9096 0.4154 -0.0000
vn 0.9096 0.4155 0.0006
vn 0.9096 0.4154 -0.0031
vn 0.9096 0.4154 -0.0015
vn 0.9049 0.4256 0.0004
vn 0.9049 0.4256 0.0005
vn 0.9096 0.4155 0.0005
vn 0.2433 -0.0000 0.9699
vn -0.6624 -0.3419 0.6666
vn 0.4032 0.1841 -0.8964
vn -0.0000 -1.0000 -0.0001
vn -0.0000 -1.0000 -0.0003
vn -0.0098 -0.5116 -0.8592
vn -0.0000 0.8597 0.5108
vn -0.0000 0.9550 0.2966
vn -0.0000 1.0000 -0.0000
vn -0.0000 0.9550 -0.2966
vn -0.0000 0.8597 -0.5108
vn -0.0000 0.7689 -0.6394
vn -0.0000 0.7687 0.6396
vn -0.0110 0.5254 0.8508
vn 0.0099 0.5183 0.8551
vn -0.0000 0.9951 -0.0987
vn -0.5469 -0.0000 -0.8372
vn -0.5478 0.0001 0.8366
vn -0.2405 -0.0002 -0.9706
vn 0.2412 -0.0000 -0.9705
vn 0.9097 0.4153 -0.0000
vn 0.3974 0.1815 0.8995
vn -0.6601 -0.3410 -0.6693
vn 0.0098 0.5127 -0.8585
vn -0.0000 0.9953 0.0971
s 1
usemtl Aluminum_Anodized
f 2//1 5//1 4//1
f 4//2 7//2 6//2
f 6//3 9//3 8//3
f 9//4 10//4 8//4
f 11//5 12//5 10//5
f 13//6 14//6 12//6
f 15//7 16//8 14//9
f 17//10 18//11 16//11
f 1//12 3//12 2//12
f 22//13 25//14 23//14
f 26//15 25//15 24//15
f 28//16 27//16 26//16
f 30//17 29//17 28//17
f 32//18 31//18 30//18
f 34//19 33//19 32//19
f 36//20 35//20 34//20
f 47//21 19//21 48//21
f 22//22 39//22 21//22
f 33//23 44//23 31//23
f 37//23 46//23 35//23
f 35//23 45//23 33//23
f 42//24 51//25 52//26
f 47//27 56//24 57//28
f 45//24 54//29 55//24
f 43//24 52//26 53//24
f 40//30 51//25 41//31
f 48//32 59//33 58//33
f 45//24 56//24 46//34
f 44//24 53//24 54//29
f 53//23 52//23 59//23
f 19//35 36//35 18//35
f 50//36 49//36 59//36
f 31//23 43//23 29//23
f 57//37 48//37 47//37
f 27//23 43//23 42//23
f 25//23 42//23 41//38
f 23//23 41//38 40//39
f 39//40 40//40 49//40
f 13//41 66//41 15//41
f 11//42 65//42 13//42
f 9//43 64//43 11//43
f 9//44 62//44 63//44
f 7//45 61//45 62//45
f 5//46 60//46 61//46
f 15//47 67//47 17//47
f 3//48 49//48 40//48
f 17//49 48//49 19//49
f 3//50 49//50 60//50
f 2//51 3//51 5//51
f 4//2 5//2 7//2
f 6//3 7//3 9//3
f 9//4 11//4 10//4
f 11//5 13//5 12//5
f 13//6 15//6 14//6
f 15//7 17//52 16//8
f 17//10 19//10 18//11
f 1//53 20//53 3//53
f 22//13 24//13 25//14
f 26//15 27//15 25//15
f 28//16 29//16 27//16
f 30//17 31//17 29//17
f 32//18 33//18 31//18
f 34//19 35//19 33//19
f 36//20 37//20 35//20
f 47//23 37//23 19//23
f 22//54 23//54 39//54
f 33//23 45//23 44//23
f 37//23 47//23 46//23
f 35//23 46//23 45//23
f 42//24 41//31 51//25
f 47//27 46//34 56//24
f 45//24 44//24 54//29
f 43//24 42//24 52//26
f 40//55 50//55 51//55
f 48//32 49//32 59//33
f 45//24 55//24 56//24
f 44//24 43//24 53//24
f 51//23 50//23 59//23
f 59//23 58//23 53//23
f 58//23 57//23 56//23
f 56//23 55//23 58//23
f 55//23 54//23 58//23
f 53//23 58//23 54//23
f 52//23 51//23 59//23
f 19//35 37//35 36//35
f 50//56 40//56 49//56
f 31//23 44//23 43//23
f 57//57 58//57 48//57
f 27//23 29//23 43//23
f 25//23 27//23 42//23
f 23//23 25//23 41//38
f 39//23 23//23 40//23
f 13//41 65//41 66//41
f 11//42 64//42 65//42
f 9//43 63//43 64//43
f 9//44 7//44 62//44
f 7//45 5//45 61//45
f 5//46 3//46 60//46
f 15//47 66//47 67//47
f 3//58 39//58 49//58
f 17//59 67//59 48//59
