# Blender 4.2.0
# www.blender.org
mtllib Office_016.mtl
o Office_016
v -0.015041 1.183399 0.549222
v -0.015041 1.183399 -0.549222
v 0.015043 1.183399 0.549222
v 0.015043 1.183399 -0.549222
v -0.015043 -1.183399 -0.549222
v -0.015043 -1.183399 0.549222
v 0.015041 -1.183399 -0.549222
v 0.015041 -1.183399 0.549222
vn -0.0000 1.0000 -0.0000
vn -0.0000 -0.0000 1.0000
vn -0.0000 -1.0000 -0.0000
vn -1.0000 -0.0000 -0.0000
vn -0.0000 -0.0000 -1.0000
vn 1.0000 -0.0000 -0.0000
s 1
usemtl board_white
f 3//1 2//1 1//1
f 1//2 8//2 3//2
f 5//3 8//3 6//3
f 2//4 6//4 1//4
f 4//5 5//5 2//5
f 3//6 7//6 4//6
f 3//1 4//1 2//1
f 1//2 6//2 8//2
f 5//3 7//3 8//3
f 2//4 5//4 6//4
f 4//5 7//5 5//5
f 3//6 8//6 7//6
