# Blender 4.2.0
# www.blender.org
mtllib Office_005.mtl
o Office_005
v -0.360080 0.208353 -0.984476
v -0.360079 0.208353 0.985650
v 0.362768 0.208353 -0.984476
v 0.362768 0.208353 0.985650
v -0.360079 -0.208353 -0.984476
v -0.360079 -0.208353 0.985650
v 0.362768 -0.208353 -0.984476
v 0.362768 -0.208353 0.985650
v -0.362768 -0.112878 -0.985650
v -0.362768 -0.112878 0.984474
v -0.360875 0.113319 0.985301
v -0.360874 0.113319 -0.984823
v -0.308628 -0.208353 -0.984476
v -0.308629 -0.208353 0.985650
v 0.304528 -0.208353 -0.984476
v 0.304528 -0.208353 0.985650
v 0.362768 0.208353 -0.907636
v 0.362768 -0.208353 -0.907636
v -0.360080 0.208353 -0.907635
v -0.360079 -0.208353 -0.907635
v -0.362768 -0.112878 -0.908811
v -0.360874 0.113319 -0.907983
v -0.308628 -0.208353 -0.907635
v 0.304528 -0.208353 -0.907636
v -0.360079 0.208353 0.926813
v 0.362768 0.208353 0.926812
v 0.362768 -0.208353 0.926812
v -0.360079 -0.208353 0.926813
v -0.362768 -0.112878 0.925639
v -0.360875 0.113319 0.926465
v -0.308629 -0.208353 0.926813
v 0.304528 -0.208353 0.926812
v 0.362768 0.208353 0.691822
v 0.362768 -0.208353 0.691822
v -0.360079 -0.208353 0.691822
v -0.362768 -0.112878 0.690646
v -0.360875 0.113319 0.691474
v -0.308629 -0.208353 0.691822
v 0.304528 -0.208353 0.691822
v -0.360079 0.208353 0.691822
v 0.362768 0.208353 0.640522
v 0.362768 -0.208353 0.640522
v -0.360079 -0.208353 0.640522
v -0.362768 -0.112878 0.639348
v -0.360875 0.113319 0.640174
v -0.308629 -0.208353 0.640522
v 0.304528 -0.208353 0.640522
v -0.360079 0.208353 0.640522
v 0.362768 0.208353 0.398352
v 0.362768 -0.208353 0.398352
v -0.360079 -0.208353 0.398352
v -0.362768 -0.112878 0.397178
v -0.360875 0.113319 0.398004
v -0.308629 -0.208353 0.398352
v 0.304528 -0.208353 0.398352
v -0.360079 0.208353 0.398352
v 0.362768 0.208353 0.342133
v 0.362768 -0.208353 0.342133
v -0.360079 -0.208353 0.342133
v -0.362768 -0.112878 0.340960
v -0.360875 0.113319 0.341786
v -0.308629 -0.208353 0.342133
v 0.304528 -0.208353 0.342133
v -0.360079 0.208353 0.342133
v 0.362768 0.208353 0.089154
v 0.362768 -0.208353 0.089154
v -0.360079 -0.208353 0.089152
v -0.362768 -0.112878 0.087978
v -0.360874 0.113319 0.088805
v -0.308629 -0.208353 0.089152
v 0.304528 -0.208353 0.089154
v -0.360079 0.208353 0.089154
v 0.362768 0.208353 0.032813
v 0.362768 -0.208353 0.032813
v -0.360079 -0.208353 0.032813
v -0.362768 -0.112878 0.031637
v -0.360874 0.113319 0.032466
v -0.308629 -0.208353 0.032813
v 0.304528 -0.208353 0.032813
v -0.360079 0.208353 0.032813
v 0.362768 0.208353 -0.233720
v 0.362768 -0.208353 -0.233720
v -0.360079 -0.208353 -0.233720
v -0.362768 -0.112878 -0.234896
v -0.360874 0.113319 -0.234067
v -0.308629 -0.208353 -0.233720
v 0.304528 -0.208353 -0.233720
v -0.360079 0.208353 -0.233720
v 0.362768 0.208353 -0.288068
v 0.362768 -0.208353 -0.288068
v -0.360079 -0.208353 -0.288068
v -0.362768 -0.112878 -0.289244
v -0.360874 0.113319 -0.288415
v -0.308629 -0.208353 -0.288068
v 0.304528 -0.208353 -0.288068
v -0.360079 0.208353 -0.288068
v 0.362768 0.208353 -0.563191
v 0.362768 -0.208353 -0.563191
v -0.360079 -0.208353 -0.563191
v -0.362768 -0.112878 -0.564367
v -0.360874 0.113319 -0.563538
v -0.308628 -0.208353 -0.563191
v 0.304528 -0.208353 -0.563191
v -0.360079 0.208353 -0.563191
v 0.362768 0.208353 -0.622052
v 0.362768 -0.208353 -0.622052
v -0.360079 -0.208353 -0.622052
v -0.362768 -0.112878 -0.623228
v -0.360874 0.113319 -0.622399
v -0.308628 -0.208353 -0.622052
v 0.304528 -0.208353 -0.622052
v -0.360079 0.208353 -0.622052
v -0.308628 0.088576 -0.622052
v -0.308628 0.088576 -0.907635
v 0.304528 0.088576 -0.622052
v 0.304528 0.088576 -0.907636
v 0.304528 0.088576 0.926812
v -0.308629 0.088576 0.926813
v -0.308629 0.088576 0.691822
v 0.304528 0.088576 0.691822
v 0.304528 0.088576 0.640522
v -0.308629 0.088576 0.640522
v -0.308629 0.088576 0.398352
v 0.304528 0.088576 0.398352
v 0.304528 0.088576 0.342133
v -0.308629 0.088576 0.342133
v -0.308629 0.088576 0.089152
v 0.304528 0.088576 0.089154
v 0.304528 0.088576 0.032813
v -0.308629 0.088576 0.032813
v -0.308629 0.088576 -0.233720
v 0.304528 0.088576 -0.233720
v 0.304528 0.088576 -0.288068
v -0.308629 0.088576 -0.288068
v -0.308628 0.088576 -0.563191
v 0.304528 0.088576 -0.563191
vn -0.0000 1.0000 -0.0000
vn 1.0000 -0.0000 -0.0000
vn -0.0000 -1.0000 -0.0000
vn 0.0277 0.0034 -0.9996
vn -0.0001 0.0008 1.0000
vn 0.0001 -0.0022 1.0000
vn -0.0003 0.0007 1.0000
vn -0.9996 -0.0282 -0.0000
vn -1.0000 0.0084 -0.0000
vn -0.0000 -0.0000 1.0000
vn -1.0000 -0.0000 -0.0000
vn -0.0000 -0.0000 -1.0000
vn -0.0000 0.0037 -1.0000
vn -0.0001 0.0022 -1.0000
vn 0.0003 -0.0006 -1.0000
vn 0.0001 -0.0007 -1.0000
vn -0.0000 -0.0011 -1.0000
vn -0.0000 -0.0123 -0.9999
vn -0.0000 -0.0037 1.0000
vn -0.0277 -0.0034 0.9996
vn -0.0000 0.0123 0.9999
vn -0.0000 0.0011 1.0000
s 1
usemtl Aluminum_Anodized
f 25//1 4//1 26//1
f 4//2 27//2 26//2
f 14//3 28//3 31//3
f 13//4 9//4 12//4
f 16//5 4//6 11//7
f 28//8 10//8 29//8
f 11//9 25//9 30//9
f 10//9 30//9 29//9
f 16//3 31//3 32//3
f 8//3 32//3 27//3
f 18//3 15//3 7//3
f 24//3 13//3 15//3
f 21//9 12//9 9//9
f 22//9 1//9 12//9
f 5//8 21//8 9//8
f 23//3 5//3 13//3
f 17//2 7//2 3//2
f 1//1 17//1 3//1
f 34//3 32//3 39//3
f 55//10 123//10 54//10
f 29//9 37//9 36//9
f 30//9 40//9 37//9
f 35//8 29//8 36//8
f 38//3 28//3 35//3
f 26//2 34//2 33//2
f 40//1 26//1 33//1
f 48//1 33//1 41//1
f 33//2 42//2 41//2
f 38//3 43//3 46//3
f 43//8 36//8 44//8
f 37//9 48//9 45//9
f 36//9 45//9 44//9
f 39//3 46//3 47//3
f 34//3 47//3 42//3
f 42//3 55//3 50//3
f 103//10 135//10 102//10
f 44//9 53//9 52//9
f 45//9 56//9 53//9
f 51//8 44//8 52//8
f 54//3 43//3 51//3
f 41//2 50//2 49//2
f 48//1 49//1 56//1
f 56//1 57//1 64//1
f 49//2 58//2 57//2
f 54//3 59//3 62//3
f 59//8 52//8 60//8
f 53//9 64//9 61//9
f 52//9 61//9 60//9
f 55//3 62//3 63//3
f 50//3 63//3 58//3
f 66//3 63//3 71//3
f 47//11 124//11 55//11
f 60//9 69//9 68//9
f 61//9 72//9 69//9
f 67//8 60//8 68//8
f 62//3 67//3 70//3
f 57//2 66//2 65//2
f 72//1 57//1 65//1
f 72//1 73//1 80//1
f 65//2 74//2 73//2
f 70//3 75//3 78//3
f 75//8 68//8 76//8
f 69//9 80//9 77//9
f 68//9 77//9 76//9
f 79//3 70//3 78//3
f 66//3 79//3 74//3
f 74//3 87//3 82//3
f 95//11 136//11 103//11
f 76//9 85//9 84//9
f 77//9 88//9 85//9
f 83//8 76//8 84//8
f 78//3 83//3 86//3
f 73//2 82//2 81//2
f 80//1 81//1 88//1
f 96//1 81//1 89//1
f 81//2 90//2 89//2
f 86//3 91//3 94//3
f 91//8 84//8 92//8
f 85//9 96//9 93//9
f 84//9 93//9 92//9
f 87//3 94//3 95//3
f 82//3 95//3 90//3
f 90//3 103//3 98//3
f 31//12 117//12 32//12
f 92//9 101//9 100//9
f 93//9 104//9 101//9
f 99//8 92//8 100//8
f 94//3 99//3 102//3
f 89//2 98//2 97//2
f 104//1 89//1 97//1
f 104//1 105//1 112//1
f 97//2 106//2 105//2
f 102//3 107//3 110//3
f 107//8 100//8 108//8
f 101//9 112//9 109//9
f 100//9 109//9 108//9
f 103//3 110//3 111//3
f 98//3 111//3 106//3
f 18//3 111//3 24//3
f 78//12 129//12 79//12
f 108//9 22//9 21//9
f 109//9 19//9 22//9
f 20//8 108//8 21//8
f 110//3 20//3 23//3
f 105//2 18//2 17//2
f 19//1 105//1 17//1
f 117//3 119//3 120//3
f 121//3 123//3 124//3
f 128//3 126//3 127//3
f 132//3 130//3 131//3
f 133//3 135//3 136//3
f 116//3 113//3 114//3
f 70//2 126//2 62//2
f 94//12 133//12 95//12
f 46//12 121//12 47//12
f 63//11 128//11 71//11
f 23//2 113//2 110//2
f 71//10 127//10 70//10
f 111//11 116//11 24//11
f 86//2 130//2 78//2
f 110//12 115//12 111//12
f 38//2 118//2 31//2
f 62//12 125//12 63//12
f 79//11 132//11 87//11
f 32//11 120//11 39//11
f 86//10 132//10 131//10
f 23//10 116//10 114//10
f 39//10 119//10 38//10
f 102//2 134//2 94//2
f 54//2 122//2 46//2
f 25//1 2//1 4//1
f 4//2 8//2 27//2
f 14//3 6//3 28//3
f 1//13 3//14 12//15
f 3//14 7//12 15//16
f 12//15 3//14 15//16
f 15//16 13//17 12//15
f 13//18 5//18 9//18
f 16//5 8//10 4//6
f 4//6 2//19 11//7
f 11//20 10//20 14//20
f 10//21 6//21 14//21
f 14//22 16//5 11//7
f 28//8 6//8 10//8
f 11//9 2//9 25//9
f 10//9 11//9 30//9
f 16//3 14//3 31//3
f 8//3 16//3 32//3
f 18//3 24//3 15//3
f 24//3 23//3 13//3
f 21//9 22//9 12//9
f 22//9 19//9 1//9
f 5//8 20//8 21//8
f 23//3 20//3 5//3
f 17//2 18//2 7//2
f 1//1 19//1 17//1
f 34//3 27//3 32//3
f 55//10 124//10 123//10
f 29//9 30//9 37//9
f 30//9 25//9 40//9
f 35//8 28//8 29//8
f 38//3 31//3 28//3
f 26//2 27//2 34//2
f 40//1 25//1 26//1
f 48//1 40//1 33//1
f 33//2 34//2 42//2
f 38//3 35//3 43//3
f 43//8 35//8 36//8
f 37//9 40//9 48//9
f 36//9 37//9 45//9
f 39//3 38//3 46//3
f 34//3 39//3 47//3
f 42//3 47//3 55//3
f 103//10 136//10 135//10
f 44//9 45//9 53//9
f 45//9 48//9 56//9
f 51//8 43//8 44//8
f 54//3 46//3 43//3
f 41//2 42//2 50//2
f 48//1 41//1 49//1
f 56//1 49//1 57//1
f 49//2 50//2 58//2
f 54//3 51//3 59//3
f 59//8 51//8 52//8
f 53//9 56//9 64//9
f 52//9 53//9 61//9
f 55//3 54//3 62//3
f 50//3 55//3 63//3
f 66//3 58//3 63//3
f 47//11 121//11 124//11
f 60//9 61//9 69//9
f 61//9 64//9 72//9
f 67//8 59//8 60//8
f 62//3 59//3 67//3
f 57//2 58//2 66//2
f 72//1 64//1 57//1
f 72//1 65//1 73//1
f 65//2 66//2 74//2
f 70//3 67//3 75//3
f 75//8 67//8 68//8
f 69//9 72//9 80//9
f 68//9 69//9 77//9
f 79//3 71//3 70//3
f 66//3 71//3 79//3
f 74//3 79//3 87//3
f 95//11 133//11 136//11
f 76//9 77//9 85//9
f 77//9 80//9 88//9
f 83//8 75//8 76//8
f 78//3 75//3 83//3
f 73//2 74//2 82//2
f 80//1 73//1 81//1
f 96//1 88//1 81//1
f 81//2 82//2 90//2
f 86//3 83//3 91//3
f 91//8 83//8 84//8
f 85//9 88//9 96//9
f 84//9 85//9 93//9
f 87//3 86//3 94//3
f 82//3 87//3 95//3
f 90//3 95//3 103//3
f 31//12 118//12 117//12
f 92//9 93//9 101//9
f 93//9 96//9 104//9
f 99//8 91//8 92//8
f 94//3 91//3 99//3
f 89//2 90//2 98//2
f 104//1 96//1 89//1
f 104//1 97//1 105//1
f 97//2 98//2 106//2
f 102//3 99//3 107//3
f 107//8 99//8 100//8
f 101//9 104//9 112//9
f 100//9 101//9 109//9
f 103//3 102//3 110//3
f 98//3 103//3 111//3
f 18//3 106//3 111//3
f 78//12 130//12 129//12
f 108//9 109//9 22//9
f 109//9 112//9 19//9
f 20//8 107//8 108//8
f 110//3 107//3 20//3
f 105//2 106//2 18//2
f 19//1 112//1 105//1
f 117//3 118//3 119//3
f 121//3 122//3 123//3
f 128//3 125//3 126//3
f 132//3 129//3 130//3
f 133//3 134//3 135//3
f 116//3 115//3 113//3
f 70//2 127//2 126//2
f 94//12 134//12 133//12
f 46//12 122//12 121//12
f 63//11 125//11 128//11
f 23//2 114//2 113//2
f 71//10 128//10 127//10
f 111//11 115//11 116//11
f 86//2 131//2 130//2
f 110//12 113//12 115//12
f 38//2 119//2 118//2
f 62//12 126//12 125//12
f 79//11 129//11 132//11
f 32//11 117//11 120//11
f 86//10 87//10 132//10
f 23//10 24//10 116//10
f 39//10 120//10 119//10
f 102//2 135//2 134//2
f 54//2 123//2 122//2
