# Blender 4.2.0
# www.blender.org
mtllib Office_018.mtl
o Office_018
v -1.508718 0.027228 0.557374
v -1.508718 0.027228 -0.541071
v 1.569397 -0.069508 0.604903
v -1.570026 -0.069508 0.604903
v 1.569397 -0.069508 -0.603970
v -1.570026 -0.069508 -0.603970
v -1.569606 0.030328 0.604282
v 1.569818 0.030328 0.604282
v 1.569818 0.030328 -0.604593
v -1.569606 0.030328 -0.604593
v 1.569397 -0.069508 -0.493542
v -1.570026 -0.069508 -0.493542
v 1.569818 0.030328 -0.494163
v -1.569606 0.030328 -0.494163
v 1.570026 0.079911 -0.494473
v 1.570026 0.079911 -0.604903
v -1.569397 0.079912 -0.494473
v -1.569397 0.079912 -0.604903
v -1.569606 0.030328 0.542551
v 1.569818 0.030328 0.542551
v 1.509522 0.030328 0.604282
v 1.509522 0.030328 -0.494163
v -1.509319 0.030328 0.604282
v -1.509319 0.030328 -0.494163
v 1.569818 -0.079552 -0.494163
v -1.569606 -0.079552 -0.494163
v -1.509314 -0.079552 0.604282
v -1.509314 -0.079552 -0.494163
v 1.509524 -0.027332 0.604282
v 1.509524 -0.027332 -0.494163
v -1.509317 -0.027331 0.604282
v 1.509524 -0.065886 0.604282
v -1.509317 -0.065885 0.604282
v -1.569606 0.002456 0.542551
v 1.569818 0.002456 0.542551
v -1.569606 -0.079911 0.542551
v 1.569818 -0.079912 0.542551
vn 1.0000 -0.0042 -0.0000
vn -0.0000 -0.0062 -1.0000
vn -1.0000 0.0042 -0.0000
vn -0.0000 0.0062 1.0000
vn -0.0000 1.0000 -0.0000
vn -0.0000 -0.0000 1.0000
vn 1.0000 -0.0000 -0.0000
vn -1.0000 -0.0000 -0.0000
vn -0.0000 -0.0000 -1.0000
s 1
usemtl Aluminum_Anodized
f 5//1 13//1 11//1
f 5//2 10//2 9//2
f 12//3 7//3 14//3
f 6//3 14//3 10//3
f 9//1 15//1 13//1
f 11//1 8//1 3//1
f 10//3 17//3 18//3
f 9//2 18//2 16//2
f 3//4 7//4 4//4
f 17//5 16//5 18//5
f 17//4 13//4 15//4
f 8//5 19//5 7//5
f 13//5 21//5 8//5
f 7//5 24//5 14//5
f 14//6 25//6 13//6
f 24//7 27//7 28//7
f 22//8 29//8 21//8
f 29//9 33//9 31//9
f 37//9 19//9 20//9
f 5//1 9//1 13//1
f 5//2 6//2 10//2
f 12//3 4//3 7//3
f 6//3 12//3 14//3
f 9//1 16//1 15//1
f 11//1 13//1 8//1
f 10//3 14//3 17//3
f 9//2 10//2 18//2
f 3//4 8//4 7//4
f 17//5 15//5 16//5
f 17//4 14//4 13//4
f 8//5 20//5 19//5
f 13//5 22//5 21//5
f 7//5 23//5 24//5
f 14//6 26//6 25//6
f 24//7 23//7 27//7
f 22//8 30//8 29//8
f 29//9 32//9 33//9
f 37//9 36//9 19//9
