# Blender 4.2.0
# www.blender.org
mtllib Office_046.mtl
o Office_046
v 0.001000 0.000489 -0.000104
v 0.001000 -0.000489 0.000104
v 0.000980 0.000449 -0.000294
v 0.000980 -0.000530 -0.000087
v 0.000924 0.000410 -0.000478
v 0.000924 -0.000568 -0.000271
v 0.000832 0.000374 -0.000647
v 0.000832 -0.000604 -0.000440
v 0.000707 0.000343 -0.000795
v 0.000707 -0.000636 -0.000588
v 0.000556 0.000317 -0.000917
v 0.000556 -0.000661 -0.000710
v 0.000382 0.000298 -0.001007
v 0.000382 -0.000680 -0.000800
v 0.000196 0.000286 -0.001063
v 0.000196 -0.000692 -0.000856
v 0.000000 0.000282 -0.001082
v 0.000000 -0.000696 -0.000875
v -0.000196 0.000286 -0.001063
v -0.000196 -0.000692 -0.000856
v -0.000382 0.000298 -0.001007
v -0.000382 -0.000680 -0.000800
v -0.000556 0.000317 -0.000917
v -0.000556 -0.000661 -0.000710
v -0.000707 0.000343 -0.000795
v -0.000707 -0.000636 -0.000588
v -0.000832 0.000374 -0.000647
v -0.000832 -0.000604 -0.000440
v -0.000924 0.000410 -0.000478
v -0.000924 -0.000568 -0.000271
v -0.000980 0.000449 -0.000294
v -0.000980 -0.000530 -0.000087
v -0.001000 0.000489 -0.000104
v -0.001000 -0.000489 0.000104
v -0.000980 0.000530 0.000087
v -0.000980 -0.000449 0.000294
v -0.000924 0.000568 0.000271
v -0.000924 -0.000410 0.000478
v -0.000832 0.000604 0.000440
v -0.000832 -0.000374 0.000647
v -0.000707 0.000636 0.000588
v -0.000707 -0.000343 0.000795
v -0.000556 0.000661 0.000710
v -0.000556 -0.000317 0.000917
v -0.000382 0.000680 0.000800
v -0.000382 -0.000298 0.001007
v -0.000196 0.000692 0.000856
v -0.000196 -0.000286 0.001063
v 0.000000 0.000696 0.000875
v 0.000000 -0.000282 0.001082
v 0.000196 0.000692 0.000856
v 0.000196 -0.000286 0.001063
v 0.000382 0.000680 0.000800
v 0.000382 -0.000298 0.001007
v 0.000556 0.000661 0.000710
v 0.000556 -0.000317 0.000917
v 0.000707 0.000636 0.000588
v 0.000707 -0.000343 0.000795
v 0.000832 0.000604 0.000440
v 0.000832 -0.000374 0.000647
v 0.000924 0.000568 0.000271
v 0.000924 -0.000410 0.000478
v 0.000980 0.000530 0.000087
v 0.000980 -0.000449 0.000294
vn 0.9948 -0.0212 -0.0999
vn 0.9578 -0.0595 -0.2811
vn 0.8817 -0.0978 -0.4615
vn 0.8818 -0.0977 -0.4613
vn 0.7714 -0.1318 -0.6225
vn 0.7716 -0.1318 -0.6223
vn 0.7714 -0.1318 -0.6226
vn 0.6365 -0.1598 -0.7546
vn 0.4703 -0.1828 -0.8634
vn 0.4703 -0.1828 -0.8633
vn 0.2910 -0.1982 -0.9360
vn 0.2913 -0.1982 -0.9359
vn 0.2909 -0.1982 -0.9360
vn 0.0976 -0.2062 -0.9736
vn 0.0980 -0.2062 -0.9736
vn -0.0980 -0.2062 -0.9736
vn -0.0979 -0.2062 -0.9736
vn -0.2913 -0.1982 -0.9359
vn -0.2910 -0.1982 -0.9360
vn -0.2909 -0.1982 -0.9360
vn -0.4703 -0.1828 -0.8634
vn -0.4700 -0.1829 -0.8635
vn -0.4703 -0.1828 -0.8633
vn -0.6365 -0.1598 -0.7546
vn -0.7716 -0.1318 -0.6223
vn -0.7714 -0.1318 -0.6225
vn -0.7714 -0.1318 -0.6226
vn -0.8818 -0.0977 -0.4613
vn -0.8817 -0.0978 -0.4615
vn -0.9578 -0.0595 -0.2811
vn -0.9948 -0.0212 -0.0999
vn -0.9948 0.0212 0.0999
vn -0.9578 0.0595 0.2811
vn -0.8817 0.0978 0.4615
vn -0.8818 0.0977 0.4613
vn -0.7714 0.1318 0.6225
vn -0.7716 0.1318 0.6223
vn -0.6365 0.1598 0.7546
vn -0.4703 0.1828 0.8634
vn -0.4700 0.1829 0.8635
vn -0.2910 0.1982 0.9360
vn -0.2913 0.1982 0.9359
vn -0.2914 0.1983 0.9358
vn -0.0976 0.2062 0.9736
vn -0.0980 0.2062 0.9736
vn -0.0975 0.2063 0.9736
vn 0.0980 0.2062 0.9736
vn 0.0979 0.2062 0.9736
vn 0.0975 0.2063 0.9736
vn 0.2913 0.1982 0.9359
vn 0.2914 0.1983 0.9358
vn 0.4703 0.1828 0.8634
vn 0.4700 0.1829 0.8635
vn 0.6365 0.1598 0.7546
vn 0.7716 0.1318 0.6223
vn 0.7714 0.1318 0.6225
vn 0.8818 0.0977 0.4613
vn 0.8817 0.0978 0.4615
vn -0.0029 -0.9790 0.2039
vn -0.0039 -0.9782 0.2076
vn 0.0008 -0.9777 0.2098
vn 0.9578 0.0595 0.2811
vn 0.9948 0.0212 0.0999
vn -0.0029 0.9780 -0.2085
vn -0.0004 0.9790 -0.2037
vn 0.0019 0.9785 -0.2060
vn 0.4700 -0.1829 -0.8635
vn 0.2914 -0.1983 -0.9358
vn 0.0975 -0.2063 -0.9736
vn -0.0975 -0.2063 -0.9736
vn -0.2914 -0.1983 -0.9358
vn -0.7714 0.1318 0.6226
vn -0.4703 0.1828 0.8633
vn -0.2909 0.1982 0.9360
vn 0.2909 0.1982 0.9360
vn 0.4703 0.1828 0.8633
vn 0.7714 0.1318 0.6226
vn -0.0004 -0.9787 0.2052
vn 0.0013 -0.9783 0.2073
vn 0.0049 -0.9781 0.2081
vn 0.0075 -0.9780 0.2083
vn 0.0093 -0.9779 0.2087
vn 0.0170 -0.9757 0.2183
vn -0.0042 -0.9794 0.2021
vn -0.0066 -0.9799 0.1993
vn -0.0032 -0.9816 0.1910
vn 0.0032 -0.9816 0.1910
vn 0.0034 -0.9792 0.2028
vn 0.0066 -0.9799 0.1993
vn 0.0044 -0.9792 0.2027
vn -0.0170 -0.9757 0.2183
vn -0.0093 -0.9779 0.2087
vn -0.0075 -0.9780 0.2083
vn -0.0013 -0.9783 0.2073
vn 0.0005 -0.9789 0.2044
vn -0.0029 -0.9787 0.2053
vn -0.0018 -0.9784 0.2066
vn 0.0010 -0.9781 0.2083
vn 0.0015 -0.9768 0.2143
vn -0.0000 -0.9770 0.2131
vn -0.0015 -0.9768 0.2143
vn -0.0011 -0.9775 0.2107
vn -0.0010 -0.9781 0.2083
vn 0.0017 -0.9785 0.2062
vn 0.0029 -0.9787 0.2053
vn -0.0000 -0.9784 0.2068
vn -0.0000 0.9782 -0.2077
vn 0.0008 0.9782 -0.2078
vn -0.0154 0.9794 -0.2014
vn -0.0016 0.9790 -0.2040
vn -0.0010 0.9787 -0.2054
vn -0.0022 0.9790 -0.2040
vn -0.0004 0.9784 -0.2066
vn 0.0072 0.9744 -0.2245
vn -0.0000 0.9749 -0.2228
vn -0.0000 0.9795 -0.2014
vn -0.0003 0.9788 -0.2047
vn -0.0005 0.9775 -0.2110
vn -0.0053 0.9778 -0.2095
vn -0.0074 0.9775 -0.2106
vn 0.0154 0.9794 -0.2014
vn -0.0020 0.9786 -0.2060
vn -0.0039 0.9788 -0.2048
vn -0.0032 0.9784 -0.2066
vn -0.0002 0.9784 -0.2069
vn -0.0017 0.9791 -0.2036
vn -0.0022 0.9793 -0.2024
vn -0.0000 0.9800 -0.1991
vn -0.0000 0.9794 -0.2020
vn 0.0001 0.9781 -0.2083
vn 0.0002 0.9784 -0.2066
vn 0.0025 0.9787 -0.2055
vn 0.0037 0.9788 -0.2049
vn 0.0039 0.9788 -0.2048
s 1
usemtl Agent_Gray_Matte
f 2//1 3//1 1//1
f 3//2 6//2 5//2
f 6//3 7//4 5//4
f 7//5 10//6 9//7
f 9//8 12//8 11//8
f 12//9 13//9 11//10
f 13//11 16//12 15//13
f 16//14 17//15 15//15
f 17//16 20//17 19//16
f 20//18 21//19 19//20
f 21//21 24//22 23//23
f 24//24 25//24 23//24
f 26//25 27//26 25//27
f 27//28 30//29 29//28
f 30//30 31//30 29//30
f 31//31 34//31 33//31
f 33//32 36//32 35//32
f 36//33 37//33 35//33
f 37//34 40//35 39//34
f 40//36 41//37 39//37
f 42//38 43//38 41//38
f 43//39 46//39 45//40
f 46//41 47//42 45//43
f 47//44 50//45 49//46
f 50//47 51//48 49//49
f 51//50 54//51 53//51
f 54//52 55//53 53//53
f 55//54 58//54 57//54
f 57//55 60//56 59//55
f 60//57 61//58 59//58
f 54//59 38//60 22//61
f 61//62 64//62 63//62
f 64//63 1//63 63//63
f 31//64 47//65 63//66
f 2//1 4//1 3//1
f 3//2 4//2 6//2
f 6//3 8//3 7//4
f 7//5 8//6 10//6
f 9//8 10//8 12//8
f 12//9 14//67 13//9
f 13//11 14//68 16//12
f 16//14 18//69 17//15
f 17//16 18//70 20//17
f 20//18 22//71 21//19
f 21//21 22//22 24//22
f 24//24 26//24 25//24
f 26//25 28//25 27//26
f 27//28 28//29 30//29
f 30//30 32//30 31//30
f 31//31 32//31 34//31
f 33//32 34//32 36//32
f 36//33 38//33 37//33
f 37//34 38//35 40//35
f 40//36 42//72 41//37
f 42//38 44//38 43//38
f 43//39 44//73 46//39
f 46//41 48//74 47//42
f 47//44 48//45 50//45
f 50//47 52//47 51//48
f 51//50 52//75 54//51
f 54//52 56//76 55//53
f 55//54 56//54 58//54
f 57//55 58//77 60//56
f 60//57 62//57 61//58
f 6//78 4//79 62//80
f 4//79 2//81 62//80
f 2//81 64//82 62//80
f 62//83 60//83 58//83
f 58//84 56//85 54//59
f 54//86 52//86 50//86
f 50//87 48//87 46//87
f 46//88 44//89 42//90
f 42//91 40//91 38//91
f 38//60 36//92 34//93
f 34//93 32//94 38//60
f 32//94 30//95 38//60
f 30//95 28//96 26//97
f 26//97 24//98 22//61
f 22//61 20//99 18//100
f 18//100 16//101 14//102
f 14//102 12//103 10//104
f 10//104 8//105 6//78
f 62//80 58//84 6//78
f 58//84 54//59 6//78
f 54//59 50//106 46//88
f 46//88 42//90 54//59
f 42//90 38//60 54//59
f 30//95 26//97 38//60
f 26//97 22//61 38//60
f 22//61 18//100 14//102
f 14//102 10//104 22//61
f 10//104 6//78 22//61
f 6//78 54//59 22//61
f 61//62 62//62 64//62
f 64//63 2//63 1//63
f 63//66 1//107 3//108
f 3//109 5//109 7//109
f 7//110 9//111 15//112
f 9//111 11//113 15//112
f 11//114 13//114 15//114
f 15//115 17//115 19//115
f 19//116 21//117 15//112
f 21//117 23//118 15//112
f 23//118 25//119 31//64
f 25//119 27//120 31//64
f 27//121 29//121 31//121
f 31//64 33//107 35//122
f 35//122 37//123 39//124
f 39//124 41//125 47//65
f 41//125 43//126 47//65
f 43//126 45//127 47//65
f 47//65 49//128 51//129
f 51//129 53//130 47//65
f 53//130 55//131 47//65
f 55//131 57//132 63//66
f 57//132 59//133 63//66
f 59//133 61//134 63//66
f 63//66 3//108 15//112
f 3//108 7//110 15//112
f 31//64 35//122 47//65
f 35//122 39//124 47//65
f 15//112 23//118 31//64
f 47//65 55//131 63//66
f 63//66 15//112 31//64
