# Blender 4.2.0
# www.blender.org
mtllib Office_043.mtl
o Office_043
v 0.036719 0.019379 -0.008969
v 0.033822 0.019379 -0.008242
v 0.033823 -0.019011 -0.008242
v 0.031342 0.019379 -0.006622
v 0.031342 -0.017663 -0.006622
v 0.029522 0.019379 -0.004284
v 0.029522 -0.016274 -0.004284
v 0.028560 0.019379 -0.001481
v 0.028560 -0.015404 -0.001481
v 0.028560 0.019379 0.001481
v 0.028560 -0.015404 0.001481
v 0.029522 0.019379 0.004284
v 0.029522 -0.016274 0.004284
v 0.031342 0.019379 0.006621
v 0.031342 -0.017663 0.006621
v 0.033822 0.019379 0.008242
v 0.033816 -0.019011 0.008242
v 0.036711 0.019379 0.008969
v 0.036711 -0.020267 0.008969
v 0.036719 -0.020267 -0.008960
v 0.036719 0.019379 -0.008969
v 0.039615 0.019379 -0.008240
v 0.039615 -0.020267 -0.008240
v 0.042094 0.019379 -0.006617
v 0.042094 -0.020267 -0.006617
v 0.043912 0.019379 -0.004278
v 0.043912 -0.020267 -0.004278
v 0.044871 0.019379 -0.001475
v 0.044871 -0.020267 -0.001475
v 0.044869 0.019379 0.001488
v 0.044869 -0.020267 0.001488
v 0.043904 0.019379 0.004290
v 0.043904 -0.020267 0.004290
v 0.042083 0.019379 0.006626
v 0.042083 -0.020267 0.006626
v 0.039601 0.019379 0.008244
v 0.039601 -0.020267 0.008244
v 0.036711 0.019379 0.008969
v 0.036719 -0.020267 -0.008960
v -0.026357 -0.020267 -0.008242
v -0.026351 -0.020267 -0.006621
v -0.026352 -0.020267 -0.004283
v -0.026353 -0.020267 -0.001480
v -0.026354 -0.020267 0.001482
v -0.026356 -0.020267 0.004285
v -0.026357 -0.020267 0.006622
v -0.026357 -0.020267 0.008242
v -0.025282 -0.019082 0.008969
v -0.025274 -0.019082 -0.008960
v -0.044864 0.020267 -0.008242
v -0.044865 0.020267 -0.006621
v -0.044866 0.020267 -0.004283
v -0.044867 0.020267 -0.001480
v -0.044868 0.020267 0.001482
v -0.044870 0.020267 0.004285
v -0.044871 0.020267 0.006622
v -0.044871 0.020267 0.008242
v -0.043789 0.020267 0.007175
v -0.043781 0.020267 -0.007165
v -0.025842 -0.019011 -0.008243
v -0.026817 -0.017663 -0.006622
v -0.027970 -0.016274 -0.004285
v -0.027692 -0.015404 -0.001482
v -0.027693 -0.015404 0.001480
v -0.027970 -0.016274 0.004283
v -0.026817 -0.017663 0.006621
v -0.025849 -0.019011 0.008241
vn -0.5469 -0.0000 -0.8372
vn -0.7891 -0.0000 -0.6142
vn -0.9458 -0.0000 -0.3247
vn -1.0000 -0.0000 -0.0000
vn -0.9458 -0.0000 0.3247
vn -0.7891 -0.0000 0.6142
vn -0.5473 -0.0000 0.8370
vn -0.5476 0.0001 0.8368
vn -0.5470 -0.0000 0.8372
vn -0.2437 -0.0000 0.9698
vn -0.2441 -0.0000 0.9697
vn -0.2435 -0.0000 -0.9699
vn 0.5477 -0.0000 -0.8367
vn 0.7896 -0.0000 -0.6136
vn 0.9461 -0.0000 -0.3239
vn 1.0000 -0.0000 0.0008
vn 0.9456 -0.0000 0.3255
vn 0.7886 -0.0000 0.6149
vn 0.5463 -0.0000 0.8376
vn -0.0099 -0.5166 0.8562
vn 0.2443 -0.0002 -0.9697
vn -0.0000 -1.0000 -0.0000
vn 0.9096 0.4155 0.0004
vn 0.9096 0.4155 -0.0017
vn 0.9096 0.4155 0.0003
vn 0.9096 0.4155 -0.0032
vn 0.9096 0.4155 -0.0014
vn 0.9049 0.4256 0.0004
vn 0.9049 0.4256 0.0005
vn 0.2433 -0.0000 0.9699
vn -0.6625 -0.3420 0.6665
vn 0.4032 0.1842 -0.8964
vn -0.0000 -1.0000 -0.0001
vn -0.0000 -1.0000 -0.0003
vn -0.0098 -0.5116 -0.8592
vn -0.0000 0.8597 0.5108
vn -0.0000 0.9550 0.2966
vn -0.0000 1.0000 -0.0000
vn -0.0000 0.9550 -0.2966
vn -0.0000 0.8597 -0.5108
vn -0.0000 0.7689 -0.6394
vn -0.0000 0.7687 0.6396
vn -0.0110 0.5254 0.8508
vn 0.0099 0.5183 0.8551
vn -0.0000 0.9951 -0.0987
vn -0.5470 -0.0000 -0.8371
vn -0.5479 0.0001 0.8366
vn -0.2404 -0.0002 -0.9707
vn 0.2413 -0.0000 -0.9705
vn 0.9097 0.4153 0.0004
vn 0.3976 0.1815 0.8994
vn -0.6598 -0.3409 -0.6697
vn 0.0098 0.5127 -0.8585
vn -0.0000 0.9953 0.0971
s 1
usemtl Aluminum_Anodized
f 2//1 5//1 4//1
f 4//2 7//2 6//2
f 6//3 9//3 8//3
f 9//4 10//4 8//4
f 11//5 12//5 10//5
f 13//6 14//6 12//6
f 15//7 16//8 14//9
f 17//10 18//11 16//11
f 1//12 3//12 2//12
f 22//13 25//13 23//13
f 26//14 25//14 24//14
f 28//15 27//15 26//15
f 30//16 29//16 28//16
f 32//17 31//17 30//17
f 34//18 33//18 32//18
f 36//19 35//19 34//19
f 47//20 19//20 48//20
f 22//21 39//21 21//21
f 33//22 44//22 31//22
f 37//22 46//22 35//22
f 35//22 45//22 33//22
f 42//23 51//24 52//23
f 47//23 56//23 57//25
f 45//23 54//23 55//23
f 43//23 52//23 53//23
f 40//26 51//24 41//27
f 48//28 59//28 58//29
f 46//23 55//23 56//23
f 44//23 53//23 54//23
f 58//22 56//22 55//22
f 19//30 36//30 18//30
f 50//31 49//31 59//31
f 31//22 43//22 29//22
f 57//32 48//32 47//32
f 27//22 43//22 42//22
f 25//22 42//22 41//33
f 23//22 41//33 40//34
f 39//35 40//35 49//35
f 13//36 66//36 15//36
f 11//37 65//37 13//37
f 11//38 63//38 64//38
f 9//39 62//39 63//39
f 7//40 61//40 62//40
f 5//41 60//41 61//41
f 15//42 67//42 17//42
f 3//43 49//43 40//43
f 17//44 48//44 19//44
f 3//45 49//45 60//45
f 2//46 3//46 5//46
f 4//2 5//2 7//2
f 6//3 7//3 9//3
f 9//4 11//4 10//4
f 11//5 13//5 12//5
f 13//6 15//6 14//6
f 15//7 17//47 16//8
f 17//10 19//10 18//11
f 1//48 20//48 3//48
f 22//13 24//13 25//13
f 26//14 27//14 25//14
f 28//15 29//15 27//15
f 30//16 31//16 29//16
f 32//17 33//17 31//17
f 34//18 35//18 33//18
f 36//19 37//19 35//19
f 47//22 37//22 19//22
f 22//49 23//49 39//49
f 33//22 45//22 44//22
f 37//22 47//22 46//22
f 35//22 46//22 45//22
f 42//23 41//27 51//24
f 47//23 46//23 56//23
f 45//23 44//23 54//23
f 43//23 42//23 52//23
f 40//50 50//50 51//50
f 48//28 49//28 59//28
f 46//23 45//23 55//23
f 44//23 43//23 53//23
f 52//22 51//22 59//22
f 51//22 50//22 59//22
f 59//22 58//22 53//22
f 52//22 59//22 53//22
f 58//22 57//22 56//22
f 55//22 54//22 58//22
f 54//22 53//22 58//22
f 19//30 37//30 36//30
f 50//51 40//51 49//51
f 31//22 44//22 43//22
f 57//52 58//52 48//52
f 27//22 29//22 43//22
f 25//22 27//22 42//22
f 23//22 25//22 41//33
f 39//22 23//22 40//22
f 13//36 65//36 66//36
f 11//37 64//37 65//37
f 11//38 9//38 63//38
f 9//39 7//39 62//39
f 7//40 5//40 61//40
f 5//41 3//41 60//41
f 15//42 66//42 67//42
f 3//53 39//53 49//53
f 17//54 67//54 48//54
