# Blender 4.2.0
# www.blender.org
mtllib Office_003.mtl
o Office_003
v 0.015807 0.000061 0.073292
v 0.015806 0.036690 0.073292
v 0.016149 0.036690 -0.073322
v 0.016149 0.000000 -0.073322
v -0.005202 0.036690 -0.062062
v -0.016150 0.036690 0.012046
v -0.005202 0.036690 0.065851
v -0.016150 0.036690 0.003195
v -0.005202 0.036690 -0.011712
v 0.015807 0.000061 0.073290
v -0.005202 0.000005 -0.062064
v -0.016149 0.000036 0.012044
v -0.016149 0.000032 0.003193
v -0.005202 0.000026 -0.011714
v -0.005202 0.029878 0.065850
v 0.001880 0.036690 0.068359
v 0.001880 0.000059 0.068358
v 0.001880 0.029879 0.068358
v -0.007347 0.036690 0.055307
v -0.007347 0.000054 0.055305
v -0.007347 0.029876 0.055306
v -0.001989 0.029878 0.063848
v 0.005092 0.000059 0.066356
v 0.005092 0.029879 0.066356
v -0.004134 0.000053 0.053303
v -0.004135 0.029876 0.053304
v 0.015807 0.000061 0.073292
v 0.015807 -0.036567 0.073322
v 0.016150 -0.036690 -0.073291
v 0.016149 0.000000 -0.073322
v -0.005201 -0.036680 -0.062031
v -0.016149 -0.036618 0.012077
v -0.005201 -0.036573 0.065882
v -0.016149 -0.036626 0.003226
v -0.005201 -0.036638 -0.011681
v 0.015807 0.000061 0.073290
v -0.005202 0.000005 -0.062064
v -0.016149 0.000036 0.012044
v -0.016149 0.000032 0.003193
v -0.005202 0.000026 -0.011714
v -0.005201 -0.029762 0.065875
v 0.001880 -0.036571 0.068390
v 0.001880 0.000059 0.068358
v 0.001880 -0.029760 0.068383
v -0.007347 -0.036582 0.055338
v -0.007347 0.000054 0.055305
v -0.007347 -0.029768 0.055331
v -0.001989 -0.029763 0.063873
v 0.005092 0.000059 0.066356
v 0.005092 -0.029762 0.066382
v -0.004134 0.000053 0.053303
v -0.004134 -0.029770 0.053329
v -0.005202 0.029762 0.065971
v 0.001165 0.029762 0.068379
v -0.007347 0.029760 0.055802
v -0.005201 -0.029406 0.065996
v 0.001166 -0.029404 0.068404
v -0.007347 -0.029412 0.055827
v -0.000511 0.029762 0.065971
v 0.005857 0.029762 0.068379
v -0.002656 0.029760 0.055802
v -0.000510 -0.029406 0.065996
v 0.005857 -0.029404 0.068404
v -0.002656 -0.029412 0.055827
v 0.004180 0.029762 0.065971
v 0.010548 0.029762 0.068379
v 0.002035 0.029760 0.055802
v -0.002801 0.000053 0.057005
v -0.002801 0.029876 0.057006
v -0.002801 0.000053 0.057005
v -0.002800 -0.029770 0.057031
v 0.003383 0.000059 0.064395
v 0.003383 0.029879 0.064396
v 0.003383 0.000059 0.064395
v 0.003384 -0.029762 0.064421
v 0.001184 0.000059 0.064395
v 0.001184 0.029879 0.064396
v 0.001184 0.000059 0.064395
v 0.001184 -0.029762 0.064421
v -0.004573 0.000053 0.057005
v -0.004573 0.029876 0.057006
v -0.004573 0.000053 0.057005
v -0.004573 -0.029770 0.057031
v -0.006280 0.029988 0.060880
v -0.006274 -0.029409 0.060911
v -0.006274 0.000176 0.060899
v -0.006274 0.026039 0.060888
v -0.006279 -0.025762 0.060904
vn -0.0000 1.0000 -0.0000
vn -0.9799 -0.0000 0.1994
vn -1.0000 -0.0000 -0.0000
vn -0.8060 -0.0000 -0.5919
vn -0.9799 -0.0000 0.1993
vn -0.3339 -0.0001 0.9426
vn -0.3338 -0.0001 0.9426
vn -0.4664 -0.0000 -0.8846
vn 0.0001 -1.0000 0.0001
vn -0.5289 -0.0000 -0.8487
vn 0.0001 -1.0000 0.0002
vn 0.5288 -0.0000 0.8487
vn 0.5289 -0.0000 0.8487
vn -0.0000 -1.0000 0.0008
vn -0.9799 0.0002 0.1994
vn -0.8060 -0.0005 -0.5919
vn -0.3339 0.0009 0.9426
vn -0.3339 0.0008 0.9426
vn -0.4664 -0.0008 -0.8846
vn 0.0001 1.0000 -0.0008
vn 0.0001 1.0000 -0.0007
vn -0.5289 -0.0007 -0.8487
vn 0.0001 1.0000 -0.0006
vn 0.5288 0.0007 0.8487
vn 0.0483 0.9988 -0.0104
vn -0.0000 1.0000 -0.0002
vn -0.0000 -1.0000 0.0006
vn -0.0000 -1.0000 0.0007
vn -0.9408 0.0003 0.3390
vn -0.9408 0.0003 0.3389
vn -0.9408 0.0003 0.3388
vn -0.9408 -0.0000 0.3391
vn -0.7539 0.0005 0.6570
vn -0.7540 0.0006 0.6569
vn -0.7540 0.0006 0.6568
vn -0.7538 -0.0000 0.6570
vn -0.0000 0.0009 1.0000
vn -0.0000 -0.0000 1.0000
vn -0.0000 -0.0009 -1.0000
vn -0.0000 -0.0000 -1.0000
vn -0.3339 -0.0000 0.9426
vn -0.4665 -0.0000 -0.8845
vn -0.5290 -0.0000 -0.8486
vn -0.8060 -0.0006 -0.5919
vn -0.4665 -0.0008 -0.8845
vn -0.0000 0.9990 -0.0449
vn -0.0000 0.9990 0.0443
vn -0.9408 0.0003 0.3391
vn -0.9408 -0.0000 0.3388
vn -0.7538 0.0005 0.6570
s 1
usemtl Aluminum_Anodized
f 19//1 7//1 9//1
f 6//2 20//2 19//2
f 8//3 12//3 6//3
f 9//4 13//4 8//4
f 15//5 19//5 21//5
f 2//6 16//7 18//7
f 2//1 3//1 5//1
f 11//8 3//8 4//8
f 18//7 7//7 15//6
f 18//9 22//9 24//9
f 17//10 24//10 23//10
f 21//11 22//9 15//9
f 20//12 26//13 21//13
f 14//3 5//3 11//3
f 35//14 33//14 45//14
f 32//15 46//15 38//15
f 38//3 34//3 32//3
f 39//16 35//16 34//16
f 41//15 45//15 33//15
f 44//17 28//18 27//18
f 31//14 28//14 42//14
f 29//19 37//19 30//19
f 44//17 33//17 42//17
f 44//20 48//21 41//21
f 43//22 50//22 44//22
f 48//21 47//23 41//21
f 52//24 46//24 47//24
f 40//3 31//3 35//3
f 84//25 59//25 61//25
f 54//26 59//26 53//26
f 59//26 67//26 61//26
f 57//27 62//27 63//27
f 60//26 65//26 59//26
f 85//28 64//28 62//27
f 52//29 70//30 51//31
f 26//32 68//32 69//32
f 49//33 75//34 50//35
f 23//36 73//36 72//36
f 74//37 79//37 75//37
f 73//38 76//38 72//38
f 70//39 83//39 82//39
f 68//40 81//40 69//40
f 8//1 6//1 9//1
f 6//1 19//1 9//1
f 6//2 12//2 20//2
f 8//3 13//3 12//3
f 9//4 14//4 13//4
f 15//5 7//5 19//5
f 18//41 17//41 1//41
f 1//41 2//41 18//41
f 5//1 7//1 16//1
f 16//1 2//1 5//1
f 11//42 5//42 3//42
f 18//7 16//7 7//7
f 18//9 15//9 22//9
f 17//43 18//43 24//43
f 21//11 26//11 22//9
f 20//12 25//12 26//13
f 14//3 9//3 5//3
f 45//14 32//14 35//14
f 32//14 34//14 35//14
f 32//15 45//15 46//15
f 38//3 39//3 34//3
f 39//16 40//44 35//16
f 41//15 47//15 45//15
f 27//18 43//18 44//17
f 44//17 42//17 28//18
f 42//14 33//14 31//14
f 31//14 29//14 28//14
f 29//45 31//45 37//45
f 44//17 41//17 33//17
f 44//20 50//20 48//21
f 43//22 49//22 50//22
f 48//21 52//23 47//23
f 52//24 51//24 46//24
f 40//3 37//3 31//3
f 61//46 55//46 84//46
f 84//47 53//47 59//47
f 54//26 60//26 59//26
f 59//26 65//26 67//26
f 57//27 56//28 62//27
f 60//26 66//26 65//26
f 62//27 56//28 85//28
f 85//28 58//28 64//28
f 52//29 71//48 70//30
f 26//49 25//49 68//49
f 49//33 74//50 75//34
f 23//36 24//36 73//36
f 74//37 78//37 79//37
f 73//38 77//38 76//38
f 70//39 71//39 83//39
f 68//40 80//40 81//40
