# Blender 4.2.0
# www.blender.org
mtllib Office_015.mtl
o Office_015
v 0.000061 -0.015807 0.073292
v 0.036690 -0.015807 0.073292
v 0.036690 -0.016149 -0.073322
v 0.000000 -0.016149 -0.073322
v 0.036690 0.005202 -0.062062
v 0.036690 0.016149 0.012046
v 0.036690 0.005202 0.065851
v 0.036690 0.016149 0.003195
v 0.036690 0.005202 -0.011712
v 0.000061 -0.015807 0.073290
v 0.000005 0.005202 -0.062064
v 0.000036 0.016149 0.012044
v 0.000032 0.016149 0.003193
v 0.000026 0.005202 -0.011714
v 0.029878 0.005202 0.065850
v 0.036690 -0.001879 0.068359
v 0.000059 -0.001879 0.068358
v 0.029879 -0.001879 0.068358
v 0.036690 0.007347 0.055307
v 0.000054 0.007347 0.055305
v 0.029876 0.007347 0.055306
v 0.029878 0.001990 0.063848
v 0.000059 -0.005092 0.066356
v 0.029879 -0.005092 0.066356
v 0.000053 0.004135 0.053303
v 0.029876 0.004135 0.053304
v 0.000061 -0.015807 0.073292
v -0.036567 -0.015807 0.073322
v -0.036690 -0.016149 -0.073291
v 0.000000 -0.016149 -0.073322
v -0.036680 0.005202 -0.062031
v -0.036618 0.016149 0.012077
v -0.036573 0.005202 0.065882
v -0.036626 0.016149 0.003226
v -0.036638 0.005202 -0.011681
v 0.000061 -0.015807 0.073290
v 0.000005 0.005202 -0.062064
v 0.000036 0.016149 0.012044
v 0.000032 0.016149 0.003193
v 0.000026 0.005202 -0.011714
v -0.029762 0.005202 0.065875
v -0.036571 -0.001879 0.068390
v 0.000059 -0.001879 0.068358
v -0.029760 -0.001879 0.068383
v -0.036582 0.007347 0.055338
v 0.000054 0.007347 0.055305
v -0.029768 0.007347 0.055331
v -0.029763 0.001990 0.063873
v 0.000059 -0.005092 0.066356
v -0.029762 -0.005092 0.066382
v 0.000053 0.004135 0.053303
v -0.029770 0.004135 0.053329
v 0.029762 0.005202 0.065971
v 0.029762 -0.001166 0.068379
v 0.029760 0.007347 0.055802
v -0.029406 0.005202 0.065996
v -0.029404 -0.001166 0.068404
v -0.029412 0.007347 0.055827
v 0.029762 0.000511 0.065971
v 0.029762 -0.005857 0.068379
v 0.029760 0.002656 0.055802
v -0.029406 0.000511 0.065996
v -0.029404 -0.005857 0.068404
v -0.029412 0.002656 0.055827
v 0.029762 -0.004180 0.065971
v 0.029762 -0.010548 0.068379
v 0.029760 -0.002035 0.055802
v 0.000053 0.002800 0.057005
v 0.029876 0.002800 0.057006
v 0.000053 0.002800 0.057005
v -0.029770 0.002800 0.057031
v 0.000059 -0.003383 0.064395
v 0.029879 -0.003383 0.064396
v 0.000059 -0.003383 0.064395
v -0.029762 -0.003383 0.064421
v 0.000059 -0.001184 0.064395
v 0.029879 -0.001184 0.064396
v 0.000059 -0.001184 0.064395
v -0.029762 -0.001184 0.064421
v 0.000053 0.004573 0.057005
v 0.029876 0.004573 0.057006
v 0.000053 0.004573 0.057005
v -0.029770 0.004573 0.057031
v 0.029988 0.006280 0.060880
v -0.029409 0.006274 0.060911
v 0.000176 0.006274 0.060899
v 0.026039 0.006274 0.060888
v -0.025762 0.006280 0.060904
vn 1.0000 -0.0000 -0.0000
vn -0.0000 0.9799 0.1994
vn -0.0000 1.0000 -0.0000
vn -0.0000 0.8060 -0.5919
vn -0.0001 0.3338 0.9426
vn -0.0001 0.3339 0.9426
vn -0.0000 0.4664 -0.8846
vn -1.0000 -0.0001 0.0001
vn -0.0000 0.5289 -0.8487
vn -1.0000 -0.0001 0.0002
vn -0.0000 -0.5289 0.8487
vn -1.0000 -0.0000 0.0008
vn 0.0002 0.9799 0.1994
vn -0.0005 0.8060 -0.5919
vn 0.0009 0.3339 0.9426
vn 0.0008 0.3339 0.9426
vn -0.0007 0.4664 -0.8846
vn 0.0009 0.3338 0.9426
vn 1.0000 -0.0001 -0.0008
vn 1.0000 -0.0001 -0.0007
vn -0.0007 0.5289 -0.8487
vn 1.0000 -0.0001 -0.0006
vn 0.0007 -0.5289 0.8487
vn 0.9988 -0.0483 -0.0104
vn 1.0000 -0.0000 -0.0002
vn -1.0000 -0.0000 0.0006
vn -1.0000 -0.0000 0.0007
vn 0.0003 0.9407 0.3391
vn -0.0000 0.9407 0.3391
vn 0.0006 0.7540 0.6569
vn -0.0000 0.7540 0.6569
vn 0.0009 -0.0000 1.0000
vn -0.0000 -0.0000 1.0000
vn -0.0009 -0.0000 -1.0000
vn -0.0000 -0.0000 -1.0000
vn -0.0000 0.3339 0.9426
vn -0.0000 0.4665 -0.8845
vn -0.0008 0.4665 -0.8845
vn 0.9990 -0.0000 -0.0449
vn 0.9990 -0.0000 0.0443
s 1
usemtl Aluminum_Anodized
f 19//1 7//1 9//1
f 6//2 20//2 19//2
f 8//3 12//3 6//3
f 9//4 13//4 8//4
f 15//2 19//2 21//2
f 2//5 16//5 18//6
f 2//1 3//1 5//1
f 11//7 3//7 4//7
f 18//6 7//6 15//6
f 18//8 22//8 24//8
f 17//9 24//9 23//9
f 21//10 22//8 15//8
f 20//11 26//11 21//11
f 14//3 5//3 11//3
f 35//12 33//12 45//12
f 32//13 46//13 38//13
f 38//3 34//3 32//3
f 39//14 35//14 34//14
f 41//13 45//13 33//13
f 44//15 28//16 27//16
f 31//12 28//12 42//12
f 29//17 37//17 30//17
f 44//15 33//15 42//18
f 44//19 48//20 41//20
f 43//21 50//21 44//21
f 48//20 47//22 41//20
f 52//23 46//23 47//23
f 40//3 31//3 35//3
f 84//24 59//24 61//24
f 54//25 59//25 53//25
f 59//25 67//25 61//25
f 57//26 62//26 63//26
f 60//25 65//25 59//25
f 85//27 64//27 62//26
f 52//28 70//28 51//28
f 26//29 68//29 69//29
f 49//30 75//30 50//30
f 23//31 73//31 72//31
f 74//32 79//32 75//32
f 73//33 76//33 72//33
f 71//34 82//34 70//34
f 68//35 81//35 69//35
f 8//1 6//1 9//1
f 6//1 19//1 9//1
f 6//2 12//2 20//2
f 8//3 13//3 12//3
f 9//4 14//4 13//4
f 15//2 7//2 19//2
f 18//36 17//36 1//36
f 1//36 2//36 18//36
f 5//1 7//1 16//1
f 16//1 2//1 5//1
f 11//37 5//37 3//37
f 18//6 16//5 7//6
f 18//8 15//8 22//8
f 17//9 18//9 24//9
f 21//10 26//10 22//8
f 20//11 25//11 26//11
f 14//3 9//3 5//3
f 45//12 32//12 35//12
f 32//12 34//12 35//12
f 32//13 45//13 46//13
f 38//3 39//3 34//3
f 39//14 40//14 35//14
f 41//13 47//13 45//13
f 27//16 43//16 44//15
f 44//15 42//18 28//16
f 42//12 33//12 31//12
f 31//12 29//12 28//12
f 29//38 31//38 37//38
f 44//15 41//15 33//15
f 44//19 50//19 48//20
f 43//21 49//21 50//21
f 48//20 52//22 47//22
f 52//23 51//23 46//23
f 40//3 37//3 31//3
f 61//39 55//39 84//39
f 84//40 53//40 59//40
f 54//25 60//25 59//25
f 59//25 65//25 67//25
f 57//26 56//27 62//26
f 60//25 66//25 65//25
f 62//26 56//27 85//27
f 85//27 58//27 64//27
f 52//28 71//28 70//28
f 26//29 25//29 68//29
f 49//30 74//30 75//30
f 23//31 24//31 73//31
f 74//32 78//32 79//32
f 73//33 77//33 76//33
f 71//34 83//34 82//34
f 68//35 80//35 81//35
