# Blender 4.2.0
# www.blender.org
mtllib SM_ABCFireExtinguisher_A02_Decal_01.mtl
o SM_ABCFireExtinguisher_A02_Decal_01
v 0.049075 -0.014415 0.117049
v 0.050053 -0.010401 0.117049
v 0.050646 -0.006961 0.117049
v 0.051003 -0.003489 0.117049
v 0.051123 0.000000 0.117049
v 0.051003 0.003489 0.117049
v 0.050646 0.006961 0.117049
v 0.050053 0.010401 0.117049
v 0.049075 0.014415 0.117049
v 0.049075 -0.014415 0.084384
v 0.050053 -0.010401 0.084384
v 0.050646 -0.006961 0.084384
v 0.051003 -0.003489 0.084384
v 0.051123 0.000000 0.084384
v 0.051003 0.003489 0.084384
v 0.050646 0.006961 0.084384
v 0.050053 0.010401 0.084384
v 0.049075 0.014415 0.084384
v 0.000000 -0.051123 0.274957
v 0.003489 -0.051003 0.274957
v 0.006961 -0.050646 0.274957
v 0.010401 -0.050053 0.274957
v 0.013793 -0.049227 0.274957
v 0.017120 -0.048171 0.274957
v 0.020367 -0.046890 0.274957
v 0.023520 -0.045391 0.274957
v 0.026562 -0.043680 0.274957
v 0.029481 -0.041766 0.274957
v 0.032263 -0.039656 0.274957
v 0.034894 -0.037362 0.274957
v 0.037362 -0.034894 0.274957
v 0.039656 -0.032263 0.274957
v 0.041766 -0.029481 0.274957
v 0.043680 -0.026562 0.274957
v 0.045391 -0.023520 0.274957
v 0.046890 -0.020367 0.274957
v 0.048171 -0.017120 0.274957
v 0.049227 -0.013793 0.274957
v 0.050053 -0.010401 0.274957
v 0.050646 -0.006961 0.274957
v 0.051003 -0.003489 0.274957
v 0.051123 0.000000 0.274957
v 0.051003 0.003489 0.274957
v 0.050646 0.006961 0.274957
v 0.050053 0.010401 0.274957
v 0.049227 0.013793 0.274957
v 0.048171 0.017120 0.274957
v 0.046890 0.020367 0.274957
v 0.045391 0.023520 0.274957
v 0.043680 0.026562 0.274957
v 0.041766 0.029481 0.274957
v 0.039656 0.032263 0.274957
v 0.037362 0.034894 0.274957
v 0.034894 0.037362 0.274957
v 0.032263 0.039656 0.274957
v 0.029481 0.041766 0.274957
v 0.026562 0.043680 0.274957
v 0.023520 0.045391 0.274957
v 0.020367 0.046890 0.274957
v 0.017120 0.048171 0.274957
v 0.013793 0.049227 0.274957
v 0.010401 0.050053 0.274957
v 0.006961 0.050646 0.274957
v 0.003489 0.051003 0.274957
v -0.000000 0.051123 0.274957
v -0.003489 0.051003 0.274957
v -0.006961 0.050646 0.274957
v -0.010401 0.050053 0.274957
v -0.013793 0.049227 0.274957
v -0.017120 0.048171 0.274957
v -0.020367 0.046890 0.274957
v -0.023520 0.045391 0.274957
v -0.026562 0.043680 0.274957
v -0.026562 -0.043680 0.274957
v -0.023520 -0.045391 0.274957
v -0.020367 -0.046890 0.274957
v -0.017120 -0.048171 0.274957
v -0.013793 -0.049227 0.274957
v -0.010401 -0.050053 0.274957
v -0.006961 -0.050646 0.274957
v -0.003489 -0.051003 0.274957
v 0.000000 -0.051123 0.186113
v 0.003489 -0.051003 0.186113
v 0.006961 -0.050646 0.186113
v 0.010401 -0.050053 0.186113
v 0.013793 -0.049227 0.186113
v 0.017120 -0.048171 0.186113
v 0.020367 -0.046890 0.186113
v 0.023520 -0.045391 0.186113
v 0.026562 -0.043680 0.186113
v 0.029481 -0.041766 0.186113
v 0.032263 -0.039656 0.186113
v 0.034894 -0.037362 0.186113
v 0.037362 -0.034894 0.186113
v 0.039656 -0.032263 0.186113
v 0.041766 -0.029481 0.186113
v 0.043680 -0.026562 0.186113
v 0.045391 -0.023520 0.186113
v 0.046890 -0.020367 0.186113
v 0.048171 -0.017120 0.186113
v 0.049227 -0.013793 0.186113
v 0.050053 -0.010401 0.186113
v 0.050646 -0.006961 0.186113
v 0.051003 -0.003489 0.186113
v 0.051123 0.000000 0.186113
v 0.051003 0.003489 0.186113
v 0.050646 0.006961 0.186113
v 0.050053 0.010401 0.186113
v 0.049227 0.013793 0.186113
v 0.048171 0.017120 0.186113
v 0.046890 0.020367 0.186113
v 0.045391 0.023520 0.186113
v 0.043680 0.026562 0.186113
v 0.041766 0.029481 0.186113
v 0.039656 0.032263 0.186113
v 0.037362 0.034894 0.186113
v 0.034894 0.037362 0.186113
v 0.032263 0.039656 0.186113
v 0.029481 0.041766 0.186113
v 0.026562 0.043680 0.186113
v 0.023520 0.045391 0.186113
v 0.020367 0.046890 0.186113
v 0.017120 0.048171 0.186113
v 0.013793 0.049227 0.186113
v 0.010401 0.050053 0.186113
v 0.006961 0.050646 0.186113
v 0.003489 0.051003 0.186113
v -0.000000 0.051123 0.186113
v -0.003489 0.051003 0.186113
v -0.006961 0.050646 0.186113
v -0.010401 0.050053 0.186113
v -0.013793 0.049227 0.186113
v -0.017120 0.048171 0.186113
v -0.020367 0.046890 0.186113
v -0.023520 0.045391 0.186113
v -0.026562 0.043680 0.186113
v -0.026562 -0.043680 0.186113
v -0.023520 -0.045391 0.186113
v -0.020367 -0.046890 0.186113
v -0.017120 -0.048171 0.186113
v -0.013793 -0.049227 0.186113
v -0.010401 -0.050053 0.186113
v -0.006961 -0.050646 0.186113
v -0.003489 -0.051003 0.186113
v -0.029509 0.041802 0.274957
v -0.029509 0.041802 0.186113
v -0.032290 0.039693 0.274957
v -0.032290 0.039693 0.186113
v -0.029509 -0.041802 0.274957
v -0.029509 -0.041802 0.186113
v -0.032290 -0.039693 0.274957
v -0.032290 -0.039693 0.186113
v -0.034890 -0.037359 0.274957
v -0.034890 -0.037359 0.186113
v -0.034890 0.037358 0.274957
v -0.034890 0.037358 0.186113
v 0.030886 0.000002 0.347076
v 0.030886 0.000002 0.361299
v 0.030886 -0.001392 0.361230
v 0.030886 -0.002773 0.361025
v 0.030886 -0.004127 0.360686
v 0.030886 -0.005441 0.360216
v 0.030886 -0.006703 0.359619
v 0.030886 -0.007900 0.358902
v 0.030886 -0.009021 0.358070
v 0.030886 -0.010055 0.357133
v 0.030886 -0.010992 0.356099
v 0.030886 -0.011824 0.354978
v 0.030886 -0.012541 0.353781
v 0.030886 -0.013138 0.352519
v 0.030886 -0.013608 0.351205
v 0.030886 -0.013947 0.349851
v 0.030886 -0.014152 0.348470
v 0.030886 -0.014221 0.347076
v 0.030886 -0.014152 0.345682
v 0.030886 -0.013947 0.344302
v 0.030886 -0.013608 0.342948
v 0.030886 -0.013138 0.341634
v 0.030886 -0.012541 0.340372
v 0.030886 -0.011824 0.339175
v 0.030886 -0.010992 0.338054
v 0.030886 -0.010055 0.337019
v 0.030886 -0.009021 0.336082
v 0.030886 -0.007900 0.335251
v 0.030886 -0.006703 0.334533
v 0.030886 -0.005441 0.333936
v 0.030886 -0.004127 0.333466
v 0.030886 -0.002773 0.333127
v 0.030886 -0.001392 0.332922
v 0.030886 0.000002 0.332854
v 0.030886 0.001396 0.332922
v 0.030886 0.002777 0.333127
v 0.030886 0.004130 0.333466
v 0.030886 0.005445 0.333936
v 0.030886 0.006706 0.334533
v 0.030886 0.007903 0.335251
v 0.030886 0.009024 0.336082
v 0.030886 0.010059 0.337019
v 0.030886 0.010996 0.338054
v 0.030886 0.011827 0.339175
v 0.030886 0.012545 0.340372
v 0.030886 0.013142 0.341634
v 0.030886 0.013612 0.342948
v 0.030886 0.013951 0.344302
v 0.030886 0.014156 0.345682
v 0.030886 0.014224 0.347076
v 0.030886 0.014156 0.348470
v 0.030886 0.013951 0.349851
v 0.030886 0.013612 0.351205
v 0.030886 0.013142 0.352519
v 0.030886 0.012545 0.353781
v 0.030886 0.011827 0.354978
v 0.030886 0.010996 0.356099
v 0.030886 0.010059 0.357133
v 0.030886 0.009024 0.358070
v 0.030886 0.007903 0.358902
v 0.030886 0.006706 0.359619
v 0.030886 0.005445 0.360216
v 0.030886 0.004130 0.360686
v 0.030886 0.002777 0.361025
v 0.030886 0.001396 0.361230
vn 0.9791 0.2035 -0.0000
vn 0.9716 0.2368 -0.0000
vn 0.9907 0.1362 -0.0000
vn 0.9977 0.0682 -0.0000
vn 1.0000 -0.0000 -0.0000
vn 0.9977 -0.0682 -0.0000
vn 0.9907 -0.1362 -0.0000
vn 0.9791 -0.2035 -0.0000
vn 0.9716 -0.2368 -0.0000
vn -0.0682 -0.9977 -0.0000
vn -0.0000 -1.0000 -0.0000
vn -0.1362 -0.9907 -0.0000
vn -0.2035 -0.9791 -0.0000
vn -0.2698 -0.9629 -0.0000
vn -0.3349 -0.9423 -0.0000
vn -0.3984 -0.9172 -0.0000
vn -0.4601 -0.8879 -0.0000
vn -0.5140 -0.8578 -0.0000
vn -0.4601 0.8879 -0.0000
vn -0.5140 0.8578 -0.0000
vn -0.3984 0.9172 -0.0000
vn -0.3349 0.9423 -0.0000
vn -0.2698 0.9629 -0.0000
vn -0.2035 0.9791 -0.0000
vn -0.1362 0.9907 -0.0000
vn -0.0682 0.9977 -0.0000
vn -0.0000 1.0000 -0.0000
vn 0.0682 0.9977 -0.0000
vn 0.1362 0.9907 -0.0000
vn 0.2035 0.9791 -0.0000
vn 0.2698 0.9629 -0.0000
vn 0.3349 0.9423 -0.0000
vn 0.3984 0.9172 -0.0000
vn 0.4601 0.8879 -0.0000
vn 0.5196 0.8544 -0.0000
vn 0.5767 0.8170 -0.0000
vn 0.6311 0.7757 -0.0000
vn 0.6826 0.7308 -0.0000
vn 0.7308 0.6826 -0.0000
vn 0.7757 0.6311 -0.0000
vn 0.8170 0.5767 -0.0000
vn 0.8544 0.5196 -0.0000
vn 0.8879 0.4601 -0.0000
vn 0.9172 0.3984 -0.0000
vn 0.9423 0.3349 -0.0000
vn 0.9629 0.2698 -0.0000
vn 0.9629 -0.2698 -0.0000
vn 0.9423 -0.3349 -0.0000
vn 0.9172 -0.3984 -0.0000
vn 0.8879 -0.4601 -0.0000
vn 0.8544 -0.5196 -0.0000
vn 0.8170 -0.5767 -0.0000
vn 0.7757 -0.6311 -0.0000
vn 0.7308 -0.6826 -0.0000
vn 0.6826 -0.7308 -0.0000
vn 0.6311 -0.7757 -0.0000
vn 0.5767 -0.8170 -0.0000
vn 0.5196 -0.8544 -0.0000
vn 0.4601 -0.8879 -0.0000
vn 0.3984 -0.9172 -0.0000
vn 0.3349 -0.9423 -0.0000
vn 0.2698 -0.9629 -0.0000
vn 0.2035 -0.9791 -0.0000
vn 0.1362 -0.9907 -0.0000
vn 0.0682 -0.9977 -0.0000
vn -0.5713 0.8207 -0.0000
vn -0.6367 0.7711 -0.0000
vn -0.5713 -0.8207 -0.0000
vn -0.6367 -0.7711 -0.0000
vn -0.6681 -0.7441 -0.0000
vn -0.6681 0.7441 -0.0000
vt 0.117200 0.856845
vt 0.134113 0.990567
vt 0.117200 0.990567
vt 0.102910 0.856845
vt 0.102910 0.990567
vt 0.088620 0.856845
vt 0.088620 0.990567
vt 0.074329 0.856845
vt 0.074329 0.990567
vt 0.060039 0.856845
vt 0.060039 0.990567
vt 0.045749 0.856844
vt 0.045749 0.990567
vt 0.031458 0.856844
vt 0.031458 0.990567
vt 0.014545 0.856845
vt 0.014546 0.990567
vt 0.159624 0.004206
vt 0.173923 0.367918
vt 0.159632 0.367918
vt 0.145334 0.004206
vt 0.145342 0.367918
vt 0.131043 0.004206
vt 0.131052 0.367919
vt 0.116752 0.004207
vt 0.116761 0.367919
vt 0.102462 0.004207
vt 0.102471 0.367919
vt 0.088171 0.004207
vt 0.088181 0.367920
vt 0.073880 0.004208
vt 0.073890 0.367920
vt 0.059590 0.004208
vt 0.059600 0.367921
vt 0.931318 0.004209
vt 0.945598 0.367921
vt 0.931307 0.367920
vt 0.917028 0.004209
vt 0.917017 0.367920
vt 0.902737 0.004209
vt 0.902727 0.367920
vt 0.888446 0.004208
vt 0.888437 0.367919
vt 0.874156 0.004208
vt 0.874147 0.367919
vt 0.859865 0.004207
vt 0.859856 0.367919
vt 0.845574 0.004207
vt 0.845566 0.367918
vt 0.831284 0.004207
vt 0.831276 0.367918
vt 0.816993 0.004206
vt 0.816985 0.367918
vt 0.802703 0.004206
vt 0.802695 0.367918
vt 0.788412 0.004206
vt 0.788405 0.367917
vt 0.774122 0.004206
vt 0.774115 0.367917
vt 0.759831 0.004205
vt 0.759825 0.367917
vt 0.745540 0.004205
vt 0.745534 0.367917
vt 0.731249 0.004205
vt 0.731244 0.367916
vt 0.716959 0.004204
vt 0.716954 0.367916
vt 0.702668 0.004204
vt 0.702663 0.367916
vt 0.688378 0.004204
vt 0.688373 0.367916
vt 0.674087 0.004204
vt 0.674083 0.367915
vt 0.659796 0.004204
vt 0.659793 0.367915
vt 0.645506 0.004203
vt 0.645502 0.367915
vt 0.631215 0.004203
vt 0.631212 0.367915
vt 0.616925 0.004203
vt 0.616922 0.367915
vt 0.602634 0.004203
vt 0.602631 0.367915
vt 0.588343 0.004203
vt 0.588341 0.367915
vt 0.574053 0.004203
vt 0.574051 0.367915
vt 0.559762 0.004203
vt 0.559761 0.367915
vt 0.545471 0.004203
vt 0.545470 0.367915
vt 0.531181 0.004202
vt 0.531180 0.367914
vt 0.516890 0.004202
vt 0.516890 0.367915
vt 0.502600 0.004202
vt 0.502599 0.367915
vt 0.488309 0.004202
vt 0.488309 0.367915
vt 0.474018 0.004202
vt 0.474019 0.367915
vt 0.459728 0.004202
vt 0.459729 0.367915
vt 0.445437 0.004202
vt 0.445438 0.367915
vt 0.431146 0.004202
vt 0.431148 0.367915
vt 0.416856 0.004202
vt 0.416858 0.367915
vt 0.402565 0.004203
vt 0.402568 0.367915
vt 0.388275 0.004203
vt 0.388277 0.367915
vt 0.373984 0.004203
vt 0.373987 0.367915
vt 0.359693 0.004203
vt 0.359697 0.367915
vt 0.345403 0.004203
vt 0.345406 0.367915
vt 0.331112 0.004203
vt 0.331116 0.367915
vt 0.316821 0.004203
vt 0.316826 0.367916
vt 0.302531 0.004203
vt 0.302536 0.367916
vt 0.288240 0.004204
vt 0.288245 0.367916
vt 0.273949 0.004204
vt 0.273955 0.367916
vt 0.259659 0.004204
vt 0.259665 0.367916
vt 0.245368 0.004204
vt 0.245374 0.367917
vt 0.231077 0.004204
vt 0.231084 0.367917
vt 0.216787 0.004205
vt 0.216794 0.367917
vt 0.202496 0.004205
vt 0.202503 0.367918
vt 0.188206 0.004205
vt 0.188213 0.367918
vt 0.173915 0.004205
vt 0.945609 0.004210
vt 0.959888 0.367921
vt 0.959899 0.004210
vt 0.974177 0.367922
vt 0.045300 0.004208
vt 0.045310 0.367921
vt 0.031010 0.004209
vt 0.031021 0.367922
vt 0.016706 0.004209
vt 0.974188 0.004211
vt 0.988482 0.367922
vt 0.216325 0.925080
vt 0.216326 0.983304
vt 0.210619 0.983024
vt 0.204967 0.982186
vt 0.199425 0.980798
vt 0.194045 0.978873
vt 0.188880 0.976430
vt 0.183979 0.973493
vt 0.179390 0.970089
vt 0.175156 0.966252
vt 0.171319 0.962018
vt 0.167915 0.957429
vt 0.164978 0.952528
vt 0.162535 0.947363
vt 0.160610 0.941984
vt 0.159221 0.936441
vt 0.158383 0.930789
vt 0.158102 0.925083
vt 0.158383 0.919376
vt 0.159221 0.913724
vt 0.160609 0.908181
vt 0.162534 0.902801
vt 0.164977 0.897636
vt 0.167914 0.892735
vt 0.171318 0.888146
vt 0.175155 0.883912
vt 0.179388 0.880075
vt 0.183978 0.876671
vt 0.188878 0.873734
vt 0.194044 0.871291
vt 0.199423 0.869366
vt 0.204966 0.867978
vt 0.210617 0.867139
vt 0.216324 0.866859
vt 0.222031 0.867139
vt 0.227683 0.867977
vt 0.233226 0.869366
vt 0.238605 0.871290
vt 0.243771 0.873733
vt 0.248671 0.876670
vt 0.253261 0.880074
vt 0.257494 0.883911
vt 0.261332 0.888145
vt 0.264736 0.892734
vt 0.267673 0.897635
vt 0.270116 0.902800
vt 0.272041 0.908180
vt 0.273429 0.913722
vt 0.274268 0.919374
vt 0.274548 0.925081
vt 0.274268 0.930788
vt 0.273430 0.936440
vt 0.272041 0.941982
vt 0.270116 0.947362
vt 0.267674 0.952527
vt 0.264736 0.957428
vt 0.261333 0.962017
vt 0.257496 0.966251
vt 0.253262 0.970088
vt 0.248673 0.973492
vt 0.243772 0.976429
vt 0.238607 0.978872
vt 0.233227 0.980797
vt 0.227685 0.982185
vt 0.222033 0.983024
vt 0.134113 0.856844
vt 0.016716 0.367922
vt 0.988493 0.004211
s 1
usemtl M_ABCFireExtinguisher_A01_Decal
f 17/1/1 9/2/2 8/3/1
f 16/4/3 8/3/1 7/5/3
f 15/6/4 7/5/3 6/7/4
f 14/8/5 6/7/4 5/9/5
f 13/10/6 5/9/5 4/11/6
f 12/12/7 4/11/6 3/13/7
f 11/14/8 3/13/7 2/15/8
f 10/16/9 2/15/8 1/17/9
f 144/18/10 19/19/11 81/20/10
f 143/21/12 81/20/10 80/22/12
f 142/23/13 80/22/12 79/24/13
f 141/25/14 79/24/13 78/26/14
f 140/27/15 78/26/14 77/28/15
f 139/29/16 77/28/15 76/30/16
f 138/31/17 76/30/16 75/32/17
f 137/33/18 75/32/17 74/34/18
f 135/35/19 73/36/20 72/37/19
f 134/38/21 72/37/19 71/39/21
f 133/40/22 71/39/21 70/41/22
f 132/42/23 70/41/22 69/43/23
f 131/44/24 69/43/23 68/45/24
f 130/46/25 68/45/24 67/47/25
f 129/48/26 67/47/25 66/49/26
f 128/50/27 66/49/26 65/51/27
f 127/52/28 65/51/27 64/53/28
f 126/54/29 64/53/28 63/55/29
f 125/56/30 63/55/29 62/57/30
f 124/58/31 62/57/30 61/59/31
f 123/60/32 61/59/31 60/61/32
f 122/62/33 60/61/32 59/63/33
f 121/64/34 59/63/33 58/65/34
f 120/66/35 58/65/34 57/67/35
f 119/68/36 57/67/35 56/69/36
f 118/70/37 56/69/36 55/71/37
f 117/72/38 55/71/37 54/73/38
f 116/74/39 54/73/38 53/75/39
f 115/76/40 53/75/39 52/77/40
f 114/78/41 52/77/40 51/79/41
f 113/80/42 51/79/41 50/81/42
f 112/82/43 50/81/42 49/83/43
f 111/84/44 49/83/43 48/85/44
f 110/86/45 48/85/44 47/87/45
f 109/88/46 47/87/45 46/89/46
f 108/90/1 46/89/46 45/91/1
f 107/92/3 45/91/1 44/93/3
f 106/94/4 44/93/3 43/95/4
f 105/96/5 43/95/4 42/97/5
f 104/98/6 42/97/5 41/99/6
f 103/100/7 41/99/6 40/101/7
f 102/102/8 40/101/7 39/103/8
f 101/104/47 39/103/8 38/105/47
f 100/106/48 38/105/47 37/107/48
f 99/108/49 37/107/48 36/109/49
f 98/110/50 36/109/49 35/111/50
f 97/112/51 35/111/50 34/113/51
f 96/114/52 34/113/51 33/115/52
f 95/116/53 33/115/52 32/117/53
f 94/118/54 32/117/53 31/119/54
f 93/120/55 31/119/54 30/121/55
f 92/122/56 30/121/55 29/123/56
f 91/124/57 29/123/56 28/125/57
f 90/126/58 28/125/57 27/127/58
f 89/128/59 27/127/58 26/129/59
f 88/130/60 26/129/59 25/131/60
f 87/132/61 25/131/60 24/133/61
f 86/134/62 24/133/61 23/135/62
f 85/136/63 23/135/62 22/137/63
f 84/138/64 22/137/63 21/139/64
f 83/140/65 21/139/64 20/141/65
f 82/142/11 20/141/65 19/19/11
f 136/143/20 145/144/66 73/36/20
f 146/145/66 147/146/67 145/144/66
f 74/34/18 150/147/68 137/33/18
f 149/148/68 152/149/69 150/147/68
f 151/150/69 154/151/70 152/149/69
f 148/152/67 155/153/71 147/146/67
f 157/154/5 158/155/5 159/156/5
f 157/154/5 159/156/5 160/157/5
f 157/154/5 160/157/5 161/158/5
f 157/154/5 161/158/5 162/159/5
f 157/154/5 162/159/5 163/160/5
f 157/154/5 163/160/5 164/161/5
f 157/154/5 164/161/5 165/162/5
f 157/154/5 165/162/5 166/163/5
f 157/154/5 166/163/5 167/164/5
f 157/154/5 167/164/5 168/165/5
f 157/154/5 168/165/5 169/166/5
f 157/154/5 169/166/5 170/167/5
f 157/154/5 170/167/5 171/168/5
f 157/154/5 171/168/5 172/169/5
f 157/154/5 172/169/5 173/170/5
f 157/154/5 173/170/5 174/171/5
f 157/154/5 174/171/5 175/172/5
f 157/154/5 175/172/5 176/173/5
f 157/154/5 176/173/5 177/174/5
f 157/154/5 177/174/5 178/175/5
f 157/154/5 178/175/5 179/176/5
f 157/154/5 179/176/5 180/177/5
f 157/154/5 180/177/5 181/178/5
f 157/154/5 181/178/5 182/179/5
f 157/154/5 182/179/5 183/180/5
f 157/154/5 183/180/5 184/181/5
f 157/154/5 184/181/5 185/182/5
f 157/154/5 185/182/5 186/183/5
f 157/154/5 186/183/5 187/184/5
f 157/154/5 187/184/5 188/185/5
f 157/154/5 188/185/5 189/186/5
f 157/154/5 189/186/5 190/187/5
f 157/154/5 190/187/5 191/188/5
f 157/154/5 191/188/5 192/189/5
f 157/154/5 192/189/5 193/190/5
f 157/154/5 193/190/5 194/191/5
f 157/154/5 194/191/5 195/192/5
f 157/154/5 195/192/5 196/193/5
f 157/154/5 196/193/5 197/194/5
f 157/154/5 197/194/5 198/195/5
f 157/154/5 198/195/5 199/196/5
f 157/154/5 199/196/5 200/197/5
f 157/154/5 200/197/5 201/198/5
f 157/154/5 201/198/5 202/199/5
f 157/154/5 202/199/5 203/200/5
f 157/154/5 203/200/5 204/201/5
f 157/154/5 204/201/5 205/202/5
f 157/154/5 205/202/5 206/203/5
f 157/154/5 206/203/5 207/204/5
f 157/154/5 207/204/5 208/205/5
f 157/154/5 208/205/5 209/206/5
f 157/154/5 209/206/5 210/207/5
f 157/154/5 210/207/5 211/208/5
f 157/154/5 211/208/5 212/209/5
f 157/154/5 212/209/5 213/210/5
f 157/154/5 213/210/5 214/211/5
f 157/154/5 214/211/5 215/212/5
f 157/154/5 215/212/5 216/213/5
f 157/154/5 216/213/5 217/214/5
f 157/154/5 217/214/5 218/215/5
f 157/154/5 218/215/5 219/216/5
f 157/154/5 219/216/5 220/217/5
f 157/154/5 220/217/5 221/218/5
f 157/154/5 221/218/5 158/155/5
f 17/1/1 18/219/2 9/2/2
f 16/4/3 17/1/1 8/3/1
f 15/6/4 16/4/3 7/5/3
f 14/8/5 15/6/4 6/7/4
f 13/10/6 14/8/5 5/9/5
f 12/12/7 13/10/6 4/11/6
f 11/14/8 12/12/7 3/13/7
f 10/16/9 11/14/8 2/15/8
f 144/18/10 82/142/11 19/19/11
f 143/21/12 144/18/10 81/20/10
f 142/23/13 143/21/12 80/22/12
f 141/25/14 142/23/13 79/24/13
f 140/27/15 141/25/14 78/26/14
f 139/29/16 140/27/15 77/28/15
f 138/31/17 139/29/16 76/30/16
f 137/33/18 138/31/17 75/32/17
f 135/35/19 136/143/20 73/36/20
f 134/38/21 135/35/19 72/37/19
f 133/40/22 134/38/21 71/39/21
f 132/42/23 133/40/22 70/41/22
f 131/44/24 132/42/23 69/43/23
f 130/46/25 131/44/24 68/45/24
f 129/48/26 130/46/25 67/47/25
f 128/50/27 129/48/26 66/49/26
f 127/52/28 128/50/27 65/51/27
f 126/54/29 127/52/28 64/53/28
f 125/56/30 126/54/29 63/55/29
f 124/58/31 125/56/30 62/57/30
f 123/60/32 124/58/31 61/59/31
f 122/62/33 123/60/32 60/61/32
f 121/64/34 122/62/33 59/63/33
f 120/66/35 121/64/34 58/65/34
f 119/68/36 120/66/35 57/67/35
f 118/70/37 119/68/36 56/69/36
f 117/72/38 118/70/37 55/71/37
f 116/74/39 117/72/38 54/73/38
f 115/76/40 116/74/39 53/75/39
f 114/78/41 115/76/40 52/77/40
f 113/80/42 114/78/41 51/79/41
f 112/82/43 113/80/42 50/81/42
f 111/84/44 112/82/43 49/83/43
f 110/86/45 111/84/44 48/85/44
f 109/88/46 110/86/45 47/87/45
f 108/90/1 109/88/46 46/89/46
f 107/92/3 108/90/1 45/91/1
f 106/94/4 107/92/3 44/93/3
f 105/96/5 106/94/4 43/95/4
f 104/98/6 105/96/5 42/97/5
f 103/100/7 104/98/6 41/99/6
f 102/102/8 103/100/7 40/101/7
f 101/104/47 102/102/8 39/103/8
f 100/106/48 101/104/47 38/105/47
f 99/108/49 100/106/48 37/107/48
f 98/110/50 99/108/49 36/109/49
f 97/112/51 98/110/50 35/111/50
f 96/114/52 97/112/51 34/113/51
f 95/116/53 96/114/52 33/115/52
f 94/118/54 95/116/53 32/117/53
f 93/120/55 94/118/54 31/119/54
f 92/122/56 93/120/55 30/121/55
f 91/124/57 92/122/56 29/123/56
f 90/126/58 91/124/57 28/125/57
f 89/128/59 90/126/58 27/127/58
f 88/130/60 89/128/59 26/129/59
f 87/132/61 88/130/60 25/131/60
f 86/134/62 87/132/61 24/133/61
f 85/136/63 86/134/62 23/135/62
f 84/138/64 85/136/63 22/137/63
f 83/140/65 84/138/64 21/139/64
f 82/142/11 83/140/65 20/141/65
f 136/143/20 146/145/66 145/144/66
f 146/145/66 148/152/67 147/146/67
f 74/34/18 149/148/68 150/147/68
f 149/148/68 151/150/69 152/149/69
f 151/150/69 153/220/70 154/151/70
f 148/152/67 156/221/71 155/153/71
