# Blender 4.2.0
# www.blender.org
mtllib SM_FlatBox_A11_Decal_01.mtl
o SM_FlatBox_A11_Decal_01
v -0.009416 -0.024243 0.017500
v -0.009016 0.024666 0.017386
v -0.009532 -0.024684 0.000036
v -0.009035 0.024684 0.000105
v -0.009246 -0.018543 0.017440
v -0.009411 -0.017651 0.000000
v -0.009197 -0.012994 0.017416
v -0.009373 -0.013606 0.000136
v -0.009148 -0.007557 0.017404
v -0.009324 -0.008122 0.000132
v -0.009100 -0.002161 0.017393
v -0.009275 -0.002642 0.000127
v -0.009052 0.003231 0.017383
v -0.009226 0.002834 0.000123
v -0.009013 0.008610 0.017375
v -0.009177 0.008304 0.000118
v -0.009014 0.013960 0.017379
v -0.009128 0.013770 0.000114
v -0.009015 0.019312 0.017383
v -0.009080 0.019230 0.000109
v -0.009447 -0.024419 0.011730
v -0.009305 -0.018723 0.011690
v -0.009256 -0.013235 0.011670
v -0.009208 -0.007848 0.011669
v -0.009159 -0.002444 0.011661
v -0.009111 0.002957 0.011653
v -0.009063 0.008353 0.011644
v -0.009020 0.013741 0.011638
v -0.009021 0.019098 0.011641
v -0.009022 0.024458 0.011643
v -0.009479 -0.024591 0.005951
v -0.009364 -0.019011 0.005932
v -0.009316 -0.013531 0.005915
v -0.009267 -0.008116 0.005909
v -0.009219 -0.002704 0.005903
v -0.009170 0.002716 0.005897
v -0.009121 0.008182 0.005890
v -0.009072 0.013643 0.005883
v -0.009027 0.019097 0.005877
v -0.009028 0.024521 0.005877
v 0.009021 -0.010395 0.104243
v 0.009532 -0.024661 0.104238
v -0.004224 -0.010338 0.104149
v -0.002986 -0.024584 0.104138
v 0.009026 -0.017138 0.104235
v -0.004065 -0.017061 0.104130
v 0.009463 -0.020896 0.104239
v -0.002987 -0.020825 0.104139
vn -0.9998 0.0189 0.0103
vn -0.9998 0.0192 0.0033
vn -0.9998 0.0175 0.0110
vn -0.9999 0.0090 0.0099
vn -0.9999 0.0085 0.0095
vn -0.9999 0.0088 0.0097
vn -1.0000 0.0032 0.0062
vn -1.0000 0.0066 0.0071
vn -1.0000 0.0019 0.0032
vn -0.9996 0.0263 0.0080
vn -0.9996 0.0275 0.0070
vn -0.9995 0.0299 0.0092
vn -0.9999 0.0083 0.0092
vn -1.0000 0.0054 0.0064
vn -1.0000 0.0039 0.0049
vn -1.0000 -0.0001 0.0011
vn -0.9997 0.0240 0.0059
vn -0.0080 -0.0002 1.0000
vn -0.0079 -0.0004 1.0000
vn -0.0080 -0.0001 1.0000
vn -0.0074 -0.0024 1.0000
vn -0.0078 -0.0017 1.0000
vn -0.0071 -0.0030 1.0000
vn -0.9998 0.0206 0.0068
vn -1.0000 0.0083 0.0013
vn -0.0079 -0.0005 1.0000
vn -0.0080 -0.0011 1.0000
vt 0.701727 0.299664
vt 0.660314 0.342045
vt 0.660314 0.299664
vt 0.625143 0.342045
vt 0.625143 0.299664
vt 0.585856 0.299664
vt 0.585856 0.342045
vt 0.555389 0.439763
vt 0.515158 0.483336
vt 0.514468 0.439763
vt 0.474060 0.483784
vt 0.473160 0.439763
vt 0.431872 0.484002
vt 0.431872 0.439763
vt 0.411385 0.450336
vt 0.373729 0.490832
vt 0.372941 0.450336
vt 0.335575 0.490862
vt 0.334818 0.450336
vt 0.297277 0.490635
vt 0.660314 0.383921
vt 0.701727 0.425722
vt 0.660314 0.425722
vt 0.625143 0.383921
vt 0.625143 0.425722
vt 0.585856 0.383921
vt 0.585856 0.425722
vt 0.514179 0.527125
vt 0.555389 0.571180
vt 0.512869 0.571180
vt 0.473035 0.527735
vt 0.471706 0.571180
vt 0.431872 0.528553
vt 0.431872 0.571180
vt 0.373562 0.531344
vt 0.411385 0.572003
vt 0.372611 0.572003
vt 0.335652 0.531511
vt 0.334628 0.572003
vt 0.297277 0.531751
vt 0.297277 0.572003
vt 0.701727 0.383921
vt 0.555389 0.526036
vt 0.411385 0.530692
vt 0.237254 0.148930
vt 0.345633 0.181491
vt 0.237285 0.181478
vt 0.763180 0.221181
vt 0.861277 0.271388
vt 0.762146 0.271382
vt 0.701727 0.342045
vt 0.555389 0.482761
vt 0.411385 0.490764
vt 0.297277 0.450336
vt 0.346191 0.148918
vt 0.861230 0.221160
s 1
usemtl M_FlatBox_Decal_01_002
f 3/1/1 32/2/2 6/3/3
f 6/3/3 33/4/4 8/5/4
f 10/6/4 33/4/4 34/7/4
f 10/8/4 35/9/4 12/10/4
f 12/10/4 36/11/4 14/12/4
f 14/12/4 37/13/4 16/14/4
f 16/15/4 38/16/5 18/17/6
f 18/17/6 39/18/7 20/19/8
f 40/20/9 20/19/8 39/18/7
f 22/21/10 1/22/11 5/23/12
f 23/24/4 5/23/4 7/25/4
f 24/26/4 7/25/4 9/27/4
f 25/28/4 9/29/4 11/30/4
f 26/31/4 11/30/4 13/32/5
f 27/33/13 13/32/5 15/34/14
f 28/35/15 15/36/14 17/37/16
f 29/38/16 17/37/16 19/39/16
f 30/40/16 19/39/16 2/41/16
f 32/2/2 21/42/17 22/21/10
f 33/4/4 22/21/4 23/24/4
f 34/7/4 23/24/4 24/26/4
f 35/9/4 24/43/4 25/28/4
f 36/11/4 25/28/4 26/31/4
f 37/13/4 26/31/4 27/33/13
f 38/16/5 27/44/13 28/35/15
f 39/18/7 28/35/15 29/38/16
f 30/40/16 39/18/7 29/38/16
f 44/45/18 47/46/19 48/47/20
f 46/48/21 41/49/22 43/50/23
f 3/1/1 31/51/24 32/2/2
f 6/3/3 32/2/2 33/4/4
f 10/6/4 8/5/4 33/4/4
f 10/8/4 34/52/4 35/9/4
f 12/10/4 35/9/4 36/11/4
f 14/12/4 36/11/4 37/13/4
f 16/15/4 37/53/4 38/16/5
f 18/17/6 38/16/5 39/18/7
f 40/20/9 4/54/25 20/19/8
f 22/21/10 21/42/17 1/22/11
f 23/24/4 22/21/4 5/23/4
f 24/26/4 23/24/4 7/25/4
f 25/28/4 24/43/4 9/29/4
f 26/31/4 25/28/4 11/30/4
f 27/33/13 26/31/4 13/32/5
f 28/35/15 27/44/13 15/36/14
f 29/38/16 28/35/15 17/37/16
f 30/40/16 29/38/16 19/39/16
f 32/2/2 31/51/24 21/42/17
f 33/4/4 32/2/2 22/21/4
f 34/7/4 33/4/4 23/24/4
f 35/9/4 34/52/4 24/43/4
f 36/11/4 35/9/4 25/28/4
f 37/13/4 36/11/4 26/31/4
f 38/16/5 37/53/4 27/44/13
f 39/18/7 38/16/5 28/35/15
f 30/40/16 40/20/9 39/18/7
f 44/45/18 42/55/26 47/46/19
f 46/48/21 45/56/27 41/49/22
