# Blender 4.2.0
# www.blender.org
mtllib SM_MultiDepthBox_A06_Decal_01.mtl
o SM_MultiDepthBox_A06_Decal_01
v 0.214290 -0.260342 0.017401
v 0.214290 -0.245738 0.017169
v 0.214290 -0.231191 0.017150
v 0.214290 -0.216699 0.017787
v 0.214290 -0.260342 0.036307
v 0.214290 -0.245795 0.036307
v 0.214290 -0.231247 0.036306
v 0.214290 -0.216492 0.036392
v 0.214290 -0.260342 0.055213
v 0.214290 -0.245795 0.055213
v 0.214290 -0.231247 0.055213
v 0.214290 -0.216479 0.055297
v 0.214290 -0.260541 0.074252
v 0.214290 -0.245795 0.074120
v 0.214290 -0.231247 0.074119
v 0.214290 -0.216945 0.074338
v 0.214290 -0.171539 0.017782
v 0.214290 -0.156999 0.017810
v 0.214290 -0.142444 0.017783
v 0.214290 -0.127896 0.017784
v 0.214290 -0.171471 0.036026
v 0.214290 -0.156917 0.035999
v 0.214290 -0.142363 0.035973
v 0.214290 -0.127601 0.036031
v 0.214290 -0.171407 0.055521
v 0.214290 -0.156924 0.055936
v 0.214290 -0.142387 0.055999
v 0.214290 -0.127616 0.056126
v 0.214290 -0.171566 0.074654
v 0.214290 -0.156797 0.074575
v 0.214290 -0.142227 0.074629
v 0.214290 -0.128092 0.074392
v 0.214290 -0.216042 0.017773
v 0.214290 -0.201502 0.017807
v 0.214290 -0.186947 0.017778
v 0.214290 -0.172398 0.017765
v 0.214290 -0.216041 0.036307
v 0.214290 -0.201441 0.036088
v 0.214290 -0.186886 0.036061
v 0.214290 -0.172124 0.036119
v 0.214290 -0.216042 0.055213
v 0.214290 -0.201494 0.055213
v 0.214290 -0.186841 0.055460
v 0.214290 -0.172050 0.055597
v 0.214290 -0.216139 0.074487
v 0.214290 -0.201371 0.074408
v 0.214290 -0.186800 0.074461
v 0.214290 -0.172614 0.074362
v 0.190485 -0.255206 0.305936
v 0.190077 -0.240777 0.305665
v 0.189875 -0.226283 0.305388
v 0.190412 -0.211675 0.305091
v 0.170484 -0.255228 0.305974
v 0.170525 -0.240610 0.306140
v 0.170337 -0.226149 0.305864
v 0.170256 -0.211353 0.305578
v 0.150277 -0.255516 0.305967
v 0.150486 -0.240663 0.306320
v 0.150552 -0.226024 0.306345
v 0.150244 -0.211361 0.306068
v 0.130130 -0.255715 0.305962
v 0.130438 -0.240718 0.306318
v 0.130489 -0.226097 0.306665
v 0.130842 -0.211880 0.306553
vn 1.0000 -0.0000 -0.0000
vn 0.0236 0.0191 0.9995
vn 0.0010 -0.0207 0.9998
vn 0.0114 0.0283 0.9995
vn 0.0245 0.0194 0.9995
vn 0.0270 0.0162 0.9995
vn 0.0241 0.0193 0.9995
vn 0.0001 -0.0211 0.9998
vn -0.0023 -0.0260 0.9997
vn 0.0290 0.0170 0.9994
vn -0.0042 -0.0278 0.9996
vn -0.0000 -0.0237 0.9997
vn -0.0038 -0.0223 0.9997
vn 0.0239 0.0169 0.9996
vn 0.0266 0.0216 0.9994
vt 0.296985 0.437724
vt 0.343290 0.480537
vt 0.300556 0.480538
vt 0.339730 0.437724
vt 0.386047 0.480537
vt 0.425267 0.437722
vt 0.382489 0.437723
vt 0.305277 0.523366
vt 0.390758 0.523365
vt 0.348003 0.523366
vt 0.428845 0.480540
vt 0.353528 0.566205
vt 0.310797 0.566213
vt 0.396283 0.566204
vt 0.439157 0.566218
vt 0.622077 0.295290
vt 0.579310 0.338058
vt 0.579309 0.295291
vt 0.664844 0.295290
vt 0.622077 0.338058
vt 0.707611 0.295289
vt 0.664845 0.338057
vt 0.579532 0.380828
vt 0.622300 0.380828
vt 0.707626 0.338061
vt 0.665068 0.380828
vt 0.581151 0.423624
vt 0.623931 0.423616
vt 0.709548 0.423629
vt 0.666698 0.423616
vt 0.441061 0.296439
vt 0.483829 0.339206
vt 0.441062 0.339206
vt 0.526595 0.296438
vt 0.483828 0.296439
vt 0.569363 0.296437
vt 0.526596 0.339206
vt 0.484075 0.381977
vt 0.441321 0.381977
vt 0.569377 0.339209
vt 0.526842 0.381976
vt 0.485747 0.424765
vt 0.443004 0.424774
vt 0.571363 0.424778
vt 0.528513 0.424765
vt 0.352207 0.057456
vt 0.313590 0.018454
vt 0.352399 0.018646
vt 0.352014 0.096265
vt 0.313397 0.057263
vt 0.313009 0.134895
vt 0.313205 0.096073
vt 0.274588 0.057071
vt 0.274780 0.018262
vt 0.274395 0.095881
vt 0.235779 0.056878
vt 0.235964 0.018058
vt 0.235586 0.095688
vt 0.235381 0.134571
vt 0.433591 0.523378
vt 0.707880 0.380840
vt 0.569654 0.381989
vt 0.351823 0.135074
vt 0.274191 0.134730
s 1
usemtl M_MultiDepthBox_Decal_01_002
f 1/1/1 6/2/1 5/3/1
f 2/4/1 7/5/1 6/2/1
f 4/6/1 7/5/1 3/7/1
f 6/2/1 9/8/1 5/3/1
f 6/2/1 11/9/1 10/10/1
f 8/11/1 11/9/1 7/5/1
f 9/8/1 14/12/1 13/13/1
f 10/10/1 15/14/1 14/12/1
f 11/9/1 16/15/1 15/14/1
f 18/16/1 21/17/1 17/18/1
f 19/19/1 22/20/1 18/16/1
f 20/21/1 23/22/1 19/19/1
f 22/20/1 25/23/1 21/17/1
f 23/22/1 26/24/1 22/20/1
f 24/25/1 27/26/1 23/22/1
f 26/24/1 29/27/1 25/23/1
f 27/26/1 30/28/1 26/24/1
f 27/26/1 32/29/1 31/30/1
f 33/31/1 38/32/1 37/33/1
f 35/34/1 38/32/1 34/35/1
f 36/36/1 39/37/1 35/34/1
f 37/33/1 42/38/1 41/39/1
f 39/37/1 42/38/1 38/32/1
f 40/40/1 43/41/1 39/37/1
f 41/39/1 46/42/1 45/43/1
f 43/41/1 46/42/1 42/38/1
f 43/41/1 48/44/1 47/45/1
f 50/46/2 53/47/3 49/48/4
f 51/49/5 54/50/6 50/46/2
f 51/49/5 56/51/5 55/52/7
f 53/47/3 58/53/8 57/54/9
f 55/52/7 58/53/8 54/50/6
f 56/51/5 59/55/10 55/52/7
f 57/54/9 62/56/11 61/57/12
f 58/53/8 63/58/13 62/56/11
f 59/55/10 64/59/14 63/58/13
f 1/1/1 2/4/1 6/2/1
f 2/4/1 3/7/1 7/5/1
f 4/6/1 8/11/1 7/5/1
f 6/2/1 10/10/1 9/8/1
f 6/2/1 7/5/1 11/9/1
f 8/11/1 12/60/1 11/9/1
f 9/8/1 10/10/1 14/12/1
f 10/10/1 11/9/1 15/14/1
f 11/9/1 12/60/1 16/15/1
f 18/16/1 22/20/1 21/17/1
f 19/19/1 23/22/1 22/20/1
f 20/21/1 24/25/1 23/22/1
f 22/20/1 26/24/1 25/23/1
f 23/22/1 27/26/1 26/24/1
f 24/25/1 28/61/1 27/26/1
f 26/24/1 30/28/1 29/27/1
f 27/26/1 31/30/1 30/28/1
f 27/26/1 28/61/1 32/29/1
f 33/31/1 34/35/1 38/32/1
f 35/34/1 39/37/1 38/32/1
f 36/36/1 40/40/1 39/37/1
f 37/33/1 38/32/1 42/38/1
f 39/37/1 43/41/1 42/38/1
f 40/40/1 44/62/1 43/41/1
f 41/39/1 42/38/1 46/42/1
f 43/41/1 47/45/1 46/42/1
f 43/41/1 44/62/1 48/44/1
f 50/46/2 54/50/6 53/47/3
f 51/49/5 55/52/7 54/50/6
f 51/49/5 52/63/5 56/51/5
f 53/47/3 54/50/6 58/53/8
f 55/52/7 59/55/10 58/53/8
f 56/51/5 60/64/15 59/55/10
f 57/54/9 58/53/8 62/56/11
f 58/53/8 59/55/10 63/58/13
f 59/55/10 60/64/15 64/59/14
