# Blender 4.2.0
# www.blender.org
mtllib SM_PrintersBox_A01_Decal_01.mtl
o SM_PrintersBox_A01_Decal_01
v -0.043754 -0.149532 0.254056
v -0.043754 -0.096173 0.254056
v -0.111011 -0.096173 0.253317
v -0.111011 -0.149532 0.253317
v 0.138097 0.241423 0.038990
v 0.138158 0.145760 0.039079
v 0.137886 0.241271 0.012783
v 0.137944 0.146994 0.012732
v 0.137908 0.206189 0.012831
v 0.138120 0.205904 0.039066
v 0.137926 0.177463 0.012782
v 0.138138 0.177131 0.039069
v 0.126816 0.130237 0.254282
v 0.105589 0.219492 0.254426
v 0.017820 0.192223 0.254837
v 0.039046 0.102968 0.254750
v 0.138301 -0.234392 0.243730
v 0.138301 -0.234392 0.217387
v 0.138364 -0.181861 0.217393
v 0.138365 -0.182041 0.243730
v 0.138233 -0.211956 0.217387
v 0.138233 -0.211956 0.243730
v 0.138301 -0.234392 0.191044
v 0.138364 -0.181681 0.191056
v 0.138233 -0.211956 0.191044
v 0.130140 -0.230535 0.254418
v 0.136631 -0.068014 0.254418
v 0.021601 -0.062371 0.254418
v 0.015091 -0.224983 0.254418
v 0.018365 -0.143005 0.254418
v 0.131259 -0.149011 0.254418
v 0.016275 -0.195336 0.254418
v 0.130506 -0.200888 0.254418
v 0.019482 -0.115417 0.254418
v 0.133252 -0.121061 0.254418
v 0.036728 -0.226112 0.254418
v 0.037912 -0.196465 0.254418
v 0.040002 -0.144133 0.254418
v 0.041118 -0.118519 0.254418
v 0.043237 -0.065472 0.254418
v 0.079076 -0.067341 0.254418
v 0.076957 -0.120388 0.254418
v 0.075841 -0.146003 0.254418
v 0.073751 -0.195269 0.254418
v 0.072567 -0.224916 0.254418
v 0.114416 -0.066855 0.254418
v 0.111037 -0.119902 0.254418
v 0.109044 -0.147852 0.254418
v 0.108291 -0.197694 0.254418
v 0.107925 -0.227341 0.254418
v -0.068981 -0.233311 0.253730
v -0.061697 -0.159750 0.253887
v -0.118306 -0.152428 0.253168
v -0.125590 -0.225989 0.253088
v 0.138301 -0.234392 0.191044
v 0.138301 -0.234392 0.163200
v 0.138364 -0.181681 0.163200
v 0.138364 -0.181681 0.191044
vn -0.0110 -0.0000 0.9999
vn 1.0000 0.0006 -0.0081
vn 0.0050 -0.0001 1.0000
vn 0.0046 0.0001 1.0000
vn 1.0000 -0.0007 -0.0000
vn 1.0000 -0.0044 -0.0000
vn 1.0000 0.0030 -0.0000
vn 1.0000 -0.0011 -0.0000
vn -0.0000 -0.0000 1.0000
vn -0.0122 -0.0003 0.9999
vn -0.0120 -0.0005 0.9999
vn -0.0115 -0.0010 0.9999
vn 1.0000 -0.0012 -0.0000
vn 0.0054 -0.0003 1.0000
vn 1.0000 -0.0043 -0.0001
vn -0.0127 0.0002 0.9999
vt 0.979383 0.004546
vt 0.760238 0.156823
vt 0.760113 0.004635
vt 0.014895 0.455678
vt 0.125729 0.570533
vt 0.014895 0.570533
vt 0.298375 0.443801
vt 0.416954 0.557625
vt 0.298375 0.557625
vt 0.155542 0.309953
vt 0.292058 0.426475
vt 0.155542 0.426475
vt 0.464937 0.012463
vt 0.605177 0.012469
vt 0.605174 0.137247
vt 0.302072 0.565879
vt 0.417229 0.680736
vt 0.302759 0.680756
vt 0.108084 0.574992
vt 0.023280 0.688815
vt 0.023280 0.574990
vt 0.580073 0.434579
vt 0.695229 0.549436
vt 0.580759 0.549456
vt 0.826746 0.297455
vt 0.741941 0.411278
vt 0.741941 0.297453
vt 0.210329 0.006882
vt 0.229887 0.048687
vt 0.210331 0.048800
vt 0.210332 0.070897
vt 0.229884 0.112271
vt 0.210333 0.112272
vt 0.229884 0.135711
vt 0.210314 0.136136
vt 0.229879 0.070987
vt 0.125850 0.112353
vt 0.145918 0.135343
vt 0.125842 0.135733
vt 0.126261 0.070879
vt 0.145912 0.112273
vt 0.145911 0.048800
vt 0.125776 0.048798
vt 0.145811 0.006841
vt 0.125818 0.006859
vt 0.178054 0.006874
vt 0.177946 0.048800
vt 0.177947 0.070897
vt 0.177948 0.112272
vt 0.177950 0.135005
vt 0.145911 0.070898
vt 0.239935 0.016263
vt 0.346738 0.137663
vt 0.239949 0.137674
vt 0.734055 0.139679
vt 0.543108 0.255173
vt 0.543014 0.139835
vt 0.464934 0.137242
vt 0.979507 0.156734
vt 0.125729 0.455678
vt 0.416954 0.443801
vt 0.292058 0.309953
vt 0.417573 0.565897
vt 0.108084 0.688814
vt 0.695573 0.434597
vt 0.826746 0.411277
vt 0.229881 0.006866
vt 0.346725 0.016253
vt 0.734149 0.255017
s 1
usemtl M_PrintersBox_Decal_01_001
f 3/1/1 1/2/1 2/3/1
f 11/4/2 10/5/2 12/6/2
f 8/7/2 12/8/2 6/9/2
f 9/10/2 5/11/2 10/12/2
f 14/13/3 15/14/4 16/15/3
f 21/16/5 20/17/6 22/18/5
f 21/19/5 17/20/7 18/21/7
f 25/22/8 19/23/6 21/24/5
f 25/25/8 18/26/7 23/27/7
f 40/28/9 34/29/9 39/30/9
f 38/31/9 32/32/9 37/33/9
f 37/33/9 29/34/9 36/35/9
f 39/30/9 30/36/9 38/31/9
f 33/37/9 50/38/9 26/39/9
f 31/40/9 49/41/9 33/37/9
f 47/42/9 31/40/9 35/43/9
f 46/44/9 35/43/9 27/45/9
f 41/46/9 39/30/9 42/47/9
f 42/47/9 38/31/9 43/48/9
f 44/49/9 38/31/9 37/33/9
f 45/50/9 37/33/9 36/35/9
f 47/42/9 41/46/9 42/47/9
f 48/51/9 42/47/9 43/48/9
f 48/51/9 44/49/9 49/41/9
f 49/41/9 45/50/9 50/38/9
f 52/52/10 54/53/11 51/54/12
f 57/55/13 55/56/13 56/57/13
f 14/13/3 16/15/3 13/58/14
f 3/1/1 4/59/1 1/2/1
f 11/4/2 9/60/2 10/5/2
f 8/7/2 11/61/2 12/8/2
f 9/10/2 7/62/2 5/11/2
f 21/16/5 19/63/6 20/17/6
f 21/19/5 22/64/5 17/20/7
f 25/22/8 24/65/15 19/23/6
f 25/25/8 21/66/5 18/26/7
f 40/28/9 28/67/9 34/29/9
f 38/31/9 30/36/9 32/32/9
f 37/33/9 32/32/9 29/34/9
f 39/30/9 34/29/9 30/36/9
f 33/37/9 49/41/9 50/38/9
f 31/40/9 48/51/9 49/41/9
f 47/42/9 48/51/9 31/40/9
f 46/44/9 47/42/9 35/43/9
f 41/46/9 40/28/9 39/30/9
f 42/47/9 39/30/9 38/31/9
f 44/49/9 43/48/9 38/31/9
f 45/50/9 44/49/9 37/33/9
f 47/42/9 46/44/9 41/46/9
f 48/51/9 47/42/9 42/47/9
f 48/51/9 43/48/9 44/49/9
f 49/41/9 44/49/9 45/50/9
f 52/52/10 53/68/16 54/53/11
f 57/55/13 58/69/13 55/56/13
